<?xml version="1.0" encoding="utf-8"?>
<!-- Generator: Adobe Illustrator 21.1.0, SVG Export Plug-In . SVG Version: 6.00 Build 0)  -->
<svg version="1.1" id="Layer_1" xmlns="http://www.w3.org/2000/svg" xmlns:xlink="http://www.w3.org/1999/xlink" x="0px" y="0px"
	 viewBox="0 0 433 454" style="enable-background:new 0 0 433 454;" xml:space="preserve">
<style type="text/css">
	.st0{fill:#B7B7B7;}
	.st1{fill:#979936;}
	.st2{fill:#798A25;}
	.st3{fill:#6C771E;}
	.st4{fill:#42210B;}
	.st5{fill:#AFAF54;}
</style>
<g>
	<ellipse class="st0" cx="216.1" cy="391.3" rx="162.5" ry="43.7"/>
	<g>
		<g>
			<path class="st1" d="M370.2,340c-0.8,3.6-1.9,6.9-3.3,9.9c-0.2,0.4-0.3,0.7-0.5,1.1c-10.8,20.8-35.5,26.5-45.9,29.1
				c-14.1,3.5-185.9,35.3-247.1-12.9c-61.2-48.3,32.9-205.9,90.6-250.6c0,0-41.2-57.6-27.1-84.7c14.5-9,41.8-11.6,70.5-10.3
				c4.7,0.2,9.5,0.5,14.2,0.9c1.7,0.1,3.4,0.3,5,0.5c32.6,3.3,63.7,11,77.3,19.5c17.6,16.5-35.3,74.1-35.3,74.1
				s94.1,104.7,102.3,204.7C371.8,328.3,371.5,334.6,370.2,340z"/>
			<path class="st2" d="M370.2,340c-0.8,3.6-1.9,6.9-3.3,9.9c-0.2,0.4-0.3,0.7-0.5,1.1c-10.8,20.8-35.5,26.5-45.9,29.1
				c-14.1,3.5-185.9,35.3-247.1-12.9c-61.2-48.3,32.9-205.9,90.6-250.6c0,0-41.2-57.6-27.1-84.7c14.5-9,41.8-11.6,70.5-10.3
				c4.7,0.2,9.5,0.5,14.2,0.9c-5.9,10.7-17.9,34.7-15.9,49.2c2.6,19.1,21.7,60.8,20,64.3c-1.7,3.5-63.4,129.4-40,168.5
				C208.3,342,314.2,359.5,370.2,340z"/>
			<path class="st3" d="M366.9,349.9c-0.2,0.4-0.3,0.7-0.5,1.1c-10.8,20.8-35.5,26.5-45.9,29.1c-14.1,3.5-185.9,35.3-247.1-12.9
				c-61.2-48.3,32.9-205.9,90.6-250.6c0,0-41.2-57.6-27.1-84.7c14.5-9,41.8-11.6,70.5-10.3c-11.1,7.7-28,21.1-28.6,31
				c-0.9,14.8,18.2,71.2,18.2,71.2s-64.3,94.7-69.5,156.3c-5.2,61.7,25.2,80.8,75.6,84.2C251.8,367.7,307.7,375.1,366.9,349.9z"/>
			<path class="st4" d="M208.2,125.4c-0.2-2.9-1.9-4.9-4.6-5.8c-2.3-0.8-4.9-0.7-7.3-0.8c-2.2-0.1-4.3-0.1-6.5,0
				c-4.3,0.1-8.6-0.2-12.9-0.4c-3.1-0.1-5.6,2.8-5.5,5.7c0.1,3.3,2.7,5.3,5.7,5.5c4,0.3,8.3,0.5,12.1,1c4.7,0.7,10,1.7,14.6,0.6
				C206.3,130.8,208.3,127.9,208.2,125.4z"/>
			<path class="st4" d="M262.5,128.1c-0.4-7.2-10.9-4-15.3-3.8c-2.7,0.1-5.3-0.1-7.9-0.2c-1.2-0.1-2.3-0.1-3.4-0.4
				c-0.5-0.1-1.1-0.4-1.7-0.4c-0.1,0-0.2,0-0.2-0.1c-0.2-0.2-0.5-0.4-0.7-0.5c-3-2.5-7.6-1.9-9.1,2c-1.6,4,1.4,7.4,5.3,7.7
				c2.3,0.2,4.2,1.1,6.5,1.8c2.7,0.8,5.5,1.2,8.3,1.3c5.5,0.2,11.3-0.3,16-3.3C261.6,131.3,262.6,129.8,262.5,128.1z"/>
		</g>
		<path class="st5" d="M355,286.5c-2.8-22.6-15.8-46.2-27.3-65.5c-6.4-10.7-13.5-21.1-21-31c-7.9-10.4-18.7-20.2-24.9-31.7
			c-6.1-11.4-24.2,3.2-11.6,12c18.1,12.6,31.3,41.6,41.2,60.7c10.1,19.5,15.9,41.5,26.7,60.5C342.5,298.8,356.2,295.6,355,286.5z"/>
		<path class="st5" d="M285.4,55.5c-3.4-1.4-6.5,0.1-8.6,3c-5.1,6.8-8.8,15-12.7,22.5c-5,9.4,9.8,17.6,14.4,8.1
			c3.9-8.2,8.5-16.7,11.1-25.4C290.5,60.3,288.5,56.7,285.4,55.5z"/>
		<path class="st5" d="M175,95.8c-8.9-17.2-8.3-33.5-11-51.9c-1-6.5-11-5.6-12.4,0.1c-4.7,19.2,5.3,40.8,16.5,55.8
			C171.1,103.9,177.4,100.4,175,95.8z"/>
		<path class="st2" d="M115.9,351.9c-21-16.5-37.6-42.8-24.8-69.7c4.8-10.1-8.9-17.7-15-8.5c-11.5,17.2-16.8,36.5-9.7,56.5
			c6.8,19,21.4,32.8,41.3,36.3C115.3,367.9,123.4,357.7,115.9,351.9z"/>
	</g>
	<path class="st4" d="M171.9,260.7l0,10.7l16.8,0l0,30l11.7,0l0-30l28.4,0l20.1,30h12.5l0-30h16.8v-10.7l-16.8,0l0-8l16.8,0V242
		l-16.8,0l0-32.8l-11.7,0l0,32.8l-26.5,0l-21.9-32.8l-12.5,0l0,32.8l-16.8,0l0,10.7l16.8,0l0,8L171.9,260.7z M249.6,281.7l-6.9-10.3
		l6.9,0V281.7z M249.6,252.8l0,8l-14,0l-5.3-8H249.6z M200.4,229.1l8.7,13l-8.7,0L200.4,229.1z M200.4,252.8l15.9,0l5.3,8l-21.2,0
		L200.4,252.8z"/>
</g>
</svg>
