<?xml version="1.0" encoding="utf-8"?>
<!-- Generator: Adobe Illustrator 21.1.0, SVG Export Plug-In . SVG Version: 6.00 Build 0)  -->
<svg version="1.1" id="Layer_1" xmlns="http://www.w3.org/2000/svg" xmlns:xlink="http://www.w3.org/1999/xlink" x="0px" y="0px"
	 viewBox="0 0 172 137" style="enable-background:new 0 0 172 137;" xml:space="preserve">
<style type="text/css">
	.st0{display:none;fill:#59B2B2;}
	.st1{fill:#788C94;}
	.st2{fill:#647C87;}
	.st3{fill:#9BABB0;}
	.st4{opacity:0.4;}
	.st5{fill:#231F20;}
	.st6{opacity:0.2;}
	.st7{enable-background:new    ;}
	.st8{fill:#D0ECF9;}
	.st9{fill:#15C3CE;}
	.st10{fill:#98A6D7;}
	.st11{fill:#496065;}
	.st12{fill:#354F4C;}
	.st13{fill:#86ABA1;}
	.st14{fill:#AAAC7A;}
	.st15{fill:#ADE0D6;}
	.st16{fill:#828568;}
	.st17{fill:#F1E9DE;}
	.st18{fill:#8BA7B5;}
	.st19{fill:#BCB1AF;}
	.st20{fill:#FFFFFF;}
	.st21{fill:#FFC093;}
	.st22{fill:#D4725F;}
	.st23{fill:#88373C;}
	.st24{fill:#D7EBF4;}
	.st25{fill:#FEBD85;}
	.st26{fill:#F9FFFF;}
	.st27{fill:#F5B987;}
	.st28{fill:#A8451C;}
	.st29{fill:#027D4F;}
	.st30{fill:#0F915C;}
	.st31{fill:#006838;}
	.st32{opacity:0.3;fill:#22BF88;}
	.st33{opacity:0.3;}
	.st34{fill:#22BF88;}
	.st35{fill:#036033;}
</style>
<rect x="-172" y="-317" class="st0" width="600" height="600"/>
<g>
	<g>
		<polygon class="st1" points="86,84.6 86,135.7 172.1,86 172.1,84.6 		"/>
		<polygon class="st2" points="-0.1,84.6 -0.1,86 86,135.7 86,84.6 		"/>
		<path class="st3" d="M86,34.9L23.8,70.8L6.8,80.7l-6.9,4l7.3,4.2l27.1,15.6L42,109l6.2,3.6L80,130.9l1.8,1.1l4.2,2.4l86-49.7
			L86,34.9z"/>
	</g>
	<g class="st4">
		<path class="st5" d="M94.5,66.1c0.1,0.1,0.1,0.2,0,0.2L86,71c-0.1,0.1-0.3,0.1-0.4,0L62.6,57.8c-0.1-0.1-0.1-0.2,0-0.2l8.5-4.6
			c0.1-0.1,0.3-0.1,0.4,0L94.5,66.1z"/>
		<g class="st4">
			<path class="st5" d="M71.3,52.8l23.3,13.4l-8.9,4.9L62.4,57.6L71.3,52.8L71.3,52.8z M71.3,52.3c-0.1,0-0.2,0-0.2,0.1l-8.9,4.9
				c-0.2,0.1-0.3,0.2-0.3,0.4s0.1,0.3,0.2,0.4l23.4,13.4c0.1,0,0.2,0.1,0.2,0.1c0.1,0,0.2,0,0.2-0.1l8.9-4.9
				c0.2-0.1,0.3-0.2,0.3-0.4c0-0.2-0.1-0.3-0.2-0.4L71.6,52.3C71.5,52.3,71.4,52.3,71.3,52.3L71.3,52.3z"/>
		</g>
		<g class="st6">
			<path class="st5" d="M71.3,52.8l23.3,13.4l-8.9,4.9L62.4,57.6L71.3,52.8L71.3,52.8z M71.3,51.8c-0.2,0-0.3,0-0.5,0.1l-8.9,4.9
				c-0.3,0.2-0.5,0.5-0.5,0.8c0,0.4,0.2,0.7,0.5,0.9l23.4,13.4c0.2,0.1,0.3,0.1,0.5,0.1c0.2,0,0.3,0,0.5-0.1l8.9-4.9
				c0.3-0.2,0.5-0.5,0.5-0.8c0-0.4-0.2-0.7-0.5-0.9L71.8,51.9C71.7,51.8,71.5,51.8,71.3,51.8L71.3,51.8z"/>
		</g>
	</g>
	<g class="st7">
		<g>
			<polygon class="st8" points="94.7,18.7 94.6,66.2 85.9,71.3 86,23.7 			"/>
		</g>
		<g>
			<polygon class="st9" points="88.9,25.4 88.9,31.9 87.7,32.6 87.7,26.1 			"/>
		</g>
		<g>
			<polygon class="st9" points="91.2,24.1 91.2,30.6 90,31.3 90,24.8 			"/>
		</g>
		<g>
			<polygon class="st9" points="93.3,23 93.3,29.5 92.1,30.2 92.1,23.7 			"/>
		</g>
		<g>
			<polygon class="st9" points="88.9,33.7 88.9,40.2 87.7,40.9 87.7,34.4 			"/>
		</g>
		<g>
			<polygon class="st9" points="91.2,32.4 91.2,39 90,39.7 90,33.1 			"/>
		</g>
		<g>
			<polygon class="st9" points="93.3,31.3 93.3,37.9 92.1,38.5 92.1,32 			"/>
		</g>
		<g>
			<polygon class="st9" points="88.9,42 88.9,48.6 87.7,49.3 87.7,42.7 			"/>
		</g>
		<g>
			<polygon class="st9" points="91.2,40.8 91.2,47.3 90,48 90,41.5 			"/>
		</g>
		<g>
			<polygon class="st9" points="93.3,39.7 93.3,46.2 92.1,46.9 92.1,40.3 			"/>
		</g>
		<g>
			<polygon class="st9" points="88.9,50.4 88.9,56.9 87.7,57.6 87.7,51.1 			"/>
		</g>
		<g>
			<polygon class="st9" points="91.2,49.1 91.2,55.7 90,56.3 90,49.8 			"/>
		</g>
		<g>
			<polygon class="st9" points="93.3,48 93.3,54.5 92.1,55.2 92.1,48.7 			"/>
		</g>
		<g>
			<polygon class="st9" points="88.9,58.7 88.9,65.3 87.7,66 87.7,59.4 			"/>
		</g>
		<g>
			<polygon class="st9" points="91.2,57.5 91.2,64 90,64.7 90,58.2 			"/>
		</g>
		<g>
			<polygon class="st9" points="93.3,56.3 93.3,62.9 92.1,63.6 92.1,57 			"/>
		</g>
		<g>
			<polygon class="st10" points="86,23.7 85.9,71.3 73.9,64.3 74,7.8 			"/>
		</g>
		<g>
			<polygon class="st11" points="94.7,18.7 86,23.7 74,7.8 82.7,2.8 			"/>
		</g>
		<g>
			<g>
				<polygon class="st12" points="83.7,25.4 83.7,31.9 84.9,32.6 84.9,26.1 				"/>
			</g>
			<g>
				<polygon class="st12" points="81.4,24.1 81.4,30.6 82.6,31.3 82.6,24.8 				"/>
			</g>
			<g>
				<polygon class="st12" points="83.7,22.4 83.7,23.4 84.9,24.1 				"/>
			</g>
			<g>
				<polygon class="st12" points="81.4,19.5 81.4,22.2 82.6,22.8 82.6,21.2 				"/>
			</g>
			<g>
				<polygon class="st12" points="79.3,23 79.3,29.5 80.5,30.2 80.5,23.7 				"/>
			</g>
			<g>
				<polygon class="st12" points="83.7,33.7 83.7,40.2 84.9,40.9 84.9,34.4 				"/>
			</g>
			<g>
				<polygon class="st12" points="81.4,32.4 81.4,39 82.6,39.7 82.6,33.1 				"/>
			</g>
			<g>
				<polygon class="st12" points="79.3,31.3 79.3,37.9 80.5,38.5 80.5,32 				"/>
			</g>
			<g>
				<polygon class="st12" points="83.7,42 83.7,48.6 84.9,49.3 84.9,42.7 				"/>
			</g>
			<g>
				<polygon class="st12" points="81.4,40.8 81.4,47.3 82.6,48 82.6,41.5 				"/>
			</g>
			<g>
				<polygon class="st12" points="79.3,39.7 79.3,46.2 80.5,46.9 80.5,40.3 				"/>
			</g>
			<g>
				<polygon class="st12" points="83.7,50.4 83.7,56.9 84.9,57.6 84.9,51.1 				"/>
			</g>
			<g>
				<polygon class="st12" points="81.4,49.1 81.4,55.7 82.6,56.3 82.6,49.8 				"/>
			</g>
			<g>
				<polygon class="st12" points="79.3,48 79.3,54.5 80.5,55.2 80.5,48.7 				"/>
			</g>
			<g>
				<polygon class="st12" points="83.7,58.7 83.7,65.3 84.9,66 84.9,59.4 				"/>
			</g>
			<g>
				<polygon class="st12" points="81.4,57.5 81.4,64 82.6,64.7 82.6,58.2 				"/>
			</g>
			<g>
				<polygon class="st12" points="79.3,56.3 79.3,62.9 80.5,63.6 80.5,57 				"/>
			</g>
			<g>
				<polygon class="st12" points="77.2,21.9 77.2,28.4 78.4,29.1 78.4,22.6 				"/>
			</g>
			<g>
				<polygon class="st12" points="75.1,20.7 75.1,27.3 76.3,28 76.3,21.4 				"/>
			</g>
			<g>
				<polygon class="st12" points="79.3,17.2 79.3,21 80.5,21.7 80.5,18.9 				"/>
			</g>
			<g>
				<polygon class="st12" points="77.2,14.8 77.2,19.9 78.4,20.6 78.4,16.4 				"/>
			</g>
			<g>
				<polygon class="st12" points="75.1,12.3 75.1,18.8 76.3,19.5 76.3,14.1 				"/>
			</g>
			<g>
				<polygon class="st12" points="77.2,30.2 77.2,36.7 78.4,37.4 78.4,30.9 				"/>
			</g>
			<g>
				<polygon class="st12" points="75.1,29.1 75.1,35.6 76.3,36.3 76.3,29.8 				"/>
			</g>
			<g>
				<polygon class="st12" points="77.2,38.5 77.2,45.1 78.4,45.8 78.4,39.2 				"/>
			</g>
			<g>
				<polygon class="st12" points="75.1,37.4 75.1,43.9 76.3,44.6 76.3,38.1 				"/>
			</g>
			<g>
				<polygon class="st12" points="77.2,46.9 77.2,53.4 78.4,54.1 78.4,47.6 				"/>
			</g>
			<g>
				<polygon class="st12" points="75.1,45.8 75.1,52.3 76.3,53 76.3,46.5 				"/>
			</g>
			<g>
				<polygon class="st12" points="77.2,55.2 77.2,61.8 78.4,62.5 78.4,55.9 				"/>
			</g>
			<g>
				<polygon class="st12" points="75.1,54.1 75.1,60.6 76.3,61.3 76.3,54.8 				"/>
			</g>
		</g>
	</g>
	<g>
		<polygon class="st13" points="94.7,17.2 86,22.2 74,6.4 82.7,1.3 		"/>
	</g>
	<g class="st4">
		<path class="st5" d="M83.2,70.5c0.1,0.1,0.1,0.2,0,0.2l-10,5.8c-0.1,0.1-0.3,0.1-0.4,0L52.1,64.7c-0.1-0.1-0.1-0.2,0-0.2l10.1-5.8
			c0.1-0.1,0.3-0.1,0.4,0L83.2,70.5z"/>
		<g class="st4">
			<path class="st5" d="M62.3,58.5l21.1,12.2L73,76.7L51.8,64.5L62.3,58.5L62.3,58.5z M62.3,58c-0.1,0-0.2,0-0.2,0.1l-10.5,6.1
				c-0.2,0.1-0.2,0.2-0.2,0.4c0,0.2,0.1,0.3,0.2,0.4l21.1,12.2c0.1,0,0.2,0.1,0.2,0.1c0.1,0,0.2,0,0.2-0.1l10.4-6.1
				c0.2-0.1,0.2-0.2,0.2-0.4c0-0.2-0.1-0.3-0.2-0.4L62.6,58C62.5,58,62.4,58,62.3,58L62.3,58z"/>
		</g>
		<g class="st6">
			<path class="st5" d="M62.3,58.5l21.1,12.2L73,76.7L51.8,64.5L62.3,58.5L62.3,58.5z M62.3,57.5c-0.2,0-0.3,0-0.5,0.1l-10.5,6.1
				c-0.3,0.2-0.5,0.5-0.5,0.8c0,0.3,0.2,0.7,0.5,0.8l21.1,12.2c0.2,0.1,0.3,0.1,0.5,0.1c0.2,0,0.3,0,0.5-0.1l10.4-6.1
				c0.3-0.2,0.5-0.5,0.5-0.8c0-0.3-0.2-0.7-0.5-0.8L62.8,57.6C62.7,57.5,62.5,57.5,62.3,57.5L62.3,57.5z"/>
		</g>
	</g>
	<g>
		<g class="st7">
			<g>
				<polygon class="st14" points="84.4,46.5 84.4,72 73.9,78.1 74,52.6 				"/>
			</g>
			<g>
				<g>
					<polygon class="st15" points="83.2,49.5 83.1,50.9 75.4,55.4 75.4,54.1 					"/>
				</g>
				<g>
					<polygon class="st15" points="83.2,53.5 83.1,54.8 75.4,59.3 75.4,58 					"/>
				</g>
				<g>
					<polygon class="st15" points="83.2,57.3 83.1,58.6 75.4,63.1 75.4,61.8 					"/>
				</g>
				<g>
					<polygon class="st15" points="83.2,61.2 83.1,62.5 75.4,67 75.4,65.7 					"/>
				</g>
				<g>
					<polygon class="st15" points="83.2,65 83.1,66.3 75.4,70.8 75.4,69.5 					"/>
				</g>
				<g>
					<polygon class="st15" points="83.2,68.9 83.1,70.2 75.4,74.7 75.4,73.4 					"/>
				</g>
			</g>
			<g>
				<polygon class="st16" points="74,52.6 73.9,78.1 61,70.6 61.1,45.1 				"/>
			</g>
			<g>
				<polygon class="st17" points="84.4,46.5 74,52.6 61.1,45.1 71.5,39.1 				"/>
			</g>
			<g>
				<g>
					<polygon class="st18" points="62.3,48.2 62.3,49.5 72.5,55.4 72.5,54.1 					"/>
				</g>
				<g>
					<polygon class="st18" points="62.3,52.1 62.3,53.5 72.5,59.3 72.5,58 					"/>
				</g>
				<g>
					<polygon class="st18" points="62.3,56 62.3,57.3 72.5,63.1 72.5,61.8 					"/>
				</g>
				<g>
					<polygon class="st18" points="62.3,59.9 62.3,61.2 72.5,67 72.5,65.7 					"/>
				</g>
				<g>
					<polygon class="st18" points="62.3,63.7 62.3,65 72.5,70.8 72.5,69.5 					"/>
				</g>
				<g>
					<polygon class="st18" points="62.3,67.6 62.3,68.9 72.5,74.7 72.5,73.4 					"/>
				</g>
			</g>
		</g>
		<g class="st7">
			<g>
				<polygon class="st19" points="77.9,46.9 79.1,46.1 71.6,41.8 71.7,43.3 				"/>
			</g>
			<g>
				<polygon class="st20" points="71.7,43.3 71.6,41.8 66.3,45.1 67.6,45.9 				"/>
			</g>
			<g>
				<polygon class="st21" points="77.9,46.9 71.7,43.3 67.6,45.9 73.8,49.3 				"/>
			</g>
		</g>
	</g>
	<g>
		<g class="st4">
			<path class="st5" d="M134.2,76c0.1,0.1,0.1,0.2,0,0.2l-12.3,7.2c-0.1,0.1-0.3,0.1-0.4,0l-20.7-11.9c-0.1-0.1-0.1-0.2,0-0.2
				l10.1-5.8c0.1-0.1,0.3-0.1,0.4,0L134.2,76z"/>
			<g class="st4">
				<path class="st5" d="M111,65.3l23.4,10.8l-12.8,7.4l-21.1-12.2L111,65.3L111,65.3z M111,64.8c-0.1,0-0.2,0-0.2,0.1l-10.5,6.1
					c-0.2,0.1-0.2,0.2-0.2,0.4c0,0.2,0.1,0.3,0.2,0.4l21.1,12.2c0.1,0,0.2,0.1,0.2,0.1c0.1,0,0.2,0,0.2-0.1l12.8-7.4
					c0.2-0.1,0.3-0.3,0.2-0.4c0-0.2-0.1-0.3-0.3-0.4l-23.4-10.8C111.1,64.8,111.1,64.8,111,64.8L111,64.8z"/>
			</g>
			<g class="st6">
				<path class="st5" d="M111,65.3l23.4,10.8l-12.8,7.4l-21.1-12.2L111,65.3L111,65.3z M111,64.3c-0.2,0-0.3,0-0.5,0.1L100,70.5
					c-0.3,0.2-0.5,0.5-0.5,0.8c0,0.3,0.2,0.7,0.5,0.8l21.1,12.2c0.2,0.1,0.3,0.1,0.5,0.1c0.2,0,0.3,0,0.5-0.1l12.8-7.4
					c0.3-0.2,0.5-0.5,0.5-0.9c0-0.4-0.2-0.7-0.6-0.8l-23.4-10.8C111.3,64.3,111.1,64.3,111,64.3L111,64.3z"/>
			</g>
		</g>
		<g class="st7">
			<g>
				<polygon class="st22" points="134.5,48.4 134.4,76.1 121.5,83.6 121.6,55.9 				"/>
			</g>
			<g>
				<polygon class="st15" points="125.9,55.6 125.8,58.2 123.5,59.6 123.5,57 				"/>
			</g>
			<g>
				<polygon class="st15" points="129.6,53.5 129.6,56 127.2,57.4 127.2,54.8 				"/>
			</g>
			<g>
				<polygon class="st15" points="133.1,51.5 133.1,54 130.7,55.4 130.7,52.9 				"/>
			</g>
			<g>
				<polygon class="st15" points="125.9,60.5 125.8,63.1 123.5,64.5 123.5,61.9 				"/>
			</g>
			<g>
				<polygon class="st15" points="129.6,58.4 129.6,60.9 127.2,62.3 127.2,59.8 				"/>
			</g>
			<g>
				<polygon class="st15" points="133.1,56.4 133.1,59 130.7,60.3 130.7,57.8 				"/>
			</g>
			<g>
				<polygon class="st15" points="125.9,65.4 125.8,67.9 123.5,69.3 123.5,66.8 				"/>
			</g>
			<g>
				<polygon class="st15" points="129.6,63.2 129.6,65.8 127.2,67.1 127.2,64.6 				"/>
			</g>
			<g>
				<polygon class="st15" points="133.1,61.2 133.1,63.8 130.7,65.2 130.7,62.6 				"/>
			</g>
			<g>
				<polygon class="st15" points="125.9,70.3 125.8,72.9 123.5,74.2 123.5,71.7 				"/>
			</g>
			<g>
				<polygon class="st15" points="129.6,68.1 129.6,70.7 127.2,72.1 127.2,69.5 				"/>
			</g>
			<g>
				<polygon class="st15" points="133.1,66.2 133.1,68.7 130.7,70.1 130.7,67.5 				"/>
			</g>
			<g>
				<polygon class="st15" points="125.9,75.2 125.8,77.8 123.5,79.2 123.5,76.6 				"/>
			</g>
			<g>
				<polygon class="st15" points="129.6,73 129.6,75.6 127.2,77 127.2,74.4 				"/>
			</g>
			<g>
				<polygon class="st15" points="133.1,71.1 133.1,73.6 130.7,75 130.7,72.4 				"/>
			</g>
			<g>
				<polygon class="st23" points="121.6,55.9 121.5,83.6 107.2,75.3 107.3,47.6 				"/>
			</g>
			<g>
				<polygon class="st18" points="119.9,57 119.9,59.6 117.7,58.3 117.7,55.8 				"/>
			</g>
			<g>
				<polygon class="st18" points="117.1,55.5 117.1,58 114.9,56.7 114.9,54.2 				"/>
			</g>
			<g>
				<polygon class="st18" points="114.1,53.8 114.1,56.3 111.9,55 111.9,52.5 				"/>
			</g>
			<g>
				<polygon class="st18" points="111.2,52.2 111.1,54.7 108.9,53.5 109,51 				"/>
			</g>
			<g>
				<polygon class="st18" points="119.9,62.1 119.9,64.6 117.7,63.4 117.7,60.9 				"/>
			</g>
			<g>
				<polygon class="st18" points="117.1,60.6 117.1,63.1 114.9,61.8 114.9,59.3 				"/>
			</g>
			<g>
				<polygon class="st18" points="114.1,58.9 114.1,61.4 111.9,60.1 111.9,57.6 				"/>
			</g>
			<g>
				<polygon class="st18" points="111.2,57.3 111.1,59.8 108.9,58.6 109,56 				"/>
			</g>
			<g>
				<polygon class="st18" points="119.9,67 119.9,69.5 117.7,68.2 117.7,65.7 				"/>
			</g>
			<g>
				<polygon class="st18" points="117.1,65.4 117.1,67.9 114.9,66.7 114.9,64.1 				"/>
			</g>
			<g>
				<polygon class="st24" points="114.1,63.7 114.1,66.2 111.9,64.9 111.9,62.4 				"/>
			</g>
			<g>
				<polygon class="st24" points="111.2,62.1 111.1,64.7 108.9,63.4 109,60.9 				"/>
			</g>
			<g>
				<polygon class="st18" points="119.9,71.9 119.9,74.4 117.7,73.1 117.7,70.6 				"/>
			</g>
			<g>
				<polygon class="st18" points="117.1,70.3 117.1,72.8 114.9,71.6 114.9,69 				"/>
			</g>
			<g>
				<polygon class="st24" points="114.1,68.6 114.1,71.1 111.9,69.9 111.9,67.3 				"/>
			</g>
			<g>
				<polygon class="st24" points="111.2,67 111.1,69.6 108.9,68.3 109,65.8 				"/>
			</g>
			<g>
				<polygon class="st18" points="119.9,76.8 119.9,79.3 117.7,78.1 117.7,75.5 				"/>
			</g>
			<g>
				<polygon class="st18" points="117.1,75.2 117.1,77.7 114.9,76.5 114.9,74 				"/>
			</g>
			<g>
				<polygon class="st24" points="114.1,73.5 114.1,76 111.9,74.8 111.9,72.3 				"/>
			</g>
			<g>
				<polygon class="st24" points="111.2,72 111.1,74.5 108.9,73.2 109,70.7 				"/>
			</g>
			<g>
				<polygon class="st25" points="134.5,48.4 121.6,55.9 107.3,47.6 120.2,40.2 				"/>
			</g>
		</g>
		<g class="st7">
			<g>
				<polygon class="st22" points="127.9,46.1 127.8,48.6 121.2,52.4 121.3,49.9 				"/>
			</g>
			<g>
				<polygon class="st23" points="121.3,49.9 121.2,52.4 113.8,48.2 113.9,45.7 				"/>
			</g>
			<g>
				<polygon class="st26" points="127.9,46.1 121.3,49.9 113.9,45.7 120.5,41.8 				"/>
			</g>
		</g>
	</g>
	<g>
		<g class="st4">
			<path class="st5" d="M116.2,85.7c0.1,0.1,0.1,0.2,0,0.2l-12.3,7.2c-0.1,0.1-0.3,0.1-0.4,0L82.8,81.1c-0.1-0.1-0.1-0.2,0-0.2
				l10.1-5.8c0.1-0.1,0.3-0.1,0.4,0L116.2,85.7z"/>
			<g class="st4">
				<path class="st5" d="M93.1,75l23.4,10.8l-12.8,7.4L82.6,81L93.1,75L93.1,75z M93.1,74.5c-0.1,0-0.2,0-0.2,0.1l-10.5,6.1
					c-0.2,0.1-0.2,0.2-0.2,0.4c0,0.2,0.1,0.3,0.2,0.4l21.1,12.2c0.1,0,0.2,0.1,0.2,0.1c0.1,0,0.2,0,0.2-0.1l12.8-7.4
					c0.2-0.1,0.3-0.3,0.2-0.4c0-0.2-0.1-0.3-0.3-0.4L93.3,74.5C93.2,74.5,93.1,74.5,93.1,74.5L93.1,74.5z"/>
			</g>
			<g class="st6">
				<path class="st5" d="M93.1,75l23.4,10.8l-12.8,7.4L82.6,81L93.1,75L93.1,75z M93.1,74c-0.2,0-0.3,0-0.5,0.1l-10.5,6.1
					c-0.3,0.2-0.5,0.5-0.5,0.8c0,0.3,0.2,0.7,0.5,0.8L103.2,94c0.2,0.1,0.3,0.1,0.5,0.1c0.2,0,0.3,0,0.5-0.1l12.8-7.4
					c0.3-0.2,0.5-0.5,0.5-0.9c0-0.4-0.2-0.7-0.6-0.8L93.5,74.1C93.3,74,93.2,74,93.1,74L93.1,74z"/>
			</g>
		</g>
		<g class="st7">
			<g>
				<polygon class="st22" points="116.6,58.1 116.4,85.8 103.6,93.3 103.7,65.6 				"/>
			</g>
			<g>
				<polygon class="st15" points="107.9,65.3 107.9,67.9 105.5,69.3 105.6,66.7 				"/>
			</g>
			<g>
				<polygon class="st15" points="111.7,63.1 111.6,65.7 109.3,67.1 109.3,64.5 				"/>
			</g>
			<g>
				<polygon class="st15" points="115.2,61.2 115.2,63.7 112.8,65.1 112.8,62.6 				"/>
			</g>
			<g>
				<polygon class="st15" points="107.9,70.2 107.9,72.8 105.5,74.2 105.6,71.6 				"/>
			</g>
			<g>
				<polygon class="st15" points="111.7,68.1 111.6,70.6 109.3,72 109.3,69.4 				"/>
			</g>
			<g>
				<polygon class="st15" points="115.2,66.1 115.2,68.6 112.8,70 112.8,67.5 				"/>
			</g>
			<g>
				<polygon class="st15" points="107.9,75.1 107.9,77.6 105.5,79 105.6,76.5 				"/>
			</g>
			<g>
				<polygon class="st15" points="111.7,72.9 111.6,75.5 109.3,76.8 109.3,74.3 				"/>
			</g>
			<g>
				<polygon class="st15" points="115.2,70.9 115.2,73.5 112.8,74.9 112.8,72.3 				"/>
			</g>
			<g>
				<polygon class="st15" points="107.9,80 107.9,82.5 105.5,83.9 105.6,81.4 				"/>
			</g>
			<g>
				<polygon class="st15" points="111.7,77.8 111.6,80.4 109.3,81.7 109.3,79.2 				"/>
			</g>
			<g>
				<polygon class="st15" points="115.2,75.8 115.2,78.4 112.8,79.8 112.8,77.2 				"/>
			</g>
			<g>
				<polygon class="st15" points="107.9,84.9 107.9,87.5 105.5,88.8 105.6,86.3 				"/>
			</g>
			<g>
				<polygon class="st15" points="111.7,82.7 111.6,85.3 109.3,86.7 109.3,84.1 				"/>
			</g>
			<g>
				<polygon class="st15" points="115.2,80.8 115.2,83.3 112.8,84.7 112.8,82.1 				"/>
			</g>
			<g>
				<polygon class="st23" points="103.7,65.6 103.6,93.3 89.3,85 89.4,57.3 				"/>
			</g>
			<g>
				<polygon class="st18" points="102,66.7 101.9,69.3 99.8,68 99.8,65.5 				"/>
			</g>
			<g>
				<polygon class="st18" points="99.2,65.2 99.1,67.7 96.9,66.4 97,63.9 				"/>
			</g>
			<g>
				<polygon class="st18" points="96.2,63.5 96.2,66 94,64.7 94,62.2 				"/>
			</g>
			<g>
				<polygon class="st18" points="93.2,61.9 93.2,64.4 91,63.2 91,60.6 				"/>
			</g>
			<g>
				<polygon class="st18" points="102,71.8 101.9,74.3 99.8,73.1 99.8,70.6 				"/>
			</g>
			<g>
				<polygon class="st18" points="99.2,70.2 99.1,72.8 96.9,71.5 97,69 				"/>
			</g>
			<g>
				<polygon class="st18" points="96.2,68.5 96.2,71.1 94,69.8 94,67.3 				"/>
			</g>
			<g>
				<polygon class="st18" points="93.2,67 93.2,69.5 91,68.2 91,65.7 				"/>
			</g>
			<g>
				<polygon class="st18" points="102,76.7 101.9,79.2 99.8,77.9 99.8,75.4 				"/>
			</g>
			<g>
				<polygon class="st18" points="99.2,75.1 99.1,77.6 96.9,76.3 97,73.8 				"/>
			</g>
			<g>
				<polygon class="st24" points="96.2,73.4 96.2,75.9 94,74.6 94,72.1 				"/>
			</g>
			<g>
				<polygon class="st24" points="93.2,71.8 93.2,74.3 91,73.1 91,70.6 				"/>
			</g>
			<g>
				<polygon class="st18" points="102,81.6 101.9,84.1 99.8,82.8 99.8,80.3 				"/>
			</g>
			<g>
				<polygon class="st18" points="99.2,80 99.1,82.5 96.9,81.3 97,78.7 				"/>
			</g>
			<g>
				<polygon class="st24" points="96.2,78.3 96.2,80.8 94,79.6 94,77 				"/>
			</g>
			<g>
				<polygon class="st24" points="93.2,76.7 93.2,79.3 91,78 91,75.5 				"/>
			</g>
			<g>
				<polygon class="st18" points="102,86.5 101.9,89 99.8,87.7 99.8,85.2 				"/>
			</g>
			<g>
				<polygon class="st18" points="99.2,84.9 99.1,87.4 96.9,86.2 97,83.6 				"/>
			</g>
			<g>
				<polygon class="st24" points="96.2,83.2 96.2,85.7 94,84.5 94,81.9 				"/>
			</g>
			<g>
				<polygon class="st24" points="93.2,81.7 93.2,84.2 91,82.9 91,80.4 				"/>
			</g>
			<g>
				<polygon class="st25" points="116.6,58.1 103.7,65.6 89.4,57.3 102.2,49.8 				"/>
			</g>
		</g>
		<g class="st7">
			<g>
				<polygon class="st22" points="110,55.8 109.9,58.3 103.3,62.1 103.3,59.6 				"/>
			</g>
			<g>
				<polygon class="st23" points="103.3,59.6 103.3,62.1 95.9,57.9 95.9,55.4 				"/>
			</g>
			<g>
				<polygon class="st26" points="110,55.8 103.3,59.6 95.9,55.4 102.6,51.5 				"/>
			</g>
		</g>
	</g>
	<g>
		<g>
			<polygon class="st27" points="69.4,88.1 65.6,90.4 61.3,87.9 65.1,85.7 			"/>
		</g>
		<g class="st4">
			<path class="st5" d="M65.3,87.7c-0.2,0-0.3,0-0.4-0.1l-1.4-1.1l-0.1,0c-0.9,0.3-1.7,0.4-2,0.5l-1.8-3.6l6.1,2
				c-0.2,0.2-0.6,0.4-1.1,0.7l-0.3,0.2l1.6,1.3c0,0-0.1,0.1-0.2,0.1C65.5,87.7,65.4,87.7,65.3,87.7z"/>
			<g class="st4">
				<path class="st5" d="M59.6,83.4l6.1,2c-0.2,0.2-0.6,0.4-1.1,0.7l-0.3,0.2l1.6,1.3c0,0-0.1,0.1-0.2,0.1c-0.1,0-0.2,0.1-0.3,0.1
					c-0.2,0-0.3,0-0.4-0.1l-1.4-1.1l-0.1,0c-0.9,0.3-1.7,0.4-2,0.5L59.6,83.4L59.6,83.4z M59.6,83.2c-0.1,0-0.1,0-0.2,0.1
					c-0.1,0.1-0.1,0.2,0,0.3l1.8,3.6c0,0.1,0.1,0.1,0.2,0.1c0,0,0,0,0,0c0.3,0,1.2-0.2,2.1-0.5l1.3,1c0.1,0.1,0.3,0.1,0.5,0.1
					c0.1,0,0.3,0,0.4-0.1c0.1,0,0.2-0.1,0.2-0.1c0.1,0,0.1-0.1,0.1-0.2c0-0.1,0-0.2-0.1-0.2l-1.3-1c0.5-0.3,0.9-0.5,1.1-0.7
					c0.1-0.1,0.1-0.1,0.1-0.2c0-0.1-0.1-0.2-0.2-0.2L59.6,83.2C59.6,83.2,59.6,83.2,59.6,83.2L59.6,83.2z"/>
			</g>
			<g class="st6">
				<path class="st5" d="M59.6,83.4l6.1,2c-0.2,0.2-0.6,0.4-1.1,0.7l-0.3,0.2l1.6,1.3c0,0-0.1,0.1-0.2,0.1c-0.1,0-0.2,0.1-0.3,0.1
					c-0.2,0-0.3,0-0.4-0.1l-1.4-1.1l-0.1,0c-0.9,0.3-1.7,0.4-2,0.5L59.6,83.4L59.6,83.4z M59.6,82.7c-0.2,0-0.4,0.1-0.6,0.3
					c-0.2,0.2-0.2,0.5-0.1,0.8l1.8,3.6c0.1,0.3,0.4,0.4,0.7,0.4c0,0,0.1,0,0.1,0c0.3,0,1.1-0.2,1.9-0.4l1.1,0.8c0,0,0,0,0,0
					c0.3,0.2,0.7,0.2,0.8,0.2c0.2,0,0.4,0,0.6-0.1c0.1,0,0.2-0.1,0.3-0.2c0.2-0.1,0.3-0.3,0.3-0.6c0-0.2-0.1-0.5-0.3-0.6l-0.7-0.6
					c0.2-0.2,0.4-0.3,0.6-0.4c0.2-0.2,0.3-0.4,0.2-0.7c0-0.3-0.2-0.5-0.5-0.6l-6.1-2C59.7,82.7,59.6,82.7,59.6,82.7L59.6,82.7z"/>
			</g>
		</g>
		<g>
			<path class="st28" d="M64.6,83.1v4.4c0,0.3,0.3,0.5,0.7,0.5c0.4,0,0.7-0.2,0.7-0.5v-4.4H64.6z"/>
			<path class="st29" d="M68.3,84.9c0,0-1.2,0.8-3,0.8c-1.7,0-3-0.8-3-0.8l3-9.1L68.3,84.9z"/>
		</g>
	</g>
	<g>
		<g>
			<polygon class="st27" points="62.5,92.6 58.6,94.8 54.4,92.3 58.2,90.1 			"/>
		</g>
		<g class="st4">
			<path class="st5" d="M58.2,92.1c-0.2,0-0.3-0.1-0.5-0.2l0,0l-2.3-1.1l-0.1,0c-0.4,0.1-0.8,0.2-1.3,0.2c-0.8,0-1.5-0.1-1.9-0.4
				c-0.5-0.3-1.1-1.2-1-1.9c0-0.4,0.3-0.6,0.7-0.7c0.3-0.1,0.6-0.1,1-0.1c1.2,0,2.5,0.6,3.1,1c0.7,0.4,1.1,0.8,1.1,1.1
				c0,0,0,0.2-0.2,0.3l-0.3,0.2l2.4,1.4c-0.1,0-0.2,0.1-0.3,0.1C58.3,92.1,58.3,92.1,58.2,92.1L58.2,92.1z"/>
			<g class="st4">
				<path class="st5" d="M52.7,87.9c1.2,0,2.5,0.6,3.1,1c0.7,0.4,1.1,0.8,1.1,1.1c0,0,0,0.2-0.2,0.3l-0.3,0.2l2.4,1.4
					c-0.1,0-0.2,0.1-0.3,0.1c-0.1,0-0.2,0-0.2,0c-0.2,0-0.3-0.1-0.5-0.2l0,0l-2.3-1.1l-0.1,0c-0.4,0.1-0.8,0.2-1.3,0.2
					c-0.8,0-1.5-0.1-1.9-0.4c-0.5-0.3-1.1-1.2-1-1.9c0-0.4,0.3-0.6,0.7-0.7C52,87.9,52.3,87.9,52.7,87.9L52.7,87.9z M52.7,87.6
					c-0.4,0-0.7,0.1-1,0.2c-0.6,0.2-0.8,0.6-0.8,0.9c-0.1,0.8,0.5,1.7,1.1,2.1c0.4,0.3,1.2,0.4,2,0.4c0.5,0,1-0.1,1.4-0.2h0l2.3,1
					c0.2,0.1,0.4,0.2,0.6,0.2c0.1,0,0.2,0,0.3-0.1c0.1,0,0.2-0.1,0.3-0.1c0.1,0,0.1-0.1,0.1-0.2c0-0.1,0-0.2-0.1-0.2l-2-1.2
					c0.2-0.1,0.3-0.3,0.3-0.5c0-0.5-0.8-1.1-1.2-1.3C55.2,88.3,54,87.6,52.7,87.6L52.7,87.6z"/>
			</g>
			<g class="st6">
				<path class="st5" d="M52.7,87.9c1.2,0,2.5,0.6,3.1,1c0.7,0.4,1.1,0.8,1.1,1.1c0,0,0,0.2-0.2,0.3l-0.3,0.2l2.4,1.4
					c-0.1,0-0.2,0.1-0.3,0.1c-0.1,0-0.2,0-0.2,0c-0.2,0-0.3-0.1-0.5-0.2l0,0l-2.3-1.1l-0.1,0c-0.4,0.1-0.8,0.2-1.3,0.2
					c-0.8,0-1.5-0.1-1.9-0.4c-0.5-0.3-1.1-1.2-1-1.9c0-0.4,0.3-0.6,0.7-0.7C52,87.9,52.3,87.9,52.7,87.9L52.7,87.9z M52.7,87.1
					c-0.4,0-0.8,0.1-1.2,0.2c-0.7,0.2-1.1,0.7-1.1,1.3c-0.1,1,0.6,2.1,1.4,2.6c0.5,0.3,1.3,0.5,2.2,0.5c0.5,0,0.9,0,1.3-0.1l2.1,1
					c0.3,0.2,0.6,0.3,0.9,0.3c0.2,0,0.3,0,0.5-0.1c0.1,0,0.3-0.1,0.4-0.2c0.2-0.1,0.4-0.4,0.4-0.6c0-0.3-0.1-0.5-0.4-0.6l-1.5-0.9
					c0-0.1,0.1-0.2,0.1-0.4c0-0.6-0.5-1.1-1.4-1.7C55.5,87.8,54.1,87.1,52.7,87.1L52.7,87.1z"/>
			</g>
		</g>
		<g>
			<path class="st28" d="M57.7,87.5V92c0,0.3,0.3,0.5,0.7,0.5c0.4,0,0.7-0.2,0.7-0.5v-4.4H57.7z"/>
			<path class="st30" d="M55.9,86.7c0,1.7,1.2,3.1,2.6,3.1c1.4,0,2.6-1.4,2.6-3.1c0-1.7-1.2-5-2.6-5C57,81.6,55.9,85,55.9,86.7z"/>
		</g>
	</g>
	<g class="st4">
		<path class="st5" d="M98,97.3c0.1,0.1,0.1,0.2,0,0.2l-10,5.8c-0.1,0.1-0.3,0.1-0.4,0L66.9,91.4c-0.1-0.1-0.1-0.2,0-0.2L77,85.4
			c0.1-0.1,0.3-0.1,0.4,0L98,97.3z"/>
		<g class="st4">
			<path class="st5" d="M77.2,85.2l21.1,12.2l-10.4,6.1L66.7,91.3L77.2,85.2L77.2,85.2z M77.2,84.7c-0.1,0-0.2,0-0.2,0.1l-10.5,6.1
				c-0.2,0.1-0.2,0.2-0.2,0.4c0,0.2,0.1,0.3,0.2,0.4l21.1,12.2c0.1,0,0.2,0.1,0.2,0.1c0.1,0,0.2,0,0.2-0.1l10.4-6.1
				c0.2-0.1,0.2-0.2,0.2-0.4c0-0.2-0.1-0.3-0.2-0.4L77.4,84.8C77.3,84.8,77.3,84.7,77.2,84.7L77.2,84.7z"/>
		</g>
		<g class="st6">
			<path class="st5" d="M77.2,85.2l21.1,12.2l-10.4,6.1L66.7,91.3L77.2,85.2L77.2,85.2z M77.2,84.3c-0.2,0-0.3,0-0.5,0.1l-10.5,6.1
				c-0.3,0.2-0.5,0.5-0.5,0.8c0,0.3,0.2,0.7,0.5,0.8l21.1,12.2c0.2,0.1,0.3,0.1,0.5,0.1c0.2,0,0.3,0,0.5-0.1l10.4-6.1
				c0.3-0.2,0.5-0.5,0.5-0.8c0-0.3-0.2-0.7-0.5-0.8L77.7,84.4C77.5,84.3,77.3,84.3,77.2,84.3L77.2,84.3z"/>
		</g>
	</g>
	<g>
		<g>
			<polygon class="st27" points="54.9,97 51.1,99.2 46.8,96.7 50.6,94.5 			"/>
		</g>
		<g class="st4">
			<path class="st5" d="M50.8,96.6c-0.2,0-0.3,0-0.4-0.1L49,95.4l-0.1,0c-0.9,0.3-1.7,0.4-2,0.5L45,92.3l6.1,2
				c-0.2,0.2-0.6,0.4-1.1,0.7l-0.3,0.2l1.6,1.3c0,0-0.1,0.1-0.2,0.1C51,96.6,50.9,96.6,50.8,96.6z"/>
			<g class="st4">
				<path class="st5" d="M45,92.3l6.1,2c-0.2,0.2-0.6,0.4-1.1,0.7l-0.3,0.2l1.6,1.3c0,0-0.1,0.1-0.2,0.1c-0.1,0-0.2,0.1-0.3,0.1
					c-0.2,0-0.3,0-0.4-0.1L49,95.4l-0.1,0c-0.9,0.3-1.7,0.4-2,0.5L45,92.3L45,92.3z M45,92c-0.1,0-0.1,0-0.2,0.1
					c-0.1,0.1-0.1,0.2,0,0.3l1.8,3.6c0,0.1,0.1,0.1,0.2,0.1c0,0,0,0,0,0c0.3,0,1.2-0.2,2.1-0.5l1.3,1c0.1,0.1,0.3,0.1,0.5,0.1
					c0.1,0,0.3,0,0.4-0.1c0.1,0,0.2-0.1,0.2-0.1c0.1,0,0.1-0.1,0.1-0.2c0-0.1,0-0.2-0.1-0.2l-1.3-1c0.5-0.3,0.9-0.5,1.1-0.7
					c0.1-0.1,0.1-0.1,0.1-0.2c0-0.1-0.1-0.2-0.2-0.2L45,92C45.1,92,45.1,92,45,92L45,92z"/>
			</g>
			<g class="st6">
				<path class="st5" d="M45,92.3l6.1,2c-0.2,0.2-0.6,0.4-1.1,0.7l-0.3,0.2l1.6,1.3c0,0-0.1,0.1-0.2,0.1c-0.1,0-0.2,0.1-0.3,0.1
					c-0.2,0-0.3,0-0.4-0.1L49,95.4l-0.1,0c-0.9,0.3-1.7,0.4-2,0.5L45,92.3L45,92.3z M45,91.5c-0.2,0-0.4,0.1-0.6,0.3
					c-0.2,0.2-0.2,0.5-0.1,0.8l1.8,3.6c0.1,0.2,0.4,0.4,0.7,0.4c0,0,0.1,0,0.1,0c0.3,0,1.1-0.2,1.9-0.4l1.1,0.8c0,0,0,0,0,0
					c0.3,0.2,0.7,0.2,0.8,0.2c0.2,0,0.4,0,0.6-0.1c0.1,0,0.2-0.1,0.3-0.2c0.2-0.1,0.3-0.3,0.3-0.6c0-0.2-0.1-0.5-0.3-0.6L51,95.3
					c0.2-0.2,0.4-0.3,0.6-0.4c0.2-0.2,0.3-0.4,0.2-0.7c0-0.3-0.2-0.5-0.5-0.6l-6.1-2C45.2,91.6,45.1,91.5,45,91.5L45,91.5z"/>
			</g>
		</g>
		<g>
			<path class="st28" d="M50.1,91.9v4.4c0,0.3,0.3,0.5,0.7,0.5c0.4,0,0.7-0.2,0.7-0.5v-4.4H50.1z"/>
			<path class="st31" d="M53.8,93.7c0,0-1.2,0.8-3,0.8c-1.7,0-3-0.8-3-0.8l3-9.1L53.8,93.7z"/>
		</g>
	</g>
	<g>
		<g class="st4">
			<path class="st5" d="M43.7,100.9c-0.2,0-0.3-0.1-0.5-0.2l0,0l-2.3-1.1l-0.1,0c-0.4,0.1-0.8,0.2-1.3,0.2c-0.8,0-1.5-0.1-1.9-0.4
				c-0.5-0.3-1.1-1.2-1-1.9c0-0.4,0.3-0.6,0.7-0.7c0.3-0.1,0.6-0.1,1-0.1c1.2,0,2.5,0.6,3.1,1c0.7,0.4,1.1,0.8,1.1,1.1
				c0,0,0,0.2-0.2,0.3l-0.3,0.2l2.4,1.4c-0.1,0-0.2,0.1-0.3,0.1C43.8,100.9,43.7,100.9,43.7,100.9L43.7,100.9z"/>
			<g class="st4">
				<path class="st5" d="M38.1,96.7c1.2,0,2.5,0.6,3.1,1c0.7,0.4,1.1,0.8,1.1,1.1c0,0,0,0.2-0.2,0.3l-0.3,0.2l2.4,1.4
					c-0.1,0-0.2,0.1-0.3,0.1c-0.1,0-0.2,0-0.2,0c-0.2,0-0.3-0.1-0.5-0.2l0,0l-2.3-1.1l-0.1,0c-0.4,0.1-0.8,0.2-1.3,0.2
					c-0.8,0-1.5-0.1-1.9-0.4c-0.5-0.3-1.1-1.2-1-1.9c0-0.4,0.3-0.6,0.7-0.7C37.5,96.8,37.8,96.7,38.1,96.7L38.1,96.7z M38.1,96.5
					c-0.4,0-0.7,0.1-1,0.2c-0.6,0.2-0.8,0.6-0.8,0.9c-0.1,0.8,0.5,1.7,1.1,2.1c0.4,0.3,1.2,0.4,2,0.4c0.5,0,1-0.1,1.4-0.2l0,0l2.3,1
					h0c0.2,0.1,0.4,0.2,0.6,0.2c0.1,0,0.2,0,0.3-0.1c0.1,0,0.2-0.1,0.3-0.1c0.1,0,0.1-0.1,0.1-0.2c0-0.1,0-0.2-0.1-0.2l-2-1.2
					c0.2-0.1,0.3-0.3,0.3-0.5c0-0.5-0.8-1.1-1.2-1.3C40.7,97.1,39.5,96.5,38.1,96.5L38.1,96.5z"/>
			</g>
			<g class="st6">
				<path class="st5" d="M38.1,96.7c1.2,0,2.5,0.6,3.1,1c0.7,0.4,1.1,0.8,1.1,1.1c0,0,0,0.2-0.2,0.3l-0.3,0.2l2.4,1.4
					c-0.1,0-0.2,0.1-0.3,0.1c-0.1,0-0.2,0-0.2,0c-0.2,0-0.3-0.1-0.5-0.2l0,0l-2.3-1.1l-0.1,0c-0.4,0.1-0.8,0.2-1.3,0.2
					c-0.8,0-1.5-0.1-1.9-0.4c-0.5-0.3-1.1-1.2-1-1.9c0-0.4,0.3-0.6,0.7-0.7C37.5,96.8,37.8,96.7,38.1,96.7L38.1,96.7z M38.1,96
					c-0.4,0-0.8,0.1-1.2,0.2c-0.7,0.2-1.1,0.7-1.2,1.3c-0.1,1,0.6,2.1,1.4,2.6c0.5,0.3,1.3,0.5,2.2,0.5c0.5,0,0.9,0,1.3-0.1l2.1,1
					c0.3,0.2,0.6,0.3,0.9,0.3c0.2,0,0.3,0,0.5-0.1c0.1,0,0.3-0.1,0.4-0.2c0.2-0.1,0.4-0.4,0.4-0.6c0-0.3-0.1-0.5-0.4-0.6L43,99.2
					c0-0.1,0.1-0.2,0.1-0.4c0-0.6-0.5-1.1-1.4-1.7C40.9,96.7,39.6,96,38.1,96L38.1,96z"/>
			</g>
		</g>
		<g>
			<path class="st28" d="M43.2,96.4v4.4c0,0.3,0.3,0.5,0.7,0.5c0.4,0,0.7-0.2,0.7-0.5v-4.4H43.2z"/>
			<path class="st29" d="M41.3,95.5c0,1.7,1.2,3.1,2.6,3.1c1.4,0,2.6-1.4,2.6-3.1c0-1.7-1.2-5-2.6-5C42.5,90.5,41.3,93.8,41.3,95.5z
				"/>
		</g>
	</g>
	<g>
		<g class="st7">
			<g>
				<polygon class="st14" points="98.3,71.9 98.2,97.4 87.8,103.5 87.8,78 				"/>
			</g>
			<g>
				<g>
					<polygon class="st15" points="97,74.9 97,76.2 89.2,80.8 89.3,79.4 					"/>
				</g>
				<g>
					<polygon class="st15" points="97,78.8 97,80.2 89.2,84.7 89.3,83.3 					"/>
				</g>
				<g>
					<polygon class="st15" points="97,82.7 97,84 89.2,88.5 89.3,87.2 					"/>
				</g>
				<g>
					<polygon class="st15" points="97,86.6 97,87.9 89.2,92.4 89.3,91.1 					"/>
				</g>
				<g>
					<polygon class="st15" points="97,90.4 97,91.7 89.2,96.2 89.3,94.9 					"/>
				</g>
				<g>
					<polygon class="st15" points="97,94.3 97,95.6 89.2,100.1 89.3,98.8 					"/>
				</g>
			</g>
			<g>
				<polygon class="st16" points="87.8,78 87.8,103.5 74.9,96 74.9,70.5 				"/>
			</g>
			<g>
				<polygon class="st17" points="98.3,71.9 87.8,78 74.9,70.5 85.3,64.5 				"/>
			</g>
			<g>
				<g>
					<polygon class="st18" points="76.1,73.6 76.1,74.9 86.4,80.8 86.3,79.4 					"/>
				</g>
				<g>
					<polygon class="st18" points="76.1,77.5 76.1,78.8 86.4,84.7 86.3,83.3 					"/>
				</g>
				<g>
					<polygon class="st18" points="76.1,81.4 76.1,82.7 86.4,88.5 86.3,87.2 					"/>
				</g>
				<g>
					<polygon class="st18" points="76.1,85.3 76.1,86.6 86.4,92.4 86.3,91.1 					"/>
				</g>
				<g>
					<polygon class="st18" points="76.1,89.1 76.1,90.4 86.4,96.2 86.3,94.9 					"/>
				</g>
				<g>
					<polygon class="st18" points="76.1,93 76.1,94.3 86.4,100.1 86.3,98.8 					"/>
				</g>
			</g>
		</g>
		<g class="st7">
			<g>
				<polygon class="st19" points="91.8,72.3 93,71.5 85.5,67.1 85.5,68.7 				"/>
			</g>
			<g>
				<polygon class="st20" points="85.5,68.7 85.5,67.1 80.2,70.5 81.5,71.3 				"/>
			</g>
			<g>
				<polygon class="st21" points="91.8,72.3 85.5,68.7 81.5,71.3 87.6,74.7 				"/>
			</g>
		</g>
	</g>
	<g>
		<g>
			<g>
				<polygon class="st32" points="76.3,101.4 72.5,103.7 68.2,101.2 72.1,98.9 				"/>
			</g>
			<g class="st4">
				<path class="st5" d="M72,100.9c-0.2,0-0.3-0.1-0.5-0.2l0,0l-2.3-1.1l-0.1,0c-0.4,0.1-0.8,0.2-1.3,0.2c-0.8,0-1.5-0.1-1.9-0.4
					c-0.5-0.3-1.1-1.2-1-1.9c0-0.4,0.3-0.6,0.7-0.7c0.3-0.1,0.6-0.1,1-0.1c1.2,0,2.5,0.6,3.1,1c0.7,0.4,1.1,0.8,1.1,1.1
					c0,0,0,0.2-0.2,0.3l-0.3,0.2l2.4,1.4c-0.1,0-0.2,0.1-0.3,0.1C72.2,100.9,72.1,100.9,72,100.9L72,100.9z"/>
				<g class="st4">
					<path class="st5" d="M66.5,96.7c1.2,0,2.5,0.6,3.1,1c0.7,0.4,1.1,0.8,1.1,1.1c0,0,0,0.2-0.2,0.3l-0.3,0.2l2.4,1.4
						c-0.1,0-0.2,0.1-0.3,0.1c-0.1,0-0.2,0-0.2,0c-0.2,0-0.3-0.1-0.5-0.2l0,0l-2.3-1.1l-0.1,0c-0.4,0.1-0.8,0.2-1.3,0.2
						c-0.8,0-1.5-0.1-1.9-0.4c-0.5-0.3-1.1-1.2-1-1.9c0-0.4,0.3-0.6,0.7-0.7C65.8,96.7,66.2,96.7,66.5,96.7L66.5,96.7z M66.5,96.5
						c-0.4,0-0.7,0.1-1,0.2c-0.6,0.2-0.8,0.6-0.8,0.9c-0.1,0.8,0.5,1.7,1.1,2.1c0.4,0.3,1.2,0.4,2,0.4c0.5,0,1-0.1,1.4-0.2l0,0
						l2.2,1c0.2,0.1,0.4,0.2,0.6,0.2c0.1,0,0.2,0,0.3-0.1c0.1,0,0.2-0.1,0.3-0.1c0.1,0,0.1-0.1,0.1-0.2c0-0.1,0-0.2-0.1-0.2l-2-1.2
						c0.2-0.1,0.3-0.3,0.3-0.5c0-0.5-0.8-1.1-1.2-1.3C69.1,97.1,67.8,96.5,66.5,96.5L66.5,96.5z"/>
				</g>
				<g class="st6">
					<path class="st5" d="M66.5,96.7c1.2,0,2.5,0.6,3.1,1c0.7,0.4,1.1,0.8,1.1,1.1c0,0,0,0.2-0.2,0.3l-0.3,0.2l2.4,1.4
						c-0.1,0-0.2,0.1-0.3,0.1c-0.1,0-0.2,0-0.2,0c-0.2,0-0.3-0.1-0.5-0.2l0,0l-2.3-1.1l-0.1,0c-0.4,0.1-0.8,0.2-1.3,0.2
						c-0.8,0-1.5-0.1-1.9-0.4c-0.5-0.3-1.1-1.2-1-1.9c0-0.4,0.3-0.6,0.7-0.7C65.8,96.7,66.2,96.7,66.5,96.7L66.5,96.7z M66.5,96
						c-0.4,0-0.8,0.1-1.2,0.2c-0.7,0.2-1.1,0.7-1.2,1.3c-0.1,1,0.6,2.1,1.4,2.6c0.5,0.3,1.3,0.5,2.2,0.5c0.5,0,0.9,0,1.3-0.1l2.1,1
						c0.3,0.2,0.6,0.3,0.9,0.3c0.2,0,0.3,0,0.5-0.1c0.1,0,0.3-0.1,0.4-0.2c0.2-0.1,0.4-0.4,0.4-0.6c0-0.3-0.1-0.5-0.4-0.6l-1.5-0.9
						c0-0.1,0.1-0.2,0.1-0.4c0-0.6-0.5-1.1-1.4-1.7C69.3,96.7,67.9,96,66.5,96L66.5,96z"/>
				</g>
			</g>
			<g>
				<path class="st28" d="M71.5,96.4v4.4c0,0.3,0.3,0.5,0.7,0.5c0.4,0,0.7-0.2,0.7-0.5v-4.4H71.5z"/>
				<path class="st31" d="M69.7,95.5c0,1.7,1.2,3.1,2.6,3.1c1.4,0,2.6-1.4,2.6-3.1c0-1.7-1.2-5-2.6-5C70.8,90.5,69.7,93.8,69.7,95.5
					z"/>
			</g>
		</g>
		<g>
			<g>
				<polygon class="st32" points="69.5,105.4 65.7,107.6 61.4,105.1 65.2,102.9 				"/>
			</g>
			<g class="st4">
				<path class="st5" d="M65.2,104.9c-0.2,0-0.3-0.1-0.5-0.2l0,0l-2.3-1.1l-0.1,0c-0.4,0.1-0.8,0.2-1.3,0.2c-0.8,0-1.5-0.1-1.9-0.4
					c-0.5-0.3-1.1-1.2-1-1.9c0-0.4,0.3-0.6,0.7-0.7c0.3-0.1,0.6-0.1,1-0.1c1.2,0,2.5,0.6,3.1,1c0.7,0.4,1.1,0.8,1.1,1.1
					c0,0,0,0.2-0.2,0.3l-0.3,0.2l2.4,1.4c-0.1,0-0.2,0.1-0.3,0.1C65.4,104.9,65.3,104.9,65.2,104.9L65.2,104.9z"/>
				<g class="st4">
					<path class="st5" d="M59.7,100.7c1.2,0,2.5,0.6,3.1,1c0.7,0.4,1.1,0.8,1.1,1.1c0,0,0,0.2-0.2,0.3l-0.3,0.2l2.4,1.4
						c-0.1,0-0.2,0.1-0.3,0.1c-0.1,0-0.2,0-0.2,0c-0.2,0-0.3-0.1-0.5-0.2l0,0l-2.3-1.1l-0.1,0c-0.4,0.1-0.8,0.2-1.3,0.2
						c-0.8,0-1.5-0.1-1.9-0.4c-0.5-0.3-1.1-1.2-1-1.9c0-0.4,0.3-0.6,0.7-0.7C59,100.7,59.3,100.7,59.7,100.7L59.7,100.7z
						 M59.7,100.4c-0.4,0-0.7,0.1-1,0.2c-0.6,0.2-0.8,0.6-0.8,0.9c-0.1,0.8,0.5,1.7,1.1,2.1c0.4,0.3,1.2,0.4,2,0.4
						c0.5,0,1-0.1,1.4-0.2h0l2.3,1.1l0,0c0.2,0.1,0.4,0.2,0.6,0.2c0.1,0,0.2,0,0.3-0.1c0.1,0,0.2-0.1,0.3-0.1c0.1,0,0.1-0.1,0.1-0.2
						c0-0.1,0-0.2-0.1-0.2l-2-1.2h0c0.2-0.1,0.3-0.3,0.3-0.5c0-0.5-0.8-1.1-1.2-1.3C62.3,101.1,61,100.4,59.7,100.4L59.7,100.4z"/>
				</g>
				<g class="st6">
					<path class="st5" d="M59.7,100.7c1.2,0,2.5,0.6,3.1,1c0.7,0.4,1.1,0.8,1.1,1.1c0,0,0,0.2-0.2,0.3l-0.3,0.2l2.4,1.4
						c-0.1,0-0.2,0.1-0.3,0.1c-0.1,0-0.2,0-0.2,0c-0.2,0-0.3-0.1-0.5-0.2l0,0l-2.3-1.1l-0.1,0c-0.4,0.1-0.8,0.2-1.3,0.2
						c-0.8,0-1.5-0.1-1.9-0.4c-0.5-0.3-1.1-1.2-1-1.9c0-0.4,0.3-0.6,0.7-0.7C59,100.7,59.3,100.7,59.7,100.7L59.7,100.7z M59.7,99.9
						c-0.4,0-0.8,0.1-1.2,0.2c-0.7,0.2-1.1,0.7-1.1,1.3c-0.1,1,0.6,2.1,1.4,2.6c0.5,0.3,1.3,0.5,2.2,0.5c0.5,0,0.9,0,1.3-0.1l2.1,1
						c0.3,0.2,0.6,0.3,0.9,0.3c0.2,0,0.3,0,0.5-0.1c0.1,0,0.3-0.1,0.4-0.2c0.2-0.1,0.4-0.4,0.4-0.6c0-0.3-0.1-0.5-0.4-0.6l-1.5-0.9
						c0-0.1,0.1-0.2,0.1-0.4c0-0.6-0.5-1.1-1.4-1.7C62.5,100.6,61.1,99.9,59.7,99.9L59.7,99.9z"/>
				</g>
			</g>
			<g>
				<path class="st28" d="M64.7,100.3v4.4c0,0.3,0.3,0.5,0.7,0.5c0.4,0,0.7-0.2,0.7-0.5v-4.4H64.7z"/>
				<path class="st29" d="M62.9,99.5c0,1.7,1.2,3.1,2.6,3.1c1.4,0,2.6-1.4,2.6-3.1c0-1.7-1.2-5-2.6-5C64,94.4,62.9,97.8,62.9,99.5z"
					/>
			</g>
		</g>
		<g>
			<g class="st33">
				<polygon class="st34" points="63.2,109.5 59.3,111.7 55,109.2 58.9,107 				"/>
			</g>
			<g class="st4">
				<path class="st5" d="M59,109.1c-0.2,0-0.3,0-0.4-0.1l-1.4-1.1l-0.1,0c-0.9,0.3-1.7,0.4-2,0.5l-1.8-3.6l6.1,2
					c-0.2,0.2-0.6,0.4-1.1,0.7l-0.3,0.2l1.6,1.3c0,0-0.1,0.1-0.2,0.1C59.3,109.1,59.1,109.1,59,109.1L59,109.1z"/>
				<g class="st4">
					<path class="st5" d="M53.3,104.8l6.1,2c-0.2,0.2-0.6,0.4-1.1,0.7l-0.3,0.2l1.6,1.3c0,0-0.1,0.1-0.2,0.1c-0.1,0-0.2,0.1-0.3,0.1
						c-0.2,0-0.3,0-0.4-0.1l-1.4-1.1l-0.1,0c-0.9,0.3-1.7,0.4-2,0.5L53.3,104.8L53.3,104.8z M53.3,104.5c-0.1,0-0.1,0-0.2,0.1
						c-0.1,0.1-0.1,0.2,0,0.3l1.8,3.6c0,0.1,0.1,0.1,0.2,0.1c0,0,0,0,0,0c0.3,0,1.2-0.2,2.1-0.5l1.3,1c0.1,0.1,0.3,0.1,0.5,0.1
						c0.1,0,0.3,0,0.4-0.1c0.1,0,0.2-0.1,0.2-0.1c0.1,0,0.1-0.1,0.1-0.2c0-0.1,0-0.2-0.1-0.2l-1.3-1c0.5-0.3,0.9-0.5,1.1-0.7
						c0.1-0.1,0.1-0.1,0.1-0.2c0-0.1-0.1-0.2-0.2-0.2L53.3,104.5C53.3,104.5,53.3,104.5,53.3,104.5L53.3,104.5z"/>
				</g>
				<g class="st6">
					<path class="st5" d="M53.3,104.8l6.1,2c-0.2,0.2-0.6,0.4-1.1,0.7l-0.3,0.2l1.6,1.3c0,0-0.1,0.1-0.2,0.1c-0.1,0-0.2,0.1-0.3,0.1
						c-0.2,0-0.3,0-0.4-0.1l-1.4-1.1l-0.1,0c-0.9,0.3-1.7,0.4-2,0.5L53.3,104.8L53.3,104.8z M53.3,104c-0.2,0-0.4,0.1-0.6,0.3
						c-0.2,0.2-0.2,0.5-0.1,0.8l1.8,3.6c0.1,0.3,0.4,0.4,0.7,0.4c0,0,0.1,0,0.1,0c0.3,0,1.1-0.2,1.9-0.4l1.1,0.8c0,0,0,0,0,0
						c0.3,0.2,0.7,0.2,0.8,0.2c0.2,0,0.4,0,0.6-0.1c0.1,0,0.2-0.1,0.3-0.2c0.2-0.1,0.3-0.3,0.3-0.6c0-0.2-0.1-0.5-0.3-0.6l-0.7-0.6
						c0.2-0.2,0.4-0.3,0.6-0.4c0.2-0.2,0.3-0.4,0.2-0.7c0-0.3-0.2-0.5-0.5-0.6l-6.1-2C53.4,104.1,53.4,104,53.3,104L53.3,104z"/>
				</g>
			</g>
			<g>
				<path class="st28" d="M58.3,104.5v4.4c0,0.3,0.3,0.5,0.7,0.5c0.4,0,0.7-0.2,0.7-0.5v-4.4H58.3z"/>
				<path class="st31" d="M62,106.2c0,0-1.2,0.8-3,0.8c-1.7,0-3-0.8-3-0.8l3-9.1L62,106.2z"/>
			</g>
		</g>
		<g>
			<g>
				<polygon class="st32" points="85.1,105.6 81.3,107.9 77,105.4 80.9,103.1 				"/>
			</g>
			<g class="st4">
				<path class="st5" d="M81,105.2c-0.2,0-0.3,0-0.4-0.1l-1.4-1.1l-0.1,0c-0.9,0.3-1.7,0.4-2,0.5l-1.8-3.6l6.1,2
					c-0.2,0.2-0.6,0.4-1.1,0.7l-0.3,0.2l1.6,1.3c0,0-0.1,0.1-0.2,0.1C81.2,105.2,81.1,105.2,81,105.2z"/>
				<g class="st4">
					<path class="st5" d="M75.3,100.9l6.1,2c-0.2,0.2-0.6,0.4-1.1,0.7l-0.3,0.2l1.6,1.3c0,0-0.1,0.1-0.2,0.1c-0.1,0-0.2,0.1-0.3,0.1
						c-0.2,0-0.3,0-0.4-0.1l-1.4-1.1l-0.1,0c-0.9,0.3-1.7,0.4-2,0.5L75.3,100.9L75.3,100.9z M75.3,100.7c-0.1,0-0.1,0-0.2,0.1
						c-0.1,0.1-0.1,0.2,0,0.3l1.8,3.6c0,0.1,0.1,0.1,0.2,0.1c0,0,0,0,0,0c0.3,0,1.2-0.2,2.1-0.5l1.3,1c0.1,0.1,0.3,0.1,0.5,0.1
						c0.1,0,0.3,0,0.4-0.1c0.1,0,0.2-0.1,0.2-0.1c0.1,0,0.1-0.1,0.1-0.2c0-0.1,0-0.2-0.1-0.2l-1.3-1c0.5-0.3,0.9-0.5,1.1-0.7
						c0.1-0.1,0.1-0.1,0.1-0.2c0-0.1-0.1-0.2-0.2-0.2L75.3,100.7C75.3,100.7,75.3,100.7,75.3,100.7L75.3,100.7z"/>
				</g>
				<g class="st6">
					<path class="st5" d="M75.3,100.9l6.1,2c-0.2,0.2-0.6,0.4-1.1,0.7l-0.3,0.2l1.6,1.3c0,0-0.1,0.1-0.2,0.1c-0.1,0-0.2,0.1-0.3,0.1
						c-0.2,0-0.3,0-0.4-0.1l-1.4-1.1l-0.1,0c-0.9,0.3-1.7,0.4-2,0.5L75.3,100.9L75.3,100.9z M75.3,100.2c-0.2,0-0.4,0.1-0.6,0.3
						c-0.2,0.2-0.2,0.5-0.1,0.8l1.8,3.6c0.1,0.2,0.4,0.4,0.7,0.4c0,0,0.1,0,0.1,0c0.4,0,1.1-0.2,1.9-0.4l1.1,0.8c0,0,0,0,0,0
						c0.3,0.2,0.7,0.2,0.8,0.2c0.2,0,0.4,0,0.6-0.1c0.1,0,0.2-0.1,0.3-0.2c0.2-0.1,0.3-0.3,0.3-0.6c0-0.2-0.1-0.5-0.3-0.6l-0.7-0.6
						c0.2-0.2,0.4-0.3,0.6-0.4c0.2-0.2,0.3-0.4,0.2-0.7c0-0.3-0.2-0.5-0.5-0.6l-6.1-2C75.4,100.2,75.3,100.2,75.3,100.2L75.3,100.2z
						"/>
				</g>
			</g>
			<g>
				<path class="st28" d="M80.3,100.6v4.4c0,0.3,0.3,0.5,0.7,0.5c0.4,0,0.7-0.2,0.7-0.5v-4.4H80.3z"/>
				<path class="st31" d="M84,102.3c0,0-1.2,0.8-3,0.8c-1.7,0-3-0.8-3-0.8l3-9.1L84,102.3z"/>
			</g>
		</g>
		<g>
			<g class="st33">
				<polygon class="st34" points="78.4,109.7 74.5,111.9 70.2,109.4 74.1,107.2 				"/>
			</g>
			<g class="st4">
				<path class="st5" d="M74,109.2c-0.2,0-0.3-0.1-0.5-0.2l0,0l-2.3-1.1l-0.1,0c-0.4,0.1-0.8,0.2-1.3,0.2c-0.8,0-1.5-0.1-1.9-0.4
					c-0.5-0.3-1.1-1.2-1-1.9c0-0.4,0.3-0.6,0.7-0.7c0.3-0.1,0.6-0.1,1-0.1c1.2,0,2.5,0.6,3.1,1c0.7,0.4,1.1,0.8,1.1,1.1
					c0,0,0,0.2-0.2,0.3l-0.3,0.2l2.4,1.4c-0.1,0-0.2,0.1-0.3,0.1C74.2,109.2,74.1,109.2,74,109.2L74,109.2z"/>
				<g class="st4">
					<path class="st5" d="M68.5,104.9c1.2,0,2.5,0.6,3.1,1c0.7,0.4,1.1,0.8,1.1,1.1c0,0,0,0.2-0.2,0.3l-0.3,0.2l2.4,1.4
						c-0.1,0-0.2,0.1-0.3,0.1c-0.1,0-0.2,0-0.2,0c-0.2,0-0.3-0.1-0.5-0.2l0,0l-2.3-1.1l-0.1,0c-0.4,0.1-0.8,0.2-1.3,0.2
						c-0.8,0-1.5-0.1-1.9-0.4c-0.5-0.3-1.1-1.2-1-1.9c0-0.4,0.3-0.6,0.7-0.7C67.9,105,68.2,104.9,68.5,104.9L68.5,104.9z
						 M68.5,104.7c-0.4,0-0.7,0.1-1,0.2c-0.6,0.2-0.8,0.6-0.8,0.9c-0.1,0.8,0.5,1.7,1.1,2.1c0.4,0.3,1.2,0.4,2,0.4
						c0.5,0,1-0.1,1.4-0.2h0l2.3,1c0.2,0.1,0.4,0.2,0.6,0.2c0.1,0,0.2,0,0.3-0.1c0.1,0,0.2-0.1,0.3-0.1c0.1,0,0.1-0.1,0.1-0.2
						s0-0.2-0.1-0.2l-2-1.2h0c0.2-0.1,0.3-0.3,0.3-0.5c0-0.5-0.8-1.1-1.2-1.3C71.1,105.4,69.8,104.7,68.5,104.7L68.5,104.7z"/>
				</g>
				<g class="st6">
					<path class="st5" d="M68.5,104.9c1.2,0,2.5,0.6,3.1,1c0.7,0.4,1.1,0.8,1.1,1.1c0,0,0,0.2-0.2,0.3l-0.3,0.2l2.4,1.4
						c-0.1,0-0.2,0.1-0.3,0.1c-0.1,0-0.2,0-0.2,0c-0.2,0-0.3-0.1-0.5-0.2l0,0l-2.3-1.1l-0.1,0c-0.4,0.1-0.8,0.2-1.3,0.2
						c-0.8,0-1.5-0.1-1.9-0.4c-0.5-0.3-1.1-1.2-1-1.9c0-0.4,0.3-0.6,0.7-0.7C67.9,105,68.2,104.9,68.5,104.9L68.5,104.9z
						 M68.5,104.2c-0.4,0-0.8,0.1-1.2,0.2c-0.7,0.2-1.1,0.7-1.2,1.3c-0.1,1,0.6,2.1,1.4,2.6c0.5,0.3,1.3,0.5,2.2,0.5
						c0.5,0,0.9,0,1.3-0.1l2.1,1c0.3,0.2,0.6,0.3,0.9,0.3c0.2,0,0.3,0,0.5-0.1c0.1,0,0.3-0.1,0.4-0.2c0.2-0.1,0.4-0.4,0.4-0.6
						c0-0.3-0.1-0.5-0.4-0.6l-1.5-0.9c0-0.1,0.1-0.2,0.1-0.4c0-0.6-0.5-1.1-1.4-1.7C71.3,104.9,70,104.2,68.5,104.2L68.5,104.2z"/>
				</g>
			</g>
			<g>
				<path class="st28" d="M73.6,104.6v4.4c0,0.3,0.3,0.5,0.7,0.5c0.4,0,0.7-0.2,0.7-0.5v-4.4H73.6z"/>
				<path class="st29" d="M71.7,103.8c0,1.7,1.2,3.1,2.6,3.1s2.6-1.4,2.6-3.1c0-1.7-1.2-5-2.6-5S71.7,102.1,71.7,103.8z"/>
			</g>
		</g>
		<g>
			<g class="st33">
				<polygon class="st34" points="71.7,113.7 67.9,116 63.6,113.5 67.4,111.2 				"/>
			</g>
			<g class="st4">
				<path class="st5" d="M67.4,113.2c-0.2,0-0.3-0.1-0.5-0.2l0,0l-2.3-1.1l-0.1,0c-0.4,0.1-0.8,0.2-1.3,0.2c-0.8,0-1.5-0.1-1.9-0.4
					c-0.5-0.3-1.1-1.2-1-1.9c0-0.4,0.3-0.6,0.7-0.7c0.3-0.1,0.6-0.1,1-0.1c1.2,0,2.5,0.6,3.1,1c0.7,0.4,1.1,0.8,1.1,1.1
					c0,0,0,0.2-0.2,0.3l-0.3,0.2l2.4,1.4c-0.1,0-0.2,0.1-0.3,0.1C67.6,113.2,67.5,113.2,67.4,113.2L67.4,113.2z"/>
				<g class="st4">
					<path class="st5" d="M61.9,109c1.2,0,2.5,0.6,3.1,1c0.7,0.4,1.1,0.8,1.1,1.1c0,0,0,0.2-0.2,0.3l-0.3,0.2l2.4,1.4
						c-0.1,0-0.2,0.1-0.3,0.1c-0.1,0-0.2,0-0.2,0c-0.2,0-0.3-0.1-0.5-0.2l0,0l-2.3-1.1l-0.1,0c-0.4,0.1-0.8,0.2-1.3,0.2
						c-0.8,0-1.5-0.1-1.9-0.4c-0.5-0.3-1.1-1.2-1-1.9c0-0.4,0.3-0.6,0.7-0.7C61.2,109.1,61.5,109,61.9,109L61.9,109z M61.9,108.8
						c-0.4,0-0.7,0.1-1,0.2c-0.6,0.2-0.8,0.6-0.8,0.9c-0.1,0.8,0.5,1.7,1.1,2.1c0.4,0.3,1.2,0.4,2,0.4c0.5,0,1-0.1,1.4-0.2l0,0
						l2.3,1c0.2,0.1,0.4,0.2,0.6,0.2c0.1,0,0.2,0,0.3-0.1c0.1,0,0.2-0.1,0.3-0.1c0.1,0,0.1-0.1,0.1-0.2c0-0.1,0-0.2-0.1-0.2l-2-1.2
						c0.2-0.1,0.3-0.3,0.3-0.5c0-0.5-0.8-1.1-1.2-1.3C64.5,109.4,63.2,108.8,61.9,108.8L61.9,108.8z"/>
				</g>
				<g class="st6">
					<path class="st5" d="M61.9,109c1.2,0,2.5,0.6,3.1,1c0.7,0.4,1.1,0.8,1.1,1.1c0,0,0,0.2-0.2,0.3l-0.3,0.2l2.4,1.4
						c-0.1,0-0.2,0.1-0.3,0.1c-0.1,0-0.2,0-0.2,0c-0.2,0-0.3-0.1-0.5-0.2l0,0l-2.3-1.1l-0.1,0c-0.4,0.1-0.8,0.2-1.3,0.2
						c-0.8,0-1.5-0.1-1.9-0.4c-0.5-0.3-1.1-1.2-1-1.9c0-0.4,0.3-0.6,0.7-0.7C61.2,109.1,61.5,109,61.9,109L61.9,109z M61.9,108.3
						c-0.4,0-0.8,0.1-1.2,0.2c-0.7,0.2-1.1,0.7-1.2,1.3c-0.1,1,0.6,2.1,1.4,2.6c0.5,0.3,1.3,0.5,2.2,0.5c0.5,0,0.9,0,1.3-0.1l2.1,1
						c0.3,0.2,0.6,0.3,0.9,0.3c0.2,0,0.3,0,0.5-0.1c0.1,0,0.3-0.1,0.4-0.2c0.2-0.1,0.4-0.4,0.4-0.6c0-0.3-0.1-0.5-0.4-0.6l-1.5-0.9
						c0-0.1,0.1-0.2,0.1-0.4c0-0.6-0.5-1.1-1.4-1.7C64.7,109,63.3,108.3,61.9,108.3L61.9,108.3z"/>
				</g>
			</g>
			<g>
				<path class="st28" d="M66.9,108.7v4.4c0,0.3,0.3,0.5,0.7,0.5c0.4,0,0.7-0.2,0.7-0.5v-4.4H66.9z"/>
				<path class="st35" d="M65.1,107.8c0,1.7,1.2,3.1,2.6,3.1c1.4,0,2.6-1.4,2.6-3.1c0-1.7-1.2-5-2.6-5
					C66.2,102.8,65.1,106.1,65.1,107.8z"/>
			</g>
		</g>
	</g>
</g>
</svg>
