<?xml version="1.0" encoding="utf-8"?>
<!-- Generator: Adobe Illustrator 21.1.0, SVG Export Plug-In . SVG Version: 6.00 Build 0)  -->
<svg version="1.1" id="Layer_1" xmlns="http://www.w3.org/2000/svg" xmlns:xlink="http://www.w3.org/1999/xlink" x="0px" y="0px"
	 viewBox="0 0 189 155" style="enable-background:new 0 0 189 155;" xml:space="preserve">
<style type="text/css">
	.st0{fill:#35B1E0;fill-opacity:0.35;}
	.st1{fill:#424242;}
	.st2{display:none;opacity:0.58;}
	.st3{display:inline;fill:#003030;}
	.st4{fill:#EF8B59;}
	.st5{fill:#262626;}
	.st6{fill:#FFFFFF;}
	.st7{fill:#FFB68E;}
	.st8{fill:#1E1E1E;}
	.st9{fill:#111111;}
	.st10{fill:#282828;}
	.st11{fill:#5E5E5E;}
	.st12{fill:#878787;}
	.st13{fill:#CFE5E1;}
	.st14{fill:#000E42;}
	.st15{display:none;opacity:0.53;}
	.st16{display:none;}
	.st17{display:inline;fill:#020023;}
	.st18{fill:#020023;}
	.st19{fill:#001B66;}
	.st20{fill:#3D3D3D;}
	.st21{fill:#191919;}
	.st22{fill:#287AA7;}
	.st23{fill:#20627F;}
	.st24{fill:#1A5063;}
	.st25{fill:#050100;}
	.st26{fill:#070100;}
	.st27{fill:#35B1E0;}
	.st28{fill:url(#SVGID_1_);}
	.st29{display:none;fill:#020023;}
</style>
<g>
	<path class="st0" d="M22,135.8c0,0-23.3-35.3-13.3-42.3c10-7,20.3,3.6,17.8-5.1C22,72.7,27.6,27.8,66.4,40.7
		c13.1,4.4,4.9-14,20.8-26.6c10.8-8.6,34.9-10.6,41.9,10.7c3.2,9.7,7,17.5,15,14.7c24.5-8.6,1.2,50.9,13,49.1
		c11.9-1.8,25.1,4.7,18.2,26.7c-2.8,9.1-6.7,16.7-9,22.1L22,135.8z"/>
	<ellipse class="st0" cx="58.8" cy="144.2" rx="26.4" ry="3.4"/>
	<ellipse class="st0" cx="134.7" cy="144.2" rx="29.3" ry="3.4"/>
	<g>
		<g>
			<path class="st1" d="M119,66.9c0,0-3.8,9.3-7.6,10.8c-5.2,2.1-12.5,2.6-12.5,2.6l-0.4-1.9c0,0,7-2.6,11.1-5.4
				c1.6-1.1,4.8-10.1,5.4-10.8C115.8,61.2,119.9,62.3,119,66.9z"/>
			<g class="st2">
				<polygon class="st3" points="114.1,64.1 116.2,64.1 115.9,67.5 112.8,67.3 				"/>
				<polygon class="st3" points="116,67.6 118.3,67.6 116.6,70.8 116,70.9 				"/>
				<polygon class="st3" points="112.8,67.3 113,67.3 112.7,70.6 111.2,70.7 				"/>
				<polygon class="st3" points="112.8,70.6 116.1,70.6 115.3,73.7 112.9,73.9 				"/>
				<path class="st3" d="M116.1,61.9L116.1,61.9c1.7-0.1,2.9,0.9,2.6,2.5l0,0l-2.6,0L116.1,61.9z"/>
				<polygon class="st3" points="109.4,73.9 112.7,73.9 112.5,77.2 109.5,77.2 				"/>
				<polygon class="st3" points="109.2,73.3 109.6,73 109.6,73.9 108.2,73.9 				"/>
				<polygon class="st3" points="105.5,75.5 107.7,75.5 107.5,78.8 104.5,78.8 104.4,75.9 				"/>
				<polygon class="st3" points="99.2,78.2 102.4,76.9 102.2,80 99.2,80 				"/>
			</g>
			<path class="st4" d="M98.5,78.4c0,0-3.2-0.3-3.4,0.2c-0.3,0.5,0.7,0.3,0.7,0.7c-0.1,0.4-3.7,1.1-3.2,1.4c0.5,0.4,1.6,0.2,1.6,0.2
				s-1.5,0.4-1.1,0.6c0.4,0.2,1.8-0.1,1.8-0.1s-0.8,0.5-0.4,0.7c0.4,0.2,1.4-0.2,1.4-0.2s-0.6,1,0,0.7c0.6-0.3,3-2.4,3-2.4
				L98.5,78.4z"/>
			<path class="st5" d="M118.1,69.6c0.8-1.4,1.1-4.3,0.5-5.8c-0.1-0.2-0.2,0.9-0.2,1c-0.1,2.4-5.5,9-5.9,9.5c-0.4,0.5-0.8,2-0.9,1.6
				c-0.1-0.4-0.4-2.6-0.7-2.4c-0.5,0.4,0.4,3.1,0.4,3.1s-1.4-1.6-1.5-1.3c-0.1,0.3,0.7,2.1,0.6,2.1c-0.1,0.1-1.1-1.3-1.2-0.8
				c-0.1,0.6,0.1,1.2-0.7,1.4c-0.7,0.2-9.8,1.8-9.8,1.8l0.3,0.6c0,0,7.4-0.9,11.5-2.2C113.5,77.3,116.4,72.4,118.1,69.6z"/>
			<polygon class="st6" points="98.2,78.3 98.6,80.6 99.2,80.3 98.8,78.3 			"/>
		</g>
		<g>
			<path class="st7" d="M124.4,61.8c0,0-2.2-4.9-2.1-6.4c0.1-1.5,0.5-4.8-2.1-5.4c-2.6-0.7-3.5,1.6-3.8,2.6
				c-0.2,0.9-0.7,3.5-0.5,3.5c0.2,0.1,0.7-0.3,0.7-0.3s-0.2,1.6,0.4,2.2c0.7,0.6,1.6,0.4,1.6,0.4s0.6,1.5,0.4,2.2
				c-0.2,0.7-0.6,1.5-0.6,1.5S123.6,64.2,124.4,61.8z"/>
			<path class="st4" d="M122.2,62.4c0,0,0-0.1-0.1-0.2c-0.2-0.5-0.8-2.4-1.3-4.2c-0.5-2.1-1-4.1-0.5-4.3c0.8-0.2,1.1-1.4,1.1-1.4
				s-0.9-0.7-1-0.3c-0.1,0.4-0.2,1.3-0.4,1.3s-0.3-0.4-0.8-1.3c-0.5-0.9-1.1-1.2-1.1-1.2s1.2-0.1,2,0.1c0.8,0.2,2.4,5,2.6,6.4
				c0.2,1.4,1.7,4.5,1.7,4.5S122.9,63.6,122.2,62.4z"/>
			<path class="st8" d="M122.8,57.3c0,0-1.2-0.8-1.6-1.7c-0.4-0.9-0.5-1.4-0.3-1.8c0.4-0.8,0.1-2.3-0.3-1.9
				c-0.4,0.4-0.3,1.5-0.6,1.2c-0.3-0.3-0.1-1.7-0.9-2.2c-0.9-0.5-1.8,0.1-2.4-0.2c-1.1-0.5,0.3-1.6,2.8-1.7c0.9-0.1,2.3,0.1,3,1.2
				c0.4,0.7-0.5,1.2,0.3,1.2c0.8,0.1,1.2,0.6,1.1,1.2C123.6,53.9,122.4,55.7,122.8,57.3z"/>
			<path class="st8" d="M121,53.1c0,0,0.8,0.5,1.4-0.2c0.7-0.7,0.8-1.4,0.8-1.4s0.8,0.2,0.7,1.2c-0.2,1-1,2.5-1.1,3.3
				c-0.1,0.8,0,1.4,0,1.4s-1.5-0.7-2.1-2.6C120.5,54.1,121,53.5,121,53.1z"/>
		</g>
		<g>
			<path class="st9" d="M127.5,139.3c-0.1,0.7,0.2,1.8,0.2,1.8l-3,0.8l0.4-4.9l2.9,0.4C128,137.4,127.7,138.5,127.5,139.3z"/>
			<path class="st9" d="M125.7,141.4c0,0,0.8-0.9,0.9-1.4c0.1-0.5,0.3-0.9,0.2-1.3c-0.1-0.4-1.2-1-1.2-1l2.2,0.2
				c0,0-0.3,1.3-0.3,1.8c0,0.5,0.1,1.1,0.1,1.1L125.7,141.4z"/>
			<path class="st10" d="M127.9,140.9c0,0.5,0,2.5,0,2.5l-7.7,0l0.5-1.3c0,0,1-0.2,2.3-0.8c1.4-0.6,1.4-1.1,1.4-1.1s0.9,0,0.9,0.7
				c0,0.7-0.2,0.6-0.2,0.6L127.9,140.9z"/>
			<g>
				<path class="st11" d="M120.6,143.1c-0.1,0-0.1-0.1-0.1-0.1c0-0.1,0-0.1,0.1-0.1l7.1-0.3c0.1,0,0.1,0,0.1,0.1
					c0,0.1,0,0.1-0.1,0.1L120.6,143.1C120.6,143.1,120.6,143.1,120.6,143.1z"/>
			</g>
		</g>
		<g>
			<path class="st9" d="M117.6,139.3c-0.1,0.7,0.2,1.8,0.2,1.8l-3,0.8l0.4-4.9l2.9,0.4C118.1,137.4,117.8,138.5,117.6,139.3z"/>
			<path class="st9" d="M115.8,141.4c0,0,0.8-0.9,0.9-1.4c0.1-0.5,0.3-0.9,0.2-1.3c-0.1-0.4-1.2-1-1.2-1l2.2,0.2
				c0,0-0.3,1.3-0.3,1.8c0,0.5,0.1,1.1,0.1,1.1L115.8,141.4z"/>
			<path class="st10" d="M118,140.9c0,0.5,0,2.5,0,2.5l-7.7,0l0.5-1.3c0,0,1-0.2,2.3-0.8c1.4-0.6,1.4-1.1,1.4-1.1s0.9,0,0.9,0.7
				c0,0.7-0.2,0.6-0.2,0.6L118,140.9z"/>
			<g>
				<path class="st11" d="M110.7,143.1c-0.1,0-0.1-0.1-0.1-0.1c0-0.1,0-0.1,0.1-0.1l7.1-0.3c0.1,0,0.1,0,0.1,0.1
					c0,0.1,0,0.1-0.1,0.1L110.7,143.1C110.7,143.1,110.7,143.1,110.7,143.1z"/>
			</g>
		</g>
		<path class="st12" d="M123.4,137.5c0,0-1.2-14.4-1.3-19.5c-0.2-5.8-2.8-26.8-1.2-29c1-1.3,4.9,0.5,6.1,0.9c1.6,0.5,0-1.5,0.8-0.9
			c1.9,1.6,2.2,4.1,2.1,6.9c-0.2,8.4-2.1,21.9-2.1,21.9l0.6,19.5L123.4,137.5z"/>
		<path class="st12" d="M117.6,114.6c0,0,5.6-18.1,5.5-18.8c-0.2-0.7,0-2.9,3-2.7c3,0.1,2.7-1.1,2.7-1.1s-9.2-6.3-10.5-6
			c-1.3,0.2-3.5,2.6-3.5,2.6s-1,18.5-0.7,27c0.3,8.4,0.6,21.1,0.6,21.1l3.5,0.2L117.6,114.6z"/>
		<path class="st11" d="M114.7,89.8c0,0,1.3,1.4,4.2,2.3c3,0.9,7.2,1.2,7.4,1.6c0.2,0.4,1.2,19.9,0.8,20.3s-2.6,2.4-2.3,2.4
			c0.3,0,2.6-1.3,2.6-1c-0.1,0.3-2.4,3.1-1.8,2.9c0.7-0.2,1.8-1,1.8-1s-0.7,1.1-0.6,1.4c0.1,0.3-4.3,8.4-4.3,8.4l0.4,12.2h6.2
			l-0.4-22.2c0,0,1.4-20.9,1.4-22.4c0-1.6,0-4,0-4s-1.6,1.6-3.4,1c-1.8-0.6-4.7-2.7-4.7-2.7l-6,0L114.7,89.8z"/>
		<path class="st13" d="M122.6,89c0,0-2,0.2-4,0c-1.3-0.1-2.4-0.4-2.4-0.4s1.4-2.1,3-2.1C120.4,86.6,122.6,89,122.6,89L122.6,89z"/>
		<path class="st1" d="M127.1,97.2c3.1,0.6,4.7-0.4,4.6-1.2c-0.4-3-3.1-19.9-2-23.3c1.3-4,0.8-8.5-0.2-9.1c-1.3-0.8-7.1-2-10.8-2
			c-0.1,0-0.3-0.1-0.4-0.1c-1.2,0-2.2,0.3-2.5,0.6c-1.3,1.5-3.4,8.7-2.3,12.1c1.1,3.4,0.4,13.4,0.4,13.4s5.5-3.4,8.7,0.7
			C125.2,91.7,124.8,96.7,127.1,97.2z"/>
		<path class="st6" d="M124.7,62.4l-5.1,10.8l-1-11.6C118.6,61.6,123.3,62,124.7,62.4z"/>
		<path class="st13" d="M121.5,69.3c0,0,1.2-3.7,0.6-5.5c-0.2-0.6-0.8-0.9-0.8-0.9l-1,0.1l-1.5,0.1l-0.2-1.7l1.1-0.2l1,0.5l3.5,0.3
			l0.7,0.1L121.5,69.3z"/>
		<path class="st14" d="M120.2,61.6l0.9,1.7c0,0,1.4-1.3,1.4-1.4C122.4,61.7,120.2,61.6,120.2,61.6z"/>
		<polygon class="st14" points="121,62.5 119.3,70 119.6,73.5 121,70.3 121.5,62.4 		"/>
		<path class="st11" d="M117.4,75.9c0,0,1.1,4.1,3.3,7.7c2.8,4.7,6.5,12.9,6.5,12.9l-0.1,0.6c-2.1-0.1-5.9-8.8-7.5-10.3
			c-0.4-0.4-3.3,8.6-4.1,9.3c-1.5,1.1-1.4,0.4-1.8,0.2c-0.5-0.3,0.5-18.3,0-20.1c-0.5-1.8-1.2-4.3-1.1-5.2c0.1-0.8,3-8.9,3-8.9
			s0.6-0.7,2.1-0.7c0.6,0,0.6,0,0.6,0l0,12.2L117.4,75.9z"/>
		<g class="st15">
			<polygon class="st3" points="126.5,67.9 130.2,68.3 127.8,71.9 126,71.7 			"/>
			<polygon class="st3" points="123.2,71.3 126.2,71.8 125.4,75.6 122.1,75.1 122.4,72.3 			"/>
			<polygon class="st3" points="125.5,75.6 129.2,76.1 128.5,79.8 125.1,79.3 			"/>
			<polygon class="st3" points="121.5,78.9 125.2,79.3 124.4,83.1 121,82.6 			"/>
			<polygon class="st3" points="118.5,74.4 122.2,74.9 121.5,78.6 118.1,78.2 			"/>
			<polygon class="st3" points="113.9,77.9 118.1,78.2 117.4,81.9 113.7,81.6 			"/>
			<polygon class="st3" points="117.3,82.1 121,82.6 120.2,86.3 116.9,85.9 			"/>
			<polygon class="st3" points="120.2,86.4 123.9,86.8 123.1,90.6 121.9,90.4 120.1,87.4 			"/>
			<polygon class="st3" points="124.1,83.1 127.8,83.5 127,87.3 123.7,86.8 			"/>
			<polygon class="st3" points="128.2,79.8 129.6,80 130,83.9 127.8,83.6 			"/>
			<polygon class="st3" points="127.1,87.3 130.5,87.8 130.6,88.8 130,91.6 126.7,91.1 			"/>
			<polygon class="st3" points="123,90.6 126.7,91.1 125.9,94.8 124.5,94.6 122.7,91.9 			"/>
			<path class="st3" d="M126,94.8l3.7,0.5l-0.4,2.1l-1.2,0c-1.3,0-2.1-0.6-2.2-1.1L126,94.8z"/>
			<polygon class="st3" points="129.8,91.7 131,91.8 131.6,95.7 129.4,95.4 			"/>
			<polygon class="st3" points="113.6,85.7 116.7,86 116,89.7 113.6,89.5 			"/>
			<polygon class="st3" points="116.1,89.7 118.1,90 116.7,93.6 115.6,93.5 			"/>
			<path class="st3" d="M113.5,93l2.2,0.4l-0.5,2.6c-0.1,0.5-0.7,0.8-1.2,0.6l-0.4-0.2L113.5,93z"/>
			<polygon class="st3" points="112.9,73.6 115.2,73.9 114.4,77.7 114,77.6 			"/>
			<polygon class="st3" points="115.4,70.3 117.1,70.5 118.4,74.2 118.4,74.5 115,74 			"/>
			<polygon class="st3" points="113.9,66.4 116.2,66.6 115.4,70.3 112.8,69.9 			"/>
		</g>
		<path class="st5" d="M119.1,77.3l0.2,5.8l0.9-7.1l4.2-5.3v-0.5l3.2-2.3c0,0,2.7-2.4,1.9-4.2c-0.2-0.5-2.3-1-2.3-1l-2.7,6.6
			l-1.5-0.3l0.7,1.7l-4.6,5.4L119.1,77.3z"/>
		<g class="st16">
			<path class="st17" d="M119.6,87c-0.1,0-0.1-0.1-0.1-0.1L119,76.1l0,0l4.6-5.4l-0.8-1.8l1.6,0.3l2.5-5.9c0-0.1,0.1-0.1,0.2-0.1
				c0.1,0,0.1,0.1,0.1,0.2l-2.6,6.1l-1.4-0.3l0.7,1.5l-4.6,5.4l0.5,10.6C119.7,86.9,119.7,87,119.6,87L119.6,87z"/>
		</g>
		<polygon class="st5" points="115.7,62.3 115.7,67.9 117.1,67.9 116.2,69.2 119.1,76.2 117,69.2 117.8,67.5 116.4,67 116.4,62 		
			"/>
		<g class="st16">
			<path class="st17" d="M129.1,97.5c-0.5,0-1.1,0-2.1-0.2c-1.5-0.2-3.5-3.7-5.2-6.7c-0.9-1.7-1.8-3.3-2.3-3.6
				c-0.2,0.2-0.9,2-1.5,3.5c-0.9,2.5-2,5.3-2.7,5.8c-0.5,0.3-0.9,0.5-1.2,0.4c-0.4-0.1-0.6-0.3-0.6-0.3c0-0.1,0-0.1,0-0.2
				c0.1,0,0.1,0,0.2,0c0,0,0.1,0.2,0.4,0.2c0.3,0.1,0.7-0.1,1.1-0.4c0.6-0.5,1.7-3.4,2.6-5.7c1-2.5,1.4-3.6,1.7-3.7
				c0.1,0,0.1,0,0.1,0c0.5,0.3,1.4,1.8,2.4,3.7c1.6,2.9,3.6,6.4,5,6.6c2.3,0.3,2.8,0.1,2.9,0.1c0.1,0,0.1,0,0.2,0.1
				c0,0.1,0,0.1-0.1,0.2C130,97.4,129.8,97.5,129.1,97.5z"/>
		</g>
		<g>
			<path class="st18" d="M117.4,73.8h-3.4c-0.1,0-0.1-0.1-0.1-0.1c0-0.1,0.1-0.1,0.1-0.1h3.4c0.1,0,0.1,0.1,0.1,0.1
				C117.5,73.8,117.5,73.8,117.4,73.8z"/>
		</g>
		<g class="st16">
			<path class="st17" d="M128.5,84.5C128.5,84.5,128.4,84.5,128.5,84.5l-4-0.3c-0.1,0-0.1-0.1-0.1-0.1c0-0.1,0.1-0.1,0.1-0.1l4,0.3
				c0.1,0,0.1,0.1,0.1,0.1C128.6,84.5,128.5,84.5,128.5,84.5z"/>
		</g>
		<g class="st16">
			<path class="st17" d="M114,85.6c-0.1,0-0.1,0-0.1-0.1c0-0.1,0-0.1,0.1-0.1l2.3-0.4c0.1,0,0.1,0,0.1,0.1c0,0.1,0,0.1-0.1,0.1
				L114,85.6C114,85.6,114,85.6,114,85.6z"/>
		</g>
		<polygon class="st19" points="115.8,71.7 114.5,73.6 116.9,73.6 		"/>
		<polygon class="st14" points="115.2,73.6 116,72.5 115.7,71.9 115.8,71.7 116.9,73.6 		"/>
		<polygon class="st6" points="123.9,62.7 124.5,61.9 122.9,61.2 122.1,62.2 122.5,62.4 122.6,62.8 		"/>
		<polygon class="st6" points="120.5,62.1 119.9,60.9 118.4,60.9 118.9,62.1 119.8,62.4 119.9,61.9 		"/>
		<polygon class="st14" points="122.6,62.6 121.7,62.5 122.2,62 122.6,62 		"/>
		<polygon class="st14" points="120.4,61.9 119.9,61.7 119.8,62.3 120.7,62.6 		"/>
		<polygon class="st14" points="121.7,62.6 121.1,62.9 120.6,62.4 120.9,63 121.4,63 		"/>
		<path class="st11" d="M121.3,103.7c0,0,0.2-1.7-0.3-2.6c-0.3-0.5-1.5-0.9-1.8-1.8c-0.2-0.7-0.2-5.5-0.2-5.5s-1.3,12.5-1.7,14.7
			c-0.4,2.2-0.5,4.7-0.5,4.7s-3.3,1-2.7,1.3c0.6,0.3,2.9-0.4,2.8,0c-0.1,0.4-2.9,1.9-2.3,1.9c0.6,0,2.4-0.8,2.4-0.5
			c-0.1,0.3-1.4,2-1.4,2l1.7-0.7l-2.9,12.1l-0.2,10.2l6.1-0.1c0,0-0.1-23.4,0-24.8C120.4,113.3,121.3,103.7,121.3,103.7z"/>
		<g class="st16">
			<path class="st17" d="M126.1,118.1C126,118.1,126,118.1,126.1,118.1c-0.1-0.1-0.1-0.2-0.1-0.2l1.9-1.4c0.5-0.3,0.8-0.9,0.9-1.5
				c0.1-0.5,0.1-0.9,0.1-1.2c0.1-0.8,1-16.5,1-16.6c0-0.1,0.1-0.1,0.1-0.1c0.1,0,0.1,0.1,0.1,0.1c0,0.2-0.9,15.8-1,16.6
				c0,0.3-0.1,0.7-0.1,1.2c-0.1,0.7-0.5,1.3-1,1.7L126.1,118.1C126.1,118.1,126.1,118.1,126.1,118.1z"/>
		</g>
		<g class="st16">
			<path class="st17" d="M126.3,117.2C126.3,117.2,126.2,117.2,126.3,117.2c-0.1-0.1-0.1-0.1-0.1-0.2l1.6-2.1l-2.2,0.8
				c-0.1,0-0.1,0-0.2-0.1c0-0.1,0-0.1,0.1-0.2l2.6-0.9c0,0,0.1,0,0.1,0c0,0,0,0.1,0,0.1L126.3,117.2
				C126.4,117.2,126.3,117.2,126.3,117.2z"/>
		</g>
		<g class="st16">
			<path class="st17" d="M115,116.5c-0.1,0-0.1,0-0.1-0.1c0-0.1,0-0.1,0.1-0.2c1.9-0.6,4.7-1.5,5.2-1.7l0.9-10.6l-0.2-2.9
				c-0.2-0.1-1.2-0.7-1.6-1.5c-0.5-0.9-0.3-5.6-0.3-5.8c0-0.1,0.1-0.1,0.1-0.1c0.1,0,0.1,0.1,0.1,0.1c-0.1,1.7-0.1,5,0.2,5.7
				c0.5,0.8,1.6,1.4,1.6,1.4c0,0,0.1,0.1,0.1,0.1l0.2,3l-0.9,10.7c0,0,0,0.1-0.1,0.1C120,115,115.5,116.3,115,116.5
				C115,116.5,115,116.5,115,116.5z"/>
		</g>
		<g class="st16">
			<path class="st17" d="M114.9,114.3C114.8,114.3,114.8,114.3,114.9,114.3c-0.1,0-0.1-0.1-0.1-0.2c0-0.1,0.1-0.1,0.1-0.1
				c0.2,0,1.6-0.3,2.7-0.5l-1.4-0.3c-0.1,0-0.1-0.1-0.1-0.1c0-0.1,0.1-0.1,0.1-0.1l1.9,0.5c0.1,0,0.1,0.1,0.1,0.1
				c0,0.1,0,0.1-0.1,0.1C115.4,114.3,115,114.3,114.9,114.3z"/>
		</g>
		<g class="st16">
			<path class="st17" d="M117.4,120.8C117.3,120.8,117.3,120.8,117.4,120.8c-0.1,0-0.1-0.1-0.1-0.2l1.1-4.3l-1.1,0.2
				c-0.1,0-0.1,0-0.1-0.1c0-0.1,0-0.1,0.1-0.1l1.3-0.3c0,0,0.1,0,0.1,0c0,0,0,0.1,0,0.1l-1.2,4.5
				C117.5,120.7,117.4,120.8,117.4,120.8z"/>
		</g>
		<g class="st16">
			<path class="st17" d="M129.7,85.3c-0.1,0-0.1,0-0.1-0.1l-2.5-8.6c0-0.1,0-0.1,0.1-0.2c0.1,0,0.1,0,0.2,0.1l2.5,8.6
				C129.8,85.2,129.8,85.3,129.7,85.3C129.7,85.3,129.7,85.3,129.7,85.3z"/>
		</g>
		<g class="st16">
			<path class="st17" d="M129.4,79.5c-0.1,0-0.1,0-0.1-0.1l-1.2-4.3c0-0.1,0-0.1,0.1-0.2c0.1,0,0.1,0,0.2,0.1l1.2,4.3
				C129.5,79.5,129.5,79.5,129.4,79.5C129.4,79.5,129.4,79.5,129.4,79.5z"/>
		</g>
		<g>
			<path class="st12" d="M130,69c0,0-5.7,9.9-10.2,11c-6.1,1.5-14.4,1-14.4,1l-0.1-2.2c0,0,8.2-1.9,13.3-4.4c2-1,6.9-10.7,7.7-11.4
				c0.6-0.6,2.4-0.6,3.4,0.7C130.5,64.8,130.8,66.7,130,69z"/>
			<g class="st2">
				<polygon class="st3" points="124.9,65 127.3,65.6 126.5,69.1 123,68.4 				"/>
				<polygon class="st3" points="126.5,69.2 129.1,69.6 126.7,72.9 126,73 				"/>
				<polygon class="st3" points="123,68.4 123.2,68.4 122.4,72.2 120.7,72 				"/>
				<polygon class="st3" points="122.5,72.2 126.2,72.7 124.8,76.1 122.1,75.9 				"/>
				<path class="st3" d="M127.6,62.8L127.6,62.8c1.9,0.1,2.9,1.9,2.6,3.2l0,0l-2.9-0.4L127.6,62.8z"/>
				<polygon class="st3" points="118.2,75.3 121.9,75.8 121.1,79.6 117.7,79.1 				"/>
				<polygon class="st3" points="118,74.7 118.5,74.4 118.4,75.4 116.9,75.2 				"/>
				<polygon class="st3" points="113.4,76.5 116,76.9 115.2,80.7 111.9,80.2 112.2,76.9 				"/>
				<polygon class="st3" points="106,78.7 109.9,77.6 109.2,80.9 105.8,80.7 				"/>
			</g>
			<path class="st7" d="M105.3,78.9c0,0-3.5-0.8-3.9-0.3c-0.4,0.5,0.8,0.5,0.6,0.9c-0.2,0.4-4.3,0.7-3.8,1.1
				c0.5,0.5,1.8,0.5,1.8,0.5s-1.7,0.3-1.3,0.6c0.4,0.3,2,0.1,2,0.1s-1,0.5-0.5,0.7c0.5,0.3,1.6,0,1.6,0s-0.8,1.1-0.1,0.8
				c0.7-0.2,3.7-2.2,3.7-2.2L105.3,78.9z"/>
			<path class="st5" d="M128.6,71.5c2.1-3,2.1-4.6,1.7-6.4c0-0.2-0.6,1.2-0.6,1.3c-0.5,2.7-7.5,9.4-8.1,9.9
				c-0.5,0.5-1.2,2.2-1.2,1.7c0-0.5-0.1-3-0.4-2.8c-0.6,0.3,0,3.5,0,3.5s-1.3-2.1-1.5-1.7c-0.2,0.3,0.5,2.4,0.3,2.5
				c-0.1,0.1-1-1.7-1.3-1.1c-0.2,0.6-0.1,1.4-1,1.5c-0.9,0.1-11.3,0.5-11.3,0.5l0.2,0.8c0,0,8.5,0.1,13.3-0.7
				C122.3,79.8,126.4,74.6,128.6,71.5z"/>
			<polygon class="st6" points="104.9,78.7 105,81.3 105.8,81.1 105.6,78.8 			"/>
		</g>
		<g class="st16">
			<path class="st17" d="M107.7,81.1c-1.1,0-1.8,0-1.8,0c-0.1,0-0.1-0.1-0.1-0.1c0-0.1,0.1-0.1,0.1-0.1c0,0,0,0,0,0
				c0.1,0,10.6,0.2,14.3-1c3.7-1.2,9.5-10.3,9.6-10.4c0-0.1,0.1-0.1,0.2,0c0.1,0,0.1,0.1,0,0.2c-0.2,0.4-5.9,9.2-9.7,10.5
				C117.4,81,110.9,81.1,107.7,81.1z"/>
		</g>
		<g class="st16">
			<path class="st17" d="M120.5,79.9l-2-2.9c0-0.1,0-0.1,0-0.2c0.1,0,0.1,0,0.2,0l1.5,2.1l-0.3-3.9c0-0.1,0-0.1,0.1-0.1
				c0.1,0,0.1,0,0.1,0.1L120.5,79.9z"/>
		</g>
		<g class="st16">
			<path class="st17" d="M118.9,79.9C118.9,79.9,118.9,79.9,118.9,79.9l-1.6-1.8c0-0.1,0-0.1,0-0.2c0,0,0.1,0,0.2,0l1.5,1.7
				C119.1,79.8,119.1,79.9,118.9,79.9C119,79.9,119,79.9,118.9,79.9z"/>
		</g>
	</g>
	<g>
		<g>
			<path class="st20" d="M56.1,139.3c0.1,0.7-0.2,1.8-0.2,1.8l3,0.8l-0.4-4.9l-2.9,0.4C55.6,137.4,55.9,138.5,56.1,139.3z"/>
			<path class="st20" d="M57.9,141.4c0,0-0.8-0.9-0.9-1.4c-0.1-0.5-0.3-0.9-0.2-1.3c0.1-0.4,1.2-1,1.2-1l-2.2,0.2
				c0,0,0.3,1.3,0.3,1.8c0,0.5-0.1,1.1-0.1,1.1L57.9,141.4z"/>
			<path class="st21" d="M55.7,140.9c0,0.5,0,2.5,0,2.5l7.7,0l-0.5-1.3c0,0-1-0.2-2.3-0.8c-1.4-0.6-1.4-1.1-1.4-1.1s-0.9,0-0.9,0.7
				c0,0.7,0.2,0.6,0.2,0.6L55.7,140.9z"/>
			<g>
				<path class="st20" d="M63,143.1C63,143.1,63,143.1,63,143.1l-7.1-0.3c-0.1,0-0.1-0.1-0.1-0.1c0-0.1,0.1-0.1,0.1-0.1l7.1,0.3
					c0.1,0,0.1,0.1,0.1,0.1C63.1,143.1,63.1,143.1,63,143.1z"/>
			</g>
		</g>
		<g>
			<path class="st20" d="M70.7,139.3c0.1,0.7-0.2,1.8-0.2,1.8l3,0.8l-0.4-4.9l-2.9,0.4C70.2,137.4,70.5,138.5,70.7,139.3z"/>
			<path class="st20" d="M72.5,141.4c0,0-0.8-0.9-0.9-1.4c-0.1-0.5-0.3-0.9-0.2-1.3c0.1-0.4,1.2-1,1.2-1l-2.2,0.2
				c0,0,0.3,1.3,0.3,1.8c0,0.5-0.1,1.1-0.1,1.1L72.5,141.4z"/>
			<path class="st21" d="M70.3,140.9c0,0.5,0,2.5,0,2.5l7.7,0l-0.5-1.3c0,0-1-0.2-2.3-0.8c-1.4-0.6-1.4-1.1-1.4-1.1s-0.9,0-0.9,0.7
				c0,0.7,0.2,0.6,0.2,0.6L70.3,140.9z"/>
			<g>
				<path class="st20" d="M77.6,143.1L77.6,143.1l-7.1-0.3c-0.1,0-0.1-0.1-0.1-0.1c0-0.1,0.1-0.1,0.1-0.1l7.1,0.3
					c0.1,0,0.1,0.1,0.1,0.1C77.7,143.1,77.7,143.1,77.6,143.1z"/>
			</g>
		</g>
		<g>
			<g>
				<path class="st7" d="M64.1,61.9c0,0,1.8-5,1.7-6.4c-0.1-1.4-0.4-4.3,1.8-4.9c2.2-0.6,3,1.5,3.2,2.3c0.2,0.8,0.6,3.1,0.5,3.2
					c-0.1,0-0.6-0.3-0.6-0.3s0.2,1.5-0.4,2c-0.6,0.5-1.4,0.4-1.4,0.4s-0.6,2.1-0.5,2.7c0.2,0.6,0.9,2,0.9,2S64.8,64.1,64.1,61.9z"/>
				<path class="st4" d="M65.9,61.8c0,0,0,0,0-0.1c0.2-0.5,0.7-2.2,1.1-3.8c0.4-1.9,1.1-5.2,0.7-5.3c-0.7-0.2-1.2,0.1-1.2,0.1
					s0.7-0.6,0.9-0.3c0.1,0.3,0.1,1.2,0.3,1.2c0.2,0,0.3-0.4,0.7-1.2c0.4-0.8,0.9-1.1,0.9-1.1s-1.1-0.1-1.8,0.1
					c-0.7,0.2-2.1,4.6-2.2,5.8c-0.2,1.3-1.4,5.2-1.4,5.2S65.3,63,65.9,61.8z"/>
			</g>
			<path class="st22" d="M59.3,137c0,0,3.5-11.2,5.1-17.6c1.4-5.6,4.7-28.3,3-30.5c-1-1.3-4.9,0.5-6.1,0.9c-1.6,0.5,0-1.5-0.8-0.9
				c-1.9,1.6-2.2,4.1-2.1,6.9c0.2,8.4,1,21.5,1,21.5l-3.9,19.8L59.3,137z"/>
			<path class="st22" d="M70.7,114.6c0,0-5.6-18.1-5.5-18.8c0.2-0.7,0-2.9-3-2.7c-3,0.1-2.7-1.1-2.7-1.1s9.2-6.3,10.5-6
				c1.3,0.2,3.5,2.6,3.5,2.6s2,17.4,1.8,25.8c-0.3,8.4-1.7,22.3-1.7,22.3l-3.5,0.2L70.7,114.6z"/>
			<path class="st23" d="M73.6,89.8c0,0-1.3,1.4-4.2,2.3c-3,0.9-7.2,1.2-7.4,1.6c-0.2,0.4-1.2,19.9-0.8,20.3
				c0.3,0.4,2.6,2.4,2.3,2.4s-2.6-1.3-2.6-1c0.1,0.3,2.4,3.1,1.8,2.9c-0.7-0.2-1.8-1-1.8-1s0.8,1.9,0.7,2.2c-0.1,0.3-1.2,7.2-1,9.2
				c0.2,1.9,0.4,2.7,0.4,2.7l-2.1,6.7l-3.6-0.1c0,0,3-16.3,3.4-17.8c0.4-1.6,0.8-2.9,0.8-2.9s-1.3-21.1-1.4-22.4c-0.1-1.6,0-4,0-4
				s1.6,1.6,3.4,1c1.8-0.6,4.7-2.7,4.7-2.7l6,0L73.6,89.8z"/>
			<path class="st24" d="M65.9,88.8c0,0,1.3,0.3,3.1,0.2c1.8-0.1,3.3-0.4,3.3-0.4s-1.3,1.1-4.6,1.5c-1.5,0.2-2.6,0.6-3.2,1
				c-0.7,0.4-2.9,1.3-3.9,1.4c-1,0.1-1.4-0.7-1.4-0.7L65.9,88.8z"/>
			<path class="st13" d="M65.7,89c0,0,2,0.2,4,0c1.3-0.1,2.4-0.4,2.4-0.4s-1.4-2.1-3-2.1C67.9,86.6,65.7,89,65.7,89L65.7,89z"/>
			<path class="st23" d="M58.5,91.4c-0.5-0.6-0.8-0.9-0.6-2.3c0.3-3,1.8-13,0.7-16.4c-1.3-4-0.8-8.5,0.2-9.1c1.3-0.8,7.1-2,10.8-2
				c0.1,0,0.3-0.1,0.4-0.1c1.2,0,2.2,0.3,2.5,0.6c1.3,1.5,3.4,8.7,2.3,12.1c-1.1,3.4-0.4,13.4-0.4,13.4s-5.5-3.4-8.7,0.7
				C63.1,91.7,60.1,93.1,58.5,91.4z"/>
			<path class="st6" d="M63.6,62.4l5.1,10.8l1-11.6C69.7,61.6,64.9,62,63.6,62.4z"/>
			<path class="st13" d="M66.8,69.3c0,0-1.2-3.7-0.6-5.5c0.2-0.6,0.8-0.9,0.8-0.9l1,0.1l1.5,0.1l0.2-1.7l-1.1-0.2l-1,0.5l-3.5,0.3
				l-0.7,0.1L66.8,69.3z"/>
			<path class="st22" d="M70.5,67.5c0,0,2,3.3,7.1,7c5.1,3.7,13.1,4.7,13.1,4.7l0.6-2.1c0,0-8.5-3.9-12.5-7.9
				c-3.7-3.8-5.3-6-5.9-6.9C72.2,61.1,70.6,65.8,70.5,67.5z"/>
			<path class="st25" d="M68.1,61.6l-0.9,1.7c0,0-1.4-1.3-1.4-1.4C65.9,61.7,68.1,61.6,68.1,61.6z"/>
			<polygon class="st26" points="67.3,62.5 68.9,70 68.7,73.5 67.3,70.3 66.8,62.4 			"/>
			<path class="st7" d="M91.4,77.1c0,0,4.3,0,4.6,0.6c0.3,0.6-1.6,0.3-1.6,0.7c0.1,0.4,4.1,1.6,3.4,2s-2.5-0.6-2.5-0.6
				s2.3,1.3,1.8,1.5s-2.6-0.7-2.6-0.7s1.5,1,1,1.2c-0.5,0.1-2-0.9-2-0.9s1,1.7,0.4,1.4c-0.6-0.4-3.1-3-3.1-3L91.4,77.1z"/>
			<path class="st22" d="M67.4,71.4c0,0,1,7.7-1.2,11.3c-2.8,4.7-5,8.9-5,8.9l-0.5,0.5c2.1-0.1,5.7-3.5,7.3-5
				c0.4-0.4,1.3-0.7,1.8-0.4c1.5,1,4.6,3.2,5,3c0.5-0.3-0.6-11.7-0.1-13.5c0.5-1.8,1.2-4.3,1.1-5.2c-0.1-0.8-3-8.9-3-8.9
				s-0.6-0.7-2.1-0.7c-0.6,0-0.6,0-0.6,0l-1.2,13.3L67.4,71.4z"/>
			<path class="st24" d="M69.1,77.3L69,83.1l-0.9-7.1l-4.2-5.3v-0.5l-3.2-2.3c0,0-2.7-2.4-1.9-4.2c0.2-0.5,2.3-1,2.3-1l2.7,6.6
				l1.5-0.3l-0.7,1.7l4.6,5.4L69.1,77.3z"/>
			<g class="st16">
				<path class="st17" d="M68.8,86.7L68.8,86.7c-0.1,0-0.1-0.1-0.1-0.1l0.3-10.3l-4.6-5.4l0.7-1.5l-1.4,0.3l-2.6-6.1
					c0-0.1,0-0.1,0.1-0.2c0.1,0,0.1,0,0.2,0.1l2.5,5.9l1.6-0.3l-0.8,1.8l4.6,5.4l0,0L69,86.5C69,86.6,68.9,86.7,68.8,86.7z"/>
			</g>
			<polygon class="st24" points="72.6,62.3 72.6,67.9 71.2,67.9 72.1,69.2 69.2,76.2 71.3,69.2 70.5,67.5 71.9,67 71.9,62 			"/>
			<g class="st16">
				<path class="st17" d="M60.2,92.2c-0.6,0-1.1-0.1-1.4-0.4c-0.7-0.5-0.8-1.3-0.8-1.3c0-0.1,0-0.1,0.1-0.1c0.1,0,0.1,0,0.1,0.1
					c0,0,0.1,0.7,0.7,1.1c0.4,0.3,1,0.5,1.8,0.3c1.8-0.3,4.7-2.8,6.5-4.4c0.5-0.4,0.8-0.7,1-0.9c1-0.8,2.2,0.2,3.2,1.1
					c0.3,0.2,0.5,0.4,0.7,0.6c1.1,0.8,2.5,1.1,2.5,1.1c0.1,0,0.1,0.1,0.1,0.1c0,0.1-0.1,0.1-0.1,0.1c-0.1,0-1.4-0.3-2.6-1.2
					c-0.2-0.2-0.5-0.4-0.8-0.6c-1-0.9-2.1-1.7-2.9-1.1c-0.2,0.2-0.6,0.5-1,0.9c-1.8,1.6-4.7,4.2-6.6,4.4
					C60.5,92.2,60.4,92.2,60.2,92.2z"/>
			</g>
			<g class="st16">
				<path class="st17" d="M74.3,73.8h-3.4c-0.1,0-0.1-0.1-0.1-0.1c0-0.1,0.1-0.1,0.1-0.1h3.4c0.1,0,0.1,0.1,0.1,0.1
					C74.5,73.8,74.4,73.8,74.3,73.8z"/>
			</g>
			<g class="st16">
				<path class="st17" d="M59.8,84.5c-0.1,0-0.1,0-0.1-0.1c0-0.1,0-0.1,0.1-0.1l4-0.3c0.1,0,0.1,0,0.1,0.1c0,0.1,0,0.1-0.1,0.1
					L59.8,84.5C59.8,84.5,59.8,84.5,59.8,84.5z"/>
			</g>
			<g class="st16">
				<path class="st17" d="M74.2,83.2C74.2,83.2,74.2,83.2,74.2,83.2l-2.3-0.4c-0.1,0-0.1-0.1-0.1-0.1c0-0.1,0.1-0.1,0.1-0.1l2.3,0.4
					c0.1,0,0.1,0.1,0.1,0.1C74.3,83.2,74.2,83.2,74.2,83.2z"/>
			</g>
			<polygon class="st6" points="64.4,62.7 63.8,61.9 65.4,61.2 66.2,62.2 65.8,62.4 65.7,62.8 			"/>
			<polygon class="st6" points="67.8,62.1 68.4,60.9 69.9,60.9 69.4,62.1 68.5,62.4 68.4,61.9 			"/>
			<polygon class="st25" points="65.7,62.6 66.6,62.5 66.1,62 65.7,62 			"/>
			<polygon class="st25" points="67.9,61.9 68.4,61.7 68.5,62.3 67.6,62.6 			"/>
			<polygon class="st25" points="66.6,62.6 67.2,62.9 67.7,62.4 67.4,63 66.9,63 			"/>
			<path class="st24" d="M75.4,72.9c0,0-1.9-7.8-1.6-7.6c0.3,0.2,1.8,5,2.2,5.6c0.4,0.6,3.8,4.5,4,4c0.2-0.5,1.1-2.4,1.1-2.1
				c0,0.4-0.3,2.2-0.3,2.2s1.5-2.5,1.6-2.1c0.1,0.4-0.6,2.8-0.5,2.9s1-1.4,1.1-0.7c0.1,0.7,0,1.4,0.9,1.7c0.8,0.3,7.1,1.7,7.1,1.7
				l-0.1,0.7c0,0-4.7-0.4-9.2-2.3C77.1,75,75.4,72.9,75.4,72.9z"/>
			<path class="st23" d="M67,103.7c0,0,0.2-2,0.3-2.7c0-0.1,1.5-0.7,1.8-1.6c0.2-0.7,0.4-4.7,0.4-4.7s1,11.7,1.5,13.9
				c0.4,2.2,0.5,4.7,0.5,4.7s3.3,1,2.7,1.3c-0.6,0.3-2.9-0.4-2.8,0c0.1,0.4,2.9,1.9,2.3,1.9c-0.6,0-2.4-0.8-2.4-0.5
				c0.1,0.3,1.4,2,1.4,2l-1.7-0.7l3.2,14.8l-0.6,6.2l-3.8-0.1c0,0,0.1-22.3,0-23.7C69.6,113,67,103.7,67,103.7z"/>
			<g class="st16">
				<path class="st17" d="M67.3,90.3c-1.4,0-2.6-0.2-2.6-0.2c-0.1,0-0.1-0.1-0.1-0.1c0-0.1,0.1-0.1,0.1-0.1c0,0,1.7,0.3,3.3,0.2
					c0.1,0,0.1,0,0.1,0.1c0,0.1,0,0.1-0.1,0.1C67.7,90.3,67.5,90.3,67.3,90.3z"/>
			</g>
			<g class="st16">
				<path class="st17" d="M67.9,90.8l0-2.1l3-0.2l0,2.1L67.9,90.8z M68.1,88.9l0,1.6l2.5-0.2l0-1.6L68.1,88.9z"/>
			</g>
			<g class="st16">
				<path class="st17" d="M70.9,90.1c-0.1,0-0.1,0-0.1-0.1c0-0.1,0-0.1,0.1-0.1c0,0,0.8-0.2,1.3-0.4c0.4-0.2,0.8-0.6,0.8-0.6
					c0,0,0.1-0.1,0.2,0c0,0,0.1,0.1,0,0.2c0,0-0.4,0.5-0.9,0.6C71.7,89.9,70.9,90.1,70.9,90.1C70.9,90.1,70.9,90.1,70.9,90.1z"/>
			</g>
			<g class="st16">
				<path class="st17" d="M68,89.7c-0.1,0-0.1,0-0.1-0.1c0-0.1,0-0.1,0.1-0.1l1.9-0.1c0.1,0,0.1,0,0.1,0.1c0,0.1,0,0.1-0.1,0.1
					L68,89.7C68,89.7,68,89.7,68,89.7z"/>
			</g>
			<g class="st16">
				<path class="st17" d="M62.3,118.1C62.3,118.1,62.3,118.1,62.3,118.1l-2-1.4c-0.5-0.3-0.9-0.9-1-1.7c-0.1-0.5-0.1-0.9-0.1-1.2
					c-0.1-0.8-1.1-19.5-1.1-19.7c0-0.1,0-0.1,0.1-0.1c0.1,0,0.1,0,0.1,0.1c0,0.2,1.1,18.9,1.1,19.7c0,0.3,0.1,0.7,0.1,1.2
					c0.1,0.6,0.4,1.2,0.9,1.5l1.9,1.4C62.5,117.9,62.5,118,62.3,118.1C62.4,118.1,62.4,118.1,62.3,118.1z"/>
			</g>
			<g class="st16">
				<path class="st17" d="M62,117.2C62,117.2,61.9,117.2,62,117.2l-1.9-2.4c0,0,0-0.1,0-0.1c0,0,0.1-0.1,0.1,0l2.6,0.9
					c0.1,0,0.1,0.1,0.1,0.2c0,0.1-0.1,0.1-0.2,0.1l-2.2-0.8l1.6,2.1C62.1,117,62.1,117.1,62,117.2C62,117.2,62,117.2,62,117.2z"/>
			</g>
			<g class="st16">
				<path class="st17" d="M55.4,138.1C55.4,138.1,55.4,138.1,55.4,138.1c-0.1,0-0.1-0.1-0.1-0.1c0.1-0.7,3.2-16.8,3.5-18.2
					c0-0.1,0.1-0.1,0.1-0.1c0.1,0,0.1,0.1,0.1,0.1c-0.3,1.3-3.5,18-3.5,18.1C55.6,138,55.5,138.1,55.4,138.1z"/>
			</g>
			<g class="st16">
				<path class="st17" d="M73.3,116.5C73.3,116.5,73.2,116.5,73.3,116.5c-0.1,0-3.3-1.8-3.6-2c0,0,0,0-0.1-0.1L67,104c0,0,0,0,0-0.1
					l0.2-3c0,0,0-0.1,0.1-0.1c0,0,1.1-0.6,1.6-1.4c0.4-0.7,0.3-4,0.2-5.7c0-0.1,0-0.1,0.1-0.1c0.1,0,0.1,0,0.1,0.1
					c0,0.2,0.2,4.9-0.3,5.8c-0.4,0.8-1.4,1.4-1.6,1.5l-0.2,2.9l2.6,10.3c0.5,0.3,3.5,1.9,3.5,2c0.1,0,0.1,0.1,0,0.2
					C73.4,116.5,73.3,116.5,73.3,116.5z"/>
			</g>
			<g class="st16">
				<path class="st17" d="M73.4,114.3c-0.1,0-0.6-0.1-3.3-0.6c-0.1,0-0.1-0.1-0.1-0.1c0-0.1,0-0.1,0.1-0.1l1.9-0.5
					c0.1,0,0.1,0,0.1,0.1c0,0.1,0,0.1-0.1,0.1l-1.4,0.3c1.1,0.2,2.5,0.5,2.7,0.5h0c0.1,0,0.1,0,0.1,0.1
					C73.6,114.3,73.5,114.3,73.4,114.3C73.5,114.3,73.5,114.3,73.4,114.3z"/>
			</g>
			<g class="st16">
				<path class="st17" d="M70.9,120.8c-0.1,0-0.1,0-0.1-0.1l-1.2-4.5c0,0,0-0.1,0-0.1c0,0,0.1,0,0.1,0l1.3,0.3
					c0.1,0,0.1,0.1,0.1,0.1c0,0.1-0.1,0.1-0.1,0.1l-1.1-0.2l1.1,4.3C71.1,120.7,71,120.8,70.9,120.8C71,120.8,70.9,120.8,70.9,120.8
					z"/>
			</g>
			<g class="st16">
				<path class="st17" d="M59.8,94.2C59.7,94.2,59.7,94.2,59.8,94.2c-0.1,0-0.1-0.1-0.1-0.1v-0.8c0-0.1,0-0.1,0.1-0.1l4.7-1.5
					c0,0,0.1,0,0.1,0c0,0,0.1,0.1,0.1,0.1v0.6c0,0.1,0,0.1-0.1,0.1L59.8,94.2C59.8,94.2,59.8,94.2,59.8,94.2z M59.9,93.4v0.5
					l4.4-1.6v-0.4L59.9,93.4z"/>
			</g>
			<g>
				<path class="st18" d="M58.6,85.3C58.6,85.3,58.6,85.3,58.6,85.3c-0.1,0-0.1-0.1-0.1-0.2l2.5-8.6c0-0.1,0.1-0.1,0.2-0.1
					c0.1,0,0.1,0.1,0.1,0.2l-2.5,8.6C58.7,85.3,58.6,85.3,58.6,85.3z"/>
			</g>
			<polygon class="st6" points="91.8,77 91.1,79.6 90.4,79.1 91.1,77 			"/>
			<g>
				
					<rect x="59.7" y="74.4" transform="matrix(0.9565 0.2917 -0.2917 0.9565 26.683 -15.4727)" class="st10" width="11" height="14.8"/>
				<polygon class="st21" points="60.8,73.7 62.1,73.1 61.9,74 				"/>
				<polygon class="st27" points="68.2,89.4 67.6,89.6 58.7,86.5 62.1,73.7 62.7,73.5 72.2,76.4 				"/>
				
					<rect x="59.9" y="74.8" transform="matrix(0.9565 0.2917 -0.2917 0.9565 26.629 -15.3602)" class="st6" width="9.9" height="13.6"/>
				<g>
					<path class="st18" d="M70.7,77.3C70.7,77.3,70.6,77.3,70.7,77.3l-8.3-2.5c-0.1,0-0.1-0.1-0.1-0.2c0-0.1,0.1-0.1,0.2-0.1
						l8.2,2.5c0.1,0,0.1,0.1,0.1,0.2C70.8,77.2,70.7,77.3,70.7,77.3z"/>
				</g>
				<g>
					<path class="st18" d="M70.5,77.9C70.5,77.9,70.5,77.9,70.5,77.9l-8.3-2.5c-0.1,0-0.1-0.1-0.1-0.2c0-0.1,0.1-0.1,0.2-0.1
						l8.2,2.5c0.1,0,0.1,0.1,0.1,0.2C70.6,77.8,70.5,77.9,70.5,77.9z"/>
				</g>
				<g>
					<path class="st18" d="M70.3,78.5C70.3,78.5,70.3,78.5,70.3,78.5L62,76c-0.1,0-0.1-0.1-0.1-0.2c0-0.1,0.1-0.1,0.2-0.1l8.2,2.5
						c0.1,0,0.1,0.1,0.1,0.2C70.4,78.4,70.4,78.5,70.3,78.5z"/>
				</g>
				<g>
					<path class="st18" d="M70.1,79.1C70.1,79.1,70.1,79.1,70.1,79.1l-8.3-2.5c-0.1,0-0.1-0.1-0.1-0.2c0-0.1,0.1-0.1,0.2-0.1
						l8.2,2.5c0.1,0,0.1,0.1,0.1,0.2C70.2,79,70.2,79.1,70.1,79.1z"/>
				</g>
				<g>
					<path class="st18" d="M69.9,79.7C69.9,79.7,69.9,79.7,69.9,79.7l-8.3-2.5c-0.1,0-0.1-0.1-0.1-0.2c0-0.1,0.1-0.1,0.2-0.1
						l8.2,2.5c0.1,0,0.1,0.1,0.1,0.2C70,79.6,70,79.7,69.9,79.7z"/>
				</g>
				<g>
					<path class="st18" d="M69.8,80.3C69.7,80.3,69.7,80.3,69.8,80.3l-8.3-2.5c-0.1,0-0.1-0.1-0.1-0.2c0-0.1,0.1-0.1,0.2-0.1
						l8.2,2.5c0.1,0,0.1,0.1,0.1,0.2C69.9,80.2,69.8,80.3,69.8,80.3z"/>
				</g>
				<g>
					<path class="st18" d="M69.6,80.9C69.6,80.9,69.6,80.9,69.6,80.9l-8.3-2.5c-0.1,0-0.1-0.1-0.1-0.2c0-0.1,0.1-0.1,0.2-0.1
						l8.2,2.5c0.1,0,0.1,0.1,0.1,0.2C69.7,80.8,69.6,80.9,69.6,80.9z"/>
				</g>
				
					<linearGradient id="SVGID_1_" gradientUnits="userSpaceOnUse" x1="80.1027" y1="75.9989" x2="72.7466" y2="84.1363" gradientTransform="matrix(0.9565 0.2918 -0.2918 0.9565 14.7012 -16.8836)">
					<stop  offset="0.1882" style="stop-color:#35B1E0"/>
					<stop  offset="0.3865" style="stop-color:#34ADDB"/>
					<stop  offset="0.6096" style="stop-color:#319FCE"/>
					<stop  offset="0.8438" style="stop-color:#2C8AB7"/>
					<stop  offset="0.9785" style="stop-color:#287AA7"/>
				</linearGradient>
				<polygon class="st28" points="67,91 56.5,87.8 60.8,73.7 65.6,75.1 66.9,79.7 70.1,80.7 				"/>
				<path class="st22" d="M69,84.6c0,0-2.3-0.9-3.7-0.9c-1.2,0-7.5,0.3-7.5,0.3l1.3-4.3l10.5,2.9L69.2,84L69,84.6z"/>
			</g>
			<g>
				<path class="st23" d="M58.9,63.6c0,0-1.1,0.8-3,5.7c-1.9,5-5,11.3-3.6,12.5c2.1,1.9,14.3,1.1,14.3,1.1l0.4-2.6
					c0,0-7.8-0.8-9.3-2.2c-0.4-0.4,3.5-5.5,3.9-8.3C61.8,67,59.6,63.9,58.9,63.6z"/>
				<path class="st22" d="M66.8,80.8c0,0-8.7-1.3-9.4-1.5c-0.7-0.1-0.3-0.8-0.3-0.8s-2.9,1.5-2.5,0.9c0.4-0.6,2.4-1.3,2.4-1.3
					s-2.5,0-2.2-0.3c0.2-0.3,2.6-0.3,2.6-0.3l-2-1L57,76c0,0,2.9-4,3.6-5c1-1.4,0.8-2.7,0.8-2.7s0.3,0.6,0.2,2.1
					c-0.1,1.2-2.8,5.4-3.9,7.1c-0.2,0.3-0.2,0.8,0.1,0.8l9.1,1.9L66.8,80.8z"/>
				<path class="st24" d="M51.9,81.2c0,0.1,2.9-9,5.5-12c2.6-3,3.7-3.1,3.7-3.1s-1.4-2.9-2.2-2.6C57.6,64,51.1,79.3,51.9,81.2z"/>
				<g class="st16">
					<path class="st17" d="M61.7,69c-0.1,0-0.1,0-0.1-0.1c0,0-0.2-1.6-1-3.3c-0.8-1.6-1.6-1.8-1.6-1.9c-0.1,0-0.1-0.1-0.1-0.1
						c0-0.1,0.1-0.1,0.1-0.1c0,0,0.9,0.2,1.8,2c0.9,1.7,1,3.3,1,3.3C61.8,69,61.7,69,61.7,69C61.7,69,61.7,69,61.7,69z"/>
				</g>
				<g class="st16">
					<path class="st17" d="M52.5,82C52.5,82,52.5,82,52.5,82c-0.2-0.1-0.4-0.3-0.1-1.9c0.4-1.6,6.1-15.9,6.8-16.3
						c0.6-0.4,1.9-0.6,1.9-0.6c0.1,0,0.1,0,0.1,0.1c0,0.1,0,0.1-0.1,0.1c0,0-1.2,0.2-1.8,0.5c-0.5,0.4-6.2,14.1-6.7,16.1
						c-0.3,1.5,0,1.8,0,1.8c0,0.1,0.1,0.1,0,0.2C52.7,82.1,52.6,82,52.5,82z"/>
				</g>
				<path class="st6" d="M66.9,80.3l0.5,0.1l-0.3,2.5h-0.7C66.5,82.9,66.7,80.8,66.9,80.3z"/>
				<path class="st7" d="M67.4,81c0,0,0.9-0.5,1.7-0.8c0.8-0.3,1.5-0.4,1.4-0.2c0,0.2-1.1,0.9-0.9,0.9c0.2,0,1.2-0.3,1.4-0.6
					c0.2-0.3,0.3-0.5,0.4-0.4c0.2,0.1,0,1.1-0.1,1.3c-0.1,0.1,0.4,0.4,0.1,0.7c-0.3,0.3-0.1,0.2-0.2,0.6c0,0.4-0.4,0.3-0.4,0.6
					c0,0.3-0.2,0.4-0.4,0.5c-0.2,0.1-2-0.2-2.6-0.3c-0.6-0.1-0.7-0.2-0.7-0.2L67.4,81z"/>
			</g>
			<polygon class="st29" points="67.3,52.4 69.6,53.2 69.6,53.8 67.5,52.8 67.2,52.4 			"/>
			<g class="st16">
				<path class="st17" d="M69.5,54.3v-1.2l1.9,0v1.2L69.5,54.3z M69.7,53.4v0.7l1.4-0.1v-0.7L69.7,53.4z"/>
			</g>
			<g class="st16">
				<path class="st17" d="M92.8,80.8c0,0-0.1,0-0.1-0.1c0-0.1,0-0.1,0-0.2c0,0,0.8-0.5,1.2-1.2c0.3-0.6,0.2-0.9,0.2-0.9
					c0-0.1,0-0.1,0.1-0.2c0.1,0,0.1,0,0.2,0.1c0,0,0.2,0.4-0.2,1.1C93.8,80.3,92.9,80.8,92.8,80.8C92.9,80.8,92.9,80.8,92.8,80.8z"
					/>
			</g>
		</g>
	</g>
	<path class="st8" d="M65.2,58.3c0,0,1.2-0.9,1.5-1.8c0.4-0.9,0.4-1.4,0.2-1.8c-0.5-0.7-0.2-2.3,0.2-1.9c0.4,0.4,0.4,1.5,0.6,1.2
		c0.3-0.3,0-1.7,0.8-2.3c0.8-0.5,1.8,0,2.4-0.4c1-0.6-0.4-1.5-2.9-1.6c-0.9,0-2.3,0.2-2.9,1.3c-0.4,0.7,0.5,1.1-0.3,1.2
		s-1.2,0.6-1,1.3C64.2,54.9,65.5,56.6,65.2,58.3z"/>
	<path class="st8" d="M67.2,54.7c0,0,0,0.1,0,0.2c0,0.6-0.1,2.4,0,3c0.2,0.6,0.4,1,1.6,1.3s2.9,0.2,2.7-0.5
		c-0.2-0.7-0.8-2.3-0.8-2.3s-1.5,0.4-2.1-0.1c-0.6-0.5-0.8-2.4-1.2-2.1L67.2,54.7z"/>
</g>
</svg>
