<?xml version="1.0" encoding="utf-8"?>
<!-- Generator: Adobe Illustrator 21.1.0, SVG Export Plug-In . SVG Version: 6.00 Build 0)  -->
<svg version="1.1" id="Layer_1" xmlns="http://www.w3.org/2000/svg" xmlns:xlink="http://www.w3.org/1999/xlink" x="0px" y="0px"
	 viewBox="0 0 357 155" style="enable-background:new 0 0 357 155;" xml:space="preserve">
<style type="text/css">
	.st0{fill:#FFF465;}
	.st1{fill:#FEC438;}
	.st2{fill:#FFD668;}
	.st3{fill:#FFDA8B;}
	.st4{fill:#FFE5AE;}
	.st5{fill:#287AA7;}
</style>
<g>
	<path class="st0" d="M240.7,14.6c0-0.4-0.4-0.7-0.7-0.6c-1.4,0.5-2.9,0.9-4.3,1.3c-0.7,0.2-1.3,0.4-2,0.6c-0.2,0.1-2.3,0.6-1.4,0.2
		c0.1,0,0.1-0.2,0-0.1c-0.5,0.2-0.7,0.3-1,0.7c-0.2,0.2-0.1,0.6,0.2,0.6c1.9-0.2,3.9-0.7,5.8-1.2c-22.1,18.1-44.3,36.3-66.4,54.4
		c-4.3-4.8-8.5-9.6-12.8-14.4c-0.3-0.3-0.8-0.3-1.1,0c-6.7,7.4-13.4,14.8-20.2,22.2c-7.2-7.1-12.8-15.7-16.3-25.2
		c-0.2-0.6-0.8-0.7-1.3-0.3c-18.1,15.5-35.4,31.9-52.1,48.9c-3-5.1-5.6-10.4-7.5-16c-0.2-0.6-0.8-0.7-1.3-0.3
		c-16.1,12.7-31.9,26.2-46.1,41c-0.3,0.3,0.2,0.8,0.5,0.5c14.9-13.7,29.9-27.2,45.7-39.7c2,5.7,4.6,11.1,7.7,16.2
		c0.3,0.4,0.9,0.5,1.2,0.2c16.6-17.1,33.9-33.4,51.9-48.9c3.7,9.6,9.4,18.2,16.8,25.3c0.3,0.3,0.8,0.3,1.1,0
		c6.7-7.4,13.4-14.8,20.1-22.2c4.2,4.8,8.5,9.6,12.7,14.4c0.3,0.3,0.8,0.2,1.1,0c22.7-18.6,45.4-37.2,68.1-55.9
		c-0.3,2.5-0.6,5.3-0.2,7.7c0.1,0.5,0.9,0.5,1,0C240.9,21,240.6,17.5,240.7,14.6z"/>
	<g>
		<rect x="214" y="65.8" class="st1" width="26.5" height="75.3"/>
		<rect x="226.7" y="65.8" class="st2" width="13.8" height="75.3"/>
	</g>
	<g>
		<rect x="168.9" y="103.5" class="st3" width="26.5" height="37.6"/>
		<rect x="182.1" y="103.5" class="st4" width="13.3" height="37.6"/>
	</g>
	<g>
		<rect x="255.4" y="46.8" class="st3" width="26.5" height="94.3"/>
		<rect x="268.6" y="46.8" class="st4" width="13.3" height="94.3"/>
	</g>
	<g>
		<rect x="123.8" y="94.2" class="st1" width="26.5" height="47"/>
		<rect x="137" y="94.2" class="st2" width="13.3" height="47"/>
	</g>
	<g>
		<rect x="78.7" y="127" class="st3" width="26.5" height="14.1"/>
		<rect x="91.9" y="127" class="st4" width="13.3" height="14.1"/>
	</g>
	<rect x="60.3" y="141.1" class="st5" width="284.2" height="3.2"/>
</g>
</svg>
