<?xml version="1.0" encoding="utf-8"?>
<!-- Generator: Adobe Illustrator 21.1.0, SVG Export Plug-In . SVG Version: 6.00 Build 0)  -->
<svg version="1.1" id="Layer_1" xmlns="http://www.w3.org/2000/svg" xmlns:xlink="http://www.w3.org/1999/xlink" x="0px" y="0px"
	 viewBox="0 0 433.5 355.5" style="enable-background:new 0 0 433.5 355.5;" xml:space="preserve">
<style type="text/css">
	.st0{fill:#00D800;}
</style>
<g>
	<path class="st0" d="M123.8,244.8c2.3,2.3,4.5,4.7,6.8,7.1c0.6,0.6,1.1,1.2,1.7,1.8l0.9,0.9c0.1,0.1,0.2,0.1,0.2,0.2
		c0.3,0.2,0.5,0.5,0.8,0.7c0.5,0.5,1,0.9,1.5,1.4l0.7,0.7l0.3,0.4l0.2,0.2l0.1,0.1l0,0c0,0,0,0,0,0c1-1.4,2.2-2.7,3.3-4
		c5.6-6.8,11.4-13.6,17.2-20.3c11.5-13.4,22.8-26.5,33.1-39c34.3-42.6,77.2-84.1,120.8-118.2c1.1,1.4-0.9,6.3,3.2,4.1
		c2-1.2,3.8-2.1,5.4-2.9c1.6-0.8,3-1.4,4.3-1.9c2.5-1,4.3-1.4,5.8-1.4c2.8-0.1,3.8,1.3,4.9,2.8c1,1.4-10.8,8.2-6.2,6.9
		c-2.7,2-5.8,4.5-8.7,7c-2.9,2.5-5.7,4.8-7.7,6.8c-4.1,3.9-5.4,5.8,0.4,2.2c4.5-1.5,17.6-14,22.8-14.5c5.1-0.6-0.4,6.9,4.8,6.3
		c1.8-1.3,4.4-3.4,7.1-5.3c2.7-1.9,5.4-3.9,7.2-5.2c4.6-1.1-0.5,6.9,3.1,4.3c11.7-6.2,25.7-16.8,40.7-25.6c0.4,0.8,1.9,0.9,2.3,1.6
		c0.2,0.3,0.1,0.8-0.4,1.5c-0.5,0.7-1.5,1.6-3.3,2.9c-2.9,1.8-5.8,3.6-8.7,5.5c-2.9,1.9-5.7,3.8-8.6,5.7c-2.9,1.9-5.7,3.9-8.5,5.9
		c-2.8,2-5.7,3.9-8.4,6c-11.2,8.2-22.1,16.8-32.9,25.7c-10.7,9-21.3,18.1-31.7,27.7c-10.4,9.5-20.6,19.2-30.6,29.2
		c-10,10-19.9,20.1-29.6,30.5c-9.7,10.3-19.2,20.8-28.5,31.5c-9.4,10.6-18.5,21.4-27.6,32.3l-6.7,8.2l-3.3,4.1l-2.9,3.6l-3.4,4.3
		l-3.4,4.3l-3.3,4.4l-3.3,4.4l-3.3,4.4c-4.4,5.9-8.9,11.9-13.3,17.8c-13-15.3-26-30.6-39-45.8c-7-8.3-14.1-16.6-21.1-24.9
		c-14-16.6-27.9-33.3-41.6-50c-11-14.2,0.4-6.2,11.1,2.3c-3.6-2.8-1.6-4.5-5.2-7.4c2-1.7,11.1,2.3,23.5,15.4
		c-2.9-3.4-5.8-6.8-8.7-10.2c-2.2-4,2-1.7,3.3-2.8c2.9,3.4,5.8,6.8,6.5,6.3c0.7-0.6,2-1.7,2.7-2.3c-2.9-3.4-8.7-10.2-11.6-13.6
		c2.9,3.4,5.8,6.8,6.5,6.3c0.7-0.6,2-1.7,2.7-2.3c6.5,6.3,13.9,17.6,20.4,23.9l2-1.7c-5.2-7.4-14.5-17.1-20.4-23.9
		c3.6,2.8,4.2,2.3,5.6,1.1c9.4,9.7,16.1,21.6,26.8,30.1l-8.7-10.2C102.5,215.8,114.4,235.1,123.8,244.8z"/>
</g>
</svg>
