<?xml version="1.0" encoding="utf-8"?>
<!-- Generator: Adobe Illustrator 21.1.0, SVG Export Plug-In . SVG Version: 6.00 Build 0)  -->
<svg version="1.1" id="Layer_1" xmlns="http://www.w3.org/2000/svg" xmlns:xlink="http://www.w3.org/1999/xlink" x="0px" y="0px"
	 viewBox="0 0 172 137" style="enable-background:new 0 0 172 137;" xml:space="preserve">
<style type="text/css">
	.st0{display:none;fill:#59B2B2;}
	.st1{fill:#788C94;}
	.st2{fill:#647C87;}
	.st3{fill:#9BABB0;}
	.st4{fill:#3E7987;}
	.st5{fill:#707074;}
	.st6{fill:#959598;}
	.st7{fill:#81C5D4;}
	.st8{fill:#D4D4D4;}
	.st9{fill:#BAAEAF;}
	.st10{fill:#A3A3A3;}
	.st11{fill:#404040;}
	.st12{fill:#828282;}
	.st13{fill:#3F3F3F;}
	.st14{fill:url(#SVGID_1_);}
	.st15{fill:#1C1C1C;}
	.st16{fill:url(#SVGID_2_);}
	.st17{fill:url(#SVGID_3_);}
	.st18{fill:#D3C9CA;}
	.st19{fill:url(#SVGID_4_);}
	.st20{fill:#F0604D;}
	.st21{fill:#998385;}
	.st22{display:none;}
	.st23{display:inline;}
	.st24{display:inline;fill:#483845;}
	.st25{display:inline;fill:#3B6920;}
	.st26{display:inline;fill:#BAAEAF;}
	.st27{fill:#DDDDDD;}
	.st28{display:inline;fill:#D9D9D6;}
	.st29{fill:#E6BB00;}
	.st30{fill:#C48300;}
	.st31{fill:#200C00;}
	.st32{fill:#F0E800;}
	.st33{fill:#58C23A;}
	.st34{fill:#2D8000;}
	.st35{fill:#93FF7D;}
	.st36{fill:#FC3838;}
	.st37{fill:#AD1400;}
	.st38{fill:#F07765;}
	.st39{display:inline;fill:url(#SVGID_5_);}
	.st40{fill:#313131;}
	.st41{fill:#898989;}
	.st42{fill:#4598CB;}
	.st43{fill:#68ABD4;}
	.st44{display:inline;fill:#313131;}
	.st45{display:inline;fill:url(#SVGID_6_);}
	.st46{fill:#C0CB45;}
	.st47{fill:#CBD468;}
	.st48{display:inline;fill:url(#SVGID_7_);}
	.st49{fill:#CB4545;}
	.st50{fill:#D46868;}
	.st51{fill:#C7C7C7;}
	.st52{fill:#DBDBDB;}
	.st53{fill:#8C8C8C;}
	.st54{fill:#FFFFFF;}
	.st55{fill:#C9CCD9;}
	.st56{display:inline;fill:#C7C7C7;}
	.st57{display:inline;fill:#7F4A00;}
	.st58{fill:#415900;}
	.st59{fill:#4B6700;}
	.st60{fill:#557500;}
	.st61{fill:#435C00;}
	.st62{fill:#4D6A00;}
	.st63{fill:#587800;}
	.st64{fill:#709C00;}
	.st65{fill:#7AAA00;}
	.st66{fill:#84B800;}
	.st67{fill:#648A00;}
	.st68{fill:#6E9800;}
	.st69{fill:#78A600;}
	.st70{fill:#6C9400;}
	.st71{fill:#76A200;}
	.st72{fill:#80B000;}
	.st73{fill:#4C6900;}
	.st74{fill:#567700;}
	.st75{fill:#608500;}
	.st76{fill:#547300;}
	.st77{fill:#5E8100;}
	.st78{fill:#688F00;}
	.st79{fill:#363F47;}
	.st80{fill:#737D87;}
	.st81{fill:#E0F840;}
	.st82{fill:#F84D9A;}
	.st83{fill:#BABBBF;}
	.st84{fill:#878787;}
	.st85{fill:#BABABA;}
	.st86{fill:#C4C4C4;}
	.st87{fill:#666666;}
	.st88{fill:#949494;}
	.st89{fill:#737373;}
	.st90{fill:#545454;}
	.st91{fill:url(#SVGID_10_);}
	.st92{fill:url(#SVGID_11_);}
	.st93{fill:#919191;}
	.st94{fill:#434447;}
	.st95{fill:url(#SVGID_12_);}
	.st96{fill:#131314;}
	.st97{fill:url(#SVGID_13_);}
	.st98{fill:url(#SVGID_14_);}
	.st99{fill:url(#SVGID_15_);}
	.st100{fill:url(#SVGID_16_);}
	.st101{fill:url(#SVGID_17_);}
	.st102{fill:url(#SVGID_18_);}
	.st103{fill:url(#SVGID_19_);}
	.st104{fill:url(#SVGID_20_);}
	.st105{fill:url(#SVGID_21_);}
	.st106{fill:#3F464F;}
	.st107{fill:#272D35;}
	.st108{fill:#6F737C;}
	.st109{fill:#9D9D9D;}
	.st110{fill:#656770;}
	.st111{fill:#575961;}
	.st112{fill:#BDBDBD;}
	.st113{fill:#D9D9D6;}
	.st114{fill:#ADADAC;}
	.st115{fill:#F2FDB1;}
	.st116{fill:#CFCFCF;}
	.st117{fill:#868786;}
	.st118{fill:#C4C7C3;}
	.st119{fill:#B0B3AF;}
	.st120{fill:#E8EFF0;}
	.st121{fill:#77AD3D;}
	.st122{fill:#E7E3E3;}
	.st123{fill:#869BB0;}
	.st124{fill:#BCCCDD;}
</style>
<rect x="-172" y="-317" class="st0" width="600" height="600"/>
<g>
	<g>
		<polygon class="st1" points="74.3,84.8 74.3,128 169.7,72.9 169.7,71.3 		"/>
		<polygon class="st2" points="2.3,84.8 2.3,86.5 74.3,128 74.3,84.8 		"/>
		<path class="st3" d="M169.7,71.3l-95.4,55.1l-3.5-2l-1.5-0.9l-26.6-15.4l-5.2-3l-6.5-3.8L10.4,89.5l-2-1.2l-3.2-1.8l-2.9-1.7
			l0.9-0.6c0,0,0,0,0,0l16.2-9.4l78.3-45.2L169.7,71.3z"/>
	</g>
	<g>
		<g>
			<polygon class="st4" points="116,84.2 113.3,82.6 113.3,82 91.8,69.6 91.3,69.9 86.2,67 86.2,44 116,61.2 			"/>
			<g>
				<polygon class="st5" points="116,63.2 116,65.4 115.4,65.7 85.6,46.3 86.2,46 				"/>
			</g>
			<polygon class="st6" points="116,84.2 113.3,82.6 113.3,82 91.8,69.6 91.3,69.9 86.2,67 86.2,63.4 116,80.6 			"/>
			<polygon class="st7" points="146.9,43.4 146.9,66.3 146.9,66.3 145.4,67.2 126.7,78 126.1,77.6 118.7,81.9 118.7,82.6 116,84.2 
				116,61.2 			"/>
			<g>
				<polygon class="st5" points="115.4,63.5 115.4,65.7 116,66 147.4,45.7 146.9,45.4 				"/>
				<polygon class="st8" points="116,63.8 116,66 147.4,47.8 147.4,45.7 				"/>
			</g>
			<polygon class="st8" points="146.9,62.8 145.1,63.8 116,80.6 116,84.2 118.7,82.6 118.7,81.9 126.1,77.6 126.7,78 144,68 
				146.9,66.3 			"/>
			<polygon class="st9" points="86.2,44 117.1,26.1 146.9,43.4 116,61.2 			"/>
			<polygon class="st10" points="88.9,44 117.1,27.7 144.1,43.4 116,59.6 			"/>
			<polygon class="st11" points="117.1,30 142.2,44.5 144.1,43.4 117.1,27.7 88.9,44 90.9,45.1 			"/>
			<polygon class="st12" points="117.1,27.7 117.1,30 90.9,45.1 88.9,44 			"/>
			<polygon class="st11" points="95.3,46.4 106.4,49.1 114.3,57.5 			"/>
			<polygon class="st8" points="106.4,49.1 130.1,35.4 138,43.8 114.3,57.5 			"/>
			<polygon class="st12" points="130.1,35.4 119,32.7 95.3,46.4 106.4,49.1 			"/>
			<polygon class="st13" points="127.3,36.2 113.2,44.3 107,47.8 99.7,46.2 106,42.5 119.9,34.5 			"/>
			<linearGradient id="SVGID_1_" gradientUnits="userSpaceOnUse" x1="94.9606" y1="41.2257" x2="120.7729" y2="41.3415">
				<stop  offset="0" style="stop-color:#71BDE3"/>
				<stop  offset="0.1493" style="stop-color:#67B4DB"/>
				<stop  offset="0.4018" style="stop-color:#4D9BC7"/>
				<stop  offset="0.7247" style="stop-color:#2273A6"/>
				<stop  offset="0.9291" style="stop-color:#03568F"/>
			</linearGradient>
			<polygon class="st14" points="127.6,36.6 124.7,38.3 120.5,40.7 116.7,43 112.4,45.4 108.4,47.7 107.7,47.6 104.4,46.8 100.8,46 
				103.9,44.2 106.6,42.6 111.3,39.9 115.5,37.5 119.3,35.3 120,34.9 124.2,35.8 			"/>
			<polygon class="st15" points="134.9,43.3 120.8,51.5 114.7,55 108.1,48.1 107,47.8 113.2,44.3 127.3,36.2 128.4,36.4 			"/>
			<linearGradient id="SVGID_2_" gradientUnits="userSpaceOnUse" x1="108.1102" y1="45.5413" x2="134.2697" y2="45.5413">
				<stop  offset="5.911330e-02" style="stop-color:#71BDE3"/>
				<stop  offset="0.1952" style="stop-color:#6BB7DE"/>
				<stop  offset="0.3859" style="stop-color:#58A6D0"/>
				<stop  offset="0.609" style="stop-color:#3A8AB9"/>
				<stop  offset="0.8545" style="stop-color:#11639A"/>
				<stop  offset="0.9291" style="stop-color:#03568F"/>
			</linearGradient>
			<polygon class="st16" points="134.3,43.2 131.1,45.1 127.6,47.1 123.2,49.6 119.7,51.7 114.7,54.5 108.3,47.7 108.1,47.7 
				111.8,45.5 115.4,43.5 119.8,40.9 123.3,38.9 127.3,36.6 128.2,36.8 			"/>
			<polygon class="st15" points="108.1,48.1 128.4,36.4 128.9,37 108.7,48.7 			"/>
			<polygon class="st13" points="113.2,44.3 114.3,44.5 108.1,48.1 107.1,47.8 			"/>
			<polygon class="st13" points="128.4,36.4 115.2,44 115.2,44 114.1,43.8 127.3,36.2 			"/>
			<polygon class="st13" points="115.2,44 114.3,44.5 114.3,44.5 113.2,44.3 106,42.5 106.9,42 114.1,43.8 114.1,43.8 115.2,44 			
				"/>
			<polygon class="st15" points="120.8,51.5 114.3,44.5 115.2,44 121.7,50.9 			"/>
			<polygon class="st13" points="123,39.5 122.1,40 122.1,40 121.1,39.8 113.8,38 114.7,37.5 122,39.2 122,39.2 123,39.5 			"/>
			<polygon class="st15" points="128.7,46.9 122.1,40 123,39.5 129.6,46.4 			"/>
			<linearGradient id="SVGID_3_" gradientUnits="userSpaceOnUse" x1="100.2027" y1="95.5198" x2="102.2862" y2="68.7431">
				<stop  offset="0" style="stop-color:#71BDE3"/>
				<stop  offset="0.1493" style="stop-color:#67B4DB"/>
				<stop  offset="0.4018" style="stop-color:#4D9BC7"/>
				<stop  offset="0.7247" style="stop-color:#2273A6"/>
				<stop  offset="0.9291" style="stop-color:#03568F"/>
			</linearGradient>
			<polygon class="st17" points="113.3,67.8 113.3,82 112.9,81.7 109.4,79.7 109.4,79.7 105.8,77.7 102.4,75.7 102.3,75.6 
				96.9,72.5 91.3,69.3 91.3,55.1 93.4,56.3 99,59.5 102.3,61.4 105.8,63.5 105.9,63.5 109.4,65.5 109.5,65.5 			"/>
			<polygon class="st18" points="105.2,72.1 106.5,72.9 106.5,75.1 105.2,74.3 			"/>
			<g>
				<rect x="102.4" y="51.7" transform="matrix(0.5 -0.866 0.866 0.5 -4.3193 120.8612)" width="0.2" height="24.9"/>
			</g>
			<g>
				<rect x="102.4" y="63.2" transform="matrix(0.5 -0.866 0.866 0.5 -14.3195 126.6349)" width="0.2" height="24.9"/>
			</g>
			<g>
				<linearGradient id="SVGID_4_" gradientUnits="userSpaceOnUse" x1="128.4107" y1="88.6621" x2="119.9609" y2="64.5861">
					<stop  offset="5.911330e-02" style="stop-color:#71BDE3"/>
					<stop  offset="0.1952" style="stop-color:#6BB7DE"/>
					<stop  offset="0.3859" style="stop-color:#58A6D0"/>
					<stop  offset="0.609" style="stop-color:#3A8AB9"/>
					<stop  offset="0.8545" style="stop-color:#11639A"/>
					<stop  offset="0.9291" style="stop-color:#03568F"/>
				</linearGradient>
				<polygon class="st19" points="126.7,63.1 126.7,77.3 123.9,78.9 120.9,80.6 118.7,81.9 118.7,67.7 120.9,66.4 123.9,64.7 				
					"/>
				<g>
					<path d="M118.8,70.4l-0.1-0.2c2.5-1.4,5-2.9,7.5-4.3l0.1,0.2C123.8,67.6,121.3,69,118.8,70.4z"/>
				</g>
				<g>
					<path d="M118.8,72.5l-0.1-0.2c2.5-1.4,5-2.9,7.5-4.3l0.1,0.2C123.8,69.6,121.3,71,118.8,72.5z"/>
				</g>
				<g>
					<path d="M118.8,82l-0.1-0.2l0.9-0.5c2.2-1.3,4.4-2.5,6.5-3.8l0.1,0.2c-2.2,1.3-4.4,2.5-6.5,3.8L118.8,82z"/>
				</g>
				<g>
					<rect x="120.8" y="66.4" width="0.2" height="14.2"/>
				</g>
				<g>
					<rect x="123.8" y="64.7" width="0.2" height="14.2"/>
				</g>
			</g>
			<g>
				<rect x="102.4" y="53.8" transform="matrix(0.5001 -0.866 0.866 0.5001 -6.1266 121.8865)" width="0.2" height="24.9"/>
			</g>
			<g>
				<rect x="95.1" y="57.3" width="0.2" height="14.2"/>
			</g>
			<g>
				<rect x="98.7" y="59.4" width="0.2" height="14.2"/>
			</g>
			<g>
				<rect x="102.2" y="61.4" width="0.2" height="4.8"/>
			</g>
			<g>
				<rect x="102.2" y="66.2" width="0.2" height="9.4"/>
			</g>
			<g>
				<rect x="105.7" y="63.5" width="0.2" height="14.2"/>
			</g>
			<g>
				<rect x="109.3" y="65.5" width="0.2" height="14.2"/>
			</g>
			<polygon class="st20" points="91.3,55.1 91.3,69.9 92.1,69.5 92.1,55.5 			"/>
			<polygon class="st4" points="126.7,63.1 126.7,78 125.9,77.5 125.9,63.6 			"/>
			<polygon class="st6" points="98.2,70.4 86.2,63.4 86.2,67 98.2,73.9 			"/>
			<polygon class="st21" points="98.2,70.4 98.8,70.1 98.8,73.6 98.2,73.9 			"/>
			<polygon class="st9" points="91.3,66.4 91.8,66.1 98.8,70.1 98.2,70.4 			"/>
			<g class="st22">
				<path class="st23" d="M80.7,57l-0.2-0.4c2.5-1.4,5-2.9,7.5-4.3l0.2,0.4C85.7,54.2,83.2,55.6,80.7,57z"/>
			</g>
			<g class="st22">
				<path class="st23" d="M80.7,58.9l-0.2-0.4l0.6-0.3c2.3-1.3,4.6-2.6,6.9-4l0.2,0.4c-2.3,1.3-4.6,2.7-6.9,4L80.7,58.9z"/>
			</g>
			<g class="st22">
				<polygon class="st24" points="86.9,52.7 81.4,59.5 80.2,58.8 80.2,55.1 85.7,52 				"/>
				<polygon class="st25" points="86.9,56.4 81.4,59.5 81.4,55.8 86.9,52.7 				"/>
				<polygon class="st26" points="80.2,55.1 81.4,55.8 81.4,59.5 80.2,58.8 				"/>
			</g>
			<polygon class="st27" points="100.5,70.5 101.8,71.2 101.8,70.3 100.5,69.6 			"/>
			<g>
				<path class="st15" d="M110.8,50.6l-0.2-0.4c2.5-1.4,17.3-10,19.7-11.4l0.2,0.4C128,40.7,113.3,49.2,110.8,50.6z"/>
			</g>
			<g>
				<path class="st13" d="M105.6,47.5l-0.2-0.4c2.5-1.4,17.3-10,19.7-11.4l0.2,0.4C122.9,37.5,108.1,46.1,105.6,47.5z"/>
			</g>
		</g>
		<polygon class="st6" points="116,63.8 116,66 85.6,48.5 85.6,46.3 		"/>
		<g class="st22">
			<polygon class="st28" points="103.4,90.2 102,91.1 100.1,90 101.5,89.2 			"/>
			<polygon class="st28" points="106.2,91.9 104.8,92.7 103,91.6 104.4,90.8 			"/>
			<polygon class="st28" points="109.1,93.6 107.7,94.4 105.9,93.3 107.2,92.5 			"/>
			<g class="st23">
				<polygon class="st29" points="103.8,92.1 102,87.9 103.4,87.1 105.2,88.2 105.2,91.3 				"/>
				<polygon class="st30" points="102,91.1 102,87.9 103.8,89 103.8,92.1 				"/>
				<polygon class="st31" points="102.2,89 102.2,88.3 103.6,89.1 103.6,89.8 				"/>
				<polygon class="st32" points="105.2,88.2 103.8,89 102,87.9 103.4,87.1 				"/>
			</g>
			<g class="st23">
				<polygon class="st33" points="106.7,93.8 104.8,89.6 106.2,88.8 108.1,89.9 108.1,93 				"/>
				<polygon class="st34" points="104.8,92.7 104.8,89.6 106.7,90.7 106.7,93.8 				"/>
				<polygon class="st31" points="105.1,90.7 105.1,90 106.4,90.8 106.4,91.5 				"/>
				<polygon class="st35" points="108.1,89.9 106.7,90.7 104.8,89.6 106.2,88.8 				"/>
			</g>
			<g class="st23">
				<polygon class="st36" points="109.5,95.4 107.7,91.3 109.1,90.5 110.9,91.5 110.9,94.6 				"/>
				<polygon class="st37" points="107.7,94.4 107.7,91.3 109.5,92.3 109.5,95.4 				"/>
				<polygon class="st31" points="107.9,92.4 107.9,91.6 109.3,92.4 109.3,93.2 				"/>
				<polygon class="st38" points="110.9,91.5 109.5,92.3 107.7,91.3 109.1,90.5 				"/>
			</g>
		</g>
		<g class="st22">
			
				<linearGradient id="SVGID_5_" gradientUnits="userSpaceOnUse" x1="476.0027" y1="72.5396" x2="474.8134" y2="74.8178" gradientTransform="matrix(-1 0 0 1 615.1373 0)">
				<stop  offset="0" style="stop-color:#001D78"/>
				<stop  offset="0.146" style="stop-color:#001B71"/>
				<stop  offset="0.3648" style="stop-color:#00165C"/>
				<stop  offset="0.6292" style="stop-color:#000E3B"/>
				<stop  offset="0.927" style="stop-color:#00030C"/>
				<stop  offset="1" style="stop-color:#000000"/>
			</linearGradient>
			<polygon class="st39" points="140.3,71.9 142.7,72.5 141.2,74.5 137.3,75.8 137,73.8 			"/>
			<g class="st23">
				<g>
					<polygon class="st40" points="137,73.8 140.3,65 139.1,64.3 135.8,66.2 135.8,73.1 					"/>
					<polygon class="st41" points="135.8,66.2 137,66.9 139.3,66.3 140.3,65 139.1,64.3 					"/>
					<path class="st42" d="M140.3,71.9l0-6.9l-0.1,0.1c-0.7,0.7-1.6,1.2-2.5,1.5l-0.7,0.3l0,6.9l0.7-0.3c0.9-0.4,1.7-0.9,2.5-1.5
						L140.3,71.9z"/>
					<path class="st43" d="M139,66c0.4-0.3,0.9-0.6,1.2-0.9l0.1-0.1l0,6.9l-0.1,0.1c-0.4,0.4-0.8,0.7-1.2,0.9V66z"/>
				</g>
				<polygon points="138.5,71.9 139.4,71.3 139.5,71.9 138.5,72.5 				"/>
			</g>
			<polygon class="st44" points="137.3,71.6 138,71.3 138,67.5 137.3,67.8 			"/>
		</g>
		<g class="st22">
			
				<linearGradient id="SVGID_6_" gradientUnits="userSpaceOnUse" x1="480.0258" y1="74.8255" x2="478.8365" y2="77.1037" gradientTransform="matrix(-1 0 0 1 615.1373 0)">
				<stop  offset="0" style="stop-color:#477800"/>
				<stop  offset="0.146" style="stop-color:#437100"/>
				<stop  offset="0.3648" style="stop-color:#375C00"/>
				<stop  offset="0.6292" style="stop-color:#233B00"/>
				<stop  offset="0.927" style="stop-color:#070C00"/>
				<stop  offset="1" style="stop-color:#000000"/>
			</linearGradient>
			<polygon class="st45" points="136.3,74.1 138.6,74.8 137.1,76.8 133.3,78 133,76.1 			"/>
			<g class="st23">
				<g>
					<polygon class="st40" points="133,76.1 136.3,67.3 135,66.5 131.7,68.5 131.7,75.4 					"/>
					<polygon class="st41" points="131.7,68.5 133,69.2 135.3,68.6 136.3,67.3 135,66.5 					"/>
					<path class="st46" d="M136.3,74.1l0-6.9l-0.1,0.1c-0.7,0.7-1.6,1.2-2.5,1.5l-0.7,0.3l0,6.9l0.7-0.3c0.9-0.4,1.7-0.9,2.5-1.5
						L136.3,74.1z"/>
					<path class="st47" d="M135,68.3c0.4-0.3,0.9-0.6,1.2-0.9l0.1-0.1l0,6.9l-0.1,0.1c-0.4,0.4-0.8,0.7-1.2,0.9V68.3z"/>
				</g>
				<polygon points="134.5,74.2 135.4,73.5 135.4,74.2 134.5,74.8 				"/>
			</g>
			<polygon class="st44" points="133.3,73.9 134,73.5 134,69.8 133.3,70.1 			"/>
		</g>
		<g class="st22">
			
				<linearGradient id="SVGID_7_" gradientUnits="userSpaceOnUse" x1="484.049" y1="77.1113" x2="482.8597" y2="79.3895" gradientTransform="matrix(-1 0 0 1 615.1373 0)">
				<stop  offset="0" style="stop-color:#781200"/>
				<stop  offset="0.146" style="stop-color:#711100"/>
				<stop  offset="0.3648" style="stop-color:#5C0E00"/>
				<stop  offset="0.6292" style="stop-color:#3B0900"/>
				<stop  offset="0.927" style="stop-color:#0C0200"/>
				<stop  offset="1" style="stop-color:#000000"/>
			</linearGradient>
			<polygon class="st48" points="132.3,76.4 134.6,77.1 133.1,79.1 129.2,80.3 129,78.4 			"/>
			<g class="st23">
				<g>
					<polygon class="st40" points="129,78.4 132.3,69.6 131,68.8 127.7,70.8 127.7,77.6 					"/>
					<polygon class="st41" points="127.7,70.8 129,71.5 131.3,70.9 132.3,69.6 131,68.8 					"/>
					<path class="st49" d="M132.3,76.4l0-6.9l-0.1,0.1c-0.7,0.7-1.6,1.2-2.5,1.5l-0.7,0.3l0,6.9l0.7-0.3c0.9-0.4,1.7-0.9,2.5-1.5
						L132.3,76.4z"/>
					<path class="st50" d="M130.9,70.6c0.4-0.3,0.9-0.6,1.2-0.9l0.1-0.1l0,6.9l-0.1,0.1c-0.4,0.4-0.8,0.7-1.2,0.9V70.6z"/>
				</g>
				<polygon points="130.4,76.5 131.4,75.8 131.4,76.5 130.5,77.1 				"/>
			</g>
			<polygon class="st44" points="129.2,76.2 130,75.8 130,72.1 129.2,72.4 			"/>
		</g>
		<g>
			<polygon class="st51" points="147.8,67.6 149.5,68.5 143.3,71.9 141.6,70.9 			"/>
			<g>
				<polygon class="st52" points="148,64 147.8,64 147.8,67.6 148,67.5 				"/>
				<path class="st53" d="M147.8,64v1.5l1.1,0.5c0.3,0.1,0.4,0.4,0.4,0.7v1.8l-0.1-0.1v-1.6c0-0.3-0.2-0.6-0.4-0.7l-0.9-0.4v1.8
					l-0.2-0.1V64L147.8,64z"/>
				<path class="st54" d="M141.7,67.3v1.4c0,0,0.8-0.4,1.4-1c0.6-0.6,1.3-1.5,2.1-1.9c0.8-0.3,1.5-0.1,1.8-0.2
					c0.2-0.1,0.6-0.3,0.6-0.3l0.1-1.1l-0.1-0.1c0,0-0.5,0.2-0.7,0.3c-0.2,0.1-0.9-0.1-1.7,0.1c-0.8,0.2-1.8,1-2.3,1.8
					C142.5,67.1,141.7,67.3,141.7,67.3z M144.2,66.3c-0.1,0.1-0.3,0.3-0.4,0.4l-0.3-0.6c0.2-0.2,0.4-0.4,0.6-0.6L144.2,66.3z
					 M144.3,65.4c0.2-0.2,0.4-0.3,0.7-0.4l0,0.8c-0.2,0.1-0.4,0.2-0.5,0.4L144.3,65.4z M146.6,65.5
					C146.6,65.5,146.6,65.5,146.6,65.5l0.1-0.8c0,0,0.1,0,0.1,0c0.1,0,0.1,0,0.2,0c0.2-0.1,0.4-0.1,0.5-0.2v0.8
					c-0.1,0-0.3,0.1-0.5,0.2c0,0,0,0-0.1,0C146.8,65.5,146.7,65.5,146.6,65.5z M146,65.5c-0.1,0-0.1,0-0.2,0l0.1-0.8c0,0,0,0,0.1,0
					c0.2,0,0.4,0,0.5,0c0,0,0,0,0.1,0l-0.2,0.8C146.3,65.5,146.2,65.5,146,65.5z M145.2,65.7c0,0-0.1,0-0.1,0l0-0.8
					c0.1,0,0.2-0.1,0.3-0.1c0.1,0,0.3-0.1,0.4-0.1l-0.1,0.8C145.5,65.6,145.4,65.6,145.2,65.7z M143.2,67.4l-0.4-0.5
					c0.1-0.1,0.2-0.2,0.3-0.3c0.1-0.1,0.2-0.2,0.2-0.3l0.3,0.6c-0.1,0.1-0.2,0.2-0.3,0.3C143.3,67.3,143.3,67.3,143.2,67.4z
					 M141.9,67.5c0.2-0.1,0.5-0.2,0.8-0.5l0.4,0.6c0,0,0,0-0.1,0.1c-0.4,0.4-0.8,0.7-1.1,0.8V67.5z"/>
				<path class="st55" d="M141.8,67.4v1.4c0,0,0.8-0.4,1.4-1c0.6-0.6,1.3-1.5,2.1-1.9c0.8-0.3,1.5-0.1,1.8-0.2
					c0.2-0.1,0.6-0.3,0.6-0.3v-1.2c0,0-0.5,0.2-0.7,0.3c-0.2,0.1-0.9-0.1-1.7,0.1c-0.8,0.2-1.8,1-2.3,1.8
					C142.6,67.2,141.8,67.4,141.8,67.4z M144.3,66.4c-0.1,0.1-0.3,0.3-0.4,0.4l-0.3-0.6c0.2-0.2,0.4-0.4,0.6-0.6L144.3,66.4z
					 M144.3,65.5c0.2-0.2,0.4-0.3,0.7-0.4l0,0.8c-0.2,0.1-0.4,0.2-0.5,0.4L144.3,65.5z M146.7,65.6
					C146.7,65.6,146.7,65.6,146.7,65.6l0.1-0.8c0,0,0.1,0,0.1,0c0.1,0,0.1,0,0.2,0c0.2-0.1,0.4-0.1,0.5-0.2v0.8
					c-0.1,0-0.3,0.1-0.5,0.2c0,0,0,0-0.1,0C146.9,65.6,146.8,65.6,146.7,65.6z M146.1,65.6c-0.1,0-0.1,0-0.2,0l0.1-0.8
					c0,0,0,0,0.1,0c0.2,0,0.4,0,0.5,0c0,0,0,0,0.1,0l-0.2,0.8C146.4,65.6,146.3,65.6,146.1,65.6z M145.3,65.8c0,0-0.1,0-0.1,0l0-0.8
					c0.1,0,0.2-0.1,0.3-0.1c0.1,0,0.3-0.1,0.4-0.1l-0.1,0.8C145.6,65.7,145.5,65.7,145.3,65.8z M143.3,67.5l-0.4-0.5
					c0.1-0.1,0.2-0.2,0.3-0.3c0.1-0.1,0.2-0.2,0.2-0.3l0.3,0.6c-0.1,0.1-0.2,0.2-0.3,0.3C143.4,67.4,143.4,67.4,143.3,67.5z
					 M142,67.6c0.2-0.1,0.5-0.2,0.8-0.5l0.4,0.6c0,0,0,0-0.1,0.1c-0.4,0.4-0.8,0.7-1.1,0.8V67.6z"/>
				<path class="st55" d="M149.5,68.5v-1.8c0-0.3-0.2-0.6-0.4-0.7l-1.2-0.6l-0.2,0.1l1.2,0.6c0.3,0.1,0.4,0.4,0.4,0.7v1.8
					L149.5,68.5z"/>
				<polygon class="st55" points="143.2,70.1 141.7,69.4 141.7,69.2 147.7,66 149.1,66.4 149.1,66.7 				"/>
				<g>
					<defs>
						<polygon id="SVGID_8_" points="147.7,65.8 149.1,66.4 143.2,69.8 141.7,69.2 						"/>
					</defs>
					<use xlink:href="#SVGID_8_"  style="overflow:visible;fill:#E7600D;"/>
					<clipPath id="SVGID_9_">
						<use xlink:href="#SVGID_8_"  style="overflow:visible;"/>
					</clipPath>
				</g>
				<polygon class="st52" points="141.9,67.4 141.7,67.4 141.7,71 141.9,70.9 				"/>
				<path class="st53" d="M141.7,67.4v1.4l1.6,0.7v2.3l-0.1-0.1v-1.6c0-0.3-0.2-0.6-0.4-0.7l-1-0.5v2l-0.2-0.1v-3.5L141.7,67.4z"/>
				<path class="st55" d="M141.9,68.7l1.1,0.5c0.3,0.1,0.4,0.4,0.4,0.7v1.8l-0.1,0.1v-1.8c0-0.3-0.2-0.6-0.4-0.7l-1.1-0.5
					L141.9,68.7z"/>
				<polygon class="st54" points="141.9,67.4 141.7,67.3 141.6,67.4 141.7,67.4 				"/>
				<polygon class="st54" points="148,64 147.8,63.9 147.7,64 147.8,64 				"/>
			</g>
		</g>
		<g class="st22">
			<path class="st56" d="M86.4,78.1c-0.2,0.4-0.8,0.7-1.4,0.8c-0.1,0-0.2,0-0.3,0c-0.2,0-0.3,0-0.4-0.1l-3-1.7
				c-0.2,0.1-0.3,0.2-0.5,0.3c-0.4,0.1-0.8,0.2-1.2,0.3c-0.2,0.1-0.3,0.2-0.5,0.3c-0.4,0.2-1,0.3-1.5,0.3c-0.2,0-0.3,0-0.5,0
				c-0.2,0-0.4,0-0.6-0.1c-0.2,0-0.5-0.1-0.6-0.2c-0.6-0.2-1-0.5-1.2-0.9c0,0,0-0.1,0-0.1c-0.4,0.1-0.8,0.2-1.2,0.2h-0.1l-1.1-0.6
				l-1.7-1c0,0,0,0,0-0.1c0-0.1,0.1-0.3,0.2-0.5c0-0.1,0.1-0.1,0.2-0.2c-0.1,0-0.1,0-0.2,0c-0.2,0-0.5-0.1-0.6-0.2
				c-0.2-0.1-0.4-0.2-0.6-0.3l8.9-5.1c0.4,0.2,0.7,0.5,0.8,0.8c0.7-0.2,1.5-0.2,2.2-0.1c1.1,0.2,1.9,0.8,1.9,1.5
				c0,0.2,0,0.4-0.2,0.6c0,0.1-0.1,0.1-0.2,0.2c0.1,0,0.1,0,0.2,0c1.1,0.2,1.9,0.8,1.9,1.5c0,0.2,0,0.4-0.2,0.6
				c-0.1,0.2-0.3,0.4-0.5,0.5c0,0.2,0,0.4-0.2,0.6c-0.2,0.3-0.5,0.5-0.8,0.7l3,1.7v0C86.4,77.8,86.5,77.9,86.4,78.1z"/>
			<path class="st57" d="M84.1,73.3v5.2h0c0,0.2,0.1,0.3,0.3,0.5c0.5,0.3,1.2,0.3,1.7,0c0.2-0.1,0.3-0.3,0.3-0.5h0v-5.2H84.1z"/>
			<g class="st23">
				<path class="st58" d="M84.2,73.9c-0.2,0.2-0.4,0.4-0.7,0.5c-0.5,0.2-1,0.3-1.5,0.2c-0.4-0.1-0.8-0.3-1.2-0.6
					c-0.1-0.1-0.2-0.2-0.3-0.3l0,0c-0.1-0.1-0.2-0.3-0.3-0.4c-0.1-0.2-0.2-0.4-0.2-0.6c-0.1-0.5,0-1.1,0.2-1.6
					c0.1-0.2,0.3-0.4,0.5-0.6c0.2-0.1,0.3-0.3,0.5-0.4c0.5-0.2,0.9-0.3,1.4-0.2c0.7,0.1,1.4,0.6,1.8,1.3
					C85,72.2,84.8,73.2,84.2,73.9z"/>
				<path class="st59" d="M83.9,73.4c-0.2,0.2-0.4,0.3-0.6,0.4c-0.4,0.2-0.8,0.2-1.2,0.1c-0.4-0.1-0.7-0.2-0.9-0.5
					c-0.1-0.1-0.2-0.1-0.2-0.2l0,0c-0.1-0.1-0.2-0.2-0.2-0.3c-0.1-0.1-0.1-0.3-0.2-0.5c-0.1-0.4,0-0.9,0.2-1.3
					c0.1-0.2,0.2-0.4,0.4-0.5c0.1-0.1,0.3-0.2,0.4-0.3c0.4-0.2,0.8-0.2,1.2-0.2c0.6,0.1,1.1,0.5,1.4,1.1
					C84.5,72,84.4,72.9,83.9,73.4z"/>
				<path class="st60" d="M83.3,72.4c-0.1,0.1-0.2,0.2-0.4,0.3c-0.2,0.1-0.5,0.1-0.8,0.1c-0.2,0-0.4-0.1-0.6-0.3
					c0,0-0.1-0.1-0.1-0.1l0,0c-0.1-0.1-0.1-0.1-0.1-0.2c0-0.1-0.1-0.2-0.1-0.3c-0.1-0.3,0-0.6,0.1-0.8c0.1-0.1,0.1-0.2,0.3-0.3
					c0.1-0.1,0.2-0.1,0.3-0.2c0.2-0.1,0.5-0.1,0.7-0.1c0.4,0.1,0.7,0.3,0.9,0.7C83.7,71.6,83.6,72.1,83.3,72.4z"/>
			</g>
			<g class="st23">
				<path class="st61" d="M87,62.5c-0.2,0.2-0.4,0.4-0.7,0.5c-0.5,0.2-1,0.3-1.5,0.2c-0.4-0.1-0.8-0.3-1.2-0.6
					c-0.1-0.1-0.2-0.2-0.3-0.3l0,0c-0.1-0.1-0.2-0.3-0.3-0.4c-0.1-0.2-0.2-0.4-0.2-0.6c-0.1-0.5,0-1.1,0.2-1.6
					c0.1-0.2,0.3-0.4,0.5-0.6c0.2-0.1,0.3-0.3,0.5-0.4c0.5-0.2,0.9-0.3,1.4-0.2c0.7,0.1,1.4,0.6,1.8,1.3
					C87.8,60.8,87.7,61.9,87,62.5z"/>
				<path class="st62" d="M86.7,62.1c-0.2,0.2-0.4,0.3-0.6,0.4c-0.4,0.2-0.8,0.2-1.2,0.1c-0.4-0.1-0.7-0.2-0.9-0.5
					c-0.1-0.1-0.2-0.1-0.2-0.2l0,0c-0.1-0.1-0.2-0.2-0.2-0.3c-0.1-0.1-0.1-0.3-0.2-0.5c-0.1-0.4,0-0.9,0.2-1.3
					c0.1-0.2,0.2-0.4,0.4-0.5c0.1-0.1,0.3-0.2,0.4-0.3c0.4-0.2,0.8-0.2,1.2-0.2c0.6,0.1,1.1,0.5,1.4,1.1
					C87.4,60.7,87.2,61.5,86.7,62.1z"/>
				<path class="st63" d="M86.1,61.1c-0.1,0.1-0.2,0.2-0.4,0.3c-0.2,0.1-0.5,0.1-0.8,0.1c-0.2,0-0.4-0.1-0.6-0.3
					c0,0-0.1-0.1-0.1-0.1l0,0c-0.1-0.1-0.1-0.1-0.1-0.2c0-0.1-0.1-0.2-0.1-0.3c-0.1-0.3,0-0.6,0.1-0.8c0.1-0.1,0.1-0.2,0.3-0.3
					c0.1-0.1,0.2-0.1,0.3-0.2c0.2-0.1,0.5-0.1,0.7-0.1c0.4,0.1,0.7,0.3,0.9,0.7C86.6,60.3,86.5,60.8,86.1,61.1z"/>
			</g>
			<g class="st23">
				<path class="st61" d="M85.7,64c-0.2,0.2-0.4,0.4-0.7,0.5c-0.5,0.2-1,0.3-1.5,0.2c-0.4-0.1-0.8-0.3-1.2-0.6
					c-0.1-0.1-0.2-0.2-0.3-0.3l0,0c-0.1-0.1-0.2-0.3-0.3-0.4c-0.1-0.2-0.2-0.4-0.2-0.6c-0.1-0.5,0-1.1,0.2-1.6
					c0.1-0.2,0.3-0.4,0.5-0.6c0.2-0.1,0.3-0.3,0.5-0.4c0.5-0.2,0.9-0.3,1.4-0.2c0.7,0.1,1.4,0.6,1.8,1.3
					C86.5,62.3,86.3,63.3,85.7,64z"/>
				<path class="st62" d="M85.4,63.6c-0.2,0.2-0.4,0.3-0.6,0.4c-0.4,0.2-0.8,0.2-1.2,0.1c-0.3-0.1-0.7-0.2-0.9-0.5
					c-0.1-0.1-0.2-0.1-0.2-0.2l0,0c-0.1-0.1-0.2-0.2-0.2-0.3c-0.1-0.1-0.1-0.3-0.2-0.5c-0.1-0.4,0-0.9,0.2-1.3
					c0.1-0.2,0.2-0.4,0.4-0.5c0.1-0.1,0.3-0.2,0.4-0.3c0.4-0.2,0.8-0.2,1.2-0.2c0.6,0.1,1.1,0.5,1.4,1.1C86,62.2,85.9,63,85.4,63.6z
					"/>
				<path class="st63" d="M84.8,62.6c-0.1,0.1-0.2,0.2-0.4,0.3C84.2,63,84,63,83.7,62.9c-0.2,0-0.4-0.1-0.6-0.3c0,0-0.1-0.1-0.1-0.1
					l0,0c-0.1-0.1-0.1-0.1-0.1-0.2c0-0.1-0.1-0.2-0.1-0.3c-0.1-0.3,0-0.6,0.1-0.8c0.1-0.1,0.1-0.2,0.3-0.3c0.1-0.1,0.2-0.1,0.3-0.2
					c0.2-0.1,0.5-0.1,0.7-0.1c0.4,0.1,0.7,0.3,0.9,0.7C85.2,61.7,85.1,62.2,84.8,62.6z"/>
			</g>
			<g class="st23">
				<path class="st64" d="M89.8,73.6c-0.2,0.2-0.4,0.4-0.7,0.5c-0.5,0.2-1,0.3-1.5,0.2c-0.4-0.1-0.8-0.3-1.2-0.6
					c-0.1-0.1-0.2-0.2-0.3-0.3l0,0C86.1,73.3,86,73.1,86,73c-0.1-0.2-0.2-0.4-0.2-0.6c-0.1-0.5,0-1.1,0.2-1.6
					c0.1-0.2,0.3-0.4,0.5-0.6c0.2-0.1,0.3-0.3,0.5-0.4c0.5-0.2,0.9-0.3,1.4-0.2c0.7,0.1,1.4,0.6,1.8,1.3
					C90.6,71.9,90.5,72.9,89.8,73.6z"/>
				<path class="st65" d="M89.5,73.1c-0.2,0.2-0.4,0.3-0.6,0.4c-0.4,0.2-0.8,0.2-1.2,0.1c-0.4-0.1-0.7-0.2-0.9-0.5
					c-0.1-0.1-0.2-0.1-0.2-0.2l0,0c-0.1-0.1-0.2-0.2-0.2-0.3c-0.1-0.1-0.1-0.3-0.2-0.5c-0.1-0.4,0-0.9,0.2-1.3
					c0.1-0.2,0.2-0.4,0.4-0.5c0.1-0.1,0.3-0.2,0.4-0.3c0.4-0.2,0.8-0.2,1.2-0.2c0.6,0.1,1.1,0.5,1.4,1.1
					C90.2,71.8,90,72.6,89.5,73.1z"/>
				<path class="st66" d="M88.9,72.2c-0.1,0.1-0.2,0.2-0.4,0.3c-0.2,0.1-0.5,0.1-0.8,0.1c-0.2,0-0.4-0.1-0.6-0.3
					c0,0-0.1-0.1-0.1-0.1l0,0C87,72,87,71.9,87,71.9c0-0.1-0.1-0.2-0.1-0.3c-0.1-0.3,0-0.6,0.1-0.8c0.1-0.1,0.1-0.2,0.3-0.3
					c0.1-0.1,0.2-0.1,0.3-0.2c0.2-0.1,0.5-0.1,0.7-0.1c0.4,0.1,0.7,0.3,0.9,0.7C89.4,71.3,89.3,71.8,88.9,72.2z"/>
			</g>
			<g class="st23">
				<path class="st67" d="M88.3,74.3c-0.2,0.2-0.4,0.4-0.7,0.5c-0.5,0.2-1,0.3-1.5,0.2c-0.4-0.1-0.8-0.3-1.2-0.6
					c-0.1-0.1-0.2-0.2-0.3-0.3l0,0c-0.1-0.1-0.2-0.3-0.3-0.4c-0.1-0.2-0.2-0.4-0.2-0.6c-0.1-0.5,0-1.1,0.2-1.6
					c0.1-0.2,0.3-0.4,0.5-0.6c0.2-0.1,0.3-0.3,0.5-0.4c0.5-0.2,0.9-0.3,1.4-0.2c0.7,0.1,1.4,0.6,1.8,1.3
					C89.1,72.6,88.9,73.6,88.3,74.3z"/>
				<path class="st68" d="M88,73.9c-0.2,0.2-0.4,0.3-0.6,0.4c-0.4,0.2-0.8,0.2-1.2,0.1c-0.3-0.1-0.7-0.2-0.9-0.5
					c-0.1-0.1-0.2-0.1-0.2-0.2l0,0c-0.1-0.1-0.2-0.2-0.2-0.3c-0.1-0.1-0.1-0.3-0.2-0.5c-0.1-0.4,0-0.9,0.2-1.3
					c0.1-0.2,0.2-0.4,0.4-0.5c0.1-0.1,0.3-0.2,0.4-0.3c0.4-0.2,0.8-0.2,1.2-0.2c0.6,0.1,1.1,0.5,1.4,1.1
					C88.6,72.5,88.5,73.3,88,73.9z"/>
				<path class="st69" d="M87.4,72.9c-0.1,0.1-0.2,0.2-0.4,0.3c-0.2,0.1-0.5,0.1-0.8,0.1c-0.2,0-0.4-0.1-0.6-0.3
					c0,0-0.1-0.1-0.1-0.1l0,0c-0.1-0.1-0.1-0.1-0.1-0.2c0-0.1-0.1-0.2-0.1-0.3c-0.1-0.3,0-0.6,0.1-0.8c0.1-0.1,0.1-0.2,0.3-0.3
					c0.1-0.1,0.2-0.1,0.3-0.2c0.2-0.1,0.5-0.1,0.7-0.1c0.4,0.1,0.7,0.3,0.9,0.7C87.8,72,87.7,72.6,87.4,72.9z"/>
			</g>
			<g class="st23">
				<path class="st64" d="M91.1,70.2c-0.2,0.2-0.4,0.4-0.7,0.5c-0.5,0.2-1,0.3-1.5,0.2c-0.4-0.1-0.8-0.3-1.2-0.6
					c-0.1-0.1-0.2-0.2-0.3-0.3l0,0c-0.1-0.1-0.2-0.3-0.3-0.4c-0.1-0.2-0.2-0.4-0.2-0.6c-0.1-0.5,0-1.1,0.2-1.6
					c0.1-0.2,0.3-0.4,0.5-0.6c0.2-0.1,0.3-0.3,0.5-0.4c0.5-0.2,0.9-0.3,1.4-0.2c0.7,0.1,1.4,0.6,1.8,1.3
					C91.9,68.5,91.8,69.6,91.1,70.2z"/>
				<path class="st65" d="M90.8,69.8c-0.2,0.2-0.4,0.3-0.6,0.4c-0.4,0.2-0.8,0.2-1.2,0.1c-0.3-0.1-0.7-0.2-0.9-0.5
					c-0.1-0.1-0.2-0.1-0.2-0.2l0,0c-0.1-0.1-0.2-0.2-0.2-0.3c-0.1-0.1-0.1-0.3-0.2-0.5c-0.1-0.4,0-0.9,0.2-1.3
					c0.1-0.2,0.2-0.4,0.4-0.5c0.1-0.1,0.3-0.2,0.4-0.3c0.4-0.2,0.8-0.2,1.2-0.2c0.6,0.1,1.1,0.5,1.4,1.1
					C91.5,68.4,91.3,69.3,90.8,69.8z"/>
				<path class="st66" d="M90.2,68.8c-0.1,0.1-0.2,0.2-0.4,0.3c-0.2,0.1-0.5,0.1-0.8,0.1c-0.2,0-0.4-0.1-0.6-0.3
					c0,0-0.1-0.1-0.1-0.1l0,0c-0.1-0.1-0.1-0.1-0.1-0.2c0-0.1-0.1-0.2-0.1-0.3c-0.1-0.3,0-0.6,0.1-0.8c0.1-0.1,0.1-0.2,0.3-0.3
					c0.1-0.1,0.2-0.1,0.3-0.2c0.2-0.1,0.5-0.1,0.7-0.1c0.4,0.1,0.7,0.3,0.9,0.7C90.7,68,90.6,68.5,90.2,68.8z"/>
			</g>
			<g class="st23">
				<path class="st70" d="M88.3,64c-0.2,0.2-0.4,0.4-0.7,0.5c-0.5,0.2-1,0.3-1.5,0.2c-0.4-0.1-0.8-0.3-1.2-0.6
					c-0.1-0.1-0.2-0.2-0.3-0.3l0,0c-0.1-0.1-0.2-0.3-0.3-0.4c-0.1-0.2-0.2-0.4-0.2-0.6c-0.1-0.5,0-1.1,0.2-1.6
					c0.1-0.2,0.3-0.4,0.5-0.6c0.2-0.1,0.3-0.3,0.5-0.4c0.5-0.2,0.9-0.3,1.4-0.2c0.7,0.1,1.4,0.6,1.8,1.3
					C89.1,62.3,88.9,63.3,88.3,64z"/>
				<path class="st71" d="M88,63.6c-0.2,0.2-0.4,0.3-0.6,0.4c-0.4,0.2-0.8,0.2-1.2,0.1c-0.3-0.1-0.7-0.2-0.9-0.5
					c-0.1-0.1-0.2-0.1-0.2-0.2l0,0c-0.1-0.1-0.2-0.2-0.2-0.3c-0.1-0.1-0.1-0.3-0.2-0.5c-0.1-0.4,0-0.9,0.2-1.3
					c0.1-0.2,0.2-0.4,0.4-0.5c0.1-0.1,0.3-0.2,0.4-0.3c0.4-0.2,0.8-0.2,1.2-0.2c0.6,0.1,1.1,0.5,1.4,1.1C88.6,62.2,88.5,63,88,63.6z
					"/>
				<path class="st72" d="M87.4,62.6c-0.1,0.1-0.2,0.2-0.4,0.3c-0.2,0.1-0.5,0.1-0.8,0.1c-0.2,0-0.4-0.1-0.6-0.3
					c0,0-0.1-0.1-0.1-0.1l0,0c-0.1-0.1-0.1-0.1-0.1-0.2c0-0.1-0.1-0.2-0.1-0.3c-0.1-0.3,0-0.6,0.1-0.8c0.1-0.1,0.1-0.2,0.3-0.3
					c0.1-0.1,0.2-0.1,0.3-0.2c0.2-0.1,0.5-0.1,0.7-0.1c0.4,0.1,0.7,0.3,0.9,0.7C87.8,61.7,87.7,62.2,87.4,62.6z"/>
			</g>
			<g class="st23">
				<path class="st64" d="M89.8,66.9c-0.2,0.2-0.4,0.4-0.7,0.5c-0.5,0.2-1,0.3-1.5,0.2c-0.4-0.1-0.8-0.3-1.2-0.6
					c-0.1-0.1-0.2-0.2-0.3-0.3l0,0c-0.1-0.1-0.2-0.3-0.3-0.4c-0.1-0.2-0.2-0.4-0.2-0.6c-0.1-0.5,0-1.1,0.2-1.6
					c0.1-0.2,0.3-0.4,0.5-0.6c0.2-0.1,0.3-0.3,0.5-0.4c0.5-0.2,0.9-0.3,1.4-0.2c0.7,0.1,1.4,0.6,1.8,1.3
					C90.6,65.2,90.4,66.2,89.8,66.9z"/>
				<path class="st65" d="M89.5,66.4c-0.2,0.2-0.4,0.3-0.6,0.4c-0.4,0.2-0.8,0.2-1.2,0.1c-0.4-0.1-0.7-0.2-0.9-0.5
					c-0.1-0.1-0.2-0.1-0.2-0.2l0,0c-0.1-0.1-0.2-0.2-0.2-0.3c-0.1-0.1-0.1-0.3-0.2-0.5c-0.1-0.4,0-0.9,0.2-1.3
					c0.1-0.2,0.2-0.4,0.4-0.5c0.1-0.1,0.3-0.2,0.4-0.3c0.4-0.2,0.8-0.2,1.2-0.2c0.6,0.1,1.1,0.5,1.4,1.1C90.1,65,90,65.9,89.5,66.4z
					"/>
				<path class="st66" d="M88.9,65.5c-0.1,0.1-0.2,0.2-0.4,0.3c-0.2,0.1-0.5,0.1-0.8,0.1c-0.2,0-0.4-0.1-0.6-0.3
					c0,0-0.1-0.1-0.1-0.1l0,0c-0.1-0.1-0.1-0.1-0.1-0.2c0-0.1-0.1-0.2-0.1-0.3c-0.1-0.3,0-0.6,0.1-0.8c0.1-0.1,0.1-0.2,0.3-0.3
					c0.1-0.1,0.2-0.1,0.3-0.2c0.2-0.1,0.5-0.1,0.7-0.1c0.4,0.1,0.7,0.3,0.9,0.7C89.3,64.6,89.2,65.1,88.9,65.5z"/>
			</g>
			<g class="st23">
				<path class="st67" d="M89.8,70.2c-0.2,0.2-0.4,0.4-0.7,0.5c-0.5,0.2-1,0.3-1.5,0.2c-0.4-0.1-0.8-0.3-1.2-0.6
					c-0.1-0.1-0.2-0.2-0.3-0.3l0,0C86.1,70,86,69.8,86,69.7c-0.1-0.2-0.2-0.4-0.2-0.6c-0.1-0.5,0-1.1,0.2-1.6
					c0.1-0.2,0.3-0.4,0.5-0.6c0.2-0.1,0.3-0.3,0.5-0.4c0.5-0.2,0.9-0.3,1.4-0.2c0.7,0.1,1.4,0.6,1.8,1.3
					C90.6,68.5,90.4,69.6,89.8,70.2z"/>
				<path class="st68" d="M89.5,69.8c-0.2,0.2-0.4,0.3-0.6,0.4c-0.4,0.2-0.8,0.2-1.2,0.1c-0.4-0.1-0.7-0.2-0.9-0.5
					c-0.1-0.1-0.2-0.1-0.2-0.2l0,0c-0.1-0.1-0.2-0.2-0.2-0.3c-0.1-0.1-0.1-0.3-0.2-0.5c-0.1-0.4,0-0.9,0.2-1.3
					c0.1-0.2,0.2-0.4,0.4-0.5c0.1-0.1,0.3-0.2,0.4-0.3c0.4-0.2,0.8-0.2,1.2-0.2c0.6,0.1,1.1,0.5,1.4,1.1
					C90.2,68.4,90,69.3,89.5,69.8z"/>
				<path class="st69" d="M88.9,68.8c-0.1,0.1-0.2,0.2-0.4,0.3c-0.2,0.1-0.5,0.1-0.8,0.1c-0.2,0-0.4-0.1-0.6-0.3
					c0,0-0.1-0.1-0.1-0.1l0,0c-0.1-0.1-0.1-0.1-0.1-0.2c0-0.1-0.1-0.2-0.1-0.3c-0.1-0.3,0-0.6,0.1-0.8c0.1-0.1,0.1-0.2,0.3-0.3
					c0.1-0.1,0.2-0.1,0.3-0.2c0.2-0.1,0.5-0.1,0.7-0.1c0.4,0.1,0.7,0.3,0.9,0.7C89.3,68,89.3,68.5,88.9,68.8z"/>
			</g>
			<g class="st23">
				<path class="st61" d="M84.2,67c-0.2,0.2-0.4,0.4-0.7,0.5c-0.5,0.2-1,0.3-1.5,0.2c-0.4-0.1-0.8-0.3-1.2-0.6
					c-0.1-0.1-0.2-0.2-0.3-0.3l0,0c-0.1-0.1-0.2-0.3-0.3-0.4c-0.1-0.2-0.2-0.4-0.2-0.6c-0.1-0.5,0-1.1,0.2-1.6
					c0.1-0.2,0.3-0.4,0.5-0.6c0.2-0.1,0.3-0.3,0.5-0.4c0.5-0.2,0.9-0.3,1.4-0.2c0.7,0.1,1.4,0.6,1.8,1.3C85,65.3,84.8,66.3,84.2,67z
					"/>
				<path class="st62" d="M83.9,66.6c-0.2,0.2-0.4,0.3-0.6,0.4c-0.4,0.2-0.8,0.2-1.2,0.1c-0.4-0.1-0.7-0.2-0.9-0.5
					c-0.1-0.1-0.2-0.1-0.2-0.2l0,0c-0.1-0.1-0.2-0.2-0.2-0.3c-0.1-0.1-0.1-0.3-0.2-0.5c-0.1-0.4,0-0.9,0.2-1.3
					c0.1-0.2,0.2-0.4,0.4-0.5c0.1-0.1,0.3-0.2,0.4-0.3c0.4-0.2,0.8-0.2,1.2-0.2c0.6,0.1,1.1,0.5,1.4,1.1
					C84.5,65.2,84.4,66,83.9,66.6z"/>
				<path class="st63" d="M83.3,65.6c-0.1,0.1-0.2,0.2-0.4,0.3C82.7,66,82.5,66,82.2,66c-0.2,0-0.4-0.1-0.6-0.3c0,0-0.1-0.1-0.1-0.1
					l0,0c-0.1-0.1-0.1-0.1-0.1-0.2c0-0.1-0.1-0.2-0.1-0.3c-0.1-0.3,0-0.6,0.1-0.8c0.1-0.1,0.1-0.2,0.3-0.3c0.1-0.1,0.2-0.1,0.3-0.2
					c0.2-0.1,0.5-0.1,0.7-0.1c0.4,0.1,0.7,0.3,0.9,0.7C83.7,64.7,83.6,65.3,83.3,65.6z"/>
			</g>
			<g class="st23">
				<path class="st58" d="M82.9,70.4c-0.2,0.2-0.4,0.4-0.7,0.5c-0.5,0.2-1,0.3-1.5,0.2c-0.4-0.1-0.8-0.3-1.2-0.6
					c-0.1-0.1-0.2-0.2-0.3-0.3l0,0c-0.1-0.1-0.2-0.3-0.3-0.4c-0.1-0.2-0.2-0.4-0.2-0.6c-0.1-0.5,0-1.1,0.2-1.6
					c0.1-0.2,0.3-0.4,0.5-0.6c0.2-0.1,0.3-0.3,0.5-0.4c0.5-0.2,0.9-0.3,1.4-0.2c0.7,0.1,1.4,0.6,1.8,1.3
					C83.7,68.7,83.5,69.7,82.9,70.4z"/>
				<path class="st59" d="M82.6,69.9c-0.2,0.2-0.4,0.3-0.6,0.4c-0.4,0.2-0.8,0.2-1.2,0.1c-0.3-0.1-0.7-0.2-0.9-0.5
					c-0.1-0.1-0.2-0.1-0.2-0.2l0,0c-0.1-0.1-0.2-0.2-0.2-0.3c-0.1-0.1-0.1-0.3-0.2-0.5c-0.1-0.4,0-0.9,0.2-1.3
					c0.1-0.2,0.2-0.4,0.4-0.5c0.1-0.1,0.3-0.2,0.4-0.3c0.4-0.2,0.8-0.2,1.2-0.2c0.6,0.1,1.1,0.5,1.4,1.1
					C83.2,68.5,83.1,69.4,82.6,69.9z"/>
				<path class="st60" d="M82,69c-0.1,0.1-0.2,0.2-0.4,0.3c-0.2,0.1-0.5,0.1-0.8,0.1c-0.2,0-0.4-0.1-0.6-0.3c0,0-0.1-0.1-0.1-0.1
					l0,0c-0.1-0.1-0.1-0.1-0.1-0.2c0-0.1-0.1-0.2-0.1-0.3c-0.1-0.3,0-0.6,0.1-0.8c0.1-0.1,0.1-0.2,0.3-0.3c0.1-0.1,0.2-0.1,0.3-0.2
					c0.2-0.1,0.5-0.1,0.7-0.1c0.4,0.1,0.7,0.3,0.9,0.7C82.4,68.1,82.3,68.6,82,69z"/>
			</g>
			<g class="st23">
				<path class="st73" d="M85.7,74.3c-0.2,0.2-0.4,0.4-0.7,0.5c-0.5,0.2-1,0.3-1.5,0.2c-0.4-0.1-0.8-0.3-1.2-0.6
					c-0.1-0.1-0.2-0.2-0.3-0.3l0,0c-0.1-0.1-0.2-0.3-0.3-0.4c-0.1-0.2-0.2-0.4-0.2-0.6c-0.1-0.5,0-1.1,0.2-1.6
					c0.1-0.2,0.3-0.4,0.5-0.6c0.2-0.1,0.3-0.3,0.5-0.4c0.5-0.2,0.9-0.3,1.4-0.2c0.7,0.1,1.4,0.6,1.8,1.3
					C86.5,72.6,86.4,73.6,85.7,74.3z"/>
				<path class="st74" d="M85.4,73.9c-0.2,0.2-0.4,0.3-0.6,0.4c-0.4,0.2-0.8,0.2-1.2,0.1c-0.4-0.1-0.7-0.2-0.9-0.5
					c-0.1-0.1-0.2-0.1-0.2-0.2l0,0c-0.1-0.1-0.2-0.2-0.2-0.3c-0.1-0.1-0.1-0.3-0.2-0.5c-0.1-0.4,0-0.9,0.2-1.3
					c0.1-0.2,0.2-0.4,0.4-0.5c0.1-0.1,0.3-0.2,0.4-0.3c0.4-0.2,0.8-0.2,1.2-0.2c0.6,0.1,1.1,0.5,1.4,1.1
					C86.1,72.5,85.9,73.3,85.4,73.9z"/>
				<path class="st75" d="M84.9,72.9c-0.1,0.1-0.2,0.2-0.4,0.3c-0.2,0.1-0.5,0.1-0.8,0.1c-0.2,0-0.4-0.1-0.6-0.3
					c0,0-0.1-0.1-0.1-0.1l0,0c-0.1-0.1-0.1-0.1-0.1-0.2c0-0.1-0.1-0.2-0.1-0.3c-0.1-0.3,0-0.6,0.1-0.8c0.1-0.1,0.1-0.2,0.3-0.3
					c0.1-0.1,0.2-0.1,0.3-0.2c0.2-0.1,0.5-0.1,0.7-0.1c0.4,0.1,0.7,0.3,0.9,0.7C85.3,72,85.2,72.6,84.9,72.9z"/>
			</g>
			<g class="st23">
				<path class="st67" d="M86.8,66.7c-0.2,0.2-0.4,0.4-0.7,0.5c-0.5,0.2-1,0.3-1.5,0.2c-0.4-0.1-0.8-0.3-1.2-0.6
					c-0.1-0.1-0.2-0.2-0.3-0.3l0,0c-0.1-0.1-0.2-0.3-0.3-0.4c-0.1-0.2-0.2-0.4-0.2-0.6c-0.1-0.5,0-1.1,0.2-1.6
					c0.1-0.2,0.3-0.4,0.5-0.6c0.2-0.1,0.3-0.3,0.5-0.4c0.5-0.2,0.9-0.3,1.4-0.2c0.7,0.1,1.4,0.6,1.8,1.3C87.6,65,87.4,66,86.8,66.7z
					"/>
				<path class="st68" d="M86.4,66.2c-0.2,0.2-0.4,0.3-0.6,0.4c-0.4,0.2-0.8,0.2-1.2,0.1c-0.3-0.1-0.7-0.2-0.9-0.5
					c-0.1-0.1-0.2-0.1-0.2-0.2l0,0c-0.1-0.1-0.2-0.2-0.2-0.3c-0.1-0.1-0.1-0.3-0.2-0.5c-0.1-0.4,0-0.9,0.2-1.3
					c0.1-0.2,0.2-0.4,0.4-0.5c0.1-0.1,0.3-0.2,0.4-0.3c0.4-0.2,0.8-0.2,1.2-0.2c0.6,0.1,1.1,0.5,1.4,1.1
					C87.1,64.8,87,65.7,86.4,66.2z"/>
				<path class="st69" d="M85.9,65.2c-0.1,0.1-0.2,0.2-0.4,0.3c-0.2,0.1-0.5,0.1-0.8,0.1c-0.2,0-0.4-0.1-0.6-0.3
					c0,0-0.1-0.1-0.1-0.1l0,0c-0.1-0.1-0.1-0.1-0.1-0.2c0-0.1-0.1-0.2-0.1-0.3c-0.1-0.3,0-0.6,0.1-0.8c0.1-0.1,0.1-0.2,0.3-0.3
					c0.1-0.1,0.2-0.1,0.3-0.2c0.2-0.1,0.5-0.1,0.7-0.1c0.4,0.1,0.7,0.3,0.9,0.7C86.3,64.4,86.2,64.9,85.9,65.2z"/>
			</g>
			<g class="st23">
				<path class="st76" d="M86.8,70.4c-0.2,0.2-0.4,0.4-0.7,0.5c-0.5,0.2-1,0.3-1.5,0.2c-0.4-0.1-0.8-0.3-1.2-0.6
					c-0.1-0.1-0.2-0.2-0.3-0.3l0,0c-0.1-0.1-0.2-0.3-0.3-0.4c-0.1-0.2-0.2-0.4-0.2-0.6c-0.1-0.5,0-1.1,0.2-1.6
					c0.1-0.2,0.3-0.4,0.5-0.6c0.2-0.1,0.3-0.3,0.5-0.4c0.5-0.2,0.9-0.3,1.4-0.2c0.7,0.1,1.4,0.6,1.8,1.3
					C87.6,68.7,87.4,69.7,86.8,70.4z"/>
				<path class="st77" d="M86.5,69.9c-0.2,0.2-0.4,0.3-0.6,0.4c-0.4,0.2-0.8,0.2-1.2,0.1c-0.4-0.1-0.7-0.2-0.9-0.5
					c-0.1-0.1-0.2-0.1-0.2-0.2l0,0c-0.1-0.1-0.2-0.2-0.2-0.3c-0.1-0.1-0.1-0.3-0.2-0.5c-0.1-0.4,0-0.9,0.2-1.3
					c0.1-0.2,0.2-0.4,0.4-0.5c0.1-0.1,0.3-0.2,0.4-0.3c0.4-0.2,0.8-0.2,1.2-0.2c0.6,0.1,1.1,0.5,1.4,1.1
					C87.1,68.5,87,69.4,86.5,69.9z"/>
				<path class="st78" d="M85.9,69c-0.1,0.1-0.2,0.2-0.4,0.3c-0.2,0.1-0.5,0.1-0.8,0.1c-0.2,0-0.4-0.1-0.6-0.3c0,0-0.1-0.1-0.1-0.1
					l0,0c-0.1-0.1-0.1-0.1-0.1-0.2c0-0.1-0.1-0.2-0.1-0.3c-0.1-0.3,0-0.6,0.1-0.8c0.1-0.1,0.1-0.2,0.3-0.3c0.1-0.1,0.2-0.1,0.3-0.2
					c0.2-0.1,0.5-0.1,0.7-0.1c0.4,0.1,0.7,0.3,0.9,0.7C86.3,68.1,86.2,68.6,85.9,69z"/>
			</g>
			<g class="st23">
				<path class="st76" d="M84.2,70.3c-0.2,0.2-0.4,0.4-0.7,0.5c-0.5,0.2-1,0.3-1.5,0.2c-0.4-0.1-0.8-0.3-1.2-0.6
					c-0.1-0.1-0.2-0.2-0.3-0.3l0,0c-0.1-0.1-0.2-0.3-0.3-0.4c-0.1-0.2-0.2-0.4-0.2-0.6c-0.1-0.5,0-1.1,0.2-1.6
					c0.1-0.2,0.3-0.4,0.5-0.6c0.2-0.1,0.3-0.3,0.5-0.4c0.5-0.2,0.9-0.3,1.4-0.2c0.7,0.1,1.4,0.6,1.8,1.3
					C85,68.7,84.8,69.7,84.2,70.3z"/>
				<path class="st77" d="M83.9,69.9c-0.2,0.2-0.4,0.3-0.6,0.4c-0.4,0.2-0.8,0.2-1.2,0.1c-0.4-0.1-0.7-0.2-0.9-0.5
					c-0.1-0.1-0.2-0.1-0.2-0.2l0,0c-0.1-0.1-0.2-0.2-0.2-0.3c-0.1-0.1-0.1-0.3-0.2-0.5c-0.1-0.4,0-0.9,0.2-1.3
					c0.1-0.2,0.2-0.4,0.4-0.5c0.1-0.1,0.3-0.2,0.4-0.3c0.4-0.2,0.8-0.2,1.2-0.2c0.6,0.1,1.1,0.5,1.4,1.1
					C84.5,68.5,84.4,69.4,83.9,69.9z"/>
				<path class="st78" d="M83.3,68.9c-0.1,0.1-0.2,0.2-0.4,0.3c-0.2,0.1-0.5,0.1-0.8,0.1c-0.2,0-0.4-0.1-0.6-0.3
					c0,0-0.1-0.1-0.1-0.1l0,0c-0.1-0.1-0.1-0.1-0.1-0.2c0-0.1-0.1-0.2-0.1-0.3c-0.1-0.3,0-0.6,0.1-0.8c0.1-0.1,0.1-0.2,0.3-0.3
					c0.1-0.1,0.2-0.1,0.3-0.2c0.2-0.1,0.5-0.1,0.7-0.1c0.4,0.1,0.7,0.3,0.9,0.7C83.7,68.1,83.6,68.6,83.3,68.9z"/>
			</g>
		</g>
		<g>
			<polygon class="st79" points="145,52.5 140.9,63.3 140.7,63.2 140.7,54.8 144.8,52.4 			"/>
			<polygon class="st80" points="145,60.9 140.9,63.3 140.9,54.9 145,52.5 			"/>
			<polygon class="st81" points="141.1,62.9 144.7,60.8 144.7,52.9 141.1,55 			"/>
			<polygon class="st82" points="141.1,58.3 144.7,59.7 144.7,58.7 141.1,57.4 			"/>
			<polygon class="st79" points="144.6,53 144.6,60.8 141.1,62.8 141.1,62.9 144.7,60.8 144.7,52.9 			"/>
			<polygon class="st83" points="140.7,54.8 140.9,54.9 145,52.5 144.8,52.4 			"/>
		</g>
	</g>
	<g>
		<g>
			<polygon class="st8" points="69.1,13.5 113.3,38.8 85.4,54.9 41.2,29.5 			"/>
			<polygon class="st4" points="41.2,29.5 85.4,54.9 85.4,99.6 41.2,74.3 			"/>
			<polygon class="st7" points="113.3,38.8 85.4,54.9 85.4,99.6 113.3,83.6 			"/>
		</g>
		<g>
			<polygon class="st4" points="27.3,63.4 49.3,76 49.3,94.9 27.3,82.3 			"/>
			<polygon class="st7" points="63.1,68 49.3,76 49.3,94.9 63.1,86.9 			"/>
		</g>
		<g>
			<polygon class="st8" points="68.6,10.2 115.2,37 85.8,54 39.2,27.2 			"/>
			<polygon class="st10" points="44.4,27.2 68.6,13.2 110.1,37 85.8,51 			"/>
			<polygon class="st84" points="39.2,27.2 85.8,54 85.8,58.1 39.2,31.4 			"/>
			<polygon class="st85" points="115.2,37 85.8,54 85.8,58.1 115.2,41.2 			"/>
		</g>
		<g>
			<g>
				<polygon class="st86" points="49.4,93.7 49.4,94.9 60.6,88.3 60.6,87.2 				"/>
				<polygon class="st87" points="49.4,93.7 35.5,85.7 35.5,86.9 49.4,94.9 				"/>
				<polygon class="st88" points="35.5,85.7 46.8,79.2 60.6,87.2 49.4,93.7 				"/>
			</g>
			<polygon class="st89" points="58.8,70.2 58.8,88.2 60.6,87.2 60.6,69.1 			"/>
			<polygon class="st90" points="58.8,70.1 46.7,65.7 46.7,81.3 58.8,88.2 			"/>
			<linearGradient id="SVGID_10_" gradientUnits="userSpaceOnUse" x1="46.2963" y1="96.3901" x2="53.3529" y2="75.1132">
				<stop  offset="0" style="stop-color:#71BDE3"/>
				<stop  offset="0.1493" style="stop-color:#67B4DB"/>
				<stop  offset="0.4018" style="stop-color:#4D9BC7"/>
				<stop  offset="0.7247" style="stop-color:#2273A6"/>
				<stop  offset="0.9291" style="stop-color:#03568F"/>
			</linearGradient>
			<polygon class="st91" points="47.7,80.7 47.7,67.4 57.8,73.2 57.8,86.5 			"/>
			<polygon class="st89" points="37.4,68.9 37.4,86.8 46.7,81.4 46.7,65.9 			"/>
			<linearGradient id="SVGID_11_" gradientUnits="userSpaceOnUse" x1="44.4745" y1="87.1673" x2="40.7324" y2="70.488">
				<stop  offset="5.911330e-02" style="stop-color:#71BDE3"/>
				<stop  offset="0.1952" style="stop-color:#6BB7DE"/>
				<stop  offset="0.3859" style="stop-color:#58A6D0"/>
				<stop  offset="0.609" style="stop-color:#3A8AB9"/>
				<stop  offset="0.8545" style="stop-color:#11639A"/>
				<stop  offset="0.9291" style="stop-color:#03568F"/>
			</linearGradient>
			<polygon class="st92" points="38.4,70.5 45.7,67.4 45.7,80.8 38.4,85.1 			"/>
			<polygon class="st90" points="37.4,69 35.5,68 35.5,85.7 37.4,86.8 			"/>
			<polygon class="st89" points="49.4,73.7 49.4,92.6 51.2,91.5 51.2,72.6 			"/>
			<polygon class="st90" points="49.4,74.7 47.6,73.6 47.6,91.5 49.4,92.6 			"/>
		</g>
		<polygon class="st89" points="63.1,64.6 63.1,68 49.3,76 27.3,63.4 		"/>
		<polygon class="st8" points="41.2,52 63.1,64.6 49.3,72.6 27.3,60 		"/>
		<polygon class="st10" points="32.5,60 41.2,55 58,64.6 49.3,69.6 		"/>
		<polygon class="st93" points="68.6,16 107.6,38.4 110.1,37 68.6,13.2 44.4,27.2 46.8,28.6 		"/>
		<polygon class="st93" points="41.2,57.8 55.5,66 58,64.6 41.2,55 32.5,60 35,61.4 		"/>
		<polygon class="st90" points="27.3,60 27.3,63.4 49.3,76 49.3,72.6 		"/>
		<g>
			<polygon class="st94" points="82.7,61 82.7,71.5 77.1,68.2 77.1,57.7 			"/>
			
				<linearGradient id="SVGID_12_" gradientUnits="userSpaceOnUse" x1="-120.848" y1="-75.3136" x2="-126.3009" y2="-52.8606" gradientTransform="matrix(-1 0 0 1 -74.9271 0)">
				<stop  offset="0" style="stop-color:#71BDE3"/>
				<stop  offset="0.1493" style="stop-color:#67B4DB"/>
				<stop  offset="0.4018" style="stop-color:#4D9BC7"/>
				<stop  offset="0.7247" style="stop-color:#2273A6"/>
				<stop  offset="0.9291" style="stop-color:#03568F"/>
			</linearGradient>
			<polygon class="st95" points="77.7,67.9 77.7,58.9 82.1,61.3 82.1,70.3 			"/>
			<polygon class="st96" points="78.2,67.7 78.2,59.2 77.7,58.9 77.7,67.9 82.1,70.3 82.1,69.8 			"/>
			<g>
				<polygon class="st94" points="82.2,64 77.5,61.3 77.7,61.1 82.3,63.8 				"/>
			</g>
			<g>
				
					<rect x="79.8" y="62" transform="matrix(0.4912 -0.8711 0.8711 0.4912 -15.6837 102.5076)" class="st94" width="0.3" height="5.3"/>
			</g>
			<g>
				<rect x="79.9" y="59.6" class="st94" width="0.3" height="9.7"/>
			</g>
		</g>
		<g>
			<polygon class="st94" points="72.8,55.3 72.8,65.8 67.2,62.5 67.2,52.1 			"/>
			
				<linearGradient id="SVGID_13_" gradientUnits="userSpaceOnUse" x1="-112.7976" y1="-73.3575" x2="-118.2504" y2="-50.9045" gradientTransform="matrix(-1 0 0 1 -74.9271 0)">
				<stop  offset="0" style="stop-color:#71BDE3"/>
				<stop  offset="0.1493" style="stop-color:#67B4DB"/>
				<stop  offset="0.4018" style="stop-color:#4D9BC7"/>
				<stop  offset="0.7247" style="stop-color:#2273A6"/>
				<stop  offset="0.9291" style="stop-color:#03568F"/>
			</linearGradient>
			<polygon class="st97" points="67.8,62.2 67.8,53.3 72.2,55.7 72.2,64.6 			"/>
			<polygon class="st96" points="68.3,62 68.3,53.5 67.8,53.3 67.8,62.2 72.2,64.6 72.2,64.1 			"/>
			<g>
				<polygon class="st94" points="72.3,58.3 67.6,55.7 67.8,55.4 72.4,58.1 				"/>
			</g>
			<g>
				
					<rect x="69.9" y="56.4" transform="matrix(0.4912 -0.8711 0.8711 0.4912 -15.782 90.9953)" class="st94" width="0.3" height="5.3"/>
			</g>
			<g>
				<rect x="70" y="53.9" class="st94" width="0.3" height="9.7"/>
			</g>
		</g>
		<g>
			<polygon class="st94" points="82.7,76.6 82.7,87 77.1,83.7 77.1,73.3 			"/>
			
				<linearGradient id="SVGID_14_" gradientUnits="userSpaceOnUse" x1="-117.2816" y1="-74.4474" x2="-122.7344" y2="-51.9944" gradientTransform="matrix(-1 0 0 1 -74.9271 0)">
				<stop  offset="0" style="stop-color:#71BDE3"/>
				<stop  offset="0.1493" style="stop-color:#67B4DB"/>
				<stop  offset="0.4018" style="stop-color:#4D9BC7"/>
				<stop  offset="0.7247" style="stop-color:#2273A6"/>
				<stop  offset="0.9291" style="stop-color:#03568F"/>
			</linearGradient>
			<polygon class="st98" points="77.7,83.4 77.7,74.5 82.1,76.9 82.1,85.8 			"/>
			<polygon class="st96" points="78.2,83.2 78.2,74.7 77.7,74.5 77.7,83.4 82.1,85.8 82.1,85.3 			"/>
			<g>
				<polygon class="st94" points="82.2,79.5 77.5,76.9 77.7,76.7 82.3,79.3 				"/>
			</g>
			<g>
				
					<rect x="79.8" y="77.6" transform="matrix(0.4912 -0.8711 0.8711 0.4912 -29.2303 110.4209)" class="st94" width="0.3" height="5.3"/>
			</g>
			<g>
				<rect x="79.9" y="75.1" class="st94" width="0.3" height="9.7"/>
			</g>
		</g>
		<g>
			<polygon class="st94" points="72.8,70.9 72.8,81.3 67.2,78.1 67.2,67.6 			"/>
			
				<linearGradient id="SVGID_15_" gradientUnits="userSpaceOnUse" x1="-109.2311" y1="-72.4913" x2="-114.684" y2="-50.0383" gradientTransform="matrix(-1 0 0 1 -74.9271 0)">
				<stop  offset="0" style="stop-color:#71BDE3"/>
				<stop  offset="0.1493" style="stop-color:#67B4DB"/>
				<stop  offset="0.4018" style="stop-color:#4D9BC7"/>
				<stop  offset="0.7247" style="stop-color:#2273A6"/>
				<stop  offset="0.9291" style="stop-color:#03568F"/>
			</linearGradient>
			<polygon class="st99" points="67.8,77.8 67.8,68.8 72.2,71.2 72.2,80.2 			"/>
			<polygon class="st96" points="68.3,77.5 68.3,69.1 67.8,68.8 67.8,77.8 72.2,80.2 72.2,79.6 			"/>
			<g>
				<polygon class="st94" points="72.3,73.9 67.6,71.2 67.8,71 72.4,73.6 				"/>
			</g>
			<g>
				
					<rect x="69.9" y="71.9" transform="matrix(0.4912 -0.8711 0.8711 0.4912 -29.3291 98.9062)" class="st94" width="0.3" height="5.3"/>
			</g>
			<g>
				<rect x="70" y="69.4" class="st94" width="0.3" height="9.7"/>
			</g>
		</g>
		<g>
			<polygon class="st94" points="91.6,59.1 91.6,69.5 97.2,66.3 97.2,55.8 			"/>
			
				<linearGradient id="SVGID_16_" gradientUnits="userSpaceOnUse" x1="-238.1132" y1="315.5113" x2="-226.8867" y2="335.6122" gradientTransform="matrix(1 0 0 1 473.6953 0)">
				<stop  offset="5.911330e-02" style="stop-color:#71BDE3"/>
				<stop  offset="0.1952" style="stop-color:#6BB7DE"/>
				<stop  offset="0.3859" style="stop-color:#58A6D0"/>
				<stop  offset="0.609" style="stop-color:#3A8AB9"/>
				<stop  offset="0.8545" style="stop-color:#11639A"/>
				<stop  offset="0.9291" style="stop-color:#03568F"/>
			</linearGradient>
			<polygon class="st100" points="96.5,66 96.5,57 92.2,59.4 92.2,68.4 			"/>
			<polygon class="st96" points="96.1,65.7 96.1,57.3 96.5,57 96.5,66 92.2,68.4 92.2,67.8 			"/>
			<g>
				<polygon class="st94" points="92.1,62.1 96.7,59.4 96.6,59.2 91.9,61.8 				"/>
			</g>
			<g>
				
					<rect x="91.7" y="62.6" transform="matrix(0.8711 -0.4912 0.4912 0.8711 -18.6573 54.4471)" class="st94" width="5.3" height="0.3"/>
			</g>
			<g>
				<rect x="94.2" y="57.6" class="st94" width="0.3" height="9.7"/>
			</g>
		</g>
		<g>
			<polygon class="st94" points="101.5,53.4 101.5,63.9 107.1,60.6 107.1,50.2 			"/>
			
				<linearGradient id="SVGID_17_" gradientUnits="userSpaceOnUse" x1="-228.1501" y1="309.9469" x2="-216.9235" y2="330.0479" gradientTransform="matrix(1 0 0 1 473.6953 0)">
				<stop  offset="5.911330e-02" style="stop-color:#71BDE3"/>
				<stop  offset="0.1952" style="stop-color:#6BB7DE"/>
				<stop  offset="0.3859" style="stop-color:#58A6D0"/>
				<stop  offset="0.609" style="stop-color:#3A8AB9"/>
				<stop  offset="0.8545" style="stop-color:#11639A"/>
				<stop  offset="0.9291" style="stop-color:#03568F"/>
			</linearGradient>
			<polygon class="st101" points="106.4,60.3 106.4,51.3 102.1,53.7 102.1,62.7 			"/>
			<polygon class="st96" points="106,60.1 106,51.6 106.4,51.3 106.4,60.3 102.1,62.7 102.1,62.2 			"/>
			<g>
				<polygon class="st94" points="102,56.4 106.6,53.7 106.5,53.5 101.8,56.2 				"/>
			</g>
			<g>
				
					<rect x="101.6" y="57" transform="matrix(0.8711 -0.4912 0.4912 0.8711 -14.5947 58.5812)" class="st94" width="5.3" height="0.3"/>
			</g>
			<g>
				<rect x="104.1" y="52" class="st94" width="0.3" height="9.7"/>
			</g>
		</g>
		<g>
			<polygon class="st94" points="91.6,74.7 91.6,85.1 97.2,81.8 97.2,71.4 			"/>
			
				<linearGradient id="SVGID_18_" gradientUnits="userSpaceOnUse" x1="-244.7335" y1="319.2095" x2="-233.507" y2="339.3104" gradientTransform="matrix(1 0 0 1 473.6953 0)">
				<stop  offset="5.911330e-02" style="stop-color:#71BDE3"/>
				<stop  offset="0.1952" style="stop-color:#6BB7DE"/>
				<stop  offset="0.3859" style="stop-color:#58A6D0"/>
				<stop  offset="0.609" style="stop-color:#3A8AB9"/>
				<stop  offset="0.8545" style="stop-color:#11639A"/>
				<stop  offset="0.9291" style="stop-color:#03568F"/>
			</linearGradient>
			<polygon class="st102" points="96.5,81.5 96.5,72.6 92.2,75 92.2,83.9 			"/>
			<polygon class="st96" points="96.1,81.3 96.1,72.8 96.5,72.6 96.5,81.5 92.2,83.9 92.2,83.4 			"/>
			<g>
				<polygon class="st94" points="92.1,77.6 96.7,75 96.6,74.7 91.9,77.4 				"/>
			</g>
			<g>
				
					<rect x="91.7" y="78.2" transform="matrix(0.8711 -0.4912 0.4912 0.8711 -26.2956 56.4521)" class="st94" width="5.3" height="0.3"/>
			</g>
			<g>
				<rect x="94.2" y="73.2" class="st94" width="0.3" height="9.7"/>
			</g>
		</g>
		<g>
			<polygon class="st94" points="101.5,69 101.5,79.4 107.1,76.2 107.1,65.7 			"/>
			
				<linearGradient id="SVGID_19_" gradientUnits="userSpaceOnUse" x1="-234.7729" y1="313.6406" x2="-223.5465" y2="333.7412" gradientTransform="matrix(1 0 0 1 473.6953 0)">
				<stop  offset="5.911330e-02" style="stop-color:#71BDE3"/>
				<stop  offset="0.1952" style="stop-color:#6BB7DE"/>
				<stop  offset="0.3859" style="stop-color:#58A6D0"/>
				<stop  offset="0.609" style="stop-color:#3A8AB9"/>
				<stop  offset="0.8545" style="stop-color:#11639A"/>
				<stop  offset="0.9291" style="stop-color:#03568F"/>
			</linearGradient>
			<polygon class="st103" points="106.4,75.8 106.4,66.9 102.1,69.3 102.1,78.2 			"/>
			<polygon class="st96" points="106,75.6 106,67.1 106.4,66.9 106.4,75.8 102.1,78.2 102.1,77.7 			"/>
			<g>
				<polygon class="st94" points="102,71.9 106.6,69.3 106.5,69.1 101.8,71.7 				"/>
			</g>
			<g>
				
					<rect x="101.6" y="72.5" transform="matrix(0.8711 -0.4912 0.4912 0.8711 -22.2334 60.5892)" class="st94" width="5.3" height="0.3"/>
			</g>
			<g>
				<rect x="104.1" y="67.5" class="st94" width="0.3" height="9.7"/>
			</g>
		</g>
		<g>
			<polygon class="st94" points="62.9,49.7 62.9,60.1 57.3,56.9 57.3,46.4 			"/>
			
				<linearGradient id="SVGID_20_" gradientUnits="userSpaceOnUse" x1="-104.7467" y1="-71.4022" x2="-110.1996" y2="-48.9493" gradientTransform="matrix(-1 0 0 1 -74.9271 0)">
				<stop  offset="0" style="stop-color:#71BDE3"/>
				<stop  offset="0.1493" style="stop-color:#67B4DB"/>
				<stop  offset="0.4018" style="stop-color:#4D9BC7"/>
				<stop  offset="0.7247" style="stop-color:#2273A6"/>
				<stop  offset="0.9291" style="stop-color:#03568F"/>
			</linearGradient>
			<polygon class="st104" points="57.9,56.5 57.9,47.6 62.2,50 62.2,58.9 			"/>
			<polygon class="st96" points="58.4,56.3 58.4,47.8 57.9,47.6 57.9,56.5 62.2,58.9 62.2,58.4 			"/>
			<g>
				<polygon class="st94" points="62.4,52.6 57.7,50 57.9,49.8 62.5,52.4 				"/>
			</g>
			<g>
				
					<rect x="60" y="50.7" transform="matrix(0.4912 -0.8711 0.8711 0.4912 -15.8803 79.4829)" class="st94" width="0.3" height="5.3"/>
			</g>
			<g>
				<rect x="60.1" y="48.2" class="st94" width="0.3" height="9.7"/>
			</g>
		</g>
		<g>
			<polygon class="st94" points="53,44 53,54.4 47.4,51.2 47.4,40.7 			"/>
			
				<linearGradient id="SVGID_21_" gradientUnits="userSpaceOnUse" x1="-96.696" y1="-69.4475" x2="-102.1488" y2="-46.9945" gradientTransform="matrix(-1 0 0 1 -74.9271 0)">
				<stop  offset="0" style="stop-color:#71BDE3"/>
				<stop  offset="0.1493" style="stop-color:#67B4DB"/>
				<stop  offset="0.4018" style="stop-color:#4D9BC7"/>
				<stop  offset="0.7247" style="stop-color:#2273A6"/>
				<stop  offset="0.9291" style="stop-color:#03568F"/>
			</linearGradient>
			<polygon class="st105" points="48,50.9 48,41.9 52.3,44.3 52.3,53.3 			"/>
			<polygon class="st96" points="48.5,50.6 48.5,42.2 48,41.9 48,50.9 52.3,53.3 52.3,52.7 			"/>
			<g>
				<polygon class="st94" points="52.5,47 47.8,44.3 48,44.1 52.6,46.7 				"/>
			</g>
			<g>
				
					<rect x="50.1" y="45" transform="matrix(0.4912 -0.8711 0.8711 0.4912 -15.9783 67.9714)" class="st94" width="0.3" height="5.3"/>
			</g>
			<g>
				<rect x="50.2" y="42.5" class="st94" width="0.3" height="9.7"/>
			</g>
		</g>
		<g>
			<polygon class="st106" points="85.1,92.3 63.1,79.7 63.1,86.9 85.1,99.4 			"/>
			<polygon class="st107" points="83.9,93 64.3,81.7 64.3,86.2 83.9,97.5 			"/>
			<polygon class="st108" points="64.6,81.9 64.6,86 83.9,97.1 83.9,97.5 64.3,86.2 64.3,81.7 			"/>
			<polygon class="st109" points="63.1,79.7 63.5,79.5 85.4,92.1 85.1,92.3 			"/>
		</g>
		<g>
			<polygon class="st110" points="85.4,92.5 113.9,76.1 113.9,83.2 85.4,99.6 			"/>
			<polygon class="st111" points="86.5,93.2 112.7,78.1 112.7,82.6 86.5,97.7 			"/>
			<polygon class="st109" points="112.3,78.3 112.3,82.4 86.5,97.3 86.5,97.7 112.7,82.6 112.7,78.1 			"/>
			<polygon class="st109" points="113.9,76.1 113.5,75.9 85.1,92.3 85.4,92.5 			"/>
			<polygon class="st106" points="85.4,92.5 85.4,99.6 85.1,99.4 85.1,92.3 			"/>
		</g>
		<g>
			<g>
				<polygon class="st106" points="35.2,80 27.3,75.2 27.3,82.3 35.2,87.2 				"/>
				<polygon class="st107" points="34.1,80.7 28.5,77.2 28.5,81.7 34.1,85.2 				"/>
				<polygon class="st108" points="28.9,77.4 28.9,81.5 34.1,84.8 34.1,85.2 28.5,81.7 28.5,77.2 				"/>
				<polygon class="st109" points="27.3,75.2 27.7,75 35.5,79.8 35.2,80 				"/>
			</g>
			<polygon class="st106" points="35.2,80 35.2,87.2 35.5,87 35.5,79.8 			"/>
		</g>
		<g>
			<g>
				<polygon class="st110" points="61,81.4 63.5,79.9 63.5,87 61,88.6 				"/>
				<polygon class="st109" points="63.5,79.9 63.1,79.7 60.6,81.2 61,81.4 				"/>
			</g>
			<polygon class="st106" points="61,81.4 61,88.6 60.6,88.4 60.6,81.2 			"/>
		</g>
		<polygon class="st112" points="68.6,13.2 68.6,16 46.8,28.6 44.4,27.2 		"/>
		<polygon class="st112" points="41.2,55 41.2,57.8 35,61.4 32.5,60 		"/>
		<g>
			<path class="st113" d="M91.7,100.3c-0.8-0.5-2.2-0.5-3,0c-0.8,0.5-0.8,1.3,0,1.7c0.8,0.5,2.2,0.5,3,0
				C92.6,101.5,92.6,100.7,91.7,100.3z"/>
			<path class="st8" d="M88.1,100.6c0.8-0.5,2.2-0.5,3,0c0.8,0.5,0.8,1.3,0,1.7c-0.8,0.5-2.2,0.5-3,0
				C87.3,101.9,87.3,101.1,88.1,100.6z"/>
			<path class="st114" d="M88.5,100.4c0.6-0.3,1.6-0.3,2.2,0c0.6,0.4,0.6,0.9,0,1.3c-0.6,0.3-1.6,0.3-2.2,0
				C87.9,101.3,87.9,100.8,88.5,100.4z"/>
			<polygon class="st115" points="83.9,63.9 83.9,64.6 89.6,67.9 90.4,66.7 			"/>
			<polygon class="st116" points="85.4,63.1 83.9,63.9 89.6,67.2 90.4,65.9 			"/>
			<path class="st116" d="M90.4,65.9h-1.4v35v0v0l0,0c0,0.1,0.1,0.2,0.2,0.3c0.3,0.2,0.7,0.2,1,0c0.1-0.1,0.2-0.2,0.2-0.3h0V65.9z"
				/>
		</g>
		<g>
			<g>
				<g>
					<polygon class="st117" points="59.5,111.4 58,108.5 58.4,104.5 59.5,105 					"/>
					<polygon class="st118" points="78.9,101.1 59.5,105 59.5,111.4 78.9,107.5 					"/>
					<polygon class="st119" points="60.1,105.5 78.3,101.9 78.3,107 60.1,110.6 					"/>
					<polygon class="st120" points="77.9,102 77.9,106.7 60.1,110.2 60.1,110.6 78.3,107 78.3,101.9 					"/>
					<polygon class="st120" points="59.5,105 58.4,104.5 77.9,100.6 78.9,101.1 					"/>
				</g>
			</g>
		</g>
		<g>
			<polygon class="st51" points="25.4,86.3 38,93.5 32.8,96.6 20.2,89.3 			"/>
			<polygon class="st8" points="28.6,83.7 41.2,90.9 35.9,93.9 23.3,86.7 			"/>
			<polygon class="st121" points="39.1,90.9 28.5,84.7 25.3,86.5 35.9,92.7 			"/>
			<polygon class="st84" points="23.3,86.7 35.9,93.9 35.9,98.4 23.3,91.1 			"/>
			<polygon class="st85" points="41.2,90.9 35.9,93.9 35.9,98.4 41.2,95.3 			"/>
		</g>
		<polygon class="st117" points="78.3,101.9 77.9,102 77.9,106.7 78.3,107 		"/>
		<g>
			<polygon class="st122" points="68.8,9 76.4,13.3 71.6,16.1 64,11.7 			"/>
			<polygon class="st123" points="64,11.7 71.6,16.1 71.6,24.4 64,20.1 			"/>
			<polygon class="st124" points="76.4,13.3 71.6,16.1 71.6,24.4 76.4,21.7 			"/>
		</g>
	</g>
</g>
</svg>
