<?xml version="1.0" encoding="utf-8"?>
<!-- Generator: Adobe Illustrator 21.1.0, SVG Export Plug-In . SVG Version: 6.00 Build 0)  -->
<svg version="1.1" id="Layer_1" xmlns="http://www.w3.org/2000/svg" xmlns:xlink="http://www.w3.org/1999/xlink" x="0px" y="0px"
	 viewBox="0 0 730 523" style="enable-background:new 0 0 730 523;" xml:space="preserve">
<style type="text/css">
	.st0{fill:none;}
	.st1{fill:#5A6E7F;}
	.st2{fill:#97D5C9;}
	.st3{fill:#5CBFAB;}
</style>
<g>
	<path class="st0" d="M236.9,129.8c-43.3,3.8-75.4,41.9-71.6,85.3c3.8,43.3,42,75.4,85.3,71.6c43.3-3.8,75.4-41.9,71.6-85.3
		C318.4,158.1,280.2,126,236.9,129.8z"/>
	<path class="st0" d="M503.2,312.1c-24.4,15.1-32.9,48.1-18.8,73.1c15.1,26.6,49,35.6,75.2,20.1c25.9-15.3,34.5-48.8,19.2-74.7
		C563.3,304.4,529.2,295.9,503.2,312.1z"/>
	<path class="st1" d="M424.6,269.4c4.9-14.3,8-29.4,9.3-44.9l-30.9-15c0-5-0.1-10.1-0.6-15.1c-0.1-1.8-0.4-3.5-0.6-5.2l29.1-18.4
		c-3-15.3-7.8-29.9-14.2-43.5l-34.4,2.5c-3.4-6-7.1-11.7-11.2-17.1l16-30.4C377,70.7,365.5,60.4,353,51.6L324.5,71
		c-5.8-3.4-11.9-6.5-18.2-9.2l-1.4-34.4c-14.3-4.9-29.4-8-44.9-9.4l-15,31c-5,0-10,0.2-15.1,0.6c-1.8,0.2-3.5,0.4-5.2,0.6L206.3,21
		c-15.3,3.1-29.9,7.9-43.6,14.3l2.5,34.4c-5.9,3.4-11.7,7.1-17.1,11.2l-30.5-16C106.2,74.9,95.9,86.4,87.2,99l19.3,28.5
		c-3.5,5.8-6.6,11.9-9.3,18.2L62.9,147c-4.9,14.3-8,29.4-9.3,44.9l31,15c0,5,0.1,10.1,0.6,15.1c0.2,1.8,0.4,3.5,0.6,5.2l-29.1,18.4
		c3.1,15.3,7.9,29.9,14.3,43.5l34.4-2.5c3.4,6,7.1,11.7,11.2,17.1l-16,30.4c10.1,11.5,21.6,21.8,34.2,30.6l28.5-19.3
		c5.9,3.5,11.9,6.6,18.2,9.3l1.4,34.4c14.3,4.9,29.3,8,44.8,9.3l15-31c5,0,10.1-0.1,15.1-0.6c1.7-0.1,3.5-0.4,5.2-0.6l18.4,29.2
		c15.3-3.1,29.9-7.9,43.6-14.2l-2.5-34.4c5.9-3.4,11.6-7.1,17.1-11.2l30.4,16c11.5-10.1,21.8-21.6,30.5-34.2L381,289
		c3.4-5.9,6.5-11.9,9.3-18.2L424.6,269.4z M243.7,320.4c-61.9,0-112.2-50.3-112.2-112.2c0-61.9,50.3-112.2,112.2-112.2
		C305.6,96,356,146.3,356,208.2C356,270.1,305.6,320.4,243.7,320.4z"/>
	<path class="st1" d="M139.5,208.2c0,57.5,46.7,104.2,104.2,104.2c57.5,0,104.2-46.8,104.2-104.2c0-57.5-46.7-104.2-104.2-104.2
		C186.3,104,139.5,150.7,139.5,208.2z M322.2,201.4c3.8,43.3-28.3,81.5-71.6,85.3c-43.3,3.8-81.5-28.3-85.3-71.6
		c-3.7-43.3,28.3-81.5,71.6-85.3C280.2,126,318.4,158.1,322.2,201.4z"/>
	<path class="st1" d="M442.4,358c-1,49.2,38.2,90.1,87.4,91.2c49.2,1,90.1-38.2,91.2-87.4c1-49.2-38.2-90.1-87.4-91.2
		C484.4,269.5,443.5,308.7,442.4,358z M578.8,330.6c15.3,25.9,6.7,59.3-19.2,74.7c-26.2,15.5-60.1,6.5-75.2-20.1
		c-14.1-25-5.7-58,18.8-73.1C529.2,295.9,563.3,304.4,578.8,330.6z"/>
	<path class="st1" d="M675.3,374c1-10.4,0.9-20.9-0.3-31.3l-24.3-5.8c-1.3-6.4-3.1-12.7-5.4-18.9l17.8-17.6
		c-2.1-4.7-4.6-9.4-7.3-13.9c-2.7-4.5-5.6-8.9-8.7-13l-24,7.2c-4.4-5-9-9.6-14.1-13.8l6.6-24.1c-8.6-6.1-17.7-11.3-27.3-15.4
		l-17.2,18.2c-6.2-2.1-12.6-3.8-19-4.9l-6.4-24.2c-10.4-1-20.9-0.9-31.3,0.4l-5.9,24.3c-6.4,1.2-12.7,3-18.9,5.3l-17.6-17.8
		c-4.7,2.1-9.4,4.5-13.9,7.2c-4.5,2.7-8.9,5.6-13,8.7l7.1,24c-5,4.4-9.6,9-13.8,14l-24.1-6.6c-6.1,8.6-11.3,17.7-15.4,27.3
		l18.2,17.2c-2.1,6.2-3.7,12.6-4.9,19l-24.2,6.4c-1,10.4-0.9,20.9,0.3,31.3l24.3,5.8c1.2,6.4,3,12.7,5.3,19l-17.8,17.6
		c2.1,4.7,4.5,9.4,7.2,13.9c2.7,4.6,5.6,8.9,8.7,13.1l24-7.1c4.3,5,9.1,9.6,14,13.8l-6.6,24.1c8.6,6.1,17.7,11.3,27.2,15.3
		l17.3-18.2c6.2,2.2,12.5,3.8,19,4.9l6.3,24.2c10.3,1,20.9,0.9,31.3-0.3l5.8-24.3c6.4-1.2,12.7-3,18.9-5.3l17.6,17.8
		c4.7-2.1,9.3-4.5,13.9-7.2c4.6-2.7,8.9-5.6,13-8.7l-7.1-24c5-4.4,9.6-9.1,13.8-14l24.1,6.6c6.1-8.6,11.3-17.7,15.3-27.3l-18.2-17.3
		c2.1-6.2,3.8-12.5,4.9-19L675.3,374z M529.8,453c-51.4-1.1-92.3-43.7-91.2-95.1c1.1-51.4,43.7-92.3,95.1-91.2
		c51.4,1.1,92.3,43.7,91.2,95.1C623.8,413.2,581.2,454.1,529.8,453z"/>
	<path class="st2" d="M131.5,208.2c0,61.9,50.3,112.2,112.2,112.2c61.9,0,112.2-50.3,112.2-112.2C356,146.3,305.6,96,243.7,96
		C181.8,96,131.5,146.3,131.5,208.2z M347.9,208.2c0,57.5-46.7,104.2-104.2,104.2c-57.5,0-104.2-46.8-104.2-104.2
		c0-57.5,46.7-104.2,104.2-104.2C301.2,104,347.9,150.7,347.9,208.2z"/>
	<path class="st3" d="M438.6,357.9c-1.1,51.4,39.8,94,91.2,95.1c51.4,1.1,94-39.8,95.1-91.2c1.1-51.4-39.9-94-91.2-95.1
		C482.3,265.6,439.6,306.5,438.6,357.9z M621,361.7c-1,49.2-41.9,88.5-91.2,87.4c-49.2-1-88.5-41.9-87.4-91.2
		c1-49.2,41.9-88.5,91.2-87.4C582.9,271.6,622.1,312.5,621,361.7z"/>
</g>
</svg>
