<?xml version="1.0" encoding="utf-8"?>
<!-- Generator: Adobe Illustrator 21.1.0, SVG Export Plug-In . SVG Version: 6.00 Build 0)  -->
<svg version="1.1" id="Layer_1" xmlns="http://www.w3.org/2000/svg" xmlns:xlink="http://www.w3.org/1999/xlink" x="0px" y="0px"
	 viewBox="0 0 362 346" style="enable-background:new 0 0 362 346;" xml:space="preserve">
<style type="text/css">
	.st0{opacity:0.47;fill:#A5B7C6;}
	.st1{fill:#2A2E31;}
	.st2{fill:#3F4549;}
	.st3{fill:#FFFFFF;}
	.st4{fill:#E9E9E9;}
	.st5{fill:#004173;}
	.st6{fill:#724D33;}
	.st7{fill:#8C5E3E;}
	.st8{fill:#66452E;}
	.st9{fill:#332319;}
	.st10{fill:#1C1C1C;}
	.st11{fill:#4C3525;}
	.st12{fill:#664831;}
	.st13{fill:#287AA8;}
	.st14{fill:#120D0C;}
	.st15{fill:#231E1F;}
	.st16{opacity:0.28;}
	.st17{fill:#331D1A;}
	.st18{fill:#E2F3FE;}
	.st19{fill:#B2B2B2;}
	.st20{fill:#1F627F;}
	.st21{fill:#002F4C;}
	.st22{fill:#4C3322;}
	.st23{fill:#004F7F;}
	.st24{fill:#3F2B1D;}
	.st25{fill:#4C3424;}
	.st26{fill:#A1441C;}
	.st27{fill:#996847;}
	.st28{fill:#FEC91E;}
	.st29{fill:none;stroke:#B35919;stroke-width:1.7381;stroke-miterlimit:10;}
	.st30{fill:none;stroke:#332319;stroke-width:0.4795;stroke-miterlimit:10;}
</style>
<g>
	<g>
		<ellipse class="st0" cx="297.9" cy="303.8" rx="47" ry="5"/>
		<g>
			<path class="st1" d="M274.3,292.3c-0.6,1-7.2,6.7-15.8,7.9c-2.4,0.1-1.1,2.2,2.2,2.9c3.3,0.7,14.2-0.7,18.4-1.5
				c4.2-0.8,4.8-1.3,4.7-2.5c-0.1-1.2-0.2-5.1-0.2-5.1L274.3,292.3z"/>
			<path class="st1" d="M311.6,292.3c0,0,0,6.2,0,7.2c0,1,0.6,1.4,1.7,1.9c1.1,0.5,12.3,2.9,22.5,2.5c1.6-0.1,1.9-1.5,0.4-2
				c-1.5-0.6-11.8-6.2-13.6-7.3c-1.8-1.1-2.8-3.7-2.8-3.7L311.6,292.3z"/>
			<path class="st2" d="M273,183c0,0,0.2,100.5,0,109.9c6.9,3.4,11.5,1.4,11.5,1.4l5.5-107.9L273,183z"/>
			<path class="st2" d="M312.6,182.1c0,0,0,71.9,8.5,108.8c-2.3,2.7-10.1,2-10.1,2l-16.1-106.7L312.6,182.1z"/>
			<path class="st2" d="M277,199c6.2,4.6,25.7,2.8,33.7-2.1c-0.3-4.5,0-12.4,0-12.4l-33.4,0.6L277,199z"/>
			<path class="st3" d="M294.3,106.8c-14,0-23.1,7-23.6,33.4c-0.5,26.4-1.8,44.7-1.8,44.7s23.1,8,46.5,0
				c-0.7-11.8-0.9-37.1-1.2-43.6C313,118.6,308.3,106.8,294.3,106.8z"/>
			<path class="st4" d="M304.8,110.2c1.9,7.3,3.2,20.5-1.6,26.7c4.3,2.4,8.1,3.6,11,4.1C313.3,125.5,310.8,115.1,304.8,110.2z"/>
			<path class="st4" d="M281.3,110.1c-6.4,4.2-10.2,13.2-10.6,30.1c0,0.3,0,0.7,0,1c3-0.4,7.2-1.6,12.2-4.3
				C278,130.7,279.4,117.3,281.3,110.1z"/>
			<path class="st4" d="M292.5,121.6c7.7,0.1,10.6-8.1,11.6-12c-2.6-1.9-5.8-2.8-9.8-2.8c-4.8,0-9.1,0.8-12.6,3
				C282.1,114.8,284.1,121.5,292.5,121.6z"/>
			<polygon class="st5" points="299.4,159.4 292.2,170.4 284.9,159.4 290.4,117.8 293.8,117.8 			"/>
			<path class="st4" d="M293.1,140.1l-22.5,7c-0.1,4.3-0.2,8.3-0.4,12l23.7-9.8l20.7,8.1c-0.1-5.5-0.2-10.5-0.3-13.8L293.1,140.1z"
				/>
			<path class="st6" d="M300,135.7c-8.7,1.3-18.2,2.2-23.3,3.8c2,0.6,7.5,3.3,10.9,6.6c5.7-2.2,11.3-4.4,14.8-5.3
				c1.7-0.2,4.9-0.5,7.6-0.4C307.7,134.2,303.4,135.1,300,135.7z"/>
			<path class="st7" d="M263.4,131.6c-0.1,0.2,2.7,14.3,4.5,18.2c1.1,2.3,4.5,1.9,7.5-2.3c2.1-3,1.7-7,1.3-8.9
				c-0.4-1.8-2.2-9.6-2.2-9.6L263.4,131.6z"/>
			<path class="st7" d="M322.3,131.6c0.1,0.2-2.7,14.3-4.5,18.2c-1.1,2.3-4.5,1.9-7.5-2.3c-2.1-3-1.7-7-1.3-8.9
				c0.4-1.8,2.2-9.6,2.2-9.6L322.3,131.6z"/>
			<path class="st7" d="M276.8,139.4c2.3-6.2,5.6-4.3,8.9-3.7c8.9,1.3,18.6,2.2,23.6,3.9c2.8,0.9,8.7,9.7,6.2,11.6
				c-5.3,0.7-24-8.8-31.9-10.7C281.8,139.9,279.5,139.3,276.8,139.4z"/>
			<g>
				<path class="st8" d="M292.2,113.4c-2.7,0-6.8-0.9-6.8-4.6V98.6h13.6v10.2C299.1,112.6,294.9,113.4,292.2,113.4z"/>
				<path class="st8" d="M285.4,105.7v-6.5h13.6v7.1C293.3,107.3,289,107.2,285.4,105.7z"/>
			</g>
			<path class="st5" d="M288.1,114.8c0.1,2,2.4,3.3,2.4,3.3h3.4c0,0,1.6-1.3,2-2.9c-0.8-1.6-2.8-2.9-2.8-2.9l-1.5,0L288.1,114.8z"/>
			<g>
				<g>
					<path class="st8" d="M279,84.2c1.2,3.1,1.2,5.5-0.9,6.4c-2,0.9-6.4-0.3-7.6-3.4c-1.2-3.1-0.5-6.4,1.5-7.3
						C274,79,277.7,81.1,279,84.2z"/>
					<path class="st7" d="M273.9,87.9c1.6,10.7,9.3,17.9,20,16.9c9.8-0.9,16.6-14.5,16.8-27c0.3-12.5-6.4-22.4-18.2-22.2
						C274.4,55.9,270.5,65.3,273.9,87.9z"/>
					<path class="st7" d="M305,83.2c-1.2,3.1-1.3,5.5,0.8,6.4c2,0.9,6.4-0.2,7.7-3.3c1.2-3.1,0.6-6.4-1.4-7.3
						C310,78.1,306.2,80.1,305,83.2z"/>
					<g>
						<path class="st9" d="M288.1,82.5c1.1-0.4,2.3-0.7,3.5-0.6c1.2,0,2.5,0.3,3.4,1.3c0.4,0.5,0.6,1.2,0.4,1.9
							c-0.2,0.6-0.6,1.1-1.1,1.5c-0.9,0.8-2.1,1.2-3.2,1.6c1-0.5,2.1-1.1,2.9-1.8c0.4-0.4,0.8-0.8,0.9-1.3c0.2-0.5,0-1-0.3-1.4
							c-0.7-0.8-1.9-1.1-3-1.2C290.4,82.1,289.2,82.2,288.1,82.5z"/>
					</g>
					<g>
						
							<ellipse transform="matrix(0.2513 -0.9679 0.9679 0.2513 134.6427 337.5427)" class="st9" cx="285.5" cy="81.7" rx="0.8" ry="0.8"/>
						<path class="st10" d="M286.9,74c-6.3,0.4-9.8,3-5.8,2.9C285.1,76.8,291.1,73.7,286.9,74z"/>
					</g>
					<g>
						
							<ellipse transform="matrix(0.9679 -0.2513 0.2513 0.9679 -11.0145 77.2258)" class="st9" cx="296.9" cy="81.7" rx="0.8" ry="0.8"/>
						<path class="st10" d="M295.5,74c6.3,0.4,9.8,3,5.8,2.9C297.2,76.8,291.3,73.7,295.5,74z"/>
					</g>
				</g>
				<path class="st10" d="M290.9,88.7c-7.1-0.4-7.9,1-8.2,4.5c7.9,2.3,14.1,1.3,16.7,0C299.5,91.6,300,87.5,290.9,88.7z"/>
			</g>
			<path class="st7" d="M276.3,139.6c-2.8,0.9-8.7,9.7-6.2,11.6c3,0.4,10.3-2.3,17.5-5.1c-3.4-3.4-8.9-6.1-10.9-6.6
				C276.6,139.5,276.4,139.5,276.3,139.6z"/>
			<path class="st3" d="M285.4,106.9c0.1,0.8,3.1,5.1,6.8,5.4c-1.6,1.6-4.8,5.9-4.8,5.9s-3.5-5.7-3.6-9.5
				C283.8,107.7,285.4,106.9,285.4,106.9z"/>
			<path class="st3" d="M299.1,106.9c-0.1,0.8-3.4,4.3-6.8,5.4c1.3,1.6,4.8,5.9,4.8,5.9s3.5-5.7,3.6-9.5
				C300.6,107.7,299.1,106.9,299.1,106.9z"/>
			<path class="st3" d="M305.7,111c14.2,2.4,20.4,15.5,17.1,28.5c-7.1,0-14.3-3.3-14.3-3.3S312.4,117,305.7,111z"/>
			<path class="st3" d="M280.1,111c-14.2,2.4-20.4,15.5-17.1,28.5c7.1,0,14.3-3.3,14.3-3.3S273.3,117,280.1,111z"/>
		</g>
	</g>
	<g>
		<ellipse class="st0" cx="61.8" cy="311.1" rx="44.6" ry="5.9"/>
		<g>
			<path class="st11" d="M96.3,172c-0.9,1.1-1.7,5-0.5,7.5c-1.2,2.4-2.7,5.4-1.5,7.1c1.2,1.7,2.1,2,2.9,2.5c0.8,0.5,4.2-2.7,4.2-6
				c0-3.3-2.6-10.8-2.6-10.8L96.3,172z"/>
			<path class="st12" d="M101.9,186.5c1.5-2.2,2.4-5.1,1.8-7.9c-0.7-2.8-2.7-7.9-2.7-7.9s-3.7,0.8-3.5,1.4c0.6,1.4,0.6,2.4,0.4,3.9
				c-0.1,0.7,0.1,2.2,0.3,3.1c0.1,0.6,0,1.1-0.3,1.6c-0.6,1.1-1.6,3-1,3.7c1.5,1.8,3.5-2.5,3.5-2.5s0.1,1.7-1.2,3.7
				c-0.9,1.4-3.4,2.5-2.8,3.8C97.2,190.8,99.8,189.6,101.9,186.5z"/>
			<path class="st13" d="M81,97c8.8,5.4,9.5,25.1,12.9,39.5c0.4,1.7,8.4,32.3,8.9,34.7c-3.1,2.7-8.6,2.3-8.6,2.3s-8-28.2-9.8-32.5
				c-1.8-4.3-1.9-6.1-1.9-6.9c0-0.8-0.2-20.6-0.2-20.6S72.2,91.6,81,97z"/>
			<path class="st14" d="M76.6,298.3c0.7,1.3,9.8,8.6,20.1,10.1c2.9,0.1,1.4,2.6-2.6,3.4c-4,0.8-17.1-0.8-22.1-1.8
				c-5.1-1-5.8-1.6-5.6-3c0.1-1.4,2-8.7,2-8.7H76.6z"/>
			<path class="st14" d="M39.3,298.5c-0.8,2-2.6,6-3.5,8s-1.3,5.6,7.7,5.6s9.2-3.4,8.2-5.3c-1-1.9-2.6-8.3-2.6-8.3L39.3,298.5z"/>
			<path class="st15" d="M45.2,181c-0.8,6.6-7.2,117.5-7.2,117.5s5,2.6,13.6,0.2c0.4-26.7,20-116.9,20-116.9L45.2,181z"/>
			<path class="st15" d="M89.6,177.3c0,0-12.3,102-11.5,121.4c-4.4,1.8-11.1,0-11.1,0l-0.2-103.5l1.9-14.6L89.6,177.3z"/>
			<path class="st16" d="M85.7,114.9c1.9-0.8,4.8,4.8,6.2,13.6c1.7,11.1,3,32.7,1.9,43.4C92.6,169.8,85.2,120.2,85.7,114.9z"/>
			<path class="st13" d="M64.9,89.2c-16.6,0.5-25,10.6-21.6,33.8c3.1,21.2-1.4,48.6-1.9,58.8c40.8,8.1,51.3-3.9,51.3-3.9
				S99.7,88.3,64.9,89.2z"/>
			<g>
				<path class="st12" d="M60.7,94.5c-1.4-0.5-2.7-1.2-3.9-2.2l-0.1-16l12.8,0.3l-0.2,16C67.2,94.9,62.5,95.1,60.7,94.5z"/>
				<g>
					<path class="st12" d="M77.7,64.3c-1.4,3.6-1.4,6.4,1,7.5c2.4,1.1,7.5-0.3,8.9-4c1.4-3.6,0.6-7.4-1.8-8.5
						C83.5,58.2,79.1,60.6,77.7,64.3z"/>
					<path class="st12" d="M83.6,68.6C81.6,81,72.8,89.3,60.3,88.2c-11.4-1-19.2-16.9-19.5-31.4c-0.3-14.5,7.4-26,21.2-25.7
						C82.9,31.4,87.6,42.4,83.6,68.6z"/>
					<path class="st12" d="M47.5,63.1c1.4,3.6,1.5,6.4-0.9,7.5c-2.4,1.1-7.5-0.2-8.9-3.8c-1.4-3.6-0.7-7.4,1.6-8.5
						C41.6,57.2,46,59.5,47.5,63.1z"/>
					<g>
						<path class="st17" d="M67.1,62.3c-1.4-0.2-2.7-0.3-4-0.2c-1.3,0.1-2.6,0.5-3.4,1.4c-0.4,0.4-0.5,1-0.4,1.5
							c0.1,0.6,0.5,1.1,1,1.5c0.5,0.5,1,0.8,1.6,1.2c0.6,0.4,1.2,0.7,1.8,1c-1.3-0.3-2.6-0.8-3.8-1.7c-0.6-0.4-1.1-1-1.3-1.8
							c-0.3-0.8,0-1.7,0.5-2.3c1.1-1.2,2.6-1.5,4-1.5c0.7,0,1.4,0.1,2.1,0.2C65.8,61.8,66.5,62,67.1,62.3z"/>
					</g>
					<g>
						<path class="st17" d="M69.6,74.2c0.3,0.5,0.3,1.2,0.2,1.8c-0.1,0.6-0.4,1.2-0.8,1.8c-0.7,1.1-1.9,1.8-3.1,2.2
							c-1.2,0.3-2.5,0.4-3.8,0.2c-0.6-0.1-1.2-0.2-1.8-0.4c-0.6-0.2-1.2-0.4-1.7-0.6c0.6,0.1,1.2,0.1,1.8,0.2c0.6,0,1.2,0.1,1.8,0.1
							c1.2,0,2.4-0.1,3.5-0.4c1.1-0.3,2.1-0.9,2.8-1.8C69.3,76.6,69.9,75.4,69.6,74.2z"/>
					</g>
					<g>
						
							<ellipse transform="matrix(0.9679 -0.2513 0.2513 0.9679 -13.1854 19.585)" class="st10" cx="70.1" cy="61.4" rx="0.9" ry="0.9"/>
						<path class="st10" d="M68.5,52.4c7.4,0.5,11.4,3.4,6.7,3.4C70.5,55.7,63.6,52,68.5,52.4z"/>
					</g>
					<g>
						
							<ellipse transform="matrix(0.2513 -0.9679 0.9679 0.2513 -16.8405 101.0662)" class="st10" cx="56.9" cy="61.4" rx="0.9" ry="0.9"/>
						<path class="st10" d="M58.5,52.4c-7.4,0.5-11.4,3.4-6.7,3.4C56.5,55.7,63.4,52,58.5,52.4z"/>
					</g>
				</g>
			</g>
			<path class="st16" d="M36.2,115.7c4.1-0.2,9.1,4,10,10.1c1.2,7.7,0.1,22.1-0.4,29.8c-5.3,1.7-10-0.5-10-0.5
				S33.9,119.1,36.2,115.7z"/>
			<g>
				<path class="st10" d="M24.2,152.6l-5,25.1c-0.3,1.4,0.6,2.8,2.1,3.1l38.5,7.6c1.4,0.3,2.8-0.6,3.1-2.1l5-25.1
					c0.3-1.4-0.6-2.8-2.1-3.1l-38.5-7.6C25.9,150.2,24.5,151.1,24.2,152.6z"/>
				
					<rect x="30.4" y="149.8" transform="matrix(0.1942 -0.981 0.981 0.1942 -130.6734 179.8563)" class="st18" width="27.5" height="39.4"/>
				<path class="st19" d="M65.6,167.8l-0.4,2.1c0.5-0.1,1-0.1,1.5,0c2.2,0.4,3.6,2.5,3.1,4.7c-0.4,2.2-2.5,3.6-4.7,3.1
					c-0.5-0.1-1-0.3-1.4-0.6l-0.4,2.1c-0.1,0.5-0.6,0.9-1.2,0.8l-2.2-0.4c-0.5-0.1-0.9-0.6-0.8-1.2l2.3-11.5
					c0.1-0.5,0.6-0.9,1.2-0.8l2.2,0.4C65.3,166.7,65.7,167.3,65.6,167.8z"/>
			</g>
			<path class="st12" d="M44.5,122c-1,7-2.7,48.9-1.7,64.9c-4.4,2.7-7.2,1.9-8.9-0.9c-1.7-2.7-2.2-52.2,1-66.6
				C39.7,119.7,44.5,122,44.5,122z"/>
			<path class="st13" d="M45.3,99.6c-4.7-0.9-10.7,6.9-12.1,18.8c-1.8,15-1.6,43.8-1.5,59.1c5.9,3.9,11.5,0.1,11.5,0.1
				S47.8,106.5,45.3,99.6z"/>
			<path class="st20" d="M56.8,88.4c0.7,1.6,3.7,5,7.9,6.2c-1.1,2.8-1.9,7.2-1.9,7.2s-7.2-4.8-8.6-10.4
				C55.2,89.3,56.8,88.4,56.8,88.4z"/>
			<path class="st20" d="M64.7,94.6c1.4-0.2,4.6-3.5,4.6-5.3c1,1,1.7,3.9,1.7,3.9s1,4.3-2.7,7.9C67.6,98.7,64.7,94.6,64.7,94.6z"/>
			<path class="st12" d="M42.5,185l3.5,0.7c0,0,0.6,3.6-6.4,3.3c-5.2-0.2-5.2-3.5-5.2-3.5L42.5,185z"/>
			<path class="st12" d="M42.5,179.1c0.3,0.9,2.1,2.8,3.7,3.4c1.5,0.4,0.9,1.8-1,1.3c-1.9-0.5-2.5-0.7-3.4-1.3
				C41.5,181.6,42.5,179.1,42.5,179.1z"/>
			<path class="st12" d="M42.4,178.4c0.2,0.5,1.3,1.2,1.5,2.8C42.6,181.9,41.6,180,42.4,178.4z"/>
		</g>
	</g>
	<g>
		<ellipse class="st0" cx="185" cy="333.2" rx="49.1" ry="6.5"/>
		<g>
			<path class="st21" d="M153.1,240.2c2.6,10.7,10.7,76.3,10.1,84.6c3.9,0,9.3,0,9.3,0s1.6-29.1,2.4-43.9c0.8-14.8-2-33.3-6.7-42.4
				C163.5,229.5,152.9,234.6,153.1,240.2z"/>
			<path class="st5" d="M187.4,242c3.7,8.8,20.1,67.6,22.6,82.9c3.3,0,8.7,0,8.7,0s-1.9-29.5-3.1-46c-1.2-16.5-7.2-32.3-12.9-39.4
				C196.9,232.3,185.6,235,187.4,242z"/>
			<path class="st21" d="M149.3,175.4c-1.3,10.7,2.4,55.2,3.7,64.8s17.1,8.3,16.9-0.2c-0.2-8.5,3.3-55.4,3.3-55.4L149.3,175.4z"/>
			<path class="st5" d="M197.7,176.1c2.4,10.9,5.3,58,5.9,63.5c0.7,5.5-13.4,11.8-16.2,2.4c-2.8-9.4-17.5-57.1-17.5-57.1
				L197.7,176.1z"/>
			<path class="st5" d="M187.4,156.2c4.9,6.6,9.8,12.8,10.7,22.6c0.9,9.8-10.5,18.1-25.6,15.2c-16.9-3.3-23.1-11.1-23.2-18.5
				c0-6.2,2.7-18.4,2.7-18.4L187.4,156.2z"/>
			<path class="st22" d="M142.8,176.1c1,1.2,1.8,5.5,0.6,8.2c1.4,2.6,3,5.9,1.7,7.8c-1.3,1.8-2.3,2.2-3.2,2.8
				c-0.9,0.6-4.6-3-4.6-6.6c0-3.6,2.8-11.8,2.8-11.8L142.8,176.1z"/>
			<path class="st7" d="M136.7,192.1c-1.7-2.4-2.7-5.7-2-8.7c0.7-3,3-8.6,3-8.6s4.1,0.9,3.8,1.6c-0.7,1.6-0.6,2.6-0.5,4.3
				c0.1,0.8-0.2,2.4-0.3,3.5c-0.1,0.6,0,1.2,0.3,1.8c0.7,1.2,1.7,3.3,1.1,4c-1.6,2-3.9-2.8-3.9-2.8s-0.1,1.9,1.3,4
				c1,1.6,3.8,2.8,3,4.2C141.8,196.8,139,195.5,136.7,192.1z"/>
			<path class="st21" d="M157.9,92.7c-9.7,6-8.7,28.5-12.4,44.4c-0.4,1.9-9.3,35.5-9.8,38.1c3.4,2.9,9.4,2.5,9.4,2.5
				s8.8-31,10.8-35.8c2-4.8,2.1-6.7,2.1-7.6c0-0.9,0.2-22.7,0.2-22.7S167.6,86.8,157.9,92.7z"/>
			<path class="st23" d="M157.9,92.7c0.3,2.8-1.2,8.3-3,11.1c-2.4,3.8-6.7,10-7.3,13.3c-0.7,3.3,2.6,10.3,3.4,14
				c0.8,3.7,1.1,19.5,1.1,25.9s35.5,11.2,36.9-0.7c3.3-27.8,10-35,12.4-42.5c2.3-7.5,3.8-19.4-1.5-22.1
				C191.4,87.4,178.4,80.3,157.9,92.7z"/>
			<path class="st3" d="M166.1,118.6c0,0-2.9-5-2.5-10c0.3-4.2,4.2-17,5.4-21c10-3.2,17.8-1.6,23.9,0.9c-2.7,2.7-8.8,9.1-11.1,12
				C178.9,104.2,166.1,118.6,166.1,118.6z"/>
			<g>
				<polygon class="st24" points="179.3,205.7 183.8,247.1 187.4,249.2 183,208.5 				"/>
				<polygon class="st25" points="240.1,199.1 179.3,205.7 183,208.5 246,201.7 				"/>
				<polygon class="st22" points="187.4,249.2 248.8,241.9 245,201.8 183,208.5 				"/>
				<polygon class="st26" points="246,201.7 248.7,228.9 186.9,236.2 183,208.5 				"/>
				<polygon class="st27" points="246,201.7 248.7,228.2 187.4,235.1 183,208.5 				"/>
				<polygon class="st28" points="223.5,228.9 224.1,234.2 212.1,235.6 211.5,230.4 				"/>
				<path class="st29" d="M205,204.8l-0.7-6.2c-0.1-0.8,0.5-1.6,1.3-1.7l12.3-1.5c0.8-0.1,1.6,0.5,1.7,1.3l0.7,6.2"/>
			</g>
			<path class="st7" d="M207.3,184.7c-1.2,1.3-3.6,3.5-3.4,5.3c0.2,1.8-1.4,6.3-2.3,7.2c-0.9,0.9,1.6,3.5,3.9-1
				c0.5,0.7,0.7,1.7,0.7,1.7l-0.3,0.1c0,0-0.1,1.7,2.4,1.5c2.5-0.2,6.5-0.5,8.2-1.5c1.7-0.9,1.5-2.8,1.5-4.1c0.1-3.5-2.3-9-2.3-9
				L207.3,184.7z"/>
			<path class="st21" d="M205.5,184.2c0.7,0.5,8.3,1.5,11.1,0.2c-0.2-5-1-43.4-1.1-46c-0.1-2.6-1.5-13.2-2-16.7
				c-0.5-3.5-2.5-26.3-12.8-29.5c-6.1,9.1-1.8,29.6-0.7,33.9c1,4.3,4,13.8,4,16.9C204.1,146.2,205.5,184.2,205.5,184.2z"/>
			<path class="st14" d="M164.5,324c-0.5,0.9-7,6.2-14.5,7.3c-2.1,0.1-1,1.9,1.9,2.5c2.9,0.6,12.3-0.6,16-1.3
				c3.7-0.7,4.2-1.2,4.1-2.2c-0.1-1-1.4-6.3-1.4-6.3H164.5z"/>
			<path class="st14" d="M217.7,324.2c0.6,1.4,1.9,4.3,2.5,5.8c0.6,1.5,1,4.1-5.6,4.1c-6.5,0-6.6-2.5-5.9-3.8c0.7-1.3,1.9-6,1.9-6
				L217.7,324.2z"/>
			<g>
				<polygon points="205.9,77.7 156.1,85.7 157.1,66.5 157.8,40.6 200.7,34.8 205.3,53.7 				"/>
				<path class="st7" d="M185.8,88.2l-0.4-18.8l-11.5-0.3l-1.2,19.6C177.3,92,183.2,91.3,185.8,88.2z"/>
				<path class="st7" d="M198.5,36.6v25.6c0,11-8.9,19.8-19.8,19.8l0,0c-11,0-19.8-8.9-19.8-19.8V36.6H198.5z"/>
				<path class="st10" d="M200.7,87.4l-2.6-20.9l-4.5-28.5l-12.8,5l-20.9,6.6l-1,10.4l-1.3-2.1l-1.3-5.4l-0.4-0.7
					c-3.5-7.3-3.3-15.8,0.6-22.9l0,0c2.7-4.9,7.7-8,13.3-8.2l9-0.4c6.8-0.3,13.3,2.9,17.1,8.6l0,0l0,0c3.4,0,6.5,2.1,7.8,5.2v0
					c4.9,12,7.3,24.9,6.9,37.9l0,0c-0.1,4.1-1.9,8.1-4.9,10.9L200.7,87.4z"/>
				<g>
					<g>
						<path class="st10" d="M171.9,48.2c-5.5,1-8.9,4.5-3.9,3.3C173.1,50.3,174.8,47.7,171.9,48.2z"/>
						<path class="st30" d="M169.2,57.8c0.9-3.2,4.3-2.8,4.7-0.3"/>
					</g>
					<g>
						<path class="st10" d="M184.4,48.2c5.5,1,8.9,4.5,3.9,3.3C183.2,50.3,181.5,47.7,184.4,48.2z"/>
						<path class="st30" d="M187.1,57.8c-0.9-3.2-4.3-2.8-4.7-0.3"/>
					</g>
					<g>
						<g>
							<path class="st9" d="M179.2,60.7c-0.7-0.2-1.5-0.4-2.2-0.4c-0.7,0-1.5,0.1-2,0.5c-0.5,0.4-0.3,1.2,0.1,1.7
								c0.4,0.6,1.1,1,1.7,1.5c-0.7-0.3-1.4-0.6-2-1.2c-0.1-0.1-0.3-0.3-0.4-0.5c-0.1-0.2-0.2-0.4-0.2-0.6c-0.1-0.4,0.1-0.9,0.4-1.2
								c0.7-0.6,1.5-0.7,2.3-0.6C177.8,60.1,178.6,60.4,179.2,60.7z"/>
						</g>
					</g>
					<g>
						<path class="st9" d="M182.2,69.1c0.2,0.8-0.2,1.6-0.8,2.1c-0.6,0.6-1.4,0.9-2.2,1c-0.8,0-1.6-0.1-2.4-0.3
							c-0.4-0.1-0.7-0.3-1.1-0.4c-0.3-0.2-0.7-0.4-1-0.6c0.4,0.1,0.7,0.3,1.1,0.4c0.4,0.1,0.7,0.2,1.1,0.3c0.7,0.2,1.5,0.3,2.2,0.2
							c0.7,0,1.4-0.3,2-0.8C181.7,70.5,182.2,69.9,182.2,69.1z"/>
					</g>
				</g>
			</g>
			<path class="st4" d="M185.8,84.2c-0.7,1.7-4,5.7-8.5,6.5c0.2,3.1,0.4,7.6,0.4,7.6s9.3-5.2,10.8-11
				C187.4,85.1,185.8,84.2,185.8,84.2z"/>
			<path class="st4" d="M177.3,90.7c-1.4-0.2-4.4-3.7-4.4-5.5c-1.1,1-1.6,1.9-1.6,1.9s-1.8,5.5,0.7,8.8
				C173.8,93,177.3,90.7,177.3,90.7z"/>
			<path class="st21" d="M191.6,87c0,0-18.5,18.1-25.3,28.6c-2.2-5.4,3.8-29,4-29.3c0.2-0.2-2.3,0.5-3.6,0.6c-3.1,3.1-6,8.1-6,8.1
				l3.3,1.4l-2.9,2.1c0,0-0.9,11.4,3.9,22.3c8.5-4.4,21.3-15.4,21.3-15.4l-2.7-5.1l5.3,1.5l7.1-12.6L191.6,87z"/>
		</g>
	</g>
</g>
</svg>
