<?xml version="1.0" encoding="utf-8"?>
<!-- Generator: Adobe Illustrator 21.1.0, SVG Export Plug-In . SVG Version: 6.00 Build 0)  -->
<svg version="1.1" id="Layer_1" xmlns="http://www.w3.org/2000/svg" xmlns:xlink="http://www.w3.org/1999/xlink" x="0px" y="0px"
	 viewBox="0 0 730 523" style="enable-background:new 0 0 730 523;" xml:space="preserve">
<style type="text/css">
	.st0{fill:#A7AFBA;}
	.st1{fill:#646C77;}
	.st2{fill:#EDEEF2;}
	.st3{fill:#C9CDD6;}
	.st4{fill:#FFFFFF;}
	.st5{fill:#FFC600;}
	.st6{opacity:0.2;fill-rule:evenodd;clip-rule:evenodd;fill:#434141;}
	.st7{fill-rule:evenodd;clip-rule:evenodd;fill:#0F21A4;}
	.st8{fill-rule:evenodd;clip-rule:evenodd;fill:#EEEEEE;}
	.st9{fill-rule:evenodd;clip-rule:evenodd;fill:#00DCA2;}
	.st10{fill-rule:evenodd;clip-rule:evenodd;fill:none;stroke:#FFFFFF;stroke-width:4;stroke-miterlimit:10;}
	.st11{fill:#474747;}
	.st12{fill:#8C5E3E;}
	.st13{fill:#434141;}
	.st14{fill:#36B1E0;}
	.st15{fill:url(#SVGID_1_);}
</style>
<g>
	<g>
		<path class="st0" d="M497.3,471.6h-32.1c-4.6,0-8.4-2.4-8.4-5.2v-21.8c0-2.9,3.8-5.2,8.4-5.2h32.1c4.6,0,8.4,2.3,8.4,5.2v21.8
			C505.7,469.2,501.9,471.6,497.3,471.6z"/>
		<path class="st0" d="M682.4,471.6h-32.1c-4.6,0-8.4-2.4-8.4-5.2v-21.8c0-2.9,3.8-5.2,8.4-5.2h32.1c4.6,0,8.4,2.3,8.4,5.2v21.8
			C690.7,469.2,687,471.6,682.4,471.6z"/>
	</g>
	<g>
		<path class="st1" d="M505.7,460.7v-16.1c0-2.9-3.8-5.2-8.4-5.2h-32.1c-4.6,0-8.4,2.3-8.4,5.2v16.1H505.7z"/>
		<path class="st1" d="M690.7,460.7v-16.1c0-2.9-3.8-5.2-8.4-5.2h-32.1c-4.6,0-8.4,2.3-8.4,5.2v16.1H690.7z"/>
	</g>
	<path class="st0" d="M719.5,455.4H428c-5.8,0-10.5-4.7-10.5-10.5V167.3c0-5.8,4.7-10.5,10.5-10.5h291.6c5.8,0,10.5,4.7,10.5,10.5
		v277.6C730,450.7,725.3,455.4,719.5,455.4z"/>
	<path class="st2" d="M703.8,439.3H443.7c-5.2,0-9.3-4.2-9.3-9.4V182.3c0-5.1,4.2-9.3,9.3-9.3h260.1c5.2,0,9.3,4.2,9.3,9.3V430
		C713.1,435.1,709,439.3,703.8,439.3z"/>
	<path class="st3" d="M704,439.3H443.9L704,173c5.2,0,9.3,4.2,9.3,9.3V430C713.4,435.1,709.2,439.3,704,439.3z"/>
	<g>
		<path class="st1" d="M443.9,252.3c0,5.3-4.3,9.6-9.6,9.6l0,0c-5.3,0-9.6-4.3-9.6-9.6v-40.2c0-5.3,4.3-9.6,9.6-9.6l0,0
			c5.3,0,9.6,4.3,9.6,9.6V252.3z"/>
		<path class="st1" d="M443.9,406.9c0,5.3-4.3,9.6-9.6,9.6l0,0c-5.3,0-9.6-4.3-9.6-9.6v-40.2c0-5.3,4.3-9.6,9.6-9.6l0,0
			c5.3,0,9.6,4.3,9.6,9.6V406.9z"/>
	</g>
	<g>
		<path class="st3" d="M443.9,249c0,5.3-4.3,9.6-9.6,9.6l0,0c-5.3,0-9.6-4.3-9.6-9.6v-40.2c0-5.3,4.3-9.6,9.6-9.6l0,0
			c5.3,0,9.6,4.3,9.6,9.6V249z"/>
		<path class="st3" d="M443.9,403.5c0,5.3-4.3,9.6-9.6,9.6l0,0c-5.3,0-9.6-4.3-9.6-9.6v-40.1c0-5.3,4.3-9.6,9.6-9.6l0,0
			c5.3,0,9.6,4.3,9.6,9.6V403.5z"/>
	</g>
	<path class="st1" d="M721.9,347.6c0,4.8-3.9,8.7-8.7,8.7l0,0c-4.8,0-8.7-3.9-8.7-8.7v-82.9c0-4.8,3.9-8.7,8.7-8.7l0,0
		c4.8,0,8.7,3.9,8.7,8.7V347.6z"/>
	<path class="st3" d="M644.6,316.6c0,36.9-29.9,66.8-66.8,66.8c-36.9,0-66.8-29.9-66.8-66.8c0-36.9,29.9-66.8,66.8-66.8
		C614.7,249.8,644.6,279.7,644.6,316.6z"/>
	<path class="st1" d="M640.5,306.1c0,36.9-29.9,66.8-66.8,66.8c-36.9,0-66.8-29.9-66.8-66.8c0-36.9,29.9-66.8,66.8-66.8
		C610.6,239.4,640.5,269.3,640.5,306.1z"/>
	<path class="st3" d="M634.5,304.1H614c-0.2-3.7-0.8-7.2-1.9-10.6l19-7.3c1-0.4,1.6-1.6,1.2-2.7c-0.4-1-1.6-1.6-2.6-1.2l-19,7.4
		c-1.8-3.9-4.1-7.5-6.9-10.6l14.5-14.5c0.8-0.8,0.8-2.1,0-2.9c-0.8-0.8-2.1-0.8-2.9,0l-14.5,14.5c-2.6-2.4-5.6-4.5-8.8-6.1l8.3-18.7
		c0.5-1,0-2.2-1.1-2.7c-1-0.5-2.2,0-2.7,1.1l-8.3,18.7c-3.9-1.5-8-2.4-12.4-2.6v-20.4c0-1.1-0.9-2-2-2s-2,0.9-2,2v20.4
		c-3.7,0.2-7.2,0.8-10.6,1.9l-7.4-19c-0.4-1.1-1.6-1.6-2.6-1.2c-1.1,0.4-1.6,1.6-1.2,2.6l7.3,19c-3.9,1.7-7.5,4.1-10.6,6.9
		l-14.5-14.5c-0.8-0.8-2.1-0.8-2.9,0c-0.8,0.8-0.8,2.1,0,2.9l14.4,14.5c-2.4,2.6-4.5,5.6-6.1,8.8l-18.7-8.3c-1-0.5-2.2,0-2.7,1
		c-0.5,1,0,2.2,1,2.7l18.7,8.3c-1.5,3.9-2.4,8.1-2.6,12.4H513c-1.1,0-2,0.9-2,2c0,1.1,0.9,2,2,2h20.4c0.2,3.7,0.8,7.2,1.9,10.5
		l-19,7.4c-1.1,0.4-1.6,1.6-1.2,2.6c0.4,1.1,1.6,1.6,2.6,1.2l19.1-7.4c1.7,3.9,4.1,7.5,6.9,10.6l-14.5,14.4c-0.8,0.8-0.8,2.1,0,2.9
		c0.8,0.8,2.1,0.8,2.9,0l14.5-14.5c2.7,2.4,5.6,4.5,8.8,6.1l-8.3,18.7c-0.5,1,0,2.2,1.1,2.7c1,0.4,2.2,0,2.7-1l8.3-18.7
		c3.9,1.5,8,2.4,12.4,2.6v20.5c0,1.1,0.9,2,2,2s2-0.9,2-2v-20.5c3.7-0.2,7.2-0.8,10.6-1.9l7.4,19c0.4,1.1,1.6,1.6,2.6,1.2
		c1-0.4,1.6-1.6,1.2-2.6l-7.4-19.1c3.9-1.7,7.5-4.1,10.6-6.9l14.5,14.5c0.8,0.8,2.1,0.8,2.9,0c0.8-0.8,0.8-2.1,0-2.9l-14.5-14.4
		c2.4-2.7,4.5-5.6,6.1-8.9l18.7,8.3c1,0.5,2.2,0,2.7-1c0.5-1,0-2.2-1-2.7l-18.7-8.3c1.5-3.9,2.4-8.1,2.6-12.4h20.4c1.1,0,2-0.9,2-2
		C636.5,305,635.6,304.1,634.5,304.1z"/>
	<path class="st1" d="M713.4,256v100.4c4.8,0,8.7-3.9,8.7-8.7v-82.9C722.1,259.9,718.2,256,713.4,256z"/>
</g>
<g>
	<path class="st4" d="M597.6,75.6L597.6,75.6c0-8.4-3.1-16.2-8.7-22.3c0-0.1-0.1-0.1-0.1-0.2c-0.2-0.2-0.5-0.5-0.7-0.7
		c-0.1-0.1-0.2-0.2-0.2-0.3c0,0-0.1-0.1-0.1-0.1c-0.6-0.6-1.3-1.2-1.9-1.8c-0.2-0.2-0.4-0.4-0.7-0.5c-0.6-0.5-1.2-0.9-1.8-1.3
		c-0.3-0.2-0.7-0.5-1.1-0.7c-0.5-0.3-1.1-0.7-1.6-1c-0.5-0.3-0.9-0.5-1.4-0.7c-0.2-0.1-0.4-0.2-0.6-0.3c-0.8-0.4-1.6-0.7-2.5-1.1
		c-0.3-0.1-0.6-0.2-0.9-0.3c-0.7-0.2-1.4-0.5-2.1-0.7c-0.6-0.2-1.2-0.3-1.8-0.4c-0.4-0.1-0.8-0.2-1.2-0.2c-0.8-0.1-1.6-0.3-2.5-0.4
		c-0.1,0-0.3,0-0.4,0c-1-0.1-2-0.1-3-0.1c0,0,0,0,0,0c-6.6,0-12.9,1.9-18.4,5.6c-9.3,6.2-14.8,16.5-14.8,27.6
		c0,8.6,3.3,16.4,8.7,22.3c0,0.1,0.1,0.2,0.1,0.2c1,1.1,2.1,2.1,3.2,3c0,0,0.1,0.1,0.1,0.1c0.8,0.6,1.5,1.2,2.3,1.7
		c0.1,0.1,0.2,0.2,0.4,0.2c0.7,0.5,1.5,1,2.3,1.4c0.2,0.1,0.4,0.2,0.6,0.3c0.7,0.4,1.5,0.8,2.2,1.1c0.3,0.1,0.5,0.2,0.8,0.3
		c0.8,0.3,1.5,0.6,2.3,0.8c0.3,0.1,0.5,0.2,0.8,0.2c0.8,0.2,1.6,0.4,2.4,0.6c0.2,0,0.4,0.1,0.6,0.1c0.9,0.2,1.9,0.3,2.8,0.4
		c0.1,0,0.2,0,0.2,0c1.1,0.1,2.1,0.2,3.2,0.2c1.6,0,3.3-0.1,4.9-0.4c0.1,0,0.3-0.1,0.4-0.1c0.7-0.1,1.3-0.2,2-0.4
		c3.9-0.9,7.7-2.5,11.1-4.8C592.1,97.1,597.6,86.7,597.6,75.6L597.6,75.6L597.6,75.6z M587.4,94.2c-1.4-1.3-2.9-2.6-4.5-3.6
		c2-4,3.3-8.5,3.5-13.2l7.5,0C593.5,83.6,591.2,89.5,587.4,94.2z M582.8,98.8c-0.7,0.5-1.3,1-2,1.5c-3.6,2.4-7.6,3.9-11.8,4.6
		c0.9-0.5,1.8-1,2.6-1.6c0,0,0,0,0,0c3.8-2.5,7-5.8,9.4-9.5c1.4,0.9,2.7,2,3.9,3.1c-0.6,0.6-1.2,1.1-1.9,1.6
		C583,98.6,582.9,98.7,582.8,98.8z M558.7,104.7c-0.7-0.1-1.4-0.3-2.2-0.5c-0.2-0.1-0.4-0.1-0.6-0.2c-0.7-0.2-1.4-0.5-2.1-0.7
		c-0.2-0.1-0.4-0.1-0.6-0.2c-0.6-0.2-1.2-0.5-1.8-0.8c-0.3-0.1-0.5-0.2-0.8-0.4c-0.5-0.3-1-0.6-1.4-0.8c-0.4-0.2-0.7-0.4-1.1-0.6
		c-0.4-0.2-0.7-0.5-1.1-0.8c-0.4-0.3-0.9-0.6-1.3-1c-0.3-0.2-0.5-0.4-0.8-0.7c-0.4-0.3-0.7-0.7-1.1-1c1.2-1.2,2.5-2.2,3.9-3.1
		c3,4.6,7.1,8.4,12,11c0,0-0.1,0-0.1,0C559.3,104.8,559,104.7,558.7,104.7z M534.9,77.5l7.5,0c0.3,4.6,1.5,9.1,3.5,13.1
		c-1.6,1.1-3.1,2.3-4.5,3.6C537.7,89.6,535.3,83.8,534.9,77.5z M541.4,57.1c1.4,1.3,2.9,2.6,4.5,3.6c-2,4.1-3.3,8.5-3.5,13.2l-7.5,0
		C535.3,67.7,537.6,61.8,541.4,57.1z M546.1,52.5c0.7-0.6,1.5-1.1,2.2-1.6c0,0,0,0,0,0c0.8-0.5,1.5-0.9,2.3-1.4
		c0.1,0,0.1-0.1,0.2-0.1c2.4-1.3,5-2.2,7.7-2.7c0.1,0,0.3-0.1,0.4-0.1c0.2,0,0.5-0.1,0.7-0.1c-0.9,0.5-1.7,1-2.6,1.5
		c-3.8,2.5-7,5.8-9.4,9.5c-1.4-0.9-2.7-2-3.9-3.1c0.6-0.6,1.3-1.2,2-1.8C545.9,52.6,546,52.5,546.1,52.5z M582.8,52.5
		c0.5,0.4,1,0.9,1.5,1.3c0.2,0.2,0.4,0.3,0.6,0.5c-1.2,1.2-2.5,2.2-3.9,3.2c-3-4.6-7.1-8.4-12-11c4.9,0.8,9.5,2.8,13.4,5.8
		C582.6,52.4,582.7,52.5,582.8,52.5z M593.9,73.8l-7.5,0c-0.3-4.6-1.5-9.1-3.5-13.1c1.6-1.1,3.1-2.3,4.5-3.7
		C591.2,61.8,593.5,67.6,593.9,73.8z M566.2,49.1c4.8,2.3,8.8,6,11.7,10.3c-3.6,1.9-7.6,3-11.7,3.2L566.2,49.1z M562.6,62.6
		c-4.1-0.3-8.1-1.3-11.7-3.2c2.1-3.3,4.9-6.1,8.3-8.4c1.1-0.7,2.2-1.4,3.4-1.9L562.6,62.6z M562.6,66.3l0,7.6l-16.6,0
		c0.2-4,1.3-7.8,3-11.3C553.2,64.7,557.8,66,562.6,66.3z M546,77.5l16.5,0l0,7.6c-4.7,0.3-9.3,1.5-13.5,3.7
		C547.4,85.3,546.3,81.5,546,77.5z M562.6,88.7l0,13.5c-4.8-2.3-8.8-6-11.7-10.3C554.5,90.1,558.5,89,562.6,88.7z M566.2,88.7
		c4.1,0.3,8.1,1.3,11.7,3.2c-2.1,3.3-4.9,6.1-8.3,8.4c-1.1,0.7-2.2,1.4-3.4,1.9L566.2,88.7z M566.2,85l0-7.6l16.6,0
		c-0.2,4-1.3,7.8-3,11.3C575.6,86.6,571,85.3,566.2,85z M566.2,73.8l0-7.6c4.7-0.3,9.3-1.5,13.5-3.7c1.7,3.5,2.8,7.3,3,11.3
		L566.2,73.8z"/>
	<polygon class="st5" points="564.4,9.7 567.1,18.1 575.9,18.1 568.8,23.2 571.5,31.6 564.4,26.4 557.3,31.6 560,23.2 552.9,18.1 
		561.7,18.1 	"/>
	<polygon class="st5" points="564.4,141.6 561.7,133.2 552.9,133.2 560,128.1 557.3,119.8 564.4,124.9 571.5,119.8 568.7,128.1 
		575.8,133.2 567.1,133.2 	"/>
	<polygon class="st5" points="630.3,75.7 622,78.4 622,87.2 616.8,80.1 608.5,82.8 613.6,75.7 608.5,68.6 616.8,71.3 622,64.2 
		622,73 	"/>
	<polygon class="st5" points="498.5,75.6 506.8,72.9 506.8,64.2 512,71.3 520.3,68.5 515.1,75.6 520.3,82.7 512,80 506.8,87.1 
		506.8,78.3 	"/>
	<polygon class="st5" points="611,29.1 607,36.9 613.2,43.1 604.6,41.7 600.6,49.5 599.2,40.9 590.6,39.5 598.4,35.5 597,26.8 
		603.2,33 	"/>
	<polygon class="st5" points="517.8,122.3 521.7,114.4 515.5,108.2 524.2,109.6 528.2,101.8 529.5,110.5 538.2,111.8 530.4,115.8 
		531.8,124.5 525.6,118.3 	"/>
	<polygon class="st5" points="611,122.3 603.2,118.3 597,124.5 598.3,115.8 590.5,111.9 599.2,110.5 600.6,101.8 604.5,109.6 
		613.2,108.3 607,114.5 	"/>
	<polygon class="st5" points="517.8,29 525.6,33 531.8,26.8 530.4,35.5 538.2,39.4 529.6,40.8 528.2,49.5 524.2,41.7 515.6,43 
		521.8,36.8 	"/>
</g>
<g>
	<ellipse class="st6" cx="341.9" cy="472.8" rx="55.7" ry="6.1"/>
	<g>
		<polygon class="st7" points="305.5,427.6 397.6,427.6 397.6,311.8 285.9,311.8 285.9,456.7 		"/>
		<g>
			<g>
				<path class="st8" d="M348.8,356.8c0.3,0,0.5,0,0.7,0c1.4,0,2.5,1.1,2.5,2.5c0,4.1,0,8.2,0,12.4c0,1.4-1.1,2.5-2.5,2.5
					c-1.9,0-3.8,0-5.8,0c-3.2,0-6.5,0-9.7,0c-1.2,0-2.2-0.7-2.4-1.9c0-0.2-0.1-0.4-0.1-0.6c0-4.1,0-8.2,0-12.4
					c0-1.1,0.5-1.8,1.4-2.3c0.3-0.2,0.7-0.2,1.1-0.2c0.2,0,0.4,0,0.7,0c0-0.1,0-0.1,0-0.2c0-0.8,0-1.5,0-2.3c0-3.5,2.4-6.4,5.9-7
					c3.7-0.7,7.4,1.8,8.1,5.6c0.1,0.5,0.1,0.9,0.1,1.4c0,0.8,0,1.5,0,2.3C348.8,356.6,348.8,356.7,348.8,356.8z M341.8,358.1
					c-2.6,0-5.1,0-7.7,0c-0.7,0-1.2,0.4-1.2,1.2c0,4.1,0,8.1,0,12.2c0,0.8,0.4,1.2,1.2,1.2c5.1,0,10.2,0,15.3,0c0.1,0,0.1,0,0.2,0
					c0.6,0,1.1-0.5,1.1-1.1c0-4.1,0-8.3,0-12.4c0-0.4-0.2-0.8-0.6-0.9c-0.2-0.1-0.4-0.1-0.6-0.1
					C346.9,358.1,344.3,358.1,341.8,358.1z M347.5,356.7c0-0.1,0-0.1,0-0.1c0-0.8,0-1.6,0-2.4c0-0.4-0.1-0.9-0.2-1.3
					c-0.7-2.9-3.6-4.7-6.6-4.2c-2.6,0.5-4.5,2.7-4.6,5.3c0,0.9,0,1.8,0,2.8c0,0,0,0.1,0,0.1C339.9,356.8,343.7,356.8,347.5,356.7z"
					/>
				<path class="st8" d="M339.7,367.6c0-0.5,0-0.9,0-1.4c0-0.1,0-0.2-0.1-0.2c-1.1-1-1.5-2.1-1.1-3.5c0.4-1.4,1.3-2.2,2.8-2.5
					c1.9-0.3,3.7,1,3.9,2.9c0.2,1.3-0.3,2.3-1.2,3.1c-0.1,0.1-0.1,0.1-0.1,0.3c0,0.9,0,1.7,0,2.6c0,1-0.7,1.8-1.6,2
					c-1.3,0.3-2.5-0.7-2.5-2C339.7,368.4,339.7,368,339.7,367.6z M341.1,367.3c0,0.5,0,1,0,1.6c0,0.3,0.2,0.6,0.5,0.7
					c0.4,0.1,0.9-0.2,0.9-0.7c0-1,0-2,0-2.9c0-0.3,0.1-0.6,0.4-0.8c0.7-0.5,1.1-1.3,0.9-2.2c-0.2-0.8-0.9-1.5-1.8-1.6
					c-0.9-0.1-1.8,0.5-2.2,1.4c-0.3,0.9,0,1.9,0.9,2.4c0.3,0.2,0.4,0.4,0.4,0.7C341.1,366.3,341.1,366.8,341.1,367.3z"/>
			</g>
		</g>
		<g>
			<g>
				<path class="st8" d="M382.2,396.3c0,2,0,3.9,0,5.9c-0.5,1.2-1.6,0.8-2.5,0.8c-16.4,0-32.7,0-49.1,0c-9,0-17.9,0-26.9,0
					c-0.9,0-1.9,0.3-2.3-0.8c0-2,0-3.9,0-5.9c1.4-2.8,2.7-5.6,4.2-8.4c0.5-1,0.7-2,0.7-3.1c0-14.1,0-28.1,0-42.2c0-5.9,3.1-9,9-9
					c17.7,0,35.5,0,53.2,0c5.8,0,8.9,3.1,8.9,8.9c0,13,0,25.9,0,38.9c0,3.2,0.1,6.3,1.3,9.2c0.4,0.9,0.6,1.9-0.7,2.2
					c-1.1,0.3-1.4-0.5-1.7-1.4c-1.3-3.6-1.3-3.5-5-3.5c-20.3,0-40.6,0-61,0c-1.5,0-2.3,0.4-2.9,1.8c-0.9,2.1-2,4-3,6
					c-0.2,0.4-0.4,0.8-0.5,1.1c-0.8,2.8-0.2,3.7,2.7,3.7c23.7,0,47.4,0,71.1,0c0.7,0,1.8,0.6,2-0.8c0.3-1.5-0.5-1.7-1.8-1.6
					c-13.2,0-26.4,0-39.6,0c-9.7,0-19.4,0-29.1,0c-0.5,0-1,0-1.4,0c-0.8,0-1.5-0.4-1.5-1.3c0-0.9,0.6-1.3,1.4-1.3c0.5,0,1,0,1.4,0
					c23.5,0,46.9,0,70.4,0C380.5,395.4,381.7,395.1,382.2,396.3z M341.8,385.3c10.3,0,20.6,0,30.9,0c1.4,0,2-0.3,2-1.8
					c-0.1-13.8,0-27.6,0-41.4c0-4-1.9-5.9-5.9-5.9c-18,0-35.9,0-53.9,0c-4,0-5.9,1.9-5.9,5.9c0,13.8,0,27.6,0,41.4
					c0,1.6,0.5,1.9,2,1.8C321.2,385.3,331.5,385.3,341.8,385.3z"/>
				<path class="st8" d="M341.8,339.7c9.3,0,18.6,0,27.9,0c2.4,0,2.6,0.2,2.6,2.5c0,10.6,0,21.1,0,31.7c0,0.5,0,1.1-0.1,1.6
					c-0.1,0.6-0.6,0.9-1.2,0.9c-0.6,0-1.1-0.3-1.2-0.9c-0.1-0.6-0.1-1.2-0.1-1.8c0-9.9,0-19.8,0-29.7c0-1.4-0.3-1.9-1.8-1.9
					c-17.4,0.1-34.7,0.1-52.1,0c-1.6,0-1.9,0.5-1.9,1.9c0.1,11,0.1,22,0,32.9c0,1.6,0.5,2,2,2c17.6-0.1,35.1,0,52.7,0
					c0.5,0,1,0,1.4,0c1,0,2.2-0.1,2.2,1.3c0,1.3-1.2,1.3-2.2,1.3c-18.8,0-37.6,0-56.5,0c-1.6,0-2.3-0.6-2.3-2.2c0-12.5,0-25,0-37.5
					c0-1.7,0.6-2.2,2.3-2.2C323,339.8,332.4,339.7,341.8,339.7z"/>
			</g>
		</g>
	</g>
</g>
<g>
	<path class="st9" d="M277.8,90.7c0-2.2-0.5-3.1-2.8-3.5c-12.1-2.2-24.2-4.6-36.3-7c-1.1-0.2-2.2-0.2-3.3,0
		c-12.2,2.4-24.4,4.8-36.6,7c-2,0.4-2.5,1.1-2.5,3.1c0.1,8.6-0.1,40,0,47.2c0.1,9.4,3.1,17,9.1,23.7c8.4,9.3,18.9,15.6,30.3,20.7
		c0.9,0.4,1.6,0.6,2.6,0.2c13.1-6,25.3-13.2,34-25.1c3.9-5.3,5.8-11.3,5.7-18.1C277.6,122.9,277.8,106.8,277.8,90.7z"/>
	<polyline class="st10" points="217.6,129.2 233.8,144.8 262,107.9 	"/>
</g>
<g>
	<ellipse class="st6" cx="132.2" cy="472.8" rx="132.2" ry="6.1"/>
	<g>
		<g>
			<path class="st11" d="M134.6,281c0,0-29.5,11.4-15.4,124.8c0,0-26,1.6-70.9,37l4.5,9.3c0,0,65.1-12.9,86.8-35.3
				c27.6-28.4,44.1-89.7,44.1-89.7S154.3,309.7,134.6,281z"/>
			<path class="st11" d="M233.3,317.1c2.9-2.6,35.6,31.7,25.4,58c-14.7,37.8-101.3,74.6-101.3,74.6l-6.3-10c0,0,25.7-26.3,44.6-45.7
				c18.9-19.4,49.4-14.2-6.3-41.5c-55.7-27.3-54.7-71.5-54.7-71.5s22.8,31.8,49.2,46.2C210.2,341.6,221.9,327.3,233.3,317.1z"/>
			<polygon class="st12" points="49.3,444.6 35.2,449.6 35.9,456.9 52.2,450.6 			"/>
			<path class="st13" d="M35.9,456.9c1.3,8.7,12.4,10.8,17.2,14.1c1.7,1.2-0.4,5.9-13.2,3s-13.8-17.5-11.8-21.8c0,0,2.1-4.2,7.1-2.4
				L35.9,456.9z"/>
			<polygon class="st12" points="152,441.1 139.3,450.7 141,456.9 156.3,448 			"/>
			<path class="st13" d="M139.3,450.7c0,0-5.3-0.6-5.4,4.4c-0.1,5,0.3,15.9,11,17.6c10.7,1.8,16.6,3.1,16.7,0s-9.3-4.3-14.8-8.9
				c-5.5-4.5-5.8-7-5.8-7L139.3,450.7z"/>
			<path class="st14" d="M289.8,277.5c-5.7,6.2-13.3,10.5-26.4,16.5c-19.7,9.1-38.2,35.9-54.7,39c-30.7,5.9-74-52-74-52
				s-7.1-8.7,48.8-46.5c55.9-37.8,158.4-40.4,158.4-40.4s50.6-6.9,73.8-17.3l6.1,11.6l-109.5,53.1c28.5,20.8,84.3,19.6,101.4,18.7
				c0,0-0.6,6.6,0,10l-0.3,0.2c-32.6,15-67.1,12.6-67.1,12.6l-3.6,0c0,0-50.8,1.6-67.1-13.4"/>
			<path class="st12" d="M345.8,184c-1.6-2.2-3.4-0.3-3.7-10.2c-0.1-4.3-1.3-9.3-4.1-13.3v0c-17.7-1-14.6,14.4-17.8,15.5
				c-3.3,1.2-4.6-5.5-7.3-3.5c-2.8,2,2.2,6.7,0,11c-2.2,4.3-8.7,3.1-8.7,3.1l0,0c-0.9,3.8-2.4,7.4-5,10.8c-12.1,15,1,42,8.1,41.2
				c7.1-0.8,9.5-32.8,21.3-35.7c11.8-2.9,12.9-12.6,12.9-12.6C344.8,189.2,347,185.5,345.8,184z"/>
			<path class="st13" d="M312.8,183.5c2.2-4.3-2.8-9.1,0-11c2.8-2,4.1,4.7,7.3,3.5c3.3-1.2,0.1-16.5,17.8-15.5v0
				c-3.7-5.3-10.3-8.5-20.8-5.4c-14.3,4.3-10,18.4-13.1,31.5l0,0C304.1,186.6,310.6,187.9,312.8,183.5z"/>
			<linearGradient id="SVGID_1_" gradientUnits="userSpaceOnUse" x1="425.1836" y1="169.177" x2="432.2596" y2="181.4329">
				<stop  offset="0" style="stop-color:#F5DD4C"/>
				<stop  offset="1" style="stop-color:#FBC94F"/>
			</linearGradient>
			<path class="st15" d="M421.1,187.4c7.1-3.6,12.1-6.3,12.4-7c1.2-2.8,7.1-7.2,7.1-7.2c-0.8-12.4-13.8-7.3-15.8-1.8
				c-0.7,2.1-4.3,4.4-8.8,6.3L421.1,187.4z"/>
			<path class="st12" d="M421.1,187.4c7.1-3.6,12.1-6.3,12.4-7c1.2-2.8,7.1-7.2,7.1-7.2c-0.8-12.4-13.8-7.3-15.8-1.8
				c-0.7,2.1-4.3,4.4-8.8,6.3L421.1,187.4z"/>
			<path class="st12" d="M438.7,264.9c0,0,5-7.4-0.8-9.9c-4.6-2-12.3-1.8-19.3,4.9c0,0-1.8,0.2-5.1,0.3c-0.4,2.8-0.6,6.4,0,10
				c1.8-0.8,3.5-1.7,5.2-2.6C418.8,267.6,431.1,260.7,438.7,264.9z"/>
		</g>
	</g>
</g>
</svg>
