<?xml version="1.0" encoding="utf-8"?>
<!-- Generator: Adobe Illustrator 21.1.0, SVG Export Plug-In . SVG Version: 6.00 Build 0)  -->
<svg version="1.1" id="Layer_1" xmlns="http://www.w3.org/2000/svg" xmlns:xlink="http://www.w3.org/1999/xlink" x="0px" y="0px"
	 viewBox="0 0 730 523" style="enable-background:new 0 0 730 523;" xml:space="preserve">
<style type="text/css">
	.st0{clip-path:url(#SVGID_2_);fill:#35B1E0;}
	.st1{clip-path:url(#SVGID_2_);}
	.st2{fill:#C7CBD3;}
	.st3{fill:#231A12;}
	.st4{fill:#1E272B;}
	.st5{fill:#8C5E3E;}
	.st6{fill:#FCFCF7;}
	.st7{fill:#35B1E0;}
	.st8{fill:#7F563B;}
	.st9{fill:#6D341B;}
	.st10{fill:#4C2314;}
	.st11{fill:#33170D;}
	.st12{fill:#0D2633;}
	.st13{fill:#143B4C;}
	.st14{fill:#BFD7E1;}
	.st15{fill:#1C3439;}
	.st16{display:none;fill:#133A50;}
	.st17{display:none;}
	.st18{display:inline;fill:#8C5E3E;}
	.st19{display:inline;fill:#36B1E0;}
	.st20{display:none;fill:#36B1E0;}
	.st21{fill:#1C1C1C;}
	.st22{display:none;fill:#8C5E3E;}
	.st23{fill:#FFFFFF;}
	.st24{opacity:0.35;fill:#FFFFFF;}
	.st25{fill:#66452E;}
	.st26{fill:#E84F5F;}
	.st27{fill:#133A50;}
	.st28{fill:#97A3CC;}
	.st29{fill:url(#XMLID_3_);}
	.st30{fill:#DCA86E;}
	.st31{fill:#F3BA7A;}
	.st32{fill:#4C2F19;}
	.st33{fill:#D88E75;}
	.st34{fill:#ED9F7C;}
	.st35{fill:#287AA8;}
	.st36{fill:#724825;}
	.st37{fill:#808194;}
	.st38{opacity:0.7;fill:#FFFFFF;}
	.st39{fill:#434141;}
	.st40{fill:#CC886D;}
	.st41{fill:#EE6191;}
	.st42{fill:#CA5072;}
	.st43{fill:#57906F;}
	.st44{fill:#4EAC7E;}
	.st45{fill:#6BC971;}
	.st46{fill:#D2DCEB;}
	.st47{fill:#A6AEBA;}
</style>
<g>
	<defs>
		<polygon id="SVGID_1_" points="729.7,522.6 0.3,522.6 1.7,7.5 729.7,0 		"/>
	</defs>
	<clipPath id="SVGID_2_">
		<use xlink:href="#SVGID_1_"  style="overflow:visible;"/>
	</clipPath>
	<path class="st0" d="M668.5,350.1c9.6,51.4,92,85.1,36.7,143.9h-616c-12.4-30.3-19.9-70.1-22.2-93.8
		c-5.1-51.7,9.9-110.6,45.4-133.7c47.9-31.2,113.1,11.7,156-30.4c24.7-24.3,32.2-68.6,51.6-100.2c42.7-69.9,134.3-105.1,213.6-92.8
		c52.8,8.2,106.1,39.4,135.4,84.6c23.8,36.7,41,98,20.3,139.4C679.7,286.4,661.6,313.3,668.5,350.1z"/>
	<g class="st1">
		<g>
			<path class="st2" d="M649.7,368.6c9.6,51.4,92,85.1,36.7,143.9h-616c-12.4-30.3-19.9-70.1-22.2-93.8
				c-5.1-51.7,9.9-110.6,45.4-133.7c47.9-31.2,113.1,11.7,156-30.4c24.7-24.3,32.2-68.6,51.6-100.2
				c42.7-69.9,134.3-105.1,213.6-92.8c52.8,8.2,106.1,39.4,135.4,84.6c23.8,36.7,41,98,20.3,139.4
				C660.9,304.9,642.8,331.8,649.7,368.6z"/>
			<g>
				<path class="st3" d="M310.4,672.9c0,0-19.2,12.6-16.2,17.2c3,4.6,31.6,0.4,31.6,0.4s4-0.7,1.4-9c-2.6-8.4-3.2-10-3-11.2
					C324.3,669.1,311.9,666.7,310.4,672.9z"/>
				<path class="st3" d="M367,671.7c0,0-1.6,16.6-0.4,17.3c1.2,0.7,50.4,1.4,50.4,1.4s2.4-3.8-3.3-5.8s-26.9-8.1-26.9-8.1
					s-2.3-3.9-2.7-5.3C383.7,669.7,367,671.7,367,671.7z"/>
				<path class="st4" d="M347.9,432.2h-2h-46.3l1.3,80.6l7.8,160h18.6l9.3-101.7c0,0,6.9-94.7,10.2-104.3
					c3.3,9.7,10.2,104.3,10.2,104.3l9.3,101.7h18.6l7.8-160l1.3-80.6H347.9z"/>
				<path class="st5" d="M299.8,449.5l1.5,3.7c0,0-0.6,3.7,0,4.5l17.3-8.8c0,0-1.5-2.1-3.4-2.6c-1.9-0.6-3.1-2.5-3.1-2.5
					L299.8,449.5z"/>
				<polygon class="st6" points="346.1,260.5 344.1,260.5 329.4,256.4 325.7,259.1 326.6,426.6 365.1,426.6 369.2,264.3 
					360.2,256.4 358.8,256.4 				"/>
				<polygon class="st7" points="353.4,363.1 348.3,272.1 344.7,270.4 344.7,270.4 344.7,270.4 344.6,270.4 344.6,270.4 
					341.1,272.1 335.9,363.1 344.7,376.4 				"/>
				<rect x="333.6" y="238.1" class="st8" width="22.2" height="23.6"/>
				<rect x="316.9" y="426.4" class="st9" width="58.1" height="11.5"/>
				<path class="st10" d="M357.2,435.6c0,2.1-1.8,3.8-4.1,3.8h-14.4c-2.2,0-4.1-1.7-4.1-3.8v-6.9c0-2.1,1.8-3.8,4.1-3.8h14.4
					c2.2,0,4.1,1.7,4.1,3.8V435.6z"/>
				<path class="st11" d="M354.4,434.1c0,2.1-1.8,3.8-4.1,3.8h-8.8c-2.2,0-4.1-1.7-4.1-3.8v-3.8c0-2.1,1.8-3.8,4.1-3.8h8.8
					c2.2,0,4.1,1.7,4.1,3.8V434.1z"/>
				<path class="st12" d="M367.8,273.8l2.5-14l35.2,10.8c0,0,15.4,5.3,17.9,22.3c2.4,17,1.4,120.9,1.4,120.9l-1.6,57h-18.3
					l-3.7-73.6l-3.5-41.9l-2.6,80.6l-34.9,8.4V324.8C360.2,324.8,361.6,276.1,367.8,273.8z"/>
				<polygon class="st13" points="360.2,256.4 380.5,263.2 370.3,296.5 363.4,300.6 370.3,307 360.2,382.5 				"/>
				<path class="st12" d="M293.6,327.8v74.7l5.7,28.1l30,13.8V319.5l-4.9-39C324.4,280.5,294.5,308,293.6,327.8z"/>
				<polygon class="st7" points="344.8,260.5 344.8,260.5 344.8,260.5 344.8,260.5 344.8,260.5 338.5,263.9 338.9,269 341.1,272.1 
					344.8,272.1 344.8,272.1 348.5,272.1 350.6,269 351,263.9 				"/>
				<polygon class="st14" points="329.4,256.4 333.7,250.1 344.8,260.5 338.4,269.7 				"/>
				<polygon class="st14" points="360.2,256.4 355.9,250.1 344.8,260.5 351.1,269.7 				"/>
				<path class="st5" d="M408,470.8c0,0-0.5,2.8-2.1,4.1s-8.9,6.3-8.5,7.3c0.3,1,1.9,1.4,3.5,0.5c1.6-1,4.2-2.5,4.7-2.6
					c0.5-0.1,0.7,4,0.7,5.2s0.5,4.5,1.4,4.8c0.9,0.3,2.5,0.5,2.9,0.4c0.4-0.2,1.5,0.1,2.4-0.2c0.9-0.3,1.9,0,2.9-0.4
					c1-0.4,2-0.8,2.7-1.1c0.8-0.3,2.3-0.4,2.5-1.3s0.8-2.6,0.8-5.6c0-2.9-0.6-6.2-0.9-8.5c-0.3-2.3-0.6-2.6-0.6-2.6H408z"/>
				<polygon class="st15" points="293.3,381 293.6,378.8 293.6,377.7 312,436.4 310.9,435.9 				"/>
				<polygon class="st15" points="299.1,328.4 301.4,327.4 293.6,346.7 293.6,345.1 				"/>
				<path class="st12" d="M301.4,327.4c0,0-15,33.2-13,36.2c2,3,25.6,80.8,25.6,80.8l-16.2,7.5c0,0-37.3-72.8-37.3-75.1
					s11.4-86.4,12.6-89.8c1.2-3.4-1.3-10.7,44.2-26.5l9.8,26.9v21.5L301.4,327.4z"/>
				<polygon class="st13" points="329.4,256.4 309.1,263.2 319.2,296.5 326.1,300.6 319.2,307 329.4,382.5 				"/>
			</g>
			<g>
				<path class="st16" d="M404.5,504.5c-1.3-40.6-2.7-70.2-2.7-70.2l-53.8,3.9l-53.5-5.6c0,0-4.7,29.5-6.3,71.8H404.5z"/>
				<g class="st17">
					<path class="st18" d="M462.1,204.6c0.2,0.9-14.2-8.1-14.2-8.1l-6.1-9.5c0,0-6-3.9-10.2-5.9c-4.3-2.1-12.1-14.9-12.1-14.9
						l3.1-3.9c0,0,4.5,5.5,6,6.4c1.5,0.9,4.5,0.1,4.5,0.1s-1-4-3.4-9.6c-2.4-5.7-9.7-14.8-9.7-14.8l2.7-2.9c0,0,4.4,4.2,6,6.2
						c1.6,2.1,4.6,6.5,4.6,6.5s-3.1-7.7-5.1-10.6c-1.9-2.9-4.1-6.8-4.1-6.8l3.2-2.2c0,0,3.7,4.6,5.6,8c1.9,3.4,5.4,9.1,5.4,9.1
						s-2.7-8.7-4-11.2c-1.3-2.5-1.8-3.8-1.8-3.8l3.8-1.3c0,0,2.8,3.4,4.4,7.9c1.7,4.5,2.9,6.5,2.9,6.5s-1.1-7.3-2.3-9.5
						c-1.2-2.2-1.3-3-1.3-3l3-0.6c0,0,5.8,10.8,8.9,17.4c3.1,6.7,5.5,15.7,7.2,20.6c1.7,4.9,4,21.5,4,21.5L462.1,204.6z"/>
					<path class="st19" d="M397.2,260.3l48.8-4.6c0,0,2-17.5,0.8-37.9c-1.3-22.1-4-28.3-4-28.3l19.8-2.7c0,0,3.9,17.4,6.7,30
						c6.2,27.8,11.9,53.8,7.2,59.6c-6.9,8.4-56.6,31.5-77.7,47.3C386.2,333.1,400.3,288.6,397.2,260.3z"/>
				</g>
				<path class="st20" d="M328.6,249.4c3.1-5.2,3.8-16.4,3.8-16.4h26.1c0,0,1.9,16.4,5.7,19.5c4.3,3.6,15.6,9.2,24.2,12.9
					c-1.4,12.5-2.9,24.9-4.7,37.3h-70.5c-1.3-13.4-2.8-26.7-4.3-40C315.6,259.8,325.5,254.6,328.6,249.4z"/>
				<rect x="326.4" y="238.8" class="st20" width="37.5" height="10.8"/>
				<path class="st20" d="M400.8,350.5c-0.4-17.4,7-88.8,7-88.8c-18.2-3.6-40.2-6.6-40.2-6.6l-21,22.9l-23.8-22.3l-38.6,15.6
					c0,0,9.3,54,6.5,71.2c-2.9,17.2,0.8,99.3,2.3,102.4c4.8,9.5,28.1,15.6,57.1,13.3c36-2.9,52.1-8.6,52.1-8.6
					C403.2,422.1,401.6,385.7,400.8,350.5z"/>
				<path class="st5" d="M318.8,195.3c0,0,0.3-11.1,7.2-16.2c6.9-5,20-5.4,20-5.4s13.1,0.4,20,5.4c6.9,5,7.2,16.2,7.2,16.2
					c-0.3,2.2,2.2,18.2-3.1,31.6c-2.8,7.2-8.2,14.4-13.7,17.8c-9.8,6.1-16.2,3-22.5-0.4c-5.7-3.1-10.4-10.4-13-17.7
					C317.5,217.1,318.6,196.9,318.8,195.3z"/>
				<path class="st21" d="M323.2,170.1c10-9,31-12.8,46.2,2c13.6,13.4,5.1,34.3,5.1,34.3c-2.2,1.4,0.2,3-0.1,5.9l-3.3,1.2
					c0,0,2.1-9-0.4-11.3c-2.5-2.3-1.6-5.4-1.9-9.3c-0.2-2.3-0.7-13.3-5.6-15.5c-3.3-1.5-8.2,5.5-16.9,5.7c-10.9,0-13-6.8-16.3-5.5
					c-6.2,2.4-6.6,13.6-6.6,16.1c-0.1,3.9,0.8,5.6-1.6,8c-2.4,2.4-1.4,11.3-1.4,11.3l-2.5-0.9c-0.5-4.9,1.6-5.6-0.7-6.9
					C317.1,205.3,308.3,183.5,323.2,170.1z"/>
				<path class="st5" d="M319.6,212.9c-0.4-4-1.6-8.7-3.9-10.6c-2.3-1.9-5.3,1.7-4.3,7.5c1,5.9,8.2,7.9,8.2,7.9V212.9z"/>
				<path class="st5" d="M372.3,212.9c0.4-4,1.6-8.7,3.9-10.6s5.3,1.7,4.3,7.5c-1,5.9-8.2,10.3-8.2,10.3V212.9z"/>
				<path class="st22" d="M300.3,456.1l6.6,8.2c0,0-1.6,12.5-10.2,14.5c0,0-6.3-10.6-8.2-15.6L300.3,456.1z"/>
				<path class="st20" d="M284.2,271.2c0,0-17.1,9.5-22,22.5c-4.9,13-13.8,86.3-13.8,104.2c0,17.9,39.9,74.7,39.9,74.7
					s11.7-4,13.3-14.7l-21.8-65.7c3.3-21.1,16.5-51.2,16.5-82.1C296.3,279.1,284.2,271.2,284.2,271.2z"/>
				<g>
					<path class="st23" d="M328.5,203.5c0,0,0.9,1.8,3.6,3.2c2.6,1.4,4.3,1,6.3-2.1C338.5,204.6,334.2,201.1,328.5,203.5z"/>
					<path class="st21" d="M332.7,203c-0.8-0.1-1.5,0.7-1.1,1.5c0.2,0.4,0.4,0.7,0.6,1.2c0.4,0.7,0.9,1.6,2.8,1.5
						c2.7-0.2,2.5-3.6,2.5-3.6L332.7,203z"/>
					<path class="st24" d="M333.7,203.3c-1.1,0.2-1.6,1.5-0.8,1.9c0.8,0.4,1.9,0.5,2-0.5C335,203.7,334.9,203.1,333.7,203.3z"/>
					<path class="st21" d="M326.3,204.2c0,0,7.4-2.1,13.6,0.9c0,0,0.3-1.2-1.3-2.1c-0.9-0.5-2.9-0.9-4.8-0.9
						C327.1,202.2,326.3,204.2,326.3,204.2z"/>
				</g>
				<g>
					<g>
						<path class="st23" d="M362.2,203.3c0,0-0.9,1.8-3.4,3.3c-2.6,1.5-4.3,1.2-6.4-1.8C352.4,204.8,356.4,201.1,362.2,203.3z"/>
						<path class="st21" d="M358,203c0.8-0.1,1.5,0.7,1.2,1.4c-0.2,0.4-0.4,0.8-0.6,1.2c-0.3,0.7-0.6,1.9-2.7,1.6
							c-1.4-0.2-2.7-3.5-2.7-3.5L358,203z"/>
						<path class="st24" d="M357,203.3c1.1,0.1,1.7,1.4,0.9,1.9c-0.8,0.5-1.8,0.5-2-0.4C355.7,203.8,355.8,203.2,357,203.3z"/>
						<path class="st21" d="M364.3,203.9c0,0-6.7-1.8-12.2,1.1c0,0-1-1.8,0.5-2.6c0.8-0.5,2.6-0.9,4.5-0.8
							C363.4,201.9,364.3,203.9,364.3,203.9z"/>
					</g>
				</g>
				<path class="st8" d="M351.1,217.6c-1.1-1.4-1.8-5.7-2.2-8.4c-0.2-1.3-1.3-2.3-2.6-2.3l0,0c-1.3,0-2.4,1-2.6,2.3
					c-0.3,2.7-1.1,7-2.2,8.4c-1.7,2.1-1.7,3.1-0.5,3.9c1.2,0.8,1.9,0.5,2.7,1.4c0.8,0.8,1.9,1.1,2.6,1.1c0.8,0,1.8-0.3,2.5-1.1
					c0.8-0.9,1.5-0.6,2.7-1.4C352.8,220.7,352.8,219.7,351.1,217.6z"/>
				<path class="st25" d="M353.3,227.2c0,0-1.8,4.9-7.3,4.9c-5.6,0-7.6-4.9-7.6-4.9S345.1,230.2,353.3,227.2z"/>
			</g>
			<g>
				<path class="st26" d="M558.6,275.8c10.6,5.7,13.9,13,19.2,27.4c5.3,14.5,10.5,17.8,10.5,17.8s-11.2,2.6-23.7,29.6
					c0,0-13.2-9.2-16.5-27.6C544.9,304.5,558.6,275.8,558.6,275.8z"/>
				<path class="st8" d="M601.1,349.9c0,0,0.9,10.5-4.4,16.5c-5.3,5.9-11,17.5-11,17.5s-8.1-17.1-11.8-22.6
					c-3.7-5.5-14.5-17.8-14.7-29.2c-0.2-11.4,18.4-28.5,18.4-28.5s10.3,18.4,11.2,29C589.7,343.1,601.1,349.9,601.1,349.9z"/>
				<path class="st27" d="M460.9,508.1c1.9-41.4,5.3-73,5.3-73l82.3,0.7c0,0-8,35.1-16.5,72.3H460.9z"/>
				<path class="st5" d="M496.5,224.7c0,0,6.3,27.8,1.4,34.3c-2.9,3.8-15.3,17.3-15.3,17.3s40.9,21.6,52.9,21.6
					c12,0,7.8-24.1,7.8-24.1s-13.1-10.4-15.1-15.6c-2-5.2-3-20.4-3-20.4L496.5,224.7z"/>
				<path class="st27" d="M575.2,508.1h-54.8c-0.3-6.6-0.5-10.7-0.5-10.7l15.4-53.3l32.7-8.7c0,0,13.9,26.3,10.1,32.5
					C576.1,471.2,575.6,487.2,575.2,508.1z"/>
				<path class="st26" d="M490.9,264.2l-32.9,12.5c0,0-0.9,39.7-0.4,53.2c0.5,13.5,5.3,120.3,5.3,120.3s12.9,20,75,12
					c23.9-3.1,35.7-14.7,35.7-14.7s-6.7-117.6-8.6-131.1c-1.8-13.5-6.5-40.6-6.5-40.6l-20.3-6.2l-8.3,12.3L490.9,264.2z"/>
				<polygon class="st26" points="497.8,259 530.1,281.9 519.9,293.7 490.9,264.2 				"/>
				<polygon class="st26" points="530.1,281.9 540.3,290.1 538.4,269.6 534.6,264.2 				"/>
				<g>
					<path class="st5" d="M478.8,383.3c-8.6-13.8-29-56.3-29-56.3l27.1-14.6l14.5,46.4c2.5-0.9,6.4-2.8,9.8-4.5
						c-4.8,6.6-9.8,13.1-14.8,19.5C483.8,376.9,481.3,380.1,478.8,383.3z"/>
					<path class="st26" d="M441.6,300.9c-0.2,15.4,16.1,60.9,16.1,60.9s13.2-14,28.9-22.4c0,0-5.7-23-9-35.2
						c-3.7-13.4-6.4-29.4-18.7-27.6C447,278.3,441.7,288.6,441.6,300.9z"/>
				</g>
				<g>
					<g>
						<path class="st5" d="M493.1,224.3c0,0,0.5-9.9-7.8-9.6c-5.3,0.2-5.7,5-1.6,11.3c1.7,2.6,1.9,8.6,4.1,10.5
							c2.6,2.3,4.8-1.3,5.6-2.9C494.7,230.9,493.1,224.3,493.1,224.3z"/>
					</g>
					<g>
						<path class="st5" d="M537.8,224.3c0,0-0.5-9.9,7.8-9.6c5.3,0.2,5.7,5,1.6,11.3c-1.7,2.6-1.9,8.6-4.1,10.5
							c-2.6,2.3-4.8-1.3-5.6-2.9C536.2,230.9,537.8,224.3,537.8,224.3z"/>
					</g>
					<path class="st5" d="M484.7,200.1c0.2,3.2,0.8,5.3,1.7,10.1c0.2,1.1,0.4,2.5,0.6,4c1.7,11.9,3.9,28,4.8,30.4
						c1.5,4,10,10.5,14.1,12.8c4,2.4,14.2,1.9,18.2-0.5c4-2.4,13.1-8.4,14.7-12.4c1-2.5,3.2-19.1,4.9-31.2c0.2-1.4,0.4-2.6,0.6-3.6
						c0.8-4.7,1.4-6.6,1.6-9.7c0.6-10-10.7-24.6-30.6-24.6C491.7,175.5,484.1,190.1,484.7,200.1z"/>
					<g>
						<path class="st21" d="M486.4,210.2c0.2,1.1,0.4,2.5,0.6,4c1.7,11.9,3.9,28,4.8,30.4c1.5,4,10,10.5,14.1,12.8
							c4,2.4,14.2,1.9,18.2-0.5c4-2.4,13.1-8.4,14.7-12.4c1-2.5,3.2-19.1,4.9-31.2c0.2-1.4,0.4-2.6,0.6-3.6l-1.6-2.4
							c0,0-2.9,17.2-7.4,22.6c-4.5,5.3-5.3,5.6-5.3,5.6s-4.9-1.2-9.2-2.3c-0.2-0.1-0.5-0.1-0.7-0.2c-3.5-0.9-7.2-0.9-10.7,0.1
							c-0.2,0-0.4,0.1-0.6,0.2l-0.7,0.2l-7,2c0,0-1.6-0.2-6.1-5.6c-4.5-5.3-6.7-22.6-6.7-22.6L486.4,210.2z"/>
					</g>
					<g>
						<g>
							<path class="st23" d="M498.9,212.5c0.3,0.8,2.5,2.5,3.9,2.7c1.8,0.3,4.2,0.6,6.4-2.3C509.1,213,504.5,210.4,498.9,212.5z"/>
							<path class="st21" d="M504.5,210.9c-0.8,0-2.5,0.1-2.5,1.3c0,0.6,0.3,1.5,0.5,1.9c0.3,0.7,1.1,1.9,3.1,1.3
								c2.4-0.8,2.6-3.4,2.6-3.4S507.8,210.8,504.5,210.9z"/>
							<path class="st24" d="M504.6,211.5c-1.1,0.1-1.6,1.4-0.9,1.8c0.8,0.5,1.8,0.5,1.9-0.4C505.8,211.9,505.7,211.3,504.6,211.5z"
								/>
							<path class="st21" d="M497.5,213.5c0,0,6.5-3.2,11.9-0.3c0,0,1-1.1-0.4-1.9c-0.8-0.5-2.6-0.9-4.4-0.8
								C498.4,210.7,497.5,213.5,497.5,213.5z"/>
						</g>
					</g>
					<path class="st21" d="M520.2,202.9c0,0,5.1,0.2,9.6,0.2c2.2,0,3.9,1.9,4.5,3.1c0.1,0.3,0.4,2.2,0.2,2.7c0,0-2.6-2.4-3.6-2.4
						c-1.3,0-6.1,0.1-9.2,0C519.9,206.4,519.9,203.6,520.2,202.9z"/>
					<path class="st21" d="M510.6,202.9c0,0-5.1,0.2-9.6,0.2c-2.2,0-3.9,1.9-4.5,3.1c-0.1,0.3-0.4,2.2-0.2,2.7c0,0,2.6-2.4,3.6-2.4
						c1.3,0,6.1,0.1,9.2,0C511,206.4,510.9,203.6,510.6,202.9z"/>
					<g>
						<g>
							<path class="st23" d="M531.9,212.5c-0.3,0.8-2.5,2.5-3.9,2.7c-1.8,0.3-4.2,0.6-6.4-2.3C521.6,213,526.2,210.4,531.9,212.5z"
								/>
							<path class="st21" d="M526.2,210.9c0.8,0,2.5,0.1,2.5,1.3c0,0.6-0.3,1.5-0.5,1.9c-0.3,0.7-1.1,1.9-3.1,1.3
								c-2.4-0.8-2.6-3.4-2.6-3.4S523,210.8,526.2,210.9z"/>
							<path class="st24" d="M526.2,211.5c1.1,0.1,1.6,1.4,0.9,1.8c-0.8,0.5-1.8,0.5-1.9-0.4C524.9,211.9,525,211.3,526.2,211.5z"/>
							<path class="st21" d="M533.3,213.5c0,0-6.5-3.2-11.9-0.3c0,0-1-1.1,0.4-1.9c0.8-0.5,2.6-0.9,4.4-0.8
								C532.4,210.7,533.3,213.5,533.3,213.5z"/>
						</g>
					</g>
					<g>
						<path class="st25" d="M509,239.3c0.4,1,1.7,3.6,5.6,3.9c0.9,0.1,2.7-0.4,3.4-0.8c2.3-1.2,3.3-3.2,2.9-3.1
							C518.2,240,511.5,239.9,509,239.3z"/>
					</g>
					<path class="st8" d="M510.4,227.5c1.1-1.2,2-7.8,2.3-9.7c0.2-0.9,1.1-1.6,2.2-1.6l0,0c1.1,0,2,0.7,2.2,1.6
						c0.4,1.9,1.2,8.5,2.3,9.7c1.8,1.9,1.8,2.8,0.7,3.6c-1.2,0.8-1.8,0.5-2.7,1.4c-0.7,0.8-1.9,1.1-2.6,1.1c-0.8,0-1.8-0.3-2.5-1.1
						c-0.8-0.9-1.5-0.6-2.7-1.4C508.6,230.3,508.7,229.4,510.4,227.5z"/>
				</g>
				<path class="st5" d="M547,315.6c-5.9,4.2-30.3,20.8-39.1,24.5c-8.8,3.8-22.6,13.7-27.6,18.2c-5,4.5-10.7,6.2-10.3,8
					c0.4,1.8,9.8,21.2,13.8,20.5c4-0.7,27.3-18.9,36.9-26.7c9.5-7.8,22.2-25.8,28.5-28.7c6.3-2.9,5.8-4.7,9.4-5
					c3.5-0.3,3-0.2,6.1-1.2c3.1-1,4.6-6.4,6.7-8.2c2.1-1.9,5.2-4,4.6-5.2c-0.6-1.3-0.9-2.8-8.3,0c0,0,6.9-3.8,10.1-4.3
					c3.2-0.5,10.2-0.5,13.4-0.9c3.2-0.5,5.4-2.9,3.1-3.5c-2.4-0.6-12.4-1.8-16.1-1.2c-3.7,0.6-15.3,1.1-19.7,2.4
					C553.8,305.6,550.5,313,547,315.6z"/>
				<g>
					<path id="XMLID_55_" class="st28" d="M546.5,353.3l26.8,10.1c2.8,1,7.1-0.4,9.7-3.1l56.9-60.5c2.6-2.7,2.5-5.7-0.3-6.8
						l-26.5-10.2c-5.3-0.8-8.5,0.1-11.2,2.9l-56.7,60C542.6,348.6,542.2,350.6,546.5,353.3z"/>
					
						<linearGradient id="XMLID_3_" gradientUnits="userSpaceOnUse" x1="3173.8127" y1="1366.0032" x2="3269.8689" y2="1364.9921" gradientTransform="matrix(-0.6544 -0.2963 -0.7023 0.731 3674.8452 286.2609)">
						<stop  offset="0" style="stop-color:#EEF4FB"/>
						<stop  offset="0.3115" style="stop-color:#E3EDF8"/>
						<stop  offset="1" style="stop-color:#CFE1F3"/>
					</linearGradient>
					<path id="XMLID_37_" class="st29" d="M548,354.1l27,10.2c2.8,1,7.1-0.4,9.7-3.1l57.1-60.7c2.6-2.7,2.5-5.8-0.3-6.8l-26.7-10.2
						c-2.9-1.1-7.4,0.3-10,3.1L547.5,347C544.9,349.8,545,353,548,354.1z"/>
				</g>
				<path class="st5" d="M603,349.1c3.9-1.1,9.2-1.5,10.5-4.2c1.3-2.6,3.3-3.3,5.5-5.3c2.2-2,0.9-3.9,3.5-6.4c2.6-2.4,0-6.6,0.2-8.8
					c0.2-2.2,0.4-6.6-0.4-10.5c-0.9-3.9-4.4-4.8-9-6.4c-4.6-1.5-7.9-1.5-7.9,0.9c0,2.4,4.8,5.7,4.8,5.7s-7.9-2.6-10.1-3.5
					c-2.2-0.9-5.7,1.1-4.2,3.9c1.5,2.9,7.9,6.6,9.9,7.7c2,1.1,3.1,3.3,3.1,3.3s-5.9,0-10.1-1.8c-4.2-1.8-7.9-5.7-10.7-3.9
					c-2.9,1.8-1.3,3.9,1.5,6.4c0,0,6.1,4.2,8.1,5c0,0-6.1,0.2-9.2-1.1c-3.1-1.3-4.6,0.2-3.7,2.6c0.9,2.4,9.4,4.4,9.7,5.3
					c0.2,0.9-1.5,3.1-2.6,5.7C590.8,346.4,603,349.1,603,349.1z"/>
				<path class="st5" d="M609.4,342.7c-1.8,5.3-1.8,10.7-1.8,18s0.7,19.7-3.5,22.8c-4.2,3.1-10.1,9-15.1,4.2
					c-5-4.8-7.7-12.5-8.3-19.7c-0.7-7.2,7.5-17.8,11.2-24.1L609.4,342.7z"/>
			</g>
			<g>
				<rect x="24.5" y="501.5" class="st30" width="679.4" height="21.8"/>
				<rect x="1.2" y="501.5" class="st31" width="726" height="14.4"/>
			</g>
			<g>
				<path class="st32" d="M189.3,222.8c1.3,16.3-0.3,16.3-1.7,27.3c-1.3,11-29.9,11.2-29.9,11.2s-9.1,1.2-14.8,0.4
					c-5.6-0.7-13.6-2.7-15-23c-1.3-20.3,5.3-35.6,5.3-35.6l49.6-4.7L189.3,222.8z"/>
				<path class="st33" d="M169.7,229.1c0,0-0.6,17.7,3.6,25.8c2.9,5.6,13.4,7.4,13.4,7.4s1.3,15.8-8.2,31.8
					c-9.5,15.9-41.7,23.5-41.7,23.5s-7.1-12.4-11.3-26.5c-4.2-14.1-2.3-23.8-2.3-23.8s15.1-5.3,19.2-7.2c10-4.5,7.8-20.7,7.8-20.7
					L169.7,229.1z"/>
				<polygon id="XMLID_38_" class="st33" points="114.1,363.6 202.7,340.7 198.8,270.9 179.6,260.9 135.6,264.8 126.7,271.8 				"/>
				<path id="XMLID_241_" class="st34" d="M135.9,197.5c-0.4,10.6-0.3,10.3,0.4,22c0.7,10.1,3.5,16.3,5,20.6
					c1.5,4.4,8.3,12.2,14.6,15.8c1.3,0.7,4.3,1,6.7,0.3c8.1-2.6,16.4-13.3,18.9-19.8c1.8-4.8,2.8-13.4,3-21.3
					c0.1-7.8,0.2-17.9-0.1-23.7C183.6,170.8,136.2,188.9,135.9,197.5z"/>
				<path class="st7" d="M188.2,274.3l-1.5-12c0,0-15.1,14.2-28.1,14.2c-18.5,0-20.4-14.2-20.4-14.2l-6.8,1l1.5,20.9l13.9,81.1
					l34.6-58.2L188.2,274.3z"/>
				<path class="st35" d="M89.6,368.8c0.8-5.9,5.8-43.2,7.2-50.8c3.4-18,7.1-30.9,11.4-37.8c4.2-6.9,14.7-14,14.7-14l6.3,38.2
					c0,0-4.9,45.4-11.8,55.8c-2.4,3.6-9.6,6.2-11.9,8.6C104.8,366.1,92.4,379.2,89.6,368.8z"/>
				<path class="st35" d="M99.7,502.8c-0.2-16.2,1.1-32.5,5.1-46.4c1.6-5.5,3-10.7,4.2-15.6h100.2c3.1,14.8,6,29.7,6,45.6
					c0,5.8,0,11.2-0.2,16.4H99.7z"/>
				<path class="st7" d="M115.4,354.4c3,12.8-8.4,78-10.9,95.3c0,0,7.2,14,49.2,16.5c57.4,3.4,61.5-10.8,61.5-10.8
					c-2.3-15.9-14.6-80.1-10.1-97.7c5.6-22.1,8.4-49.1,8.4-49.1s-1.2-31.9-3-37.5l-23.8-8.8l-42.2,77.9l-13-76.9l-8.7,2.8
					c-1.8,5.6-7.5,30.6-11.2,42.7c-1.8,5.9-3.7,14-2.1,24.3C110.5,340.5,113.2,345.2,115.4,354.4z"/>
				<path class="st35" d="M183.6,359.5c1.2-19.9,0.6-40.5,1.8-53.9c2.8-31.3,25.1-34.5,25.1-34.5s6.4,0.8,8,20.1
					c0.7,8.8,3.7,43.4,1.4,68.9c-1.7,19.2-8.3,21.9-7,22.1c1.7,0.2-28.9,8.7-35.7,4.3C180.8,373.9,183.5,376.9,183.6,359.5z"/>
				<path id="XMLID_286_" class="st36" d="M154.3,173.9c3.4,2-2.4,9.5-3.3,14c-0.9,4.4-10.8,12.4-13.3,26c-3.2,17,5.4,41.8,8.5,50.2
					c0,0-7.9,0.3-14.2-6.5c-4.3-4.7-7.5-12.3-7.5-21.7c0-9.4-0.5-31.9,5.1-46.2C134.4,177.6,146.3,169.3,154.3,173.9z"/>
				<path id="XMLID_285_" class="st36" d="M168.6,198.7c12.1,5.3,13.2,16,14,27.5c0.7,10.7,0.3,28.8-4.3,34.3c0,0,10,0.2,13.6-9.7
					c3.6-9.9,2.4-48-1-57.6c-3.4-9.6-10.7-15.8-19.3-19.6c-9.7-4.3-25.6-4-26.6,2C144,181.5,155.2,192.8,168.6,198.7z"/>
				<path class="st34" d="M166.9,360.8c2.1-4.2,6.9-9.5,7.8-14.6c0.9-5.1,3.9-7.8,8.5-9.7c4.6-1.9,8.8-2.8,11.3-3.5
					c2.5-0.7,3.2,1.9-0.4,3.5c-3.5,1.6-6.2,2.6-7.6,3.5c-1.4,0.9-2.3,3.3-2.3,3.3s5.5-2.5,10.8-2.3c5.3,0.2,9.3-0.2,9.5,1.4
					c0.2,1.6-2.3,3.2-7.2,3.3c-4.9,0.2-7.9,0.9-9,2.1c-1.1,1.2-2.6,1.8-2.6,1.8s7.7-0.6,11.5-0.8c3.9-0.2,6.9,2.8,4.6,3.7
					c-2.3,0.9-6.9,0.5-10.4,0.7c-3.5,0.2-5.7,4.1-5.7,4.1s4.1,0.4,8.5,0.5c4.4,0.2,6,1.8,3.2,2.8c-2.8,1.1-8.6,0.4-11.7,0.9
					c-3.1,0.5-9.6,2.6-9.6,2.6L166.9,360.8z"/>
				<g>
					<path class="st37" d="M167.8,379.5c8.2,0.7,7.8-14.9,7.8-14.9s-14-7.4-14.7-0.8C160.1,370.5,167.8,379.5,167.8,379.5z"/>
					<g>
						<path class="st34" d="M161.2,354.8c4.3,0,11.4-4.2,18.1-0.1c6.7,4.1,10.9,8.6,10.9,8.6s-13.5-0.2-20.8,3.3
							c-7.4,3.5-14.6,9.3-14.6,9.3L161.2,354.8z"/>
						<path class="st35" d="M161.2,354.8c-2,3.3,8.4,22.1,9.3,25.3c0,0-13.7,3.9-34,4.8c-23.4,1-40.5,0-45.9-3.7
							c-5.4-3.7,1.2-29.8,15.1-24.5c8.5,3.2,21.6,4.6,33.7,2C151.6,356.3,161.2,354.8,161.2,354.8z"/>
					</g>
				</g>
				<g>
					<g>
						<path class="st34" d="M142.5,354.4c-4.2-0.5-10.8-5.5-17.9-2.2c-7.1,3.3-11.9,7.3-11.9,7.3s13.4,1.3,20.3,5.6
							c6.9,4.3,13.4,11,13.4,11L142.5,354.4z"/>
						<path class="st35" d="M142.5,354.4c-5.5,1.9-12.1,5.7-12.1,24.1c0,0,13.2,5.5,33.2,8.7c23.2,3.7,40.2,0,46-3
							c5.8-3,2.8-30.2-9.5-26.9c-8.8,2.3-24.6,7.6-36.4,3.7C151.8,356.9,142.5,354.4,142.5,354.4z"/>
					</g>
				</g>
				<path class="st36" d="M176,184.8c-0.7,4.3,0.7,18.6-2.7,18c-1.7-0.3-20.6-1.7-29.6,0.3c0,0-9.7-24,1.7-26
					C156.6,175.2,176,184.8,176,184.8z"/>
				<g>
					<g id="XMLID_62_">
						<g id="XMLID_64_">
							<g id="XMLID_66_">
								<path id="XMLID_69_" class="st23" d="M147.3,221.7c7.4-0.1,7.8-1.6,7.8-1.6l-0.4-0.6c-1-1.6-2.7-2.5-4.6-2.5H147l-2.6,1.8
									C144.3,218.9,142.3,221.8,147.3,221.7z"/>
								<circle id="XMLID_68_" class="st21" cx="149.6" cy="218.8" r="2.3"/>
								<ellipse id="XMLID_67_" class="st38" cx="149.1" cy="217.9" rx="0.6" ry="0.9"/>
							</g>
							<path id="XMLID_65_" class="st39" d="M155.3,220.1c0,0-3.5-5-8.8-3.6c-3,0.8-2.2,1.8-4.5,1.2c0,0,1,1.3,2,1.4
								c1.6,0.2,1.6-1,4.2-1.4C152.1,217.2,155.3,220.1,155.3,220.1z"/>
						</g>
						<path id="XMLID_63_" class="st39" d="M156.3,213.3c0,0-1.5-2.7-2.5-3c-2.8-0.7-5.2-0.3-7.4-0.3c-2.3,0-4.5,2.3-5.5,4
							c0,0,2.5-2,5.2-1.9C148.5,212.2,150.2,212.3,156.3,213.3z"/>
					</g>
					<g id="XMLID_52_">
						<g id="XMLID_54_">
							<g id="XMLID_57_">
								<path id="XMLID_61_" class="st23" d="M172.3,221.7c-7.4-0.1-7.8-1.6-7.8-1.6l0.4-0.6c1-1.6,2.7-2.5,4.6-2.5h3.2l2.6,1.8
									C175.3,218.9,177.4,221.8,172.3,221.7z"/>
								<circle id="XMLID_59_" class="st21" cx="170" cy="218.8" r="2.3"/>
								<ellipse id="XMLID_58_" class="st38" cx="170.5" cy="217.9" rx="0.6" ry="0.9"/>
							</g>
							<path id="XMLID_56_" class="st39" d="M164.3,220.1c0,0,3.5-5,8.8-3.6c3,0.8,2.2,1.8,4.5,1.2c0,0-1,1.3-2,1.4
								c-1.6,0.2-1.6-1-4.2-1.4C167.5,217.2,164.3,220.1,164.3,220.1z"/>
						</g>
						<path id="XMLID_1_" class="st39" d="M163.3,213.1c0,0,1.6-2.7,2.6-3c2.8-0.7,5.2-0.2,7.4-0.1c2.3,0,4.5,2.3,5.4,4.1
							c0,0-2.5-2-5.2-1.9"/>
					</g>
					<path class="st33" d="M155.8,231.4c0.9-1.2,1.5-4.7,1.8-7c0.1-1.1,1.1-1.9,2.2-1.9l0,0c1.1,0,2,0.8,2.2,1.9
						c0.3,2.2,0.9,5.8,1.8,7c1.4,1.8,1.4,2.6,0.4,3.3c-1,0.7-1.6-0.3-2.3,0.5c-0.6,0.7-1.6,0.9-2.1,0.9c-0.6,0-1.5-0.2-2.1-0.9
						c-0.7-0.8-1.2,0.2-2.3-0.5C154.5,234,154.5,233.2,155.8,231.4z"/>
					<g>
						<path class="st40" d="M173.7,224.8c0,0-2.2,0.9-4.9,0.2C168.9,225,171.3,228.6,173.7,224.8z"/>
						<path class="st40" d="M145.9,224.7c0,0,2.1,1,4.8,0.5C150.7,225.1,148,228.6,145.9,224.7z"/>
					</g>
					<g id="XMLID_46_">
						<g id="XMLID_48_">
							<g id="XMLID_49_">
								<path id="XMLID_51_" class="st41" d="M164.5,239.4c0.5-0.1,0.8-0.1,1.3-0.3c0,0-1.5,2.4-3.9,4.1c-1.7,1.3-3.9,1-5.5-0.1
									c-1.6-1.2-3.9-4.2-3.9-4.2s2.9,1.4,4.6,1C158.9,239.6,164.5,239.4,164.5,239.4z"/>
								<path id="XMLID_50_" class="st41" d="M162.5,239.3c-1.2-0.3-1.7-0.4-2.3-0.4c-0.5,0.2-1.1,0.3-1.7,0.1c-1-0.4-2-0.1-2.5,0
									c-2.5,0.4-3.5-0.2-3.5-0.2s0.7,0.6,1.7,0.9c1,0.2,1.7,0.7,2.7,0.9c0.8,0.2,1.2,0.1,2.2,0.1c1.6,0,1.7,0,3.1-0.2
									c1.5-0.3,2.7-0.6,3.6-1.5C165.9,239.1,164.7,239.9,162.5,239.3z"/>
							</g>
						</g>
						<path id="XMLID_47_" class="st42" d="M165.1,239.8c-0.2,0.2-1.9,1.3-3.6,1.7c-1.9,0.4-3.2,0.2-4.1,0c-1.5-0.3-3.6-1.7-3.6-1.7
							s2.4,1,4.3,0.6c2.8-0.5,2.7,0.2,4.9,0C163.8,240.3,165.1,239.8,165.1,239.8z"/>
					</g>
				</g>
				<path class="st35" d="M185.5,261.5c0,0,10.6,17.1-20.3,25.3c0,0-4.9-3.7-7.8-11.1C157.4,275.7,175.3,274,185.5,261.5z"/>
				<path class="st35" d="M138.3,262.3c0,0-10.9,15.8,12.5,24.5c0,0,4.9-3.7,7.8-11.1C158.6,275.7,148.4,274.8,138.3,262.3z"/>
			</g>
			<g>
				<g>
					<path class="st43" d="M63.9,481.9c3.1-12.7,5.3-25.3,9.4-37.8c3.4-10.4,10-23.3,16.2-27.7c6.7-4.8,0.4,15.8-5.2,22.3
						c3.9,2.3,2.4,6.7,0.2,9.7c-1.4,1.9-7.4,6.9-7.5,9.1c0,1.1,2.2,2.7,2.1,4.4c-0.1,3-3.5,5.6-5.2,7.9C69.3,476,65.6,483,62.2,490
						C62.7,487.3,63.3,484.6,63.9,481.9z"/>
				</g>
				<g>
					<path class="st44" d="M63.5,477.5c2.7-18.2-9.4-32.6-27.2-35.3c-2.2-0.3-15.7-2.2-17,0.4c-2.2,4.5,12.8,5.7,14.7,6.2
						c-8.3,4.8,12.6,9,15.9,10.8c-5.7,3.1-0.3,5.6,2.7,8c4.7,3.7,9.1,10,10,16C63.3,481.6,63.5,479.5,63.5,477.5z"/>
					<g>
						<path class="st44" d="M62.2,480.4c2.4-6.2,4-12.8,7.6-18.5c2.3-3.6,5.4-6.9,8.3-10.2c7.4-8.3,17.4-12,28.4-12.7
							c-1.4,8.2-6.4,10.9-13.7,13.5c8.8,4.6-10.3,9.9-13.6,11.5c5.3,3.6-2,6.3-4.8,8c-5.7,3.5-10.4,8.5-14,14.1
							C60.8,484.2,61.5,482.3,62.2,480.4z"/>
					</g>
				</g>
				<path class="st45" d="M65,480c-0.1-4.1-0.4-8.2-0.8-12.3c-0.3-2.9-0.7-5.9-1.4-8.7c-0.7-2.9-2.4-5.4-2.7-8.4
					c-0.4-3.4,1-6.3,1.1-9.6c0-2-1.3-4-1.6-6.1c-0.6-3.7,0.5-6.8,2.6-9.9c1.2-1.7,1.2-1,1.5-2.7c0.8-4.5-0.5-8.7,1.4-13.2
					c1-2.4,2.5-4.5,4.8-5.8c2.8-1.7,2.9-0.7,3.7,2.1c1.2,4,1.7,8.2,1,12.3c-0.3,1.9-2.2,4.9-2,6.6c0,0.6,1.5,2.2,1.8,2.8
					c0.7,1.6,0.8,3.2,0.7,5c-0.3,2.9-2.2,5.6-2.5,8.3c-0.4,3.3,1,6.9,0.5,10.4c-0.5,3.5-1.6,7-2.4,10.5c-2,9.1-3.7,18.7-3.3,28.1
					C65,487.4,65.2,482.4,65,480z"/>
				<path class="st44" d="M66.1,478.2c-0.3-4.1-0.3-8.2-0.1-12.4c0.3-5.5,3.5-11.3,2.8-16.5c-0.3-2.1-2.1-4.4-2.1-6.3
					c-0.1-2,1.6-4.3,1.5-6.6c-0.2-4.7-4.7-6.1-5.7-9.5c-1.1-3.9-0.3-7.6-2.8-11.3c-1.4-2.1-3.3-3.6-5.6-4.4
					c-3.2-1.1-3.3-0.7-4.1,2.3c-0.9,3.5-1.1,7.4,0.1,10.9c0.5,1.4,2.9,4.4,2.8,5.6c-0.2,2.2-2.6,3.4-2.2,6.3
					c0.4,3.1,3.1,5.1,3.8,7.8c0.6,2.5-0.5,5.6,0.1,8.4c0.7,3.2,2.4,6.2,3.6,9.2c3.1,7.9,5.9,16.4,6.4,24.9
					C66.7,484.9,66.2,480.5,66.1,478.2z"/>
				<path class="st43" d="M65.6,476c-1.9-15.4-6.8-32.9-18.6-43.6c-3.4-3.1-7.3-5.6-11.8-6.8c-0.8-0.2-5.2-1.5-6.1-0.7
					c-1.2,1.3,1.4,5.7,2.2,6.6c1.9,2.1,4.9,3.4,7.4,4.8c-6.1,6.7,8.3,12.6,12.3,15.9c-4.8,5,1.4,8.6,4.4,12.3
					c4.7,5.6,8.7,12.7,10.6,19.8C66.3,481.6,66.1,478.8,65.6,476z"/>
				<polygon class="st23" points="59.9,500.7 77.1,500.7 82.4,470.4 54,470.4 				"/>
				<polygon class="st46" points="57.5,500.7 74.7,500.7 80,470.4 51.5,470.4 				"/>
			</g>
			<g>
				<g>
					<rect x="240.4" y="496.4" class="st23" width="68.6" height="6.1"/>
					<polygon class="st23" points="271.9,498.3 246,498.3 220.1,416.5 239.8,416.5 					"/>
					<polygon class="st46" points="264.4,498.3 163.5,498.3 137.6,416.5 238.6,416.5 					"/>
					<rect x="162.1" y="496.4" class="st46" width="109.7" height="6.1"/>
					<path class="st47" d="M209,461.4c2.9,6.3,0.9,13-4.6,15.1c-5.5,2.1-12.2-1.3-15.2-7.6c-2.9-6.3-0.9-13,4.6-15.1
						C199.3,451.7,206.1,455.1,209,461.4z"/>
				</g>
			</g>
			<g>
				<g>
					<g>
						<path class="st23" d="M648.7,499h8.2c3.4,0,6.2-2.5,6.8-5.8l3.3-21h-28.2l3.3,21C642.5,496.5,645.3,499,648.7,499z"/>
						<g>
							<path class="st23" d="M631.5,485.2L631.5,485.2c-0.7-3.8,0.4-6.1,1.5-7.3c1.5-1.8,3.9-2.8,6.6-2.8c4.5,0,8.1,4.4,8.1,9.9
								c0,5.3-4.8,9.1-5,9.2l-0.3,0.2l-0.4,0c-0.3,0-0.6,0-0.9,0C636.1,494.5,632.6,491.2,631.5,485.2z M645.1,485
								c0-4-2.5-7.3-5.5-7.3c-1.9,0-3.6,0.7-4.6,1.9c-1,1.2-1.4,3-0.9,5.2l0,0c0.6,3.4,2.2,7.3,7.4,7.2
								C642.4,491.1,645.1,488.4,645.1,485z"/>
						</g>
					</g>
					<polygon class="st46" points="669.7,500.8 634,500.8 628.3,494.5 675.4,494.5 					"/>
				</g>
				<g>
					<g>
						<path class="st23" d="M427.1,499h-8.2c-3.4,0-6.2-2.5-6.8-5.8l-3.3-21h28.2l-3.3,21C433.3,496.5,430.5,499,427.1,499z"/>
						<g>
							<path class="st23" d="M434.7,494.5c-0.3,0-0.6,0-0.9,0l-0.4,0l-0.3-0.2c-0.2-0.2-5-3.9-5-9.2c0-5.5,3.6-9.9,8.1-9.9
								c2.7,0,5.1,1,6.6,2.8c1.1,1.3,2.2,3.6,1.5,7.3l0,0C443.2,491.2,439.7,494.5,434.7,494.5z M434.4,491.9
								c5.1,0.2,6.8-3.8,7.4-7.2l0,0c0.4-2.2,0.1-4-0.9-5.2c-1-1.2-2.7-1.9-4.6-1.9c-3,0-5.5,3.3-5.5,7.3
								C430.7,488.4,433.5,491.1,434.4,491.9z"/>
						</g>
					</g>
					<polygon class="st46" points="406.1,500.8 441.9,500.8 447.6,494.5 400.4,494.5 					"/>
				</g>
			</g>
		</g>
	</g>
</g>
</svg>
