<?xml version="1.0" encoding="utf-8"?>
<!-- Generator: Adobe Illustrator 21.1.0, SVG Export Plug-In . SVG Version: 6.00 Build 0)  -->
<svg version="1.1" id="Layer_1" xmlns="http://www.w3.org/2000/svg" xmlns:xlink="http://www.w3.org/1999/xlink" x="0px" y="0px"
	 viewBox="0 0 138 113" style="enable-background:new 0 0 138 113;" xml:space="preserve">
<style type="text/css">
	.st0{fill:#FEC997;}
	.st1{opacity:0.5;fill:#FEC997;}
	.st2{fill:#287AA8;}
	.st3{opacity:0.3;fill:#184984;}
	.st4{fill:#00598D;}
	.st5{opacity:0.3;fill:#398496;}
</style>
<g>
	<g>
		<path class="st0" d="M125,66.2c1.5,1.4,2.5,3.4,2.5,5.6c0,3.5-2.4,6.4-5.6,7.2c1.4,1.3,2.3,3.1,2.3,5.1v0.2c0,3.1-2.1,5.7-4.9,6.5
			c1.6,1.3,2.6,3.3,2.6,5.5V97c0,3.9-3.2,7-7,7h-39c0,0-10.4,0-12.4-2.2c-1.3-1.5-3.6-2.7-5.1-3.5c-0.8-0.4-1.4-0.6-1.4-0.6h-12
			V60.2c0,0,10.6-0.6,17-3.7c1.2-0.6,2.2-1.2,3-1.9c5.2-4.8,13.1-18,14.1-24.9c1.1-6.9-0.9-11.7,0-15.2C80.1,11,93.1,8.4,97.1,27
			c1.7,8.1,1.2,14.7,0.1,19.6c-0.3,1.1-0.5,2.1-0.8,3h25.5c1.7,0,3.3,0.5,4.6,1.3c2.4,1.5,4.1,4.2,4.1,7.3
			C130.4,61.8,128.2,64.9,125,66.2z"/>
	</g>
	<path class="st1" d="M62,56.5l-3.6,41.8c-0.8-0.4-1.4-0.6-1.4-0.6h-12V60.2C45.1,60.2,55.6,59.6,62,56.5z"/>
	<g>
		<path class="st2" d="M55.4,56.8v43.6c0,2-1.8,3.6-4,3.6H19c-2.5,0-4.4-2-4-4.3l4.1-21.2l4.3-22.4c0.3-1.7,2-3,4-3h23.9
			C53.6,53.1,55.4,54.7,55.4,56.8z"/>
	</g>
	<path class="st3" d="M16.7,91l-1.7,8.8c-0.4,2.2,1.5,4.3,4,4.3h32.3c2.2,0,4-1.6,4-3.6V91H16.7z"/>
	<ellipse class="st3" cx="29.2" cy="93.2" rx="4.4" ry="4"/>
	<ellipse class="st4" cx="28.1" cy="92.8" rx="4.4" ry="4"/>
	<path class="st5" d="M29.7,89.1c0.6,0.6,0.9,1.3,0.9,2.2c0,1.8-1.6,3.3-3.7,3.3c-1.4,0-2.6-0.7-3.2-1.8c0,0,0,0,0,0
		c0,2.2,2,4,4.4,4s4.4-1.8,4.4-4C32.5,91.1,31.3,89.7,29.7,89.1z"/>
	<path class="st1" d="M80.5,13c3.5,1.7,7.1,5.8,8.8,14.1c2.1,9.9,0.8,17.6-0.8,22.5v3.5H117c3.1,0,5.6,2.2,5.7,5c0,0,0,0.1,0,0.1
		c0,3.6-2.3,6.7-5.5,8c1.5,1.4,2.5,3.4,2.5,5.6c0,3.5-2.4,6.4-5.6,7.2c1.4,1.3,2.3,3.1,2.3,5.1v0.2c0,3.1-2.1,5.7-4.9,6.5
		c1.6,1.3,2.6,3.3,2.6,5.5V97c0,3.9-3.2,7-7,7h7.8c3.9,0,7-3.2,7-7v-0.7c0-2.2-1-4.2-2.6-5.5c2.8-0.8,4.9-3.4,4.9-6.5v-0.2
		c0-2-0.9-3.9-2.3-5.1c3.2-0.8,5.6-3.8,5.6-7.2c0-2.2-1-4.2-2.5-5.6c3.2-1.3,5.5-4.4,5.5-8c0-3.1-1.6-5.8-4.1-7.3v0c0,0,0,0,0,0
		c-0.2-0.1-0.3-0.2-0.5-0.3c0,0,0,0,0,0c-0.1-0.1-0.3-0.2-0.5-0.2c0,0-0.1,0-0.1-0.1c-0.1-0.1-0.3-0.1-0.4-0.2c0,0-0.1,0-0.1,0
		c-0.2-0.1-0.3-0.1-0.5-0.2c-0.1,0-0.1,0-0.2-0.1c-0.1,0-0.2-0.1-0.4-0.1c0,0-0.1,0-0.1,0c-0.2,0-0.3-0.1-0.5-0.1c0,0-0.1,0-0.1,0
		c-0.1,0-0.3,0-0.4,0c-0.1,0-0.1,0-0.2,0c-0.2,0-0.4,0-0.6,0H114H96.3c0.1-0.3,0.2-0.5,0.2-0.8c0-0.1,0.1-0.3,0.1-0.4
		c0-0.1,0.1-0.3,0.1-0.4c0-0.1,0.1-0.3,0.1-0.4c0.1-0.3,0.1-0.6,0.2-0.9l0,0c1.1-4.9,1.7-11.4-0.1-19.6C93.8,11.4,84,10.7,80.5,13"
		/>
</g>
</svg>
