<?xml version="1.0" encoding="utf-8"?>
<!-- Generator: Adobe Illustrator 21.1.0, SVG Export Plug-In . SVG Version: 6.00 Build 0)  -->
<svg version="1.1" id="Layer_1" xmlns="http://www.w3.org/2000/svg" xmlns:xlink="http://www.w3.org/1999/xlink" x="0px" y="0px"
	 viewBox="0 0 350.1 399.6" style="enable-background:new 0 0 350.1 399.6;" xml:space="preserve">
<style type="text/css">
	.st0{opacity:0.2;}
	.st1{font-family:'ArialMT';}
	.st2{font-size:11.9217px;}
	.st3{fill:#414042;}
	.st4{fill:#EBEBEB;}
	.st5{fill:#D1D1D1;}
	.st6{fill:#FFFFFF;}
	.st7{fill:#D1CFCD;}
	.st8{fill:#FAC471;}
	.st9{fill:#F5B13C;}
	.st10{fill:#5B5955;}
	.st11{fill:#FCF4DC;}
	.st12{fill:#C4845C;}
	.st13{fill:#874A21;}
</style>
<g>
	<g>
		<g class="st0">
			<path d="M260.9,11L22.8,11.1c-8.3,0-15,6.7-15,15L8,364.6c0,8.3,6.7,15,15,15l238.1-0.1c8.3,0,15-6.7,15-15L276,26
				C276,17.7,269.2,11,260.9,11z"/>
			<rect x="260.8" y="29.4" width="5" height="326.5"/>
			<rect x="265.8" y="32.5" width="5" height="321.5"/>
			<rect x="17.1" y="26.3" width="243.7" height="330.9"/>
			<path d="M78.4,66.8H55.5V43.9h22.9V66.8z M59.6,62.7h14.6V48.1H59.6V62.7z"/>
			<rect x="87.6" y="43.9" width="122.9" height="2.8"/>
			<rect x="87.6" y="54.7" width="122.9" height="2.8"/>
			<rect x="87.6" y="65.6" width="69.2" height="2.8"/>
			<path d="M246.1,66.7h-22.9V43.8h22.9V66.7z M227.3,62.6h14.6V48h-14.6V62.6z"/>
			<text transform="matrix(1 -6.199999e-04 6.199999e-04 1 63.8105 60.9956)" class="st1 st2">1</text>
			<path d="M78.4,114.1H55.5V91.2h22.9V114.1z M59.6,110h14.6V95.4H59.6V110z"/>
			<rect x="87.6" y="91.2" width="122.9" height="2.8"/>
			<rect x="87.6" y="102" width="122.9" height="2.8"/>
			<rect x="87.6" y="112.9" width="69.2" height="2.8"/>
			<path d="M246.1,114h-22.9V91.1h22.9V114z M227.3,109.9h14.6V95.3h-14.6V109.9z"/>
			<text transform="matrix(1 -6.199999e-04 6.199999e-04 1 63.8398 108.2964)" class="st1 st2">2</text>
			<path d="M78.4,161.4H55.5v-22.9h22.9V161.4z M59.7,157.3h14.6v-14.6H59.7V157.3z"/>
			<rect x="87.6" y="138.5" width="122.9" height="2.8"/>
			<rect x="87.6" y="149.3" width="122.9" height="2.8"/>
			<rect x="87.7" y="160.2" width="69.2" height="2.8"/>
			<path d="M246.1,161.3h-22.9v-22.9h22.9V161.3z M227.4,157.2H242v-14.6h-14.6V157.2z"/>
			<text transform="matrix(1 -6.199999e-04 6.199999e-04 1 63.8692 155.6011)" class="st1 st2">3</text>
			<path d="M78.5,208.8H55.6v-22.9h22.9V208.8z M59.7,204.6h14.6V190H59.7V204.6z"/>
			<rect x="87.7" y="185.8" width="122.9" height="2.8"/>
			<rect x="87.7" y="196.6" width="122.9" height="2.8"/>
			<rect x="87.7" y="207.5" width="69.2" height="2.8"/>
			<path d="M246.2,208.6h-22.9v-22.9h22.9V208.6z M227.4,204.5H242v-14.6h-14.6V204.5z"/>
			<text transform="matrix(1 -6.199999e-04 6.199999e-04 1 63.8985 202.9058)" class="st1 st2">4</text>
			<path d="M78.5,256.1H55.6v-22.9h22.9V256.1z M59.7,251.9h14.6v-14.6H59.7V251.9z"/>
			<rect x="87.7" y="233.1" width="122.9" height="2.8"/>
			<rect x="87.7" y="243.9" width="122.9" height="2.8"/>
			<rect x="87.7" y="254.8" width="69.2" height="2.8"/>
			<path d="M246.2,256h-22.9v-22.9h22.9V256z M227.4,251.8H242v-14.6h-14.6V251.8z"/>
			<text transform="matrix(1 -6.199999e-04 6.199999e-04 1 63.9278 250.2104)" class="st1 st2">5</text>
			<path d="M78.5,303.4H55.6v-22.9h22.9V303.4z M59.7,299.2h14.6v-14.6H59.7V299.2z"/>
			<rect x="87.7" y="280.4" width="122.9" height="2.8"/>
			<rect x="87.7" y="291.2" width="122.9" height="2.8"/>
			<rect x="87.7" y="302.1" width="69.2" height="2.8"/>
			<path d="M246.2,303.3h-22.9v-22.9h22.9V303.3z M227.5,299.1h14.6v-14.6h-14.6V299.1z"/>
			<text transform="matrix(1 -6.199999e-04 6.199999e-04 1 63.9572 297.5112)" class="st1 st2">6</text>
		</g>
		<g>
			<g>
				<g>
					<path class="st3" d="M257.9,8L19.8,8.1c-8.3,0-15,6.7-15,15L5,361.6c0,8.3,6.7,15,15,15l238.1-0.1c8.3,0,15-6.7,15-15L273,23
						C273,14.7,266.2,8,257.9,8z"/>
				</g>
				<rect x="257.8" y="26.4" class="st4" width="5" height="326.5"/>
				<rect x="262.8" y="29.5" class="st5" width="5" height="321.5"/>
				<rect x="14.1" y="23.3" class="st6" width="243.7" height="330.9"/>
				<g>
					<g>
						<path class="st7" d="M75.4,63.8H52.5V40.9h22.9V63.8z M56.6,59.7h14.6V45.1H56.6V59.7z"/>
					</g>
					<g>
						<rect x="84.6" y="40.9" class="st7" width="122.9" height="2.8"/>
						<rect x="84.6" y="51.7" class="st7" width="122.9" height="2.8"/>
						<rect x="84.6" y="62.6" class="st7" width="69.2" height="2.8"/>
					</g>
					<g>
						<path class="st7" d="M243.1,63.7h-22.9V40.8h22.9V63.7z M224.3,59.6h14.6V45h-14.6V59.6z"/>
					</g>
					<text transform="matrix(1 -6.199999e-04 6.199999e-04 1 60.8105 57.9956)" class="st7 st1 st2">1</text>
				</g>
				<g>
					<g>
						<path class="st7" d="M75.4,111.1H52.5V88.2h22.9V111.1z M56.6,107h14.6V92.4H56.6V107z"/>
					</g>
					<g>
						<rect x="84.6" y="88.2" class="st7" width="122.9" height="2.8"/>
						<rect x="84.6" y="99" class="st7" width="122.9" height="2.8"/>
						<rect x="84.6" y="109.9" class="st7" width="69.2" height="2.8"/>
					</g>
					<g>
						<path class="st7" d="M243.1,111h-22.9V88.1h22.9V111z M224.3,106.9h14.6V92.3h-14.6V106.9z"/>
					</g>
					<text transform="matrix(1 -6.199999e-04 6.199999e-04 1 60.8398 105.2964)" class="st7 st1 st2">2</text>
				</g>
				<g>
					<g>
						<path class="st7" d="M75.4,158.4H52.5v-22.9h22.9V158.4z M56.7,154.3h14.6v-14.6H56.7L56.7,154.3z"/>
					</g>
					<g>
						<rect x="84.6" y="135.5" class="st7" width="122.9" height="2.8"/>
						<rect x="84.6" y="146.3" class="st7" width="122.9" height="2.8"/>
						<rect x="84.7" y="157.2" class="st7" width="69.2" height="2.8"/>
					</g>
					<g>
						<path class="st7" d="M243.1,158.3h-22.9v-22.9h22.9V158.3z M224.4,154.2H239v-14.6h-14.6V154.2z"/>
					</g>
					<text transform="matrix(1 -6.199999e-04 6.199999e-04 1 60.8692 152.6011)" class="st7 st1 st2">3</text>
				</g>
				<g>
					<g>
						<path class="st7" d="M75.5,205.8H52.6v-22.9h22.9V205.8z M56.7,201.6h14.6V187H56.7L56.7,201.6z"/>
					</g>
					<g>
						<rect x="84.7" y="182.8" class="st7" width="122.9" height="2.8"/>
						<rect x="84.7" y="193.6" class="st7" width="122.9" height="2.8"/>
						<rect x="84.7" y="204.5" class="st7" width="69.2" height="2.8"/>
					</g>
					<g>
						<path class="st7" d="M243.2,205.6h-22.9v-22.9h22.9V205.6z M224.4,201.5H239v-14.6h-14.6V201.5z"/>
					</g>
					<text transform="matrix(1 -6.199999e-04 6.199999e-04 1 60.8985 199.9058)" class="st7 st1 st2">4</text>
				</g>
				<g>
					<g>
						<path class="st7" d="M75.5,253.1H52.6v-22.9h22.9V253.1z M56.7,248.9h14.6v-14.6H56.7L56.7,248.9z"/>
					</g>
					<g>
						<rect x="84.7" y="230.1" class="st7" width="122.9" height="2.8"/>
						<rect x="84.7" y="240.9" class="st7" width="122.9" height="2.8"/>
						<rect x="84.7" y="251.8" class="st7" width="69.2" height="2.8"/>
					</g>
					<g>
						<path class="st7" d="M243.2,253h-22.9v-22.9h22.9V253z M224.4,248.8H239v-14.6h-14.6V248.8z"/>
					</g>
					<text transform="matrix(1 -6.199999e-04 6.199999e-04 1 60.9278 247.2104)" class="st7 st1 st2">5</text>
				</g>
				<g>
					<g>
						<path class="st7" d="M75.5,300.4H52.6v-22.9h22.9V300.4z M56.7,296.2h14.6v-14.6H56.7L56.7,296.2z"/>
					</g>
					<g>
						<rect x="84.7" y="277.4" class="st7" width="122.9" height="2.8"/>
						<rect x="84.7" y="288.2" class="st7" width="122.9" height="2.8"/>
						<rect x="84.7" y="299.1" class="st7" width="69.2" height="2.8"/>
					</g>
					<g>
						<path class="st7" d="M243.2,300.3h-22.9v-22.9h22.9V300.3z M224.5,296.1h14.6v-14.6h-14.6V296.1z"/>
					</g>
					<text transform="matrix(1 -6.199999e-04 6.199999e-04 1 60.9572 294.5112)" class="st7 st1 st2">6</text>
				</g>
			</g>
		</g>
	</g>
	<g>
		<g class="st0">
			<rect x="115.9" y="197.6" transform="matrix(0.3152 -0.949 0.949 0.3152 -0.7783 408.0272)" width="332.8" height="14"/>
			<rect x="99.7" y="189" transform="matrix(0.3152 -0.949 0.949 0.3152 -6.7921 388.9509)" width="332.8" height="20.3"/>
			<polygon points="207.2,399.6 217.4,387.5 206.4,383.9 			"/>
			<polygon points="204.8,354.1 206.4,383.9 217.4,387.5 236.6,364.7 			"/>
			<rect x="322.8" y="23.6" transform="matrix(0.3152 -0.949 0.949 0.3152 184.5715 337.3882)" width="6.6" height="34.3"/>
			<rect x="319.7" y="10.6" transform="matrix(0.3152 -0.949 0.949 0.3152 199.9799 332.5969)" width="21.6" height="34.3"/>
		</g>
		<g>
			<g>
				<g>
					
						<rect x="112.9" y="194.6" transform="matrix(0.3152 -0.949 0.949 0.3152 1.447639e-02 403.1259)" class="st8" width="332.8" height="14"/>
					
						<rect x="96.7" y="186" transform="matrix(0.3152 -0.949 0.949 0.3152 -5.9993 384.0496)" class="st9" width="332.8" height="20.3"/>
				</g>
				<polygon class="st10" points="204.2,396.6 214.4,384.5 203.4,380.9 				"/>
				<polygon class="st11" points="201.8,351.1 203.4,380.9 214.4,384.5 233.6,361.7 				"/>
				
					<rect x="319.8" y="20.6" transform="matrix(0.3152 -0.949 0.949 0.3152 185.3642 332.4869)" class="st12" width="6.6" height="34.3"/>
				
					<rect x="316.7" y="7.6" transform="matrix(0.3152 -0.949 0.949 0.3152 200.7727 327.6956)" class="st13" width="21.6" height="34.3"/>
			</g>
		</g>
	</g>
</g>
</svg>
