<?xml version="1.0" encoding="utf-8"?>
<!-- Generator: Adobe Illustrator 21.1.0, SVG Export Plug-In . SVG Version: 6.00 Build 0)  -->
<svg version="1.1" id="Layer_1" xmlns="http://www.w3.org/2000/svg" xmlns:xlink="http://www.w3.org/1999/xlink" x="0px" y="0px"
	 viewBox="0 0 433.5 355.5" style="enable-background:new 0 0 433.5 355.5;" xml:space="preserve">
<style type="text/css">
	.st0{fill:#35B1E0;}
	.st1{fill:#287AA7;}
	.st2{fill:#FFE7DE;}
	.st3{font-family:'Roboto-Medium';}
	.st4{font-size:32.9281px;}
	.st5{fill:#20627F;}
	.st6{fill:#FFFFFF;}
	.st7{fill:#CF6845;}
	.st8{clip-path:url(#SVGID_2_);}
	.st9{fill:#F2D29D;}
	.st10{fill:#E3C593;}
	.st11{fill:#EDCD99;}
	.st12{fill:#FFDCA4;}
	.st13{fill:#5E523D;}
	.st14{fill:#D6D6D6;}
	.st15{fill:#2B84A3;}
	.st16{fill:#F0F0F0;}
	.st17{fill:#4B5669;}
	.st18{fill:#616F87;}
	.st19{opacity:7.000000e-02;clip-path:url(#SVGID_2_);}
	.st20{fill:#EBAB48;}
</style>
<g>
	<g>
		<path class="st0" d="M285.5,53.5c-0.1,0.1-0.1,0.2-0.2,0.3c-0.8,1-1.4,2.2-1.9,3.3l1.5,1.5c-0.4,1.1-0.6,2.2-0.6,3.3l-1.9,1
			c0,1.3,0.3,2.6,0.7,3.9l2.1,0.1c0.5,1.1,1.1,2.2,1.9,3.2l-0.8,2c0.4,0.5,0.9,0.9,1.4,1.3c0.5,0.4,1,0.8,1.6,1.1l1.7-1.3
			c1.1,0.6,2.3,0.9,3.5,1.1l0.6,2c1.3,0.1,2.6,0,3.9-0.3l0.5-2.1c1.1-0.3,2.1-0.8,3-1.4l1.8,1.1c1-0.7,1.9-1.6,2.8-2.7
			c0.1-0.1,0.1-0.2,0.2-0.3l-1-2c0.5-0.8,0.9-1.6,1.2-2.5l2.1-0.3c0.4-1.4,0.5-2.9,0.4-4.4l-2.1-0.9c-0.1-0.7-0.3-1.5-0.5-2.2
			l1.5-1.6c-0.6-1.4-1.4-2.7-2.5-3.8l-2.1,0.6c-0.3-0.2-0.5-0.5-0.8-0.7c-0.3-0.2-0.6-0.4-0.8-0.6l0.1-2.2c-1.4-0.7-2.8-1.2-4.3-1.5
			l-1.2,1.8c-0.8-0.1-1.5-0.1-2.3,0l-1.4-1.8c-1.4,0.3-2.9,0.8-4.2,1.5l0.2,2.1c-0.8,0.5-1.5,1.1-2.1,1.7L285.5,53.5z M301.4,55.8
			c3.6,2.8,4.3,8.1,1.4,11.7c-2.8,3.6-8.1,4.3-11.7,1.4c-3.6-2.8-4.3-8.1-1.4-11.7C292.5,53.6,297.7,52.9,301.4,55.8z"/>
		<g>
			<path class="st0" d="M257,59.3c-0.1,0.1-0.1,0.2-0.2,0.3c-0.8,1-1.4,2.2-1.9,3.3l1.5,1.5c-0.4,1.1-0.6,2.2-0.6,3.3l-1.9,1
				c0,1.3,0.3,2.6,0.7,3.9l2.1,0.1c0.5,1.1,1.1,2.2,1.9,3.2l-0.8,2c0.4,0.5,0.9,0.9,1.4,1.3c0.5,0.4,1,0.8,1.6,1.1l1.7-1.3
				c1.1,0.6,2.3,0.9,3.5,1.1l0.6,2c1.3,0.1,2.6,0,3.9-0.3l0.5-2.1c1.1-0.3,2.1-0.8,3-1.4l1.8,1.1c1-0.7,1.9-1.6,2.8-2.7
				c0.1-0.1,0.1-0.2,0.2-0.3l-1-2c0.5-0.8,0.9-1.6,1.2-2.5l2.1-0.3c0.4-1.4,0.5-2.9,0.4-4.4l-2.1-0.9c-0.1-0.7-0.3-1.5-0.5-2.2
				l1.5-1.6c-0.6-1.4-1.4-2.7-2.5-3.8l-2.1,0.6c-0.3-0.2-0.5-0.5-0.8-0.7c-0.3-0.2-0.6-0.4-0.8-0.6l0.1-2.2
				c-1.4-0.7-2.8-1.2-4.3-1.5l-1.2,1.8c-0.8-0.1-1.5-0.1-2.3,0l-1.4-1.8c-1.4,0.3-2.9,0.8-4.2,1.5l0.2,2.1c-0.8,0.5-1.5,1.1-2.1,1.7
				L257,59.3z M272.9,61.5c3.6,2.8,4.3,8.1,1.4,11.7c-2.8,3.6-8.1,4.3-11.7,1.4c-3.6-2.8-4.3-8.1-1.4-11.7
				C264.1,59.3,269.3,58.7,272.9,61.5z"/>
			<path class="st0" d="M286.8,82.5c-0.1,0.1-0.1,0.2-0.2,0.3c-0.8,1-1.4,2.2-1.9,3.3l1.5,1.5c-0.4,1.1-0.6,2.2-0.6,3.3l-1.9,1
				c0,1.3,0.3,2.6,0.7,3.9l2.1,0.1c0.5,1.1,1.1,2.2,1.9,3.2l-0.8,2c0.4,0.5,0.9,0.9,1.4,1.3c0.5,0.4,1,0.8,1.6,1.1l1.7-1.3
				c1.1,0.6,2.3,0.9,3.5,1.1l0.6,2c1.3,0.1,2.6,0,3.9-0.3l0.5-2.1c1.1-0.3,2.1-0.8,3-1.4l1.8,1.1c1-0.7,1.9-1.6,2.8-2.7
				c0.1-0.1,0.1-0.2,0.2-0.3l-1-2c0.5-0.8,0.9-1.6,1.2-2.5l2.1-0.3c0.4-1.4,0.5-2.9,0.4-4.4l-2.1-0.9c-0.1-0.7-0.3-1.5-0.5-2.2
				l1.5-1.6c-0.6-1.4-1.4-2.7-2.5-3.8l-2.1,0.6c-0.3-0.2-0.5-0.5-0.8-0.7c-0.3-0.2-0.6-0.4-0.8-0.6l0.1-2.2
				c-1.4-0.7-2.8-1.2-4.3-1.5l-1.2,1.8c-0.8-0.1-1.5-0.1-2.3,0l-1.4-1.8c-1.4,0.3-2.9,0.8-4.2,1.5l0.2,2.1c-0.8,0.5-1.5,1.1-2.1,1.7
				L286.8,82.5z M302.7,84.8c3.6,2.8,4.3,8.1,1.4,11.7c-2.8,3.6-8.1,4.3-11.7,1.4c-3.6-2.8-4.3-8.1-1.4-11.7S299.1,81.9,302.7,84.8z
				"/>
		</g>
	</g>
	<g>
		<path class="st0" d="M50.7,161.1c-2.7-12.6,9.4-26,27.1-29.8c17.7-3.8,34.3,3.3,37,15.9c2.7,12.6-9.4,26-27.1,29.8
			c-4.3,0.9-8.6,1.2-12.6,0.9l-9.7,7.8l2-9.2C58.8,174,52.3,168.5,50.7,161.1z"/>
		<path class="st1" d="M130.8,134.1c-2.7-12.6-19.3-19.8-37-15.9S63.9,135.4,66.6,148c2.7,12.6,19.3,19.8,37,15.9
			c4.3-0.9,8.4-2.5,11.9-4.4l12,3.1l-5.6-7.5C128.8,149.2,132.4,141.5,130.8,134.1z"/>
		<text transform="matrix(0.9773 -0.2117 0.2117 0.9773 93.7386 152.0939)" class="st2 st3 st4">?</text>
	</g>
	<g>
		<path class="st5" d="M115.4,291.1l-17.8,2c-2.7,0.3-5.2-1.7-5.5-4.4l-4.2-37.4c-0.3-2.7,1.7-5.2,4.4-5.5l17.8-2
			c2.7-0.3,5.2,1.7,5.5,4.4l4.2,37.4C120.1,288.3,118.1,290.8,115.4,291.1z"/>
		<path class="st0" d="M115.1,288.9l-17.8,2c-2.7,0.3-5.2-1.7-5.5-4.4l-4.2-37.4c-0.3-2.7,1.7-5.2,4.4-5.5l17.8-2
			c2.7-0.3,5.2,1.7,5.5,4.4l4.2,37.4C119.8,286.1,117.9,288.6,115.1,288.9z"/>
		
			<rect x="91.4" y="248.1" transform="matrix(0.9937 -0.1123 0.1123 0.9937 -29.2471 13.3132)" class="st6" width="24.4" height="36.4"/>
		
			<ellipse transform="matrix(0.9937 -0.1123 0.1123 0.9937 -31.5908 13.7133)" class="st5" cx="105.9" cy="287.2" rx="1.8" ry="1.8"/>
	</g>
	<path class="st0" d="M336.8,199.1l-4.3,4l7.8-0.5c2,1.6,4.2,3,6.8,4.1c10.5,4.5,21.5,2,24.7-5.4c3.2-7.5-2.7-17.1-13.2-21.6
		c-10.5-4.5-21.5-2-24.7,5.4C332,189.6,333.3,194.7,336.8,199.1z M360.3,196.7c0.6-1.4,2.2-2,3.5-1.4c1.4,0.6,2,2.2,1.4,3.5
		c-0.6,1.4-2.2,2-3.5,1.4C360.3,199.6,359.7,198.1,360.3,196.7z M350.8,192.7c0.6-1.4,2.2-2,3.5-1.4c1.4,0.6,2,2.2,1.4,3.5
		c-0.6,1.4-2.2,2-3.5,1.4C350.9,195.6,350.2,194,350.8,192.7z M341.3,188.6c0.6-1.4,2.2-2,3.5-1.4c1.4,0.6,2,2.2,1.4,3.5
		c-0.6,1.4-2.2,2-3.5,1.4C341.4,191.5,340.7,190,341.3,188.6z"/>
	<path class="st0" d="M56.3,197.8c-9.9,5.3-13.7,17.6-8.5,27.5c5.3,9.9,17.6,13.7,27.5,8.5c9.9-5.3,13.7-17.6,8.5-27.5
		C78.6,196.4,66.3,192.6,56.3,197.8z M81.2,206.4l-5.9,3.1c-3.2-5.7-7.5-9.8-11.6-11.5C70.5,197.1,77.4,200.3,81.2,206.4z
		 M56.5,200.6l7.8,14.7l-6.9,3.6C53.7,211.4,53.4,203.6,56.5,200.6z M65.4,217.4l7.8,14.7c-4.2,0.9-10.5-3.8-14.7-11.1L65.4,217.4z
		 M75.3,231l-7.8-14.7l6.9-3.6C78,220.3,78.4,228.1,75.3,231z M66.4,214.2l-7.8-14.7c4.2-0.9,10.5,3.8,14.7,11.1L66.4,214.2z
		 M52.3,204c-0.9,4.3,0.1,10.2,3,16.1l-5.9,3.1C46.5,216.7,47.8,209.2,52.3,204z M50.5,225.3l5.9-3.1c3.2,5.7,7.5,9.8,11.6,11.5
		C61.2,234.5,54.3,231.4,50.5,225.3z M79.4,227.6c0.9-4.3-0.1-10.2-3-16.1l5.9-3.1C85.2,215,83.9,222.5,79.4,227.6z"/>
	<g>
		<g>
			<path class="st5" d="M330.5,273.5l-22.1-7.3c-3.4-1.1-5.2-4.8-4.1-8.2l10.4-31.4c1.1-3.4,4.8-5.2,8.2-4.1l22.1,7.3
				c3.4,1.1,5.2,4.8,4.1,8.2l-10.4,31.4C337.5,272.8,333.9,274.6,330.5,273.5z"/>
			<path class="st1" d="M333.2,266.2l12-36.3l-24.6-8.2c-2.1-0.7-4.4,0.4-5.1,2.6l-11.9,36c-0.7,2.1,0.4,4.4,2.6,5.1l26.7,8.8
				c2.1,0.7,4.4-0.4,5.1-2.6l1.2-3.6L333.2,266.2z"/>
			<g>
				<path class="st5" d="M316.6,229.3l-5-1.7c-0.6-0.2-0.9-0.8-0.7-1.3l0,0c0.2-0.6,0.8-0.9,1.3-0.7l5,1.7c0.6,0.2,0.9,0.8,0.7,1.3
					l0,0C317.8,229.2,317.2,229.5,316.6,229.3z"/>
				<path class="st5" d="M315.2,233.5l-5-1.7c-0.6-0.2-0.9-0.8-0.7-1.3l0,0c0.2-0.6,0.8-0.8,1.3-0.7l5,1.7c0.6,0.2,0.9,0.8,0.7,1.3
					l0,0C316.3,233.4,315.8,233.7,315.2,233.5z"/>
				<path class="st5" d="M313.8,237.8l-5-1.7c-0.6-0.2-0.9-0.8-0.7-1.3l0,0c0.2-0.6,0.8-0.8,1.3-0.7l5,1.7c0.6,0.2,0.9,0.8,0.7,1.3
					l0,0C314.9,237.7,314.3,238,313.8,237.8z"/>
				<path class="st5" d="M312.4,242l-5-1.7c-0.6-0.2-0.9-0.8-0.7-1.3l0,0c0.2-0.6,0.8-0.9,1.3-0.7l5,1.7c0.6,0.2,0.9,0.8,0.7,1.3
					l0,0C313.5,241.9,312.9,242.2,312.4,242z"/>
				<path class="st5" d="M311,246.3l-5-1.7c-0.6-0.2-0.8-0.8-0.7-1.3l0,0c0.2-0.6,0.8-0.9,1.3-0.7l5,1.7c0.6,0.2,0.9,0.8,0.7,1.3
					l0,0C312.1,246.1,311.5,246.4,311,246.3z"/>
				<path class="st5" d="M309.6,250.5l-5-1.7c-0.6-0.2-0.9-0.8-0.7-1.3l0,0c0.2-0.6,0.8-0.9,1.3-0.7l5,1.7c0.6,0.2,0.9,0.8,0.7,1.3
					l0,0C310.7,250.4,310.1,250.7,309.6,250.5z"/>
				<path class="st5" d="M308.2,254.7l-5-1.7c-0.6-0.2-0.9-0.8-0.7-1.3l0,0c0.2-0.6,0.8-0.8,1.3-0.7l5,1.7c0.6,0.2,0.9,0.8,0.7,1.3
					l0,0C309.3,254.6,308.7,254.9,308.2,254.7z"/>
				<path class="st5" d="M306.8,259l-5-1.7c-0.6-0.2-0.9-0.8-0.7-1.3l0,0c0.2-0.6,0.8-0.8,1.3-0.7l5,1.7c0.6,0.2,0.9,0.8,0.7,1.3
					l0,0C307.9,258.9,307.3,259.2,306.8,259z"/>
			</g>
		</g>
		<g>
			<path class="st7" d="M330.3,259.3C330.3,259.3,330.3,259.3,330.3,259.3C330.3,259.3,330.3,259.3,330.3,259.3z"/>
			<path class="st7" d="M325.6,235.9C325.6,235.9,325.6,235.9,325.6,235.9L325.6,235.9z"/>
			<path class="st2" d="M320,238c-1.3,1.7-1.7,3.9-1.6,6c0.1,1.4,0.4,2.8,0.7,4.2c0.2,0.7,0.3,1.5,0.4,2.2c0.2,1.4,0.5,2.8,1,4.2
				c0.7,2,2,3.9,3.8,4.9c1.8,1,4.3,1.1,6-0.2c0,0,0,0,0,0l-1.2-6.1c-1.1-0.3-2-0.2-3.1,0.1c-0.9-1.5-1.5-3.2-1.8-5
				c-0.4-1.7-0.5-3.5-0.2-5.3c1.1-0.1,2.1-0.3,2.9-1.1l-1.2-6.1c0,0,0,0,0,0C323.5,235.3,321.3,236.3,320,238z"/>
		</g>
	</g>
	<g>
		<polygon class="st0" points="164.6,72.4 175.1,54.9 174.2,52.9 143.6,67.4 144.5,69.4 		"/>
		<polygon class="st0" points="165.3,73.7 145.2,70.7 153.5,88.4 184.1,74 175.8,56.3 		"/>
	</g>
	<g>
		<g>
			<defs>
				<path id="SVGID_1_" d="M291.7,163.2c0-45.4-36.8-82.2-82.2-82.2c-45.4,0-82.2,36.8-82.2,82.2c0,6.2,0.7,12.2,2,17.9
					c-1.3,5.8-2,11.8-2,17.9c0,45.4,36.8,82.2,82.2,82.2c45.4,0,82.2-36.8,82.2-82.2c0-6.2-0.7-12.2-2-17.9
					C291,175.4,291.7,169.4,291.7,163.2z"/>
			</defs>
			<clipPath id="SVGID_2_">
				<use xlink:href="#SVGID_1_"  style="overflow:visible;"/>
			</clipPath>
			<g class="st8">
				<g>
					<rect x="186.4" y="176.7" class="st9" width="46.4" height="53.3"/>
				</g>
				<g>
					<path class="st10" d="M186.4,206.4c1.4,1.5,3.1,2.8,4.9,4l13.1,8c7.5,4.5,16.8,4.5,24.3,0l4.1-2.5v-39.1h-46.4V206.4z"/>
				</g>
				<g>
					<g>
						<path class="st11" d="M180.3,183.1c-4.3-1.5-6.5-6.3-8.4-10.7c-1.7-4-3.4-8.1-3.7-12.5c-0.2-2,0.1-4.2,1.5-5.5
							c1.1-1,2.7-1.1,4.2-0.8c1.4,0.4,2.7,1.2,3.9,2C185.5,160.8,184.1,174.4,180.3,183.1z"/>
					</g>
					<g>
						<path class="st11" d="M241,182.2c4.3-1.5,6.5-6.3,8.4-10.7c1.7-4,3.4-8.1,3.7-12.5c0.2-2-0.1-4.2-1.5-5.5
							c-1.1-1-2.7-1.1-4.2-0.8c-1.4,0.4-2.7,1.2-3.9,2C235.7,159.9,237.2,173.5,241,182.2z"/>
					</g>
					<g>
						<path class="st12" d="M234.5,202.8l-12.4,8c-7.1,4.5-16,4.5-23.1,0l-12.4-8c-6.6-4.2-10.7-11.8-10.7-20v-49.2h69.3v49.2
							C245.2,191,241.1,198.6,234.5,202.8z"/>
					</g>
					<g>
						<path class="st13" d="M244.3,171.6c-0.3-5.6-1.8-11.5-3.2-16.9c-19.4-0.9-38-7-54.6-17.5c-0.1,7.7-1.9,15.3-5.2,22.2
							c-2,4.2-4.6,8.5-4.1,13.1c-1.9-4.3-3.5-8.1-5.4-12.4c-2.3-5-4.5-10.1-5.7-15.5c-1.2-5.4-1.3-11.2,0.7-16.4
							c2.4-6,7.8-10.6,13.8-11.8c4-7.3,11.4-12.7,19.1-15c7.7-2.2,15.9-2.1,23.8-1.1c9.5,1.2,19.8,4.1,25.4,12.3
							c4,5.8,5,13.2,4.9,20.3C253.8,146.6,250.6,159.9,244.3,171.6z"/>
					</g>
				</g>
				<g>
					<g>
						<path class="st14" d="M209.6,226.5l-23.1-12.3l-6.7,6.1l-18.6,8c-11,4.7-19.5,13.9-23.3,25.2l-3.7,27.3h75.5V226.5z"/>
					</g>
					<g>
						<path class="st14" d="M209.6,226.5l23.1-12.3l6.7,6.1l18.6,8c11,4.7,19.5,13.9,23.3,25.2l3.7,27.3h-75.5V226.5z"/>
					</g>
					<g>
						<polygon class="st15" points="209.6,231.5 198.2,274.1 200.4,280.8 218.7,280.8 221,274.1 						"/>
					</g>
					<g>
						<path class="st0" d="M207.5,244.8l-7.4-12.8c-0.9-1.6,0.2-3.6,2.1-3.6H217c1.8,0,3,2,2.1,3.6l-7.4,12.8
							C210.7,246.4,208.4,246.4,207.5,244.8z"/>
					</g>
					<g>
						<polygon class="st16" points="239.4,220.3 246.9,223.6 230.6,256.2 209.6,226.5 232.7,214.2 						"/>
					</g>
					<g>
						<path class="st17" d="M285,280.8h-66.3l20.7-60.5l18.6,8c11,4.7,19.5,13.9,23.3,25.2L285,280.8z"/>
					</g>
					<g>
						<path class="st18" d="M257,227.9c-8.3,8-16.1,15.5-16.1,15.5l7.2,7.2l-20.3,30.2h-9.1l20.7-60.5L257,227.9z"/>
					</g>
					<g>
						<polygon class="st16" points="179.7,220.3 172.2,223.6 188.5,256.2 209.6,226.5 186.4,214.2 						"/>
					</g>
					<g>
						<path class="st17" d="M134.1,280.8h66.3l-20.7-60.5l-18.6,8c-11,4.7-19.5,13.9-23.3,25.2L134.1,280.8z"/>
					</g>
					<g>
						<path class="st18" d="M162.1,227.9c8.3,8,16.1,15.5,16.1,15.5l-7.2,7.2l20.3,30.2h9.1l-20.7-60.5L162.1,227.9z"/>
					</g>
				</g>
				<g>
					<path class="st5" d="M170.6,182.2h-5.1v-30.2c0-24.9,20.2-45.1,45.1-45.1s45.1,20.2,45.1,45.1V181h-5.1v-28.9
						c0-22-17.9-40-40-40c-22,0-40,17.9-40,40V182.2z"/>
				</g>
				<g>
					<g>
						<path class="st0" d="M168.1,182.9h-6c-1.8,0-3.3-1.5-3.3-3.3v-24.2c0-1.8,1.5-3.3,3.3-3.3h6V182.9z"/>
					</g>
					<g>
						<path class="st5" d="M169.5,185.3l4.8,0c0.7,0,1.3-0.6,1.3-1.3v-33.1c0-0.7-0.6-1.3-1.3-1.3h-4.8c-0.7,0-1.3,0.6-1.3,1.3V184
							C168.1,184.7,168.7,185.3,169.5,185.3z"/>
					</g>
				</g>
				<g>
					<path class="st5" d="M215.4,208.3c-1.1,0-2.1-0.7-2.5-1.8c-0.4-1.4,0.4-2.8,1.7-3.2l9.2-2.8c13.2-4,23.5-14.2,27.6-27.3
						c0.4-1.3,1.9-2.1,3.2-1.7c1.4,0.4,2.1,1.9,1.7,3.2c-4.6,14.7-16.2,26.2-31,30.7l-9.2,2.8C215.9,208.2,215.6,208.3,215.4,208.3z
						"/>
				</g>
				<g>
					<g>
						<path class="st0" d="M253,152h6c1.8,0,3.3,1.5,3.3,3.3v24.2c0,1.8-1.5,3.3-3.3,3.3h-6V152z"/>
					</g>
					<g>
						<path class="st5" d="M251.6,149.5h-4.8c-0.7,0-1.3,0.6-1.3,1.3V184c0,0.7,0.6,1.3,1.3,1.3h4.8c0.7,0,1.3-0.6,1.3-1.3v-33.1
							C253,150.1,252.4,149.5,251.6,149.5z"/>
					</g>
				</g>
			</g>
			<path class="st19" d="M258.1,227.9l-0.9-0.4l-17.6-7.6l-6.6-6.1v-10.3l1.8-1.1c2.1-1.3,3.9-3,5.4-4.9c4.6-3.5,8.5-7.8,11.6-12.7
				c0.9-0.3,1.5-1.1,1.5-2v-0.4h0c5.1,0,9.3-4.2,9.3-9.3v-12.3c0-4.2-2.8-7.8-6.7-8.9v-0.3c0-4.6-0.7-9-2-13.2
				c0.1-1.9,0.2-3.8,0.2-5.8c0-7.1-1-14.6-4.9-20.3c-5.6-8.2-15.9-11.1-25.4-12.3c-4.6-0.6-9.3-0.9-14-0.6v180.9h9.1h9.1h57.2
				l-3.7-27.3C277.5,241.8,269.1,232.7,258.1,227.9z M245.3,182.5v-3.7c0.1-0.1,0.2-0.2,0.3-0.3v4.4c0,0.5,0.2,0.9,0.4,1.3
				c-0.3,0.4-0.6,0.8-0.9,1.2C245.2,184.4,245.3,183.4,245.3,182.5z"/>
		</g>
	</g>
	<g>
		<g>
			<ellipse transform="matrix(0.2351 -0.972 0.972 0.2351 97.5158 408.6734)" class="st1" cx="308.4" cy="142.4" rx="23" ry="23"/>
		</g>
		<g>
			
				<ellipse transform="matrix(0.2351 -0.972 0.972 0.2351 97.5157 408.6733)" class="st6" cx="308.4" cy="142.4" rx="19.2" ry="19.2"/>
		</g>
		<g>
			<g>
				<path class="st0" d="M293.8,138.8C293.8,138.8,293.8,138.8,293.8,138.8l-2.4-0.7c0,0,0,0,0,0.1c-0.2,0.6-0.3,1.3-0.3,1.9
					l2.5,0.6C293.5,140.1,293.6,139.5,293.8,138.8z"/>
			</g>
			<g>
				<path class="st0" d="M323.1,145.9c-0.2,0.6-0.3,1.2-0.6,1.8l2.5,0.6c0.2-0.6,0.4-1.2,0.6-1.8c0,0,0,0,0-0.1L323.1,145.9
					C323.1,145.9,323.1,145.9,323.1,145.9z"/>
			</g>
			<g>
				<path class="st0" d="M311.5,125.1l-0.6,2.5c0.3,0.1,0.7,0.1,1,0.2c0.3,0.1,0.6,0.2,0.9,0.2l0.6-2.5c-0.3-0.1-0.6-0.2-0.9-0.2
					C312.2,125.2,311.9,125.1,311.5,125.1z"/>
			</g>
			<g>
				<path class="st0" d="M305.2,159.7l0.6-2.5c-0.3-0.1-0.6-0.1-0.9-0.2c-0.3-0.1-0.7-0.2-1-0.3l-0.6,2.5c0.3,0.1,0.7,0.2,1,0.3
					C304.6,159.6,304.9,159.6,305.2,159.7z"/>
			</g>
		</g>
		<g>
			<g>
				<path class="st0" d="M301.8,144.8l-5.8-1.4l0.2-1l3.6-2.4c0.5-0.4,0.9-0.7,1.2-0.9c0.2-0.3,0.4-0.6,0.5-0.9
					c0.1-0.4,0.1-0.8-0.1-1.1c-0.2-0.3-0.4-0.5-0.8-0.6c-0.5-0.1-0.9-0.1-1.2,0.2c-0.3,0.2-0.5,0.6-0.7,1.1l-1.4-0.3
					c0.1-0.5,0.4-1,0.7-1.3c0.3-0.4,0.8-0.6,1.3-0.7c0.5-0.1,1-0.1,1.6,0c0.8,0.2,1.4,0.6,1.8,1.1c0.4,0.5,0.5,1.2,0.3,1.9
					c-0.1,0.4-0.3,0.8-0.7,1.3c-0.4,0.4-0.9,0.8-1.6,1.3l-2.6,1.7l4,1L301.8,144.8z"/>
				<path class="st0" d="M308.4,143.2l1.1,0.3l-0.3,1.1l-1.1-0.3l-0.5,1.9l-1.4-0.3l0.5-1.9l-3.7-0.9l0.2-0.9l5.1-4.9l1.5,0.4
					L308.4,143.2z M304.8,142.3l2.2,0.5l0.9-3.6l-0.2,0.2L304.8,142.3z"/>
				<path class="st0" d="M310,147.6l-1.1-0.3l5.6-8.5l1.1,0.3L310,147.6z"/>
				<path class="st0" d="M322.1,141.5l-5.3,6.9l-1.5-0.4l5.2-6.6l-4.4-1.1l0.3-1.1l5.9,1.4L322.1,141.5z"/>
			</g>
			<g>
				<path class="st0" d="M297.8,148.3l-0.4-0.1l0.3-1.1l-1.1-0.3l-0.3,1.1l-0.4-0.1l0.6-2.6l0.4,0.1l-0.3,1.1l1.1,0.3l0.3-1.1
					l0.4,0.1L297.8,148.3z"/>
				<path class="st0" d="M298.5,147.4c0-0.2,0.1-0.3,0.2-0.5c0.1-0.1,0.2-0.2,0.4-0.3c0.2,0,0.3-0.1,0.5,0c0.3,0.1,0.4,0.2,0.6,0.4
					c0.1,0.2,0.2,0.4,0.1,0.7l0,0.1c0,0.2-0.1,0.3-0.2,0.5c-0.1,0.1-0.2,0.2-0.4,0.3c-0.2,0-0.3,0.1-0.5,0c-0.3-0.1-0.5-0.2-0.6-0.4
					C298.4,148,298.4,147.8,298.5,147.4L298.5,147.4z M298.9,147.6c0,0.2,0,0.4,0,0.5c0.1,0.1,0.2,0.2,0.3,0.2c0.1,0,0.3,0,0.4-0.1
					c0.1-0.1,0.2-0.2,0.2-0.5c0-0.2,0-0.4,0-0.5c-0.1-0.1-0.2-0.2-0.3-0.3c-0.1,0-0.3,0-0.4,0.1C299,147.2,299,147.4,298.9,147.6z"
					/>
				<path class="st0" d="M301.6,149c-0.2,0.1-0.4,0.1-0.6,0.1c-0.2-0.1-0.3-0.1-0.4-0.3c-0.1-0.1-0.1-0.3,0-0.6l0.3-1.2l0.4,0.1
					l-0.3,1.2c-0.1,0.2,0,0.4,0.2,0.4c0.2,0.1,0.4,0,0.5-0.1l0.3-1.4l0.4,0.1l-0.5,1.9l-0.4-0.1L301.6,149z"/>
				<path class="st0" d="M303.8,148.1c-0.1,0-0.1,0-0.2-0.1c-0.2,0-0.3,0-0.5,0.1l-0.3,1.3l-0.4-0.1l0.5-1.9l0.4,0.1l0,0.2
					c0.1-0.1,0.3-0.2,0.5-0.1c0.1,0,0.1,0,0.1,0.1L303.8,148.1z"/>
				<path class="st0" d="M304.9,149.5c0-0.1,0-0.1-0.1-0.2c-0.1-0.1-0.1-0.1-0.3-0.2c-0.1-0.1-0.3-0.1-0.3-0.2
					c-0.2-0.2-0.3-0.3-0.2-0.5c0-0.2,0.1-0.3,0.3-0.4c0.2-0.1,0.4-0.1,0.6,0c0.2,0.1,0.4,0.2,0.5,0.3c0.1,0.1,0.1,0.3,0.1,0.5
					l-0.4-0.1c0-0.1,0-0.2,0-0.2c0-0.1-0.1-0.1-0.2-0.1c-0.1,0-0.2,0-0.2,0c-0.1,0-0.1,0.1-0.1,0.2c0,0.1,0,0.1,0,0.2
					c0,0,0.1,0.1,0.3,0.2c0.2,0.1,0.3,0.2,0.4,0.2c0.1,0.1,0.1,0.2,0.2,0.2c0,0.1,0,0.2,0,0.3c0,0.2-0.1,0.3-0.3,0.4
					c-0.2,0.1-0.4,0.1-0.6,0c-0.2,0-0.3-0.1-0.4-0.2c-0.1-0.1-0.2-0.2-0.2-0.3c0-0.1-0.1-0.2,0-0.3l0.4,0.1c0,0.1,0,0.2,0.1,0.3
					c0.1,0.1,0.1,0.1,0.3,0.2c0.1,0,0.2,0,0.3,0C304.8,149.6,304.8,149.5,304.9,149.5z"/>
			</g>
			<g>
				<path class="st0" d="M310.9,151.5l0.6-2.6l0.8,0.2c0.2,0.1,0.4,0.2,0.6,0.3c0.2,0.1,0.3,0.3,0.3,0.5c0.1,0.2,0,0.4,0,0.7l0,0.1
					c-0.1,0.2-0.2,0.4-0.3,0.6c-0.1,0.2-0.3,0.3-0.5,0.3c-0.2,0.1-0.4,0.1-0.7,0L310.9,151.5z M311.9,149.4l-0.4,1.9l0.3,0.1
					c0.2,0.1,0.4,0,0.6-0.1c0.2-0.1,0.3-0.3,0.3-0.6l0-0.1c0.1-0.3,0.1-0.5,0-0.7c-0.1-0.2-0.2-0.3-0.5-0.3L311.9,149.4z"/>
				<path class="st0" d="M314.3,152.3c0,0,0-0.1,0-0.2c-0.2,0.1-0.4,0.1-0.6,0.1c-0.2,0-0.3-0.1-0.4-0.3c-0.1-0.1-0.1-0.3-0.1-0.4
					c0-0.2,0.2-0.3,0.3-0.4c0.2-0.1,0.4-0.1,0.7,0l0.3,0.1l0-0.1c0-0.1,0-0.2,0-0.3s-0.1-0.1-0.2-0.2c-0.1,0-0.2,0-0.3,0
					c-0.1,0-0.1,0.1-0.1,0.2l-0.4-0.1c0-0.1,0.1-0.2,0.2-0.3c0.1-0.1,0.2-0.1,0.3-0.1c0.1,0,0.3,0,0.4,0c0.2,0.1,0.4,0.2,0.5,0.3
					c0.1,0.1,0.1,0.3,0.1,0.5l-0.2,0.9c0,0.2-0.1,0.3,0,0.4l0,0L314.3,152.3z M313.9,151.9c0.1,0,0.2,0,0.3,0c0.1,0,0.2-0.1,0.2-0.1
					l0.1-0.4l-0.2-0.1c-0.2,0-0.3,0-0.4,0c-0.1,0-0.2,0.1-0.2,0.2c0,0.1,0,0.2,0,0.2C313.8,151.8,313.9,151.9,313.9,151.9z"/>
				<path class="st0" d="M315.9,152.1l0.7-1.2l0.5,0.1l-1.3,2c-0.2,0.3-0.4,0.4-0.7,0.3c-0.1,0-0.1,0-0.2-0.1l0.1-0.3l0.1,0
					c0.1,0,0.2,0,0.3,0c0.1,0,0.1-0.1,0.2-0.2l0.1-0.1l-0.2-2.1l0.5,0.1L315.9,152.1z"/>
				<path class="st0" d="M318.1,152.7c0-0.1,0-0.1-0.1-0.2c-0.1-0.1-0.1-0.1-0.3-0.2c-0.1-0.1-0.3-0.1-0.3-0.2
					c-0.2-0.2-0.3-0.3-0.2-0.5c0-0.2,0.1-0.3,0.3-0.4c0.2-0.1,0.4-0.1,0.6,0c0.2,0.1,0.4,0.2,0.5,0.3c0.1,0.1,0.1,0.3,0.1,0.5
					l-0.4-0.1c0-0.1,0-0.2,0-0.2c0-0.1-0.1-0.1-0.2-0.1c-0.1,0-0.2,0-0.2,0c-0.1,0-0.1,0.1-0.1,0.2c0,0.1,0,0.1,0,0.2
					c0,0.1,0.1,0.1,0.3,0.2c0.2,0.1,0.3,0.2,0.4,0.2c0.1,0.1,0.1,0.2,0.2,0.2c0,0.1,0,0.2,0,0.3c0,0.2-0.1,0.3-0.3,0.4
					c-0.2,0.1-0.4,0.1-0.6,0c-0.2,0-0.3-0.1-0.4-0.2c-0.1-0.1-0.2-0.2-0.2-0.3c0-0.1-0.1-0.2,0-0.3l0.4,0.1c0,0.1,0,0.2,0.1,0.3
					c0.1,0.1,0.1,0.1,0.3,0.2c0.1,0,0.2,0,0.3,0C318,152.8,318.1,152.7,318.1,152.7z"/>
			</g>
		</g>
	</g>
	<path class="st0" d="M151.2,303.8c-11.1,4.7-17.4,15-14,22.9c2,4.7,6.9,7.5,12.8,8l-0.1,6.2l5.4-6.3c2.7-0.3,5.4-1,8.2-2.2
		c11.1-4.7,17.4-15,14-22.9C174.1,301.7,162.3,299.1,151.2,303.8z M162.1,325.8l-3,1.5l-1.4-2.8l3-1.5L162.1,325.8z M160.3,314.2
		c-0.2,1.2-0.5,2.3-1,3.5c-0.3,0.6-0.4,1.1-0.3,1.6c0.1,0.4,0.3,1,0.6,1.7l-2.9,1.5c-0.6-1.1-0.8-2-0.8-2.6c0-0.6,0.3-1.5,0.8-2.7
		c0.3-0.9,0.5-1.7,0.6-2.5c0.1-0.7,0-1.4-0.4-2.1c-0.4-0.8-0.9-1.3-1.5-1.5c-0.6-0.2-1.3-0.1-2.1,0.3c-0.7,0.3-1.1,0.8-1.4,1.4
		c-0.3,0.6-0.2,1.2,0.1,2l-2.8,1.4l-0.1-0.1c-0.7-1.4-0.8-2.8-0.2-4c0.6-1.3,1.6-2.3,3.2-3.1c1.7-0.8,3.2-1.1,4.6-0.7
		c1.4,0.4,2.4,1.3,3.2,2.9C160.2,311.9,160.4,313,160.3,314.2z"/>
	<path class="st0" d="M210.7,32L210.7,32c-11.8,0-19.2,12.8-13.3,23.1l13.3,23.1L224,55.1C229.9,44.8,222.5,32,210.7,32z
		 M220.6,53.1L220.6,53.1c-4.4,7.6-15.3,7.6-19.7,0l0,0c-4.4-7.6,1.1-17.1,9.9-17.1h0C219.5,36,224.9,45.5,220.6,53.1z"/>
	<g>
		<g>
			<path class="st20" d="M275.9,309.6L275.9,309.6C275.9,309.6,275.9,309.5,275.9,309.6z"/>
			<path class="st20" d="M249.6,327C249.6,327,249.6,327,249.6,327L249.6,327z"/>
			<path class="st0" d="M255,332.8c2.7,0.7,5.6,0.2,8.1-1c1.7-0.8,3.3-1.9,4.8-3c0.8-0.6,1.6-1.1,2.5-1.6c1.6-1,3.2-2,4.6-3.3
				c2.1-1.9,3.7-4.3,4.1-7.1c0.4-2.8-0.8-5.8-3.2-7.2c0,0,0,0.1,0,0l-6.8,4.5c0.1,1.5,0.7,2.6,1.7,3.7c-1.4,1.9-3.2,3.5-5.2,4.7
				c-1.9,1.3-4.1,2.4-6.3,2.9c-0.6-1.3-1.5-2.3-2.8-3l-6.8,4.5c0,0,0,0,0,0C250,329.8,252.4,332,255,332.8z"/>
		</g>
		<g>
			<g>
				<path class="st0" d="M273.9,306.8c-0.6,0.4-1.3,0.2-1.7-0.3c-4.5-6.6-13.5-8.2-20.1-3.7c-6.6,4.5-8.2,13.5-3.7,20.1
					c0.4,0.6,0.2,1.3-0.3,1.7c-0.6,0.4-1.3,0.2-1.7-0.3c-5.3-7.7-3.4-18.2,4.3-23.6c7.7-5.3,18.2-3.4,23.6,4.3
					C274.6,305.6,274.4,306.4,273.9,306.8z"/>
			</g>
			<g>
				<path class="st0" d="M269.8,309.6c-0.6,0.4-1.3,0.2-1.7-0.3c-3-4.3-8.9-5.4-13.2-2.4c-4.3,3-5.4,8.9-2.4,13.2
					c0.4,0.6,0.2,1.3-0.3,1.7c-0.6,0.4-1.3,0.2-1.7-0.3c-3.8-5.4-2.4-12.9,3-16.7c5.4-3.8,12.9-2.4,16.7,3
					C270.5,308.5,270.3,309.2,269.8,309.6z"/>
			</g>
			<g>
				<path class="st0" d="M266.2,312.1c-0.6,0.4-1.3,0.2-1.7-0.3c-1.6-2.3-4.8-2.9-7.2-1.3c-2.3,1.6-2.9,4.8-1.3,7.2
					c0.4,0.6,0.2,1.3-0.3,1.7c-0.6,0.4-1.3,0.2-1.7-0.3c-2.4-3.5-1.5-8.2,1.9-10.6s8.2-1.5,10.6,1.9
					C266.9,310.9,266.8,311.7,266.2,312.1z"/>
			</g>
		</g>
	</g>
	<g>
		<polygon class="st0" points="138.8,96.9 130.8,79.9 127.9,84 117.3,76.7 112.4,83.8 123,91.1 120.1,95.3 		"/>
		<polygon class="st0" points="93,80 111.7,81.6 108.8,85.8 119.4,93.1 114.5,100.2 103.9,92.9 101,97 		"/>
	</g>
	<g>
		<path class="st1" d="M362.8,118.2c-0.1,2.5-0.7,4.5-1.9,6c-1.1,1.5-2.7,2.2-4.6,2.2c-0.8,0-1.6-0.2-2.2-0.5
			c-0.6-0.4-1.1-0.9-1.4-1.6c-1,1.4-2.3,2.1-3.9,2.1c-1.4,0-2.6-0.6-3.3-1.8c-0.8-1.2-1.1-2.8-0.9-4.8c0.2-1.6,0.6-3.1,1.2-4.3
			c0.6-1.3,1.5-2.2,2.5-2.9c1-0.7,2.1-1,3.2-1c1.4,0,2.6,0.3,3.6,1l0.9,0.6l-0.8,8.6c-0.1,0.8,0,1.4,0.3,1.8
			c0.3,0.4,0.7,0.6,1.3,0.6c0.9,0,1.7-0.5,2.3-1.6c0.6-1.1,0.9-2.5,1-4.2c0.2-3.4-0.5-6.1-2.1-7.9c-1.6-1.9-3.9-2.8-6.9-2.8
			c-1.9,0-3.6,0.5-5.1,1.5s-2.7,2.3-3.5,4.1c-0.9,1.8-1.3,3.8-1.5,6.1c-0.2,3.5,0.5,6.2,2.1,8.1c1.6,1.9,3.9,2.9,7,2.9
			c0.8,0,1.7-0.1,2.6-0.3c0.9-0.2,1.7-0.4,2.3-0.7l0.6,2.3c-0.6,0.4-1.4,0.7-2.4,1s-2.1,0.4-3.1,0.4c-2.6,0-4.8-0.5-6.7-1.6
			c-1.8-1.1-3.2-2.6-4.1-4.7s-1.3-4.5-1.2-7.3c0.1-2.7,0.7-5.2,1.9-7.3c1.1-2.2,2.7-3.8,4.6-5c1.9-1.2,4.1-1.8,6.6-1.8
			c2.5,0,4.6,0.5,6.4,1.6c1.8,1.1,3.1,2.6,4,4.6C362.5,113.3,362.9,115.6,362.8,118.2z M347.9,119.8c-0.1,1.3,0,2.3,0.3,3
			c0.3,0.7,0.9,1,1.6,1c0.5,0,0.9-0.2,1.4-0.6c0.4-0.4,0.8-1,1.1-1.8l0.6-7c-0.4-0.1-0.8-0.2-1.2-0.2c-1.1,0-2,0.5-2.6,1.5
			C348.5,116.5,348.1,117.9,347.9,119.8z"/>
	</g>
</g>
</svg>
