<?xml version="1.0" encoding="utf-8"?>
<!-- Generator: Adobe Illustrator 21.1.0, SVG Export Plug-In . SVG Version: 6.00 Build 0)  -->
<svg version="1.1" id="Layer_1" xmlns="http://www.w3.org/2000/svg" xmlns:xlink="http://www.w3.org/1999/xlink" x="0px" y="0px"
	 viewBox="0 0 243 62" style="enable-background:new 0 0 243 62;" xml:space="preserve">
<style type="text/css">
	.st0{fill-rule:evenodd;clip-rule:evenodd;fill:#35B1E0;}
	.st1{fill-rule:evenodd;clip-rule:evenodd;fill:url(#SVGID_1_);}
	.st2{fill-rule:evenodd;clip-rule:evenodd;fill:url(#SVGID_2_);}
	.st3{fill-rule:evenodd;clip-rule:evenodd;fill:url(#SVGID_3_);}
	.st4{fill-rule:evenodd;clip-rule:evenodd;fill:url(#SVGID_4_);}
	.st5{fill-rule:evenodd;clip-rule:evenodd;fill:url(#SVGID_5_);}
	.st6{fill-rule:evenodd;clip-rule:evenodd;fill:url(#SVGID_6_);}
	.st7{fill-rule:evenodd;clip-rule:evenodd;fill:url(#SVGID_7_);}
</style>
<g>
	<path class="st0" d="M141.5,36.4c-2,2.7-4.1,5.4-6.4,8.4c-2.2-3-4.3-5.7-6.7-8.9c0,5.1,0,9.6,0,14.2c-1.3,0-2.4,0-3.6,0
		c0-6.5,0-13,0-19.5c3.2-0.9,4-0.7,5.8,1.9c1.5,2,2.9,4,4.6,6.3c1.5-2.1,3-3.8,4.1-5.7c1.4-2.5,3.2-3.4,6.1-2.6c0,6.4,0,12.9,0,19.6
		c-1.1,0-2.1,0-3.4,0c0-4.5,0-9,0-13.5C141.9,36.5,141.7,36.5,141.5,36.4z"/>
	<path class="st0" d="M107.4,36.8c0,4.8,0,9,0,13.3c-1.2,0-2.3,0-3.5,0c0-6.5,0-13,0-19.6c1.7-0.5,3-0.2,4.1,1.4
		c2.5,3.5,5.3,6.8,8.4,10.7c0-4.4,0-8.2,0-12.1c1.4,0,2.5,0,3.7,0c0,6.5,0,13,0,19.6c-1.3,0.6-2.3,0.2-3.2-1
		C113.9,45.1,110.8,41.3,107.4,36.8z"/>
	<path class="st0" d="M178.8,36.8c0,4.8,0,8.9,0,13.3c-1.2,0-2.3,0-3.5,0c0-6.5,0-13,0-19.6c1.9-0.7,3.1-0.1,4.2,1.5
		c2.5,3.4,5.2,6.7,8.2,10.5c0-4.4,0-8.2,0-12.1c1.4,0,2.5,0,3.7,0c0,6.6,0,13.1,0,20.4c-1.4-0.9-2.6-1.2-3.3-2.1
		C185,45.1,182.1,41.2,178.8,36.8z"/>
	<path class="st0" d="M75.7,50.1c0-6.6,0-13.1,0-19.7c4.9,0,9.7,0,14.7,0c0,1.1,0,2.1,0,3.4c-3.6,0-7.2,0-10.9,0c0,1.6,0,3,0,4.6
		c3.5,0,6.9,0,10.4,0c0,1.2,0,2.2,0,3.5c-3.3,0-6.8,0-10.1,0c-0.2,0.4-0.4,0.6-0.4,0.8c-0.3,3.8-0.3,3.8,3.4,3.8c2.5,0,5,0,7.6,0
		c0,1.3,0,2.4,0,3.6C85.5,50.1,80.7,50.1,75.7,50.1z"/>
	<path class="st0" d="M210.8,46.6c0,1.3,0,2.3,0,3.5c-4.9,0-9.7,0-14.6,0c0-6.5,0-13,0-19.7c4.8,0,9.6,0,14.6,0c0,1,0,2.1,0,3.4
		c-3.5,0-7.1,0-10.9,0c0,1.6,0,3,0,4.7c3.4,0,6.9,0,10.4,0c0,1.3,0,2.3,0,3.6c-3.5,0-6.9,0-10.2,0c-0.2,0.4-0.3,0.5-0.4,0.6
		c-0.3,3.9-0.3,3.9,3.5,3.9C205.7,46.6,208.1,46.6,210.8,46.6z"/>
	<path class="st0" d="M160.3,50.7c-6.1,0-10.2-4.1-10.2-10.3c0-6.1,4.2-10.4,10.2-10.5c6-0.1,10.3,4.4,10.3,10.5
		C170.6,46.6,166.4,50.8,160.3,50.7z M166.9,40.4c0-4.2-2.7-7-6.7-6.9c-3.8,0.1-6.5,2.9-6.5,7c0,4.1,2.6,6.9,6.5,6.9
		C164.2,47.5,167,44.6,166.9,40.4z"/>
	<path class="st0" d="M58.4,44.4c0,2.1,0,3.9,0,5.7c-1.2,0-2.3,0-3.5,0c0-6.5,0-13.1,0-19.8c3.5,0,7-0.2,10.4,0.1
		c3.7,0.3,6.3,3.6,6.1,7.2c-0.2,3.7-2.9,6.5-6.7,6.7C62.7,44.4,60.7,44.4,58.4,44.4z M58.6,33.9c0,2.6,0,4.8,0,7.1
		c2.1,0,4,0.1,5.8,0c1.9-0.2,3.5-1.9,3.3-3.7c-0.2-1.8-1.1-3.2-3-3.4C62.7,33.8,60.7,33.9,58.6,33.9z"/>
	<path class="st0" d="M214.8,30.6c3.2-0.9,5-0.1,6.2,2.6c0.8,1.7,1.9,3.2,3.2,5.3c1.3-2,2.6-3.7,3.4-5.5c1.3-2.7,3.2-3.3,6.2-2.4
		c-1.5,2.2-2.8,4.5-4.5,6.5c-2.7,3.2-4,6.8-3.4,11c0.1,0.6,0,1.2,0,2c-1.2,0-2.3,0-3.7,0c0-1.7-0.1-3.5,0-5.3c0.1-1.9-0.4-3.5-1.5-5
		C218.8,36.8,216.9,33.8,214.8,30.6z"/>
	<path class="st0" d="M94.8,50.1c0-6.6,0-13.1,0-19.7c1.1,0,2.2,0,3.4,0c0,6.5,0,13,0,19.7C97.1,50.1,96.1,50.1,94.8,50.1z"/>
</g>
<g>
	<linearGradient id="SVGID_1_" gradientUnits="userSpaceOnUse" x1="15.0755" y1="41.143" x2="47.4236" y2="41.143">
		<stop  offset="0.1882" style="stop-color:#35B1E0"/>
		<stop  offset="0.3851" style="stop-color:#34ADDB"/>
		<stop  offset="0.6067" style="stop-color:#319FCE"/>
		<stop  offset="0.8393" style="stop-color:#2C8AB7"/>
		<stop  offset="0.9731" style="stop-color:#287AA7"/>
	</linearGradient>
	<path class="st1" d="M15.1,33c1.1,0,2.1,0,3.2,0c0.2,1.8,0.9,3.3,2.4,4.4c1.1,0.8,2.4,1.2,3.8,1.1c1.7-0.1,3.2-0.9,4.2-2.3
		c1-1.4,1.3-3,1.1-4.7c0.9,0,1.7,0,2.6,0c-0.3,2,0.1,3.8,1.5,5.3c1,1,2.2,1.6,3.6,1.8c3.3,0.3,6.1-2.3,6.4-5.4c1.2,0,2.3,0,3.5,0
		c0,0.2,0,0.3,0,0.5c0,5.3,0,10.6,0,15.8c0,0.1,0,0.3,0,0.4c0,0.7-0.4,1.1-1.1,1.1c-2.4,0-4.9,0-7.3,0c-7.5,0-14.9,0-22.4,0
		c-1.3,0-1.5-0.3-1.5-1.5c0-5.3,0-10.6,0-15.8C15.1,33.3,15.1,33.2,15.1,33z M21.5,43.6C21.6,43.7,21.6,43.7,21.5,43.6
		C21.6,43.7,21.6,43.7,21.5,43.6c-0.1-0.4-0.4-0.6-0.8-0.5c-0.4,0-0.8,0.4-0.8,0.8c-0.1,1,0.2,1.8,0.8,2.5c1.3,1.6,3.1,1.8,4.9,1.6
		c1.3-0.2,2.6-0.7,3.8-1.3c0.6-0.3,1.3-0.5,2-0.6c1.1-0.1,2,0.3,3,0.7c1.5,0.7,3.1,1.2,4.9,1.2c1.1,0,2-0.4,2.9-1.1
		c0.9-0.7,1.4-1.7,1.4-2.9c0-0.5-0.3-0.9-0.8-1c-0.4-0.1-0.7,0.1-0.9,0.4c0,0,0,0.1,0,0.1c0,0,0.1,0,0.1-0.1
		c0.3-0.1,0.6-0.3,0.9-0.1c0.3,0.3,0.3,0.7,0.2,1c-0.4,1.3-1.2,1.5-2.2,0.7c-0.6-0.5-1.1-1.1-1.7-1.6c-0.7-0.6-1.4-1.2-2.2-1.5
		c-1.7-0.8-3.4-0.4-4.9,0.7c-0.3,0.2-0.5,0.2-0.8,0c-1.9-1.4-4.1-1.5-6-0.1c-0.7,0.5-1.3,1.1-1.9,1.7c-0.5,0.4-0.9,0.8-1.4,1.1
		c-0.4,0.3-0.8,0.2-1.2-0.2c-0.2-0.2-0.3-0.5-0.4-0.8c-0.1-0.4-0.2-0.8,0.2-1.1C20.9,43.3,21.2,43.5,21.5,43.6
		C21.5,43.7,21.5,43.6,21.5,43.6z"/>
	<linearGradient id="SVGID_2_" gradientUnits="userSpaceOnUse" x1="15.0699" y1="23.6258" x2="47.4221" y2="23.6258">
		<stop  offset="0.1882" style="stop-color:#35B1E0"/>
		<stop  offset="0.3851" style="stop-color:#34ADDB"/>
		<stop  offset="0.6067" style="stop-color:#319FCE"/>
		<stop  offset="0.8393" style="stop-color:#2C8AB7"/>
		<stop  offset="0.9731" style="stop-color:#287AA7"/>
	</linearGradient>
	<path class="st2" d="M47.4,32.1c-1.2,0-2.3,0-3.6,0c0-0.2-0.1-0.3-0.1-0.5c-0.5-2.8-3.1-4.9-5.9-4.7c-1.7,0.1-3.1,0.9-4.2,2.1
		c-0.2,0.2-0.3,0.3-0.5,0.5c-1.2,1.3-2.9,1.3-4.2,0c-1.1-1.1-2.4-2-3.9-2.4c-2.3-0.6-4.6,0.3-5.8,2.4c-0.4,0.7-0.6,1.4-0.9,2.2
		C18.3,31.9,18.3,32,18,32c-0.9,0-1.7,0-2.6,0c-0.3,0-0.4-0.1-0.4-0.3c0-0.4,0-0.8,0-1.3c-0.1-0.7,0.2-1.2,0.8-1.7
		c2.1-1.9,4.3-3.8,6.4-5.7c2.9-2.6,5.8-5.2,8.7-7.8c0.2-0.2,0.4-0.2,0.6,0c2,1.8,4.1,3.6,6.1,5.4c3.1,2.7,6.2,5.5,9.3,8.3
		c0.3,0.3,0.5,0.6,0.5,1C47.4,30.7,47.4,31.4,47.4,32.1z"/>
	<linearGradient id="SVGID_3_" gradientUnits="userSpaceOnUse" x1="9.4063" y1="18.7996" x2="53.7816" y2="18.7996">
		<stop  offset="0.1882" style="stop-color:#35B1E0"/>
		<stop  offset="0.3851" style="stop-color:#34ADDB"/>
		<stop  offset="0.6067" style="stop-color:#319FCE"/>
		<stop  offset="0.8393" style="stop-color:#2C8AB7"/>
		<stop  offset="0.9731" style="stop-color:#287AA7"/>
	</linearGradient>
	<path class="st3" d="M53.8,27.6c-0.8,1-1.6,1.8-2.3,2.7c-6.6-6.1-13.2-12.2-19.9-18.3C25,18,18.3,24.1,11.7,30.3
		c-0.8-0.9-1.5-1.8-2.3-2.7c0.3-0.2,0.5-0.4,0.7-0.6c2.6-2.4,5.3-4.9,7.9-7.3c4.3-4,8.6-7.9,12.9-11.9c0.1-0.1,0.1-0.1,0.2-0.2
		c0.4-0.4,0.6-0.4,1,0c0.9,0.8,1.7,1.5,2.5,2.3c4,3.7,8,7.4,12,11c2.3,2.1,4.6,4.2,6.9,6.3C53.5,27.4,53.6,27.4,53.8,27.6z"/>
	<linearGradient id="SVGID_4_" gradientUnits="userSpaceOnUse" x1="19.6851" y1="32.6818" x2="28.4255" y2="32.6818">
		<stop  offset="0.1882" style="stop-color:#35B1E0"/>
		<stop  offset="0.3851" style="stop-color:#34ADDB"/>
		<stop  offset="0.6067" style="stop-color:#319FCE"/>
		<stop  offset="0.8393" style="stop-color:#2C8AB7"/>
		<stop  offset="0.9731" style="stop-color:#287AA7"/>
	</linearGradient>
	<path class="st4" d="M28.4,32.7c0,2.4-2,4.4-4.4,4.4c-2.4,0-4.4-2-4.4-4.4c0-2.4,2-4.4,4.4-4.3C26.5,28.3,28.4,30.3,28.4,32.7z
		 M24.3,29.2c-0.1,0-0.1,0-0.2,0c-0.5,0-0.7,0.2-0.7,0.6c0,0.4,0.1,0.6,0.6,0.7c0.1,0,0.3,0,0.4,0.1c1,0.2,1.7,0.9,1.9,1.9
		c0,0.2,0.1,0.4,0.1,0.6c0.1,0.3,0.3,0.4,0.6,0.4c0.3,0,0.5-0.2,0.5-0.6C27.7,31,26.1,29.2,24.3,29.2z M23.6,33.4
		c-0.3,0-0.5,0-0.8,0c0,0.3,0,0.6,0,0.8c0.3,0,0.6,0,0.8,0C23.6,33.9,23.6,33.7,23.6,33.4z M22.8,32.4c0,0.3,0,0.5,0,0.8
		c0.3,0,0.5,0,0.8,0c0-0.3,0-0.5,0-0.8C23.3,32.4,23.1,32.4,22.8,32.4z M24.6,34.2c0-0.3,0-0.6,0-0.8c-0.3,0-0.5,0-0.8,0
		c0,0.3,0,0.5,0,0.8C24.1,34.2,24.3,34.2,24.6,34.2z M23.8,32.4c0,0.3,0,0.5,0,0.8c0.3,0,0.5,0,0.8,0c0-0.3,0-0.5,0-0.8
		C24.3,32.4,24.1,32.4,23.8,32.4z"/>
	<linearGradient id="SVGID_5_" gradientUnits="userSpaceOnUse" x1="33.6652" y1="32.6818" x2="42.4051" y2="32.6818">
		<stop  offset="0.1882" style="stop-color:#35B1E0"/>
		<stop  offset="0.3851" style="stop-color:#34ADDB"/>
		<stop  offset="0.6067" style="stop-color:#319FCE"/>
		<stop  offset="0.8393" style="stop-color:#2C8AB7"/>
		<stop  offset="0.9731" style="stop-color:#287AA7"/>
	</linearGradient>
	<path class="st5" d="M33.7,32.7c0-2.4,2.1-4.5,4.4-4.4c2.4,0,4.4,2,4.4,4.4c0,2.4-2,4.4-4.4,4.4C35.7,37.1,33.7,35,33.7,32.7z
		 M41.6,32.5c0-0.8-0.3-1.5-0.8-2.1c-0.7-0.8-1.5-1.3-2.6-1.3c-0.4,0-0.7,0.2-0.7,0.6c0,0.4,0.2,0.6,0.6,0.7c0.1,0,0.1,0,0.2,0
		c1.2,0.2,1.8,0.8,2.1,2c0,0.2,0.1,0.4,0.1,0.6c0.1,0.3,0.4,0.4,0.7,0.3c0.3-0.1,0.4-0.2,0.4-0.5C41.6,32.6,41.6,32.5,41.6,32.5z
		 M36.6,32.3c0,0.3,0,0.5,0,0.8c0.3,0,0.5,0,0.8,0c0-0.3,0-0.5,0-0.8C37.2,32.3,36.9,32.3,36.6,32.3z M37.4,33.3c-0.3,0-0.5,0-0.8,0
		c0,0.3,0,0.5,0,0.8c0.3,0,0.5,0,0.8,0C37.4,33.8,37.4,33.5,37.4,33.3z M38.4,33.1c0-0.3,0-0.6,0-0.8c-0.3,0-0.5,0-0.8,0
		c0,0.3,0,0.5,0,0.8C37.9,33.1,38.2,33.1,38.4,33.1z M38.4,34.1c0-0.3,0-0.6,0-0.8c-0.3,0-0.5,0-0.8,0c0,0.3,0,0.6,0,0.8
		C37.9,34.1,38.2,34.1,38.4,34.1z"/>
	<linearGradient id="SVGID_6_" gradientUnits="userSpaceOnUse" x1="41.8642" y1="43.6103" x2="41.9625" y2="43.6103">
		<stop  offset="0.1882" style="stop-color:#35B1E0"/>
		<stop  offset="0.3851" style="stop-color:#34ADDB"/>
		<stop  offset="0.6067" style="stop-color:#319FCE"/>
		<stop  offset="0.8393" style="stop-color:#2C8AB7"/>
		<stop  offset="0.9731" style="stop-color:#287AA7"/>
	</linearGradient>
	<path class="st6" d="M42,43.6C41.9,43.6,41.9,43.6,42,43.6C41.9,43.6,41.9,43.6,42,43.6C41.9,43.6,41.9,43.6,42,43.6z"/>
	<linearGradient id="SVGID_7_" gradientUnits="userSpaceOnUse" x1="21.5397" y1="43.6599" x2="21.5945" y2="43.6599">
		<stop  offset="0.1882" style="stop-color:#35B1E0"/>
		<stop  offset="0.3851" style="stop-color:#34ADDB"/>
		<stop  offset="0.6067" style="stop-color:#319FCE"/>
		<stop  offset="0.8393" style="stop-color:#2C8AB7"/>
		<stop  offset="0.9731" style="stop-color:#287AA7"/>
	</linearGradient>
	<path class="st7" d="M21.5,43.6C21.6,43.7,21.6,43.7,21.5,43.6C21.6,43.7,21.6,43.7,21.5,43.6L21.5,43.6z"/>
</g>
</svg>
