<?xml version="1.0" encoding="utf-8"?>
<!-- Generator: Adobe Illustrator 21.1.0, SVG Export Plug-In . SVG Version: 6.00 Build 0)  -->
<svg version="1.1" id="Layer_1" xmlns="http://www.w3.org/2000/svg" xmlns:xlink="http://www.w3.org/1999/xlink" x="0px" y="0px"
	 viewBox="0 0 362 346" style="enable-background:new 0 0 362 346;" xml:space="preserve">
<style type="text/css">
	.st0{fill-rule:evenodd;clip-rule:evenodd;fill:#CECECE;}
</style>
<g>
	<g>
		<path class="st0" d="M176,319.7c-2.5,3.2-4.9,6.5-7.7,10.1c-2.7-3.6-5.2-6.9-8.1-10.8c0,6.2,0,11.6,0,17.1c-1.6,0-2.9,0-4.4,0
			c0-7.9,0-15.7,0-23.5c3.9-1.1,4.8-0.8,7,2.3c1.8,2.4,3.5,4.8,5.5,7.6c1.8-2.5,3.6-4.5,4.9-6.9c1.7-3,3.9-4.1,7.4-3.1
			c0,7.7,0,15.6,0,23.6c-1.3,0-2.6,0-4.1,0c0-5.5,0-10.9,0-16.3C176.4,319.8,176.2,319.7,176,319.7z"/>
		<path class="st0" d="M134.9,320.2c0,5.8,0,10.8,0,16c-1.5,0-2.8,0-4.3,0c0-7.9,0-15.7,0-23.6c2.1-0.6,3.6-0.3,4.9,1.6
			c3,4.2,6.4,8.2,10.1,12.9c0-5.3,0-9.9,0-14.6c1.7,0,3,0,4.4,0c0,7.9,0,15.7,0,23.6c-1.6,0.8-2.8,0.3-3.8-1.2
			C142.6,330.2,139,325.5,134.9,320.2z"/>
		<path class="st0" d="M220.9,320.2c0,5.8,0,10.8,0,16c-1.5,0-2.8,0-4.3,0c0-7.9,0-15.7,0-23.6c2.3-0.8,3.7-0.1,5.1,1.8
			c3,4.1,6.2,8,9.9,12.7c0-5.3,0-9.8,0-14.6c1.7,0,3,0,4.4,0c0,7.9,0,15.8,0,24.6c-1.7-1-3.1-1.5-3.9-2.5
			C228.4,330.1,225,325.4,220.9,320.2z"/>
		<path class="st0" d="M96.6,336.2c0-8,0-15.8,0-23.7c5.9,0,11.8,0,17.8,0c0,1.3,0,2.5,0,4.1c-4.4,0-8.7,0-13.2,0c0,2,0,3.6,0,5.6
			c4.2,0,8.3,0,12.6,0c0,1.5,0,2.7,0,4.2c-4,0-8.2,0-12.2,0c-0.3,0.5-0.5,0.7-0.5,1c-0.4,4.6-0.4,4.6,4.1,4.6c3,0,6,0,9.2,0
			c0,1.5,0,2.8,0,4.3C108.4,336.2,102.7,336.2,96.6,336.2z"/>
		<path class="st0" d="M259.6,331.9c0,1.6,0,2.8,0,4.3c-5.9,0-11.6,0-17.6,0c0-7.8,0-15.7,0-23.7c5.8,0,11.6,0,17.6,0
			c0,1.3,0,2.5,0,4c-4.2,0-8.6,0-13.1,0c0,2,0,3.6,0,5.7c4.1,0,8.3,0,12.6,0c0,1.6,0,2.8,0,4.3c-4.2,0-8.3,0-12.3,0
			c-0.3,0.5-0.4,0.6-0.4,0.8c-0.3,4.7-0.3,4.7,4.2,4.7C253.4,331.9,256.3,331.9,259.6,331.9z"/>
		<path class="st0" d="M198.6,336.9c-7.4,0-12.3-5-12.3-12.4c0.1-7.3,5.1-12.5,12.3-12.6c7.2-0.1,12.4,5.3,12.4,12.7
			C211,332,206,336.9,198.6,336.9z M206.6,324.5c0-5-3.3-8.4-8.1-8.4c-4.6,0.1-7.8,3.5-7.8,8.4c0,4.9,3.1,8.3,7.9,8.4
			C203.4,333,206.6,329.5,206.6,324.5z"/>
		<path class="st0" d="M75.7,329.2c0,2.6,0,4.7,0,6.9c-1.5,0-2.8,0-4.3,0c0-7.9,0-15.7,0-23.8c4.3,0,8.4-0.3,12.6,0.1
			c4.5,0.3,7.6,4.3,7.3,8.7c-0.2,4.5-3.5,7.9-8,8.1C81,329.3,78.5,329.2,75.7,329.2z M76,316.7c0,3.1,0,5.8,0,8.6c2.5,0,4.8,0.1,7,0
			c2.3-0.2,4.2-2.3,4-4.4c-0.2-2.2-1.3-3.9-3.6-4.1C80.9,316.5,78.5,316.7,76,316.7z"/>
		<path class="st0" d="M264.4,312.6c3.8-1.1,6.1-0.1,7.5,3.1c0.9,2,2.3,3.9,3.9,6.4c1.6-2.4,3.1-4.4,4.2-6.6
			c1.5-3.2,3.9-3.9,7.5-2.9c-1.8,2.7-3.4,5.5-5.4,7.8c-3.3,3.9-4.8,8.2-4.1,13.3c0.1,0.7,0,1.4,0,2.4c-1.5,0-2.8,0-4.5,0
			c0-2.1-0.1-4.3,0-6.4c0.2-2.3-0.5-4.2-1.8-6.1C269.2,320.1,266.9,316.5,264.4,312.6z"/>
		<path class="st0" d="M119.7,336.2c0-8,0-15.8,0-23.7c1.3,0,2.7,0,4.1,0c0,7.9,0,15.7,0,23.7C122.4,336.2,121.2,336.2,119.7,336.2z
			"/>
	</g>
	<g>
		<path class="st0" d="M70.1,180.4c7.4,0,14.3,0,21.5,0c1.1,12.1,6.1,22.1,15.9,29.4c7.6,5.7,16.3,8.2,25.8,7.4
			c11.7-1,21.2-6.3,28.3-15.7c7-9.3,8.8-20,7.2-31.5c5.9,0,11.5,0,17.4,0c-1.9,13.5,0.9,25.5,10.4,35.4c6.6,7,14.8,10.9,24.4,11.8
			c22,2.2,41.1-15.2,42.8-36.6c7.8,0,15.6,0,23.7,0c0,1.1,0,2.1,0,3.1c0,35.5,0,71,0,106.5c0,0.9,0,1.8,0,2.7
			c-0.2,5-2.7,7.5-7.7,7.5c-16.3,0-32.6,0-48.9,0c-50.2,0-100.3,0-150.5,0c-8.5,0-10.3-1.8-10.3-10.4c0-35.5,0-71,0-106.5
			C70.1,182.5,70.1,181.6,70.1,180.4z M113.5,252c0.1,0.1,0.2,0.1,0.4,0.2C113.8,252.1,113.7,252.1,113.5,252
			c-0.8-2.6-2.7-3.8-5.3-3.6c-2.9,0.2-5.2,2.5-5.6,5.4c-0.8,6.4,1.2,12,5.3,16.8c8.8,10.5,20.5,12,33.1,10.4
			c9.1-1.2,17.4-4.6,25.6-8.5c4.3-2,8.7-3.5,13.5-3.8c7.3-0.5,13.6,2,20,5c10.4,4.9,21.1,8.3,32.9,7.8c7.2-0.3,13.7-2.6,19.2-7.2
			c6-5,9.4-11.4,9.2-19.3c-0.1-3.3-2.1-5.7-5.2-6.5c-2.7-0.7-4.5,0.6-5.8,2.9c-0.1,0.3-0.2,0.5-0.3,0.8c0.2-0.1,0.4-0.3,0.7-0.4
			c2-0.8,3.9-2.3,6-0.4c2,2,2.2,4.4,1.4,7c-2.6,8.5-8,10.2-14.8,4.5c-4-3.4-7.5-7.4-11.6-10.7c-4.6-3.7-9.2-7.8-14.5-10.2
			c-11.6-5.3-22.7-2.6-32.6,4.9c-2.2,1.6-3.5,1.5-5.5-0.1c-12.5-9.7-27.5-9.9-40.1-0.4c-4.5,3.4-8.4,7.7-12.7,11.4
			c-3.1,2.7-6.3,5.5-9.7,7.7c-2.9,1.8-5.6,1.1-7.7-1.6c-1.3-1.6-2.3-3.5-3-5.4c-0.9-2.6-1-5.3,1.3-7.3c2.2-1.8,4.2-0.4,6.2,0.8
			C113.3,252.1,113.5,252,113.5,252z"/>
		<path class="st0" d="M287.5,174.7c-8,0-15.8,0-23.9,0c-0.2-1-0.4-2.1-0.6-3.3c-3.3-18.6-20.5-32.7-39.3-31.8
			c-11.4,0.5-20.7,5.9-28.5,14c-1.1,1.1-2.1,2.3-3.1,3.4c-8.3,9-19.8,9-28.3,0.2c-7.3-7.7-15.9-13.4-26.3-16c-15.7-4-31,2-39.3,15.9
			c-2.6,4.4-4,9.6-5.7,14.5c-0.5,1.4-0.8,2.2-2.5,2.1c-5.8-0.1-11.6-0.1-17.4,0c-1.7,0-2.5-0.5-2.4-2.3c0.1-2.8,0.2-5.6,0-8.4
			c-0.4-4.9,1.5-8.3,5.2-11.5c14.4-12.5,28.6-25.3,42.9-38c19.5-17.4,39.1-34.7,58.6-52.2c1.5-1.4,2.6-1.3,4.1,0
			c13.7,12.2,27.5,24.4,41.2,36.6c20.8,18.5,41.5,37,62.3,55.4c2,1.8,3.1,3.9,3.1,6.6C287.4,164.8,287.5,169.7,287.5,174.7z"/>
		<path class="st0" d="M330.2,143.9c-5.5,6.5-10.5,12.2-15.7,18.3C270,121,225.6,80.1,180.9,38.9c-44.5,41-88.9,82-133.6,123.3
			c-5.1-6-10.1-11.9-15.3-18c1.7-1.6,3.2-3,4.8-4.4c17.7-16.3,35.4-32.7,53.1-49c28.8-26.6,57.6-53.2,86.4-79.8
			c0.5-0.4,1-0.8,1.4-1.2c2.9-2.4,3.8-2.5,6.5,0c5.7,5.1,11.3,10.4,17,15.6c26.8,24.7,53.6,49.5,80.4,74.2
			c15.4,14.2,30.7,28.4,46.1,42.5C328.4,142.7,329.2,143.2,330.2,143.9z"/>
		<path class="st0" d="M159.8,178.6c-0.1,16-13.5,29.4-29.5,29.3c-16-0.1-29.4-13.7-29.3-29.9c0.1-15.8,13.7-29.2,29.7-29.2
			C146.6,148.9,159.9,162.4,159.8,178.6z M132.3,154.7c-0.4,0-0.7,0-1.1,0c-3.1,0.1-4.5,1.2-4.6,3.8c-0.2,2.7,0.8,3.9,3.9,4.5
			c0.9,0.2,1.8,0.3,2.7,0.5c6.9,1.2,11.4,6,12.5,12.9c0.2,1.3,0.4,2.7,0.9,3.9c0.7,2,2.3,2.8,4.3,2.5c2.1-0.3,3.4-1.5,3.5-3.8
			C155.2,167,144.2,154.9,132.3,154.7z M127.5,183.2c-2,0-3.7,0-5.5,0c0,1.9,0,3.8,0,5.5c2,0,3.7,0,5.5,0
			C127.5,186.7,127.5,185,127.5,183.2z M122,176.6c0,1.9,0,3.6,0,5.3c1.9,0,3.7,0,5.5,0c0-1.8,0-3.5,0-5.3
			C125.6,176.6,124,176.6,122,176.6z M134,188.7c0-2,0-3.7,0-5.5c-1.9,0-3.5,0-5.1,0c0,2,0,3.7,0,5.5
			C130.8,188.7,132.3,188.7,134,188.7z M129,176.5c0,1.7,0,3.5,0,5.3c1.8,0,3.4,0,5.1,0c0-1.9,0-3.5,0-5.3
			C132.3,176.5,130.7,176.5,129,176.5z"/>
		<path class="st0" d="M195,178.7c0-15.9,13.8-29.9,29.5-29.9c16,0,29.3,13.4,29.3,29.5c0,16.1-13.3,29.5-29.3,29.6
			C208.9,207.9,195,194.2,195,178.7z M248.4,176.8c-0.1-5.3-2.1-9.9-5.4-13.9c-4.6-5.4-10.4-8.6-17.7-8.7c-2.9,0-4.5,1.4-4.7,3.8
			c-0.2,2.5,1.1,4,3.9,4.7c0.4,0.1,0.9,0.1,1.3,0.2c8.1,1.1,12.3,5.3,13.9,13.3c0.2,1.3,0.5,2.7,1,3.9c0.9,2.1,2.7,2.6,4.7,2.2
			c1.9-0.4,2.9-1.7,2.9-3.7C248.4,178.1,248.4,177.4,248.4,176.8z M214.9,175.5c0,1.9,0,3.7,0,5.5c1.9,0,3.7,0,5.5,0
			c0-1.9,0-3.7,0-5.5C218.6,175.5,216.9,175.5,214.9,175.5z M220.4,182.2c-1.9,0-3.6,0-5.5,0c0,1.9,0,3.7,0,5.5c1.9,0,3.7,0,5.5,0
			C220.4,185.8,220.4,184.1,220.4,182.2z M227,181.1c0-2,0-3.8,0-5.5c-1.9,0-3.5,0-5.1,0c0,1.9,0,3.7,0,5.5
			C223.6,181.1,225.2,181.1,227,181.1z M226.9,187.7c0-2.1,0-3.8,0-5.5c-1.9,0-3.5,0-5.1,0c0,2,0,3.7,0,5.5
			C223.7,187.7,225.3,187.7,226.9,187.7z"/>
		<path class="st0" d="M250.8,251.7c-0.2,0.1-0.4,0.3-0.7,0.4c0.1-0.3,0.2-0.5,0.3-0.8C250.5,251.5,250.7,251.6,250.8,251.7z"/>
		<path class="st0" d="M113.6,252c0.1,0.1,0.2,0.1,0.4,0.2C113.8,252.2,113.7,252.1,113.6,252L113.6,252z"/>
	</g>
</g>
</svg>
