<?xml version="1.0" encoding="utf-8"?>
<!-- Generator: Adobe Illustrator 21.1.0, SVG Export Plug-In . SVG Version: 6.00 Build 0)  -->
<svg version="1.1" id="Layer_1" xmlns="http://www.w3.org/2000/svg" xmlns:xlink="http://www.w3.org/1999/xlink" x="0px" y="0px"
	 viewBox="0 0 551 263" style="enable-background:new 0 0 551 263;" xml:space="preserve">
<style type="text/css">
	.st0{display:none;}
	.st1{display:inline;fill:#ADBCC9;}
	.st2{display:inline;}
	.st3{fill:#ADBCC9;}
	.st4{fill:#BAC6D3;}
	.st5{fill:#D0DAE2;}
	.st6{display:inline;fill:#D0DAE2;}
	.st7{display:inline;fill:#BAC6D3;}
	.st8{opacity:0.6;fill:#E8E8E8;}
	.st9{opacity:0.75;fill:#E8E8E8;}
	.st10{opacity:0.85;fill:#FFFFFF;}
	.st11{opacity:0.63;fill:#FFFFFF;}
	.st12{fill-rule:evenodd;clip-rule:evenodd;fill:#FFFFFF;}
	.st13{opacity:0.85;fill:url(#SVGID_1_);}
	.st14{fill:#282626;}
	.st15{fill:#151823;}
	.st16{fill:#282A35;}
	.st17{fill:#1C1C1C;}
	.st18{fill:#353535;}
	.st19{fill:#8C5E3E;}
	.st20{opacity:0.8;fill:#FFFFFF;}
	.st21{opacity:0.8;}
	.st22{fill:#FFFFFF;}
	.st23{opacity:0.84;}
	.st24{opacity:0.55;}
	.st25{opacity:0.54;}
	.st26{opacity:0.64;fill:#FFFFFF;}
	.st27{fill:#DBB2A5;}
	.st28{fill:#C3CED8;}
	.st29{opacity:0.85;fill:url(#SVGID_2_);}
	.st30{fill:#DDE8F2;}
	.st31{fill:#7A5237;}
	.st32{fill:#E64A00;}
	.st33{opacity:0.74;fill:#FF781D;}
	.st34{fill:#287AA8;}
	.st35{fill:#35B1E0;}
	.st36{opacity:0.38;fill:#FFFFFF;}
	.st37{opacity:0.5;}
	.st38{opacity:0.68;fill:#FFFFFF;}
	.st39{opacity:0.37;}
	.st40{opacity:0.94;fill:#FFFFFF;}
	.st41{opacity:0.25;fill:#FFFFFF;}
	.st42{opacity:0.88;}
	.st43{opacity:0.62;}
	.st44{opacity:0.59;fill:#FFFFFF;}
	.st45{opacity:0.85;fill:url(#SVGID_3_);}
	.st46{fill:#CFD9E2;}
	.st47{fill:#C7D3E0;}
	.st48{fill:#96A6BC;}
	.st49{fill:#7F1C5C;}
	.st50{fill:#992C75;}
	.st51{fill:#CC9987;}
	.st52{fill:url(#SVGID_4_);}
	.st53{fill:url(#SVGID_5_);}
	.st54{opacity:0.7;fill:url(#SVGID_6_);}
	.st55{fill:#A3CCE2;}
	.st56{fill:#E84F5F;}
	.st57{fill:#993644;}
	.st58{fill:#B27850;}
	.st59{fill:#0C0C0C;}
	.st60{fill:#AA0031;}
	.st61{fill:#DBA697;}
	.st62{fill:#DCE1E5;}
	.st63{fill:#7F2E3D;}
	.st64{opacity:0.85;fill:url(#SVGID_7_);}
	.st65{fill:#2A4FC6;}
	.st66{fill:#102B8C;}
	.st67{opacity:0.42;fill:#C7D3E0;}
	.st68{display:inline;opacity:0.85;fill:url(#SVGID_8_);}
	.st69{fill:#D1203D;}
	.st70{fill:url(#SVGID_9_);}
	.st71{fill:#AF664B;}
	.st72{fill:#BF845C;}
	.st73{opacity:0.36;fill:#FFFFFF;}
	.st74{opacity:0.37;fill:#FFFFFF;}
	.st75{fill:url(#SVGID_10_);}
</style>
<g>
	<g>
		<g class="st0">
			<polygon class="st1" points="-17,181.4 -18.5,181.4 -12.9,133.4 -8.7,133.4 			"/>
			<g class="st2">
				<path class="st3" d="M-7.7,184.8c0.4-0.1,0.7-0.6,0.6-1l0,0c-2.1-7.6-5.4-22.9-8.7-30.5l0,0c-1.2-2.5-2-4.3-3.7-4.8l0,0
					c-3.5-0.7-7.4-1.2-10.4-1.2l0,0c-2.2,0-4,0.2-5.1,1.1l0,0c-0.5,0.6-0.7,1.2-1,2.3l0,0c-0.3,1.1-0.5,2.4-0.8,4l0,0
					c-0.6,3.2-1.2,7.3-1.7,11.4l0,0c-1.1,8.1-2,16.1-2,16.1l0,0c-0.1,0.4,0.3,0.8,0.7,0.9l0,0c0.4,0,0.8-0.3,0.9-0.7l0,0
					c0,0,0.8-7.4,1.9-15.3l0,0c1-7.8,2.4-16.3,3.1-17.5l0,0c0,0,0,0,0,0l0,0c0.3-0.4,2-0.7,4.1-0.7l0,0c2.8,0,6.6,0.5,10.1,1.1l0,0
					c0.3-0.1,1.5,1.4,2.5,3.8l0,0c1,2.4,2.1,5.8,3.2,9.4l0,0c2.1,7.3,4,15.8,5.5,20.9l0,0c0.1,0.4,0.4,0.6,0.8,0.6l0,0
					C-7.8,184.8-7.8,184.8-7.7,184.8L-7.7,184.8z"/>
				<g>
					<path class="st3" d="M-59.2,129.9c1.3,2.1,6,13,3.1,20.3c1.7-0.4,2.5-0.5,2.5-0.5s1.3-13.8-3.9-20.4
						C-62.6,122.8-59.2,129.9-59.2,129.9z"/>
					<path class="st3" d="M-33.9,126.9c-1,5.7-1.1,15,3.4,21.5c-1.8,0-3.2-0.7-3.2-0.7s-3.6-13.9-1.2-21.1
						C-32.4,118.7-33.9,126.9-33.9,126.9z"/>
					<g>
						<path class="st4" d="M-62.8,122.3C-62.8,122.3-62.8,122.3-62.8,122.3c-0.1-1.2,7-2.7,16.3-3c9.2-0.4,14.1,0.9,14.1,2.1
							c0,0,1.5,8.9-0.9,9.4c-1.7,0.4-3.1,0.5-12.1,0.9c-9,0.4-14.9,1.3-16.2-0.1C-61.7,131.6-63.7,124.3-62.8,122.3z"/>
						<path class="st5" d="M-62.5,130.8c0,0.9,2.1,1.7,2.7,1.3c-1-2.1-1.9-6.5-1.2-9c0,0-0.9,0-0.9,0c0.6-1.3,7.4-2.4,16.6-2.8
							c6.8-0.3,11.5-0.4,12.7,0.8c0.3-0.5-3.7-1.6-3.7-1.6c-1.4-0.2-3.6-0.7-12.9-0.3c-9.2,0.4-13.7,1.7-14,2.9c0,0-0.1,0.1-0.1,0.1
							C-64,124.2-62.5,130.8-62.5,130.8z"/>
					</g>
				</g>
				<path class="st3" d="M-36.2,187.9c0.4-0.1,0.8-0.5,0.7-0.9l0,0c-1.6-12-3.2-30.2-5.3-35.2l0,0c-0.3-0.7-0.5-1.3-1.4-1.6l0,0
					c-4.8-0.9-7.9-3-10.4-3.1l0,0c-0.6,0-1.2,0.2-1.7,0.6l0,0c-0.6,0.5-0.7,1.2-1.2,2.2l0,0c-0.4,1.1-0.8,2.5-1.3,4.1l0,0
					c-1,3.3-2,7.5-3.1,11.8l0,0c-2.1,8.4-3.9,18.3-3.9,18.3l0,0c-0.1,0.4,0.2,0.9,0.6,1l0,0c0.4,0.1,0.9-0.2,1-0.6l0,0
					c0,0,1.7-9.4,3.7-17.5l0,0c2-8,4.3-16.7,5.2-18l0,0l0,0c0.2-0.1,0.4-0.2,0.7-0.2l0,0c1.5-0.1,5,2,10,3.1l0,0c0,0,0,0,0,0l0,0
					c0.1,0.1,0.2,0.3,0.3,0.6l0,0c0.2,0.6,0.5,1.5,0.8,2.7l0,0c0.5,2.3,1,5.5,1.5,9.1l0,0c1,7.2,1.9,16.2,2.8,23l0,0h0
					c0.1,0.4,0.4,0.7,0.8,0.7l0,0C-36.3,187.9-36.2,187.9-36.2,187.9L-36.2,187.9z"/>
				<path class="st3" d="M-57.9,147.9c0.6-1,26.5-2.4,28.6-2.2c2,0.2,15.3,1.5,16,3.2c0.8,1.7,1.4,4.6-0.9,5.6
					c-2.3,1-23.2,3.4-26.9,2.5c-2.4-0.6-16.1-2-16.6-3.5C-58.6,150.7-57.9,147.9-57.9,147.9z"/>
				<path class="st4" d="M-16.5,149c-2,0.1-20.8,2-23.6,1.4c-3.3-0.8-17.2-2.4-15.4-2.7c1.8-0.3,21.5-1.5,24.8-1.5
					C-27.4,146.1-15.4,148.9-16.5,149z"/>
			</g>
			<polygon class="st6" points="-30.8,195.2 -29.1,195.2 -35.7,137.9 -40.7,137.9 			"/>
			<polygon class="st7" points="24.1,187.3 25.6,187.3 16.3,136 11.8,136 			"/>
			<polygon class="st7" points="-82.2,189.1 -83.8,189.1 -76.8,138.3 -72.2,138.3 			"/>
			<polygon class="st6" points="-89.5,135.3 -37.3,137.8 21.6,133.5 -11.8,132.5 			"/>
			<g class="st2">
				<polygon class="st4" points="-89.2,139.1 -39.1,140.8 21.6,137.5 21.6,133.5 -38.8,136.7 -89.2,135.2 				"/>
			</g>
		</g>
		<g>
			<ellipse class="st8" cx="269.3" cy="211.9" rx="243.7" ry="24.5"/>
			<ellipse class="st9" cx="271.4" cy="209.4" rx="195.6" ry="16.1"/>
		</g>
		<g>
			<polygon class="st10" points="287.3,11.8 281,12.4 282.6,14.2 270.2,24.8 263.7,21.7 228.3,50 228.3,54 264.3,25.3 270.8,28.4 
				284.6,16.3 286.3,18.2 			"/>
			<polygon class="st11" points="257.5,14.3 252.2,14.8 253.5,16.3 243,25.3 237.5,22.7 222.2,35 222.2,38.5 237.9,25.7 243.5,28.4 
				255.2,18.1 256.6,19.7 			"/>
		</g>
		<path class="st12" d="M427.5,25v11.5l2.5,2.9l1.8,2h18.7V24.9L427.5,25z M440.5,27.7h7.3v0.3h-7.3V27.7z M440.5,28.9h7.3v0.3h-7.3
			V28.9z M440.5,30.1h7.3v0.3h-7.3V30.1z M440.5,31.3h7.3v0.3h-7.3V31.3z M430.5,27.7h7.4v0.3h-7.4V27.7z M430.5,28.9h7.4v0.3h-7.4
			V28.9z M430.5,30.1h7.4v0.3h-7.4V30.1z M430.5,31.3h7.4v0.3h-7.4V31.3z M448.1,35.1h-17.6v-0.3h17.6V35.1z M448.1,33.5h-17.6v-0.3
			h17.6V33.5z"/>
		<g>
			<linearGradient id="SVGID_1_" gradientUnits="userSpaceOnUse" x1="194.3715" y1="53.3178" x2="194.3763" y2="54.2241">
				<stop  offset="0" style="stop-color:#FFFFFF"/>
				<stop  offset="0.4703" style="stop-color:#A5A6A6"/>
				<stop  offset="0.8301" style="stop-color:#676868"/>
				<stop  offset="1" style="stop-color:#4F5050"/>
			</linearGradient>
			<path class="st13" d="M194.7,53.7c0.1,0.3,0.2,0.6,0.3,0.7c-0.5-0.2-0.8-0.3-1.2-0.5c0.1,0,0.3,0,0.4,0
				C194.3,53.9,194.5,53.8,194.7,53.7z"/>
			<g>
				<g>
					<g>
						<path class="st14" d="M219.1,190c0.5,0.7,0.3,1.8,0.1,2.9c-0.1,0.5-1.2,1.2-2.1,1.4c-2.6,0.6-5.7-0.6-7-1.8
							c-1.5-1.4-4.9-1.4-5.5-2.1c-1.2-1.3,0.2-4.1,0.2-4.1l8.5,4.3L219.1,190z"/>
						<path class="st15" d="M204.7,189.5c4.1,0.5,5.1,2.6,8.2,3.3c6.8,1.5,8.2-2.3,4.6-4.6c-1.1-0.7-2.1-0.8-2.9-3.7
							c0,0-0.8,0.5-0.9,1c0,0.3,0.5,0-1.9,0.2c-0.9,0.1-5-1.1-5.9-1.1C204.4,185.1,203.3,189.3,204.7,189.5z"/>
						<path class="st14" d="M211.5,189.8c1-0.3,2.6-1.1,3.4-1.2l0,0c0.3,0,0.4,0,0.4,0.1l0,0c0,0.1,0.2,0.2,0.3,0.1l0,0
							c0.1,0,0.2-0.2,0.1-0.3l0,0c-0.1-0.3-0.5-0.4-0.9-0.4l0,0c-0.8,0.1-2.1,0.6-3,1l0,0c0.5-0.8,1.7-1.1,3.1-1.5l0,0
							c0.1,0,0.1-0.1,0.2-0.1l0,0c0-0.1,0-0.1,0-0.2l0,0c-0.2-0.3-0.6-0.3-0.9-0.3l0,0c-1.2,0.1-3,1-4.1,1.1l0,0
							c0.4-1.4,2.2-1.5,3.6-1.7l0,0l0,0c0.1,0,0.2-0.1,0.2-0.2l0,0c0-0.1-0.1-0.2-0.3-0.2l0,0c-1.4,0.2-3.7,0.3-4.1,2.3l0,0
							c0,0.1,0,0.1,0.1,0.2l0,0c0,0,0.1,0.1,0.2,0.1l0,0c0,0,0.1,0,0.1,0l0,0c1.2-0.1,3.2-1.1,4.3-1.2l0,0c0,0,0,0,0,0l0,0
							c-1.3,0.4-2.6,0.8-3,2l0,0c0,0.1,0,0.1,0.1,0.2l0,0C211.3,189.8,211.4,189.8,211.5,189.8L211.5,189.8
							C211.5,189.8,211.5,189.8,211.5,189.8L211.5,189.8z"/>
					</g>
					<g>
						<path class="st16" d="M173.2,190.5c-0.6,0.8-0.4,2.1-0.1,3.6c0.1,0.6,1.4,1.5,2.5,1.8c3.2,0.7,6.8-0.7,8.4-2.2
							c1.8-1.7,5.9-1.7,6.6-2.6c1.4-1.5-0.3-5-0.3-5l-10.2,5.2L173.2,190.5z"/>
						<path class="st15" d="M189.1,183.8c-1-0.1-5.9,1.4-7,1.3c-2.8-0.2-2.3,0.2-2.3-0.2c-0.1-0.5-0.2-1.4-0.2-1.4
							c-1.1,3.5-3,3.9-4.4,4.8c-4.3,2.7-2.6,7.4,5.5,5.6c3.7-0.8,4.9-3.5,9.8-4.1C192.1,189.7,190.9,184.5,189.1,183.8z"/>
						<path class="st16" d="M182.3,190.2c-1.2-0.4-3.1-1.4-4.1-1.4l0,0c-0.3,0-0.4,0-0.5,0.2l0,0c-0.1,0.1-0.2,0.2-0.4,0.1l0,0
							c-0.1-0.1-0.2-0.2-0.1-0.3l0,0c0.2-0.4,0.6-0.5,1.1-0.5l0,0c1,0.1,2.5,0.8,3.6,1.2l0,0c-0.7-0.9-2.1-1.4-3.7-1.8l0,0
							c-0.1,0-0.2-0.1-0.2-0.1l0,0c0-0.1,0-0.2,0-0.2l0,0c0.3-0.3,0.7-0.4,1.1-0.4l0,0c1.4,0.1,3.6,1.2,4.9,1.4l0,0
							c-0.5-1.8-2.6-1.9-4.3-2.1l0,0l0,0c-0.2,0-0.3-0.1-0.2-0.3l0,0c0-0.1,0.2-0.2,0.3-0.2l0,0c1.7,0.2,4.5,0.4,4.9,2.8l0,0
							c0,0.1,0,0.1-0.1,0.2l0,0c-0.1,0.1-0.1,0.1-0.2,0.1l0,0c0,0-0.1,0-0.1,0l0,0c-1.5-0.1-3.9-1.3-5.1-1.4l0,0c0,0,0,0,0,0l0,0
							c1.6,0.4,3.1,1,3.6,2.5l0,0c0,0.1,0,0.2-0.1,0.2l0,0C182.5,190.2,182.4,190.2,182.3,190.2L182.3,190.2
							C182.3,190.2,182.3,190.2,182.3,190.2L182.3,190.2z"/>
					</g>
					<path class="st17" d="M214.1,181.5c-0.9-4.3-2-18.5-2.2-24.8c0-3.1,1.3-2.9,1-9c0.3-0.7,1.1-22-1.2-35.8
						c-0.7-4.4-1-9.4-2.4-11.7L191.4,99l2.2,16.7l6.8,41.9c0,0.3,0,0.8,0,1.3c-0.8,8.4,0.9,22.2,1.9,26c0.6,2,1,3.7,1,3.7
						s0.4-2.3,8.3-3.8C212,185.2,215.3,187.2,214.1,181.5z"/>
					<g>
						<g>
							<g>
								<path class="st18" d="M214.3,181.9c-0.9-4.3-2-18.5-2.2-24.8c0-3.1,1.3-2.9,1-9c0.3-0.7,1.1-22-1.2-35.9
									c-0.4-2.4-0.9-7.5-1.5-12l-4.9,0.9v0.9c4,9.5,4.5,44.4,4.4,48c-0.1,5.8-2.4,6-2.2,9.7c0.2,3.7-2,18-0.9,18.8
									c1.1,0.9,2.8-0.3,3.1-0.2c1.8,0.5-1.2,0.5-4.3,2.8c-1.8,1.4,3.4-1.1,4.2-1.1c0.9,0-1.3,0.3-3.9,3.5c-0.5,0.6,0.3-0.2,2.3,0
									c1.8-1.1,3.7,0.3,3.8,0.3C212.5,184.4,215.4,187.6,214.3,181.9z"/>
							</g>
						</g>
					</g>
					<g>
						<path class="st17" d="M194.3,96.1l-14.7,4.3c-1.2,3.9-2.9,16.5-2.6,27c0,1.1,0.1,2.1,0.1,3.1c0.2,11.1,0.6,22.3,2.7,28.6
							c0.5,1.6-0.5,19.9-0.7,21.4c-0.5,3.7-0.6,5.5,0.9,4.7c1.9-1,0.8,0.2,2.2,0.2c0,0,5.6-2.3,9,4.1c1.1,0.8,0.7-4.6,0.3-8.5
							c-0.1-1.2,2.6-13.2,1.3-24.8c0.3-5.9,1.4-25.3,1.8-29.7C195.7,114.5,194.3,96.1,194.3,96.1z"/>
						<g>
							<g>
								<g>
									<path class="st18" d="M192.4,182.5c-0.1-1.2,1.8-14.3,0.5-25.9c0.3-5.6,1.5-24.7,2-30c-0.1-3.8-0.5-4.1-0.5-4.1
										c-2.6,27.2-3.3,29.8-3.7,31.2c-1.1,3.8-2.3,4.8-2.3,4.8s0,4.7-0.4,11.6c-0.4,6.8-0.6,7.4-2.8,8.2c-2.2,0.8,5.1,3.1,4.8,3.6
										c-0.2,0.6-5.8-1.4-5.8-1.4l5.2,4.1l-5.6-1.5l2.1,2.2c0,0,4.3,2.9,5.6,4.7C191.9,188.6,192.7,185.2,192.4,182.5z"/>
								</g>
							</g>
						</g>
					</g>
					<path class="st15" d="M214.8,185.6c-0.7-1,0.4-2.9-1.9-3.1c-3.8-0.3-6,1.3-5.4,2.9c0.6,1.6,1.5,1.5,1.5,1.5L214.8,185.6z"/>
					<path class="st15" d="M179,185.4c0.9-1.2-1.1-3.5,1.7-3.8c4.5-0.4,7.2,1.6,6.4,3.5c-0.7,1.9-2,0.9-2,0.9L179,185.4z"/>
				</g>
				<g>
					<path class="st15" d="M209.3,114.8c1.5-0.4,2.8,0,3.2-1c-0.7-4-0.6-6.3-0.6-6.3s-1.2-20.8-2.4-30.5c-0.6-4.4,1.8-13.9,2.4-18.7
						c-1.8-1.5-9.5-2.7-10.5-3.8l-3.1,3.8c0,0,0,0.1,0,0.1c-6.5,0.7-10.1-4.8-10.1-4.8c-3.5,2.3-7.3,3-10.3,4.7
						c-2.7,1.6-0.6,9.4,1.2,20.6c0.3,2.2-2,14.5-1,28.7c0,0.7-0.7,4.9-0.6,5.6C177.5,117.2,198.7,117.6,209.3,114.8z"/>
					<path class="st15" d="M187.3,50.6c-1.2-0.9,0.7,4.5-1.5,5.1c-0.7,0.2,4.6,5.6,8.7,6.1c4.1,0.5,12.3-5.5,10.7-5.6
						c-3.4-0.3-0.9-4.7-1.8-5.2c-1-0.5-5.3,1.9-8.7,1.9S187.3,50.6,187.3,50.6z"/>
					<path class="st16" d="M209.1,68.7c-0.6,3.7-3.2,17-1.9,22.8c1.3,5.8,2.4,11.7,1.6,14.4c-0.8,2.7-10,3.4-9.9,4.1
						c0.2,1.1,9.2-1.4,9.7-1.4c0.5,0-6.1,3.8-13.3,2.9c0,0,2.8,2.8,14.4-0.8c3-0.9,2.1-4.5,2.1-7.4c0-2.9-1.1-16.2-1.6-20.5
						C209.8,78.5,209.1,68.7,209.1,68.7z"/>
				</g>
				<g>
					<path class="st19" d="M187.7,39.3c0-4.2,1.5-7.7,7.5-7.8c3.9-0.1,5.7,1,6.7,2.8c1,1,1.5,2.4,1.4,4.4c0.1,0-0.3,0.4-0.2,0.4
						c0.9-0.2,0.6,1.2,0.4,3c-0.2,1.5-0.1,2.5-1.1,2.7c-0.7,4.5-3.4,6.5-6,6.9c-0.3,0.1-0.5,0.1-0.8,0.1c-2.9,0.1-6.3-2.3-7-7
						c-0.8-0.4-1.5-1.5-1.6-2.8C186.9,40.5,186.7,39.5,187.7,39.3z"/>
				</g>
				<g>
					<path class="st15" d="M177.8,58.5c-2.2,0.1-4.4,3.1-5,5.5c-0.6,2.4-6.7,20.4-0.2,27.9c2.6,3,23.3-9.2,24.3-9.7
						c0.9-0.5-2.9-3.5-3.8-4.2c-1-0.7-11.2-0.2-12.4-0.6c-1.2-0.4-1.7-0.6-1.2-4.8C180,68.5,177.8,58.5,177.8,58.5z"/>
					<path class="st16" d="M179.1,66.5c-1.1,1-6.2,14.5-4.4,14.3c1-0.1,2.9-1.5,3.5-1.1C178.9,80.1,179.1,66.5,179.1,66.5z"/>
					<g>
						<path class="st19" d="M191.7,83c0.8,0.2,5.4-1.2,6-2.6c0,0-13.8-4-14-4.4c-0.6-1.3-2.1-3.5-3.8-5.2c-0.5-0.5-1-0.7-2.5-1.4
							c-1.1-0.6-1.6-0.1-0.8,0.7c0.7,0.7,1.7,1.2,1.7,1.2l1,1.3c0,0-1-1-1.2-1.2c-0.3-0.3-2-1.1-2.4-1.4c-0.6-0.4-1.4-0.1-0.6,0.7
							c0.7,0.8,1.3,1.1,1.7,1.5c0.6,0.5,1.5,1.6,1.5,1.6c-1.2-1-2.8-2.7-3.5-2.8c-0.7-0.1-1,0.6,0,1.3c1.8,1.2,2.6,2.5,2.6,2.5
							l-2.1-2c0,0-1.2-0.3-0.3,0.8c3,3.6,4.3,6.4,4.7,6.7C180.5,80.7,186.4,82.1,191.7,83z"/>
					</g>
					<g>
						<path class="st19" d="M208.6,73.8c-2.6-0.5-4.1-1-5.1-0.9c-3.6,0.3-15.5,2.2-17.4,5.6c-2.1,3.9,1.7,6.9,1.7,6.9
							c2.6-0.2,13.4-5.9,16.3-7.7c2.4,0.9,6,2.6,6,2.6s1.9-1.5,2.4-2.6C213.2,76.6,211.6,74.3,208.6,73.8z"/>
						<path class="st16" d="M210.4,57.5c2.4,0,4.7,5.7,4.9,8.9c0.8,9.9,2.5,20.9,0.1,22.6c-2.4,1.7-28.5-3.2-29-3.4
							c-0.5-0.2,0.5-7.5,2.4-8c1.9-0.5,17.2,2,18.2,0.8c1-1.2,1.4-6.5,1.7-9.7C209.2,62.8,210.4,57.5,210.4,57.5z"/>
						<path class="st15" d="M177.5,79.9c1.7-1.5,18.4-6.9,21.2-6.5c2.7,0.4,1.3,7.2,1.3,7.2s-18.6,10.1-20.4,10.2
							C177.8,91,177.5,79.9,177.5,79.9z"/>
					</g>
				</g>
				<path class="st15" d="M210,63c0.9,0.7,2.4,12.4,1.3,15.2c-1.1,2.8,1,1,1.7,2.8c0.6,1.7-3.2-1.4-3.2-1.4l3.2,4.6
					c0,0-3.6-2.8-4.1-2.7c-0.5,0,1.2,3,1.2,3l-2.9-4.3L210,63z"/>
				<path class="st16" d="M197.9,73.3c-3.1,0.6-20,5.3-20.9,6.6c-0.9,1.2-1.8,2.7-1.5,2.8c0.4,0.1,9.7-3.7,13.8-4.9
					c4-1.3,10.3-3.3,10.3-3.3L197.9,73.3z"/>
			</g>
		</g>
		<g>
			<path class="st20" d="M508.8,28.4c-0.7-0.3-1.5,0.1-1.8,0.8c-0.3,0.7,0.1,1.5,0.8,1.8c0.7,0.3,1.5-0.1,1.8-0.8
				C509.9,29.5,509.5,28.7,508.8,28.4z M510.3,24.4c-3-1.1-6.3,0.4-7.4,3.3c-1.1,3,0.4,6.3,3.3,7.4c3,1.1,6.3-0.4,7.4-3.3
				C514.8,28.8,513.3,25.5,510.3,24.4z M507.3,32.5c-1.5-0.6-2.3-2.3-1.7-3.8c0.6-1.5,2.3-2.3,3.8-1.7c1.5,0.6,2.3,2.3,1.7,3.8
				C510.5,32.3,508.8,33.1,507.3,32.5z M516.2,36.2l-0.9,0.9c-0.1,0.1-0.4,0.2-0.5,0l-1.5-1.1c-1,0.8-2.3,1.4-3.6,1.6l-0.2,1.8
				c0,0.2-0.2,0.4-0.4,0.4l-1.3,0.1c-0.2,0-0.4-0.1-0.4-0.4l-0.3-1.8c-0.6-0.1-1.1-0.2-1.7-0.4c-0.6-0.2-1.2-0.5-1.7-0.9l-1.5,1.2
				c-0.2,0.1-0.4,0.1-0.5,0l-1-0.9c-0.1-0.1-0.2-0.4,0-0.5l1.1-1.5c-0.8-1-1.3-2.2-1.5-3.5l-2-0.2c-0.2,0-0.4-0.2-0.4-0.4l-0.1-1.3
				c0-0.2,0.1-0.4,0.3-0.4l2-0.3c0.1-0.6,0.2-1.1,0.4-1.7c0.2-0.7,0.6-1.3,1-1.8l-1.3-1.6c-0.1-0.2-0.1-0.4,0-0.5l0.9-0.9
				c0.1-0.1,0.4-0.2,0.5,0l1.7,1.3c1-0.7,2.2-1.2,3.4-1.4l0.1-2.1c0-0.2,0.2-0.4,0.4-0.4l1.3-0.1c0.2,0,0.4,0.1,0.4,0.3l0.4,2.1
				c0,0,0,0,0,0c0.5,0.1,1.1,0.2,1.6,0.4c0.6,0.2,1.1,0.5,1.6,0.8c0,0,0,0,0,0l1.7-1.3c0.2-0.1,0.4-0.1,0.5,0l0.9,0.9
				c0.1,0.1,0.2,0.4,0,0.5l-1.3,1.6c0.7,0.9,1.2,2,1.5,3.1l2,0.2c0.2,0,0.4,0.2,0.4,0.4l0.1,1.3c0,0.2-0.1,0.4-0.4,0.4l-1.9,0.3
				c-0.1,0.7-0.2,1.4-0.5,2.1c-0.2,0.6-0.5,1.1-0.8,1.6l1.2,1.5C516.4,35.9,516.4,36.1,516.2,36.2z"/>
			<g class="st21">
				<path class="st22" d="M525.3,23.7c-0.5-0.2-1,0.1-1.2,0.5c-0.2,0.5,0.1,1,0.5,1.2c0.5,0.2,1-0.1,1.2-0.6
					C526,24.4,525.8,23.8,525.3,23.7z M526.3,20.9c-2-0.8-4.2,0.3-5,2.2c-0.8,2,0.3,4.2,2.2,5c2,0.8,4.2-0.3,5-2.2
					C529.3,23.9,528.3,21.7,526.3,20.9z M524.3,26.4c-1-0.4-1.5-1.5-1.2-2.6c0.4-1,1.5-1.5,2.6-1.2c1,0.4,1.5,1.5,1.2,2.6
					C526.4,26.3,525.3,26.8,524.3,26.4z M530.3,28.9l-0.6,0.6c-0.1,0.1-0.2,0.1-0.4,0l-1-0.7c-0.7,0.5-1.5,0.9-2.4,1.1l-0.1,1.2
					c0,0.1-0.1,0.3-0.3,0.3l-0.9,0c-0.1,0-0.3-0.1-0.3-0.2l-0.2-1.2c-0.4-0.1-0.8-0.2-1.2-0.3c-0.4-0.2-0.8-0.4-1.1-0.6l-1,0.8
					c-0.1,0.1-0.3,0.1-0.4,0l-0.6-0.6c-0.1-0.1-0.1-0.2,0-0.4l0.8-1c-0.5-0.7-0.9-1.5-1-2.3l-1.3-0.1c-0.1,0-0.3-0.1-0.3-0.3l0-0.9
					c0-0.1,0.1-0.3,0.2-0.3l1.4-0.2c0.1-0.4,0.2-0.8,0.3-1.1c0.2-0.4,0.4-0.9,0.6-1.2l-0.9-1.1c-0.1-0.1-0.1-0.3,0-0.4l0.6-0.6
					c0.1-0.1,0.2-0.1,0.4,0l1.1,0.8c0.7-0.5,1.5-0.8,2.3-1l0.1-1.4c0-0.1,0.1-0.3,0.2-0.3l0.9-0.1c0.1,0,0.3,0.1,0.3,0.2l0.3,1.4
					c0,0,0,0,0,0c0.4,0.1,0.7,0.2,1.1,0.3c0.4,0.1,0.8,0.3,1.1,0.6c0,0,0,0,0,0l1.2-0.9c0.1-0.1,0.3-0.1,0.4,0l0.6,0.6
					c0.1,0.1,0.1,0.2,0,0.4l-0.9,1.1c0.5,0.6,0.8,1.4,1,2.1l1.3,0.1c0.1,0,0.3,0.1,0.3,0.3l0,0.9c0,0.1-0.1,0.3-0.2,0.3l-1.3,0.2
					c0,0.5-0.2,0.9-0.3,1.4c-0.1,0.4-0.3,0.8-0.6,1.1l0.8,1C530.4,28.7,530.4,28.8,530.3,28.9z"/>
			</g>
		</g>
		<g class="st23">
			<g class="st24">
				<polygon class="st22" points="415.6,12.9 415.6,29 430.2,29.2 430.2,12.8 				"/>
			</g>
			<g>
				<rect x="418.6" y="17.7" class="st12" width="4.5" height="0.3"/>
				<rect x="418.6" y="18.9" class="st12" width="4.5" height="0.3"/>
				<rect x="418.6" y="20.1" class="st12" width="4.5" height="0.3"/>
				<rect x="418.6" y="21.3" class="st12" width="4.5" height="0.3"/>
				<rect x="418.6" y="22.6" class="st12" width="9.5" height="0.3"/>
				<rect x="418.6" y="24.2" class="st12" width="9.5" height="0.3"/>
			</g>
		</g>
		<g class="st25">
			<g>
				<polygon class="st22" points="427.5,36.6 431.8,41.4 431.6,36.5 				"/>
			</g>
		</g>
		<path class="st26" d="M519.6,36.4l1.7,1.8l-12.9,11.1l-6.8-3.2l-29.5,24.5c1,0.2,1.8,0.9,1.9,1.9l28.2-22.8l6.8,3.2l14.2-12.5
			l1.8,1.9l1.1-6.6L519.6,36.4z"/>
		<path class="st26" d="M505.9,65l1.2,1.4l-9.6,8.2l-5-2.4l-21.9,18.2c0.7,0.1,1.3,0.7,1.4,1.4l21-16.9l5.1,2.4l10.6-9.3l1.3,1.4
			l0.8-4.9L505.9,65z"/>
		<g>
			<path class="st27" d="M127.8,90.4c-0.6-1.3-2.2-1.4-2.7-0.4c-0.5,1-0.3,4.9,1.6,5.5C128.6,96,127.8,90.4,127.8,90.4z"/>
		</g>
		<g>
			<polygon class="st3" points="485.9,178.1 487.4,178.1 481.9,130.7 477.7,130.7 			"/>
			<g>
				<path class="st3" d="M474.2,180.3c-0.4-0.1-0.6-0.5-0.5-0.9l0,0c2-7.1,5.1-21.4,8.1-28.5l0,0c1.1-2.4,1.9-4.1,3.5-4.5l0,0
					c3.3-0.6,6.9-1.1,9.7-1.1l0,0c2.1,0,3.7,0.2,4.8,1l0,0c0.5,0.5,0.6,1.1,0.9,2.1l0,0c0.3,1,0.5,2.3,0.8,3.8l0,0
					c0.5,3,1.1,6.9,1.6,10.7l0,0c1,7.6,1.8,15,1.8,15l0,0c0,0.4-0.3,0.8-0.7,0.8l0,0c-0.4,0-0.8-0.3-0.8-0.7l0,0c0,0-0.8-7-1.7-14.3
					l0,0c-0.9-7.3-2.2-15.2-2.9-16.3l0,0c0,0,0,0,0,0l0,0c-0.3-0.4-1.8-0.7-3.8-0.7l0,0c-2.6,0-6.2,0.4-9.4,1.1l0,0
					c-0.3-0.1-1.4,1.3-2.4,3.6l0,0c-1,2.3-2,5.4-2.9,8.8l0,0c-1.9,6.8-3.8,14.8-5.1,19.5l0,0c-0.1,0.3-0.4,0.6-0.7,0.6l0,0
					C474.4,180.3,474.3,180.3,474.2,180.3L474.2,180.3z"/>
				<g>
					<path class="st3" d="M519.3,128.9c-1.2,2-5.6,12.1-2.9,19c-1.6-0.4-2.4-0.5-2.4-0.5s-1.2-12.9,3.6-19
						C522.4,122.3,519.3,128.9,519.3,128.9z"/>
					<path class="st3" d="M496.5,126.2c1,5.3,1,14-3.2,20.1c1.6,0,1.9-0.3,1.9-0.3s5.2-13.1,3-19.8
						C495.9,118.7,496.5,126.2,496.5,126.2z"/>
					<g>
						<path class="st3" d="M522.6,121.9C522.6,121.8,522.6,121.8,522.6,121.9c0.1-1.1-6.6-2.5-15.2-2.8c-8.6-0.4-13.1,0.9-13.2,1.9
							c0,0-1.4,8.3,0.8,8.8c1.5,0.3,2.9,0.5,11.3,0.9c8.4,0.4,13.9,1.3,15.1-0.1C521.6,130.5,523.5,123.7,522.6,121.9z"/>
						<path class="st4" d="M522.9,121.8C522.9,121.8,522.9,121.7,522.9,121.8c-0.3-1.2-4.5-2.4-13.2-2.8c-8.6-0.4-10.7,0.1-12,0.3
							c0,0-3.7,1.1-3.4,1.5c1.1-1.2,5.5-1.1,11.9-0.8c8.6,0.4,14.9,1.4,15.5,2.6c0,0-0.8,0-0.8,0c0.7,2.4-0.2,6.5-1.1,8.4
							c0.5,0.4,2.5-0.4,2.5-1.3C522.3,129.8,523.8,123.7,522.9,121.8z"/>
					</g>
				</g>
				<path class="st3" d="M497.8,183.1c-0.4-0.1-0.7-0.4-0.7-0.9l0,0c1.5-11.2,3-28.2,4.9-32.9l0,0c0.3-0.7,0.5-1.3,1.3-1.5l0,0
					c4.5-0.9,7.4-2.8,9.8-2.9l0,0c0.6,0,1.2,0.2,1.6,0.5l0,0c0.5,0.5,0.7,1.1,1.1,2.1l0,0c0.4,1,0.8,2.3,1.2,3.9l0,0
					c0.9,3.1,1.9,7,2.9,11l0,0c1.9,7.8,3.7,15.5,3.7,15.5l0,0c0.1,0.4-0.2,0.8-0.6,0.9l0,0c-0.4,0.1-0.8-0.2-0.9-0.6l0,0
					c0,0-1.6-7.2-3.5-14.8l0,0c-1.8-7.5-4-15.6-4.8-16.8l0,0l0,0c-0.2-0.1-0.3-0.2-0.7-0.2l0,0c-1.4-0.1-4.7,1.9-9.4,2.9l0,0
					c0,0,0,0,0,0l0,0c-0.1,0.1-0.2,0.3-0.3,0.6l0,0c-0.2,0.6-0.5,1.4-0.7,2.5l0,0c-0.5,2.1-1,5.1-1.4,8.5l0,0
					c-0.9,6.8-1.8,15.1-2.7,21.5l0,0h0C498.6,182.8,498.2,183.1,497.8,183.1L497.8,183.1C497.8,183.1,497.8,183.1,497.8,183.1
					L497.8,183.1z"/>
				<path class="st3" d="M517.8,145c-0.6-1-23.5-1.9-25.4-1.7c-1.9,0.2-15.3,1.8-16,3.4c-0.7,1.6-1.3,4.3,0.8,5.2
					c2.1,0.9,21.6,3.1,25.1,2.3c2.2-0.5,14.9-2.9,15.4-4.3C518.5,147.4,517.8,145,517.8,145z"/>
				<path class="st4" d="M479.4,146.8c1.8,0.1,19.4,1.9,22,1.3c3.1-0.7,16.4-2.8,14.7-3.1s-20-1.4-23.1-1.4
					C489.8,143.5,478.4,146.7,479.4,146.8z"/>
			</g>
			<polygon class="st28" points="491.2,188.4 489.6,188.4 495.7,134.9 500.4,134.9 			"/>
			<polygon class="st4" points="446.3,181.5 444.7,181.5 454,130.8 458.4,130.8 			"/>
			<polygon class="st4" points="536.1,182.7 537.6,182.7 531,135.3 526.7,135.3 			"/>
			<polygon class="st5" points="538.3,132.5 489.5,134.8 446.9,130.8 478.1,129.9 			"/>
			<g>
				<polygon class="st3" points="538,136.1 491.2,137.6 446.9,134.5 446.9,130.8 490.9,133.7 538,132.4 				"/>
			</g>
		</g>
		<g>
			<linearGradient id="SVGID_2_" gradientUnits="userSpaceOnUse" x1="395.4376" y1="103.7534" x2="421.2194" y2="155.5741">
				<stop  offset="0" style="stop-color:#FFFFFF"/>
				<stop  offset="0.4703" style="stop-color:#A5A6A6"/>
				<stop  offset="0.8301" style="stop-color:#676868"/>
				<stop  offset="1" style="stop-color:#4F5050"/>
			</linearGradient>
			<path class="st29" d="M401.5,130.9c0.7,0,2.4,0.2,2.4,0.2s-1.1,0.3-1.8,0.6h0l-1.8-0.3l-0.2,0
				C400.6,131.1,400.9,130.9,401.5,130.9z M415.4,144.6l9.4,0c-0.7,1.1-1.4,1.9-1.4,1.9s1.1,0.4,2.8,1.1c-2.4,0.7-6,1.8-10,3
				L415.4,144.6z"/>
			<g>
				<polygon class="st30" points="422.4,202.2 424.7,202.2 416.2,129.2 409.8,129.2 				"/>
				<g>
					<g>
						<g>
							<g>
								<g>
									<path class="st31" d="M396.2,173.3c0.7,2-3,20.7-3.6,22.4c-2.1,5.5-5.8,5.4-10,8c2.2,2.2,3.4,3.2,9.3,0.3
										c2.4-1.2,5.8,0.2,6.7-1.2c2-3.2,0.2-1.2,0.3-6.5c0.1-4.7,5.5-15.8,3.8-24.7C401.7,166,395.5,171.3,396.2,173.3z"/>
								</g>
							</g>
							<path class="st16" d="M386.2,201.5c1,0.7,7.7,1.6,11.4-2.2c1.7-1.7,2-0.9,2-0.9s0.9,4.2,0.3,5.2c-0.7,1-0.3,1.6-4,1.5
								c-2.7-0.1-2.7,0-9.6,1.3c-3.7,0.7-6.4-2.5-4.3-2.9C384.1,203.1,386.2,201.5,386.2,201.5z"/>
						</g>
						<path class="st16" d="M443.5,143.7c2.1,4,3,11-0.3,14.3c-1.7,1.7-34.7,6.3-35.8,7.2c0.8,3.6,0.4,7-1.7,13.8
							c-3.7,12-4,15.9-4,15.9s-8-1.9-9.1-1.9c1.1-6.8,2.1-24.7,2.2-28c0.2-4.3,0-6.8,2-8.5c2-1.7,32.7-10.8,34.4-11.4
							C432.9,144.6,443.5,143.7,443.5,143.7z"/>
					</g>
				</g>
				<g>
					<path class="st32" d="M471.4,183.8c0,15.3-13.6,27.6-30.3,27.6c-16.7,0-30.3-12.4-30.3-27.6c0-15.3,13.6-27.6,30.3-27.6
						C457.8,156.1,471.4,168.5,471.4,183.8z"/>
					<path class="st33" d="M441.1,158.1c-8.8,0.1-22.7,6.7-23.8,12.3c4.8-3.5,13.9-5.9,20.6-5.9c15.5,0,26.8,8.2,26.8,22.3
						c0,6.1-2.3,11.7-6.2,16.1c6.3-4.7,10.4-11.8,10.4-19.9C469,169,458.2,157.9,441.1,158.1z"/>
				</g>
				<polygon class="st30" points="357.2,207 355.1,207 364.4,133.9 370.5,133.9 				"/>
				<g>
					<g>
						<g>
							<g>
								<g>
									<path class="st19" d="M399.9,175.4c0.8,2.2-3.2,22.2-3.9,23.9c-2.3,5.9-6.2,5.7-10.6,8.5c2.3,2.4,3.7,3.4,9.9,0.3
										c2.5-1.3,6.2,0.2,7.2-1.3c2.1-3.4,0.2-1.3,0.3-7c0.1-5.1,5.9-16.9,4.1-26.4C405.8,167.6,399.1,173.3,399.9,175.4z"/>
								</g>
							</g>
							<path class="st16" d="M389.2,205.5c1.1,0.7,8.2,1.7,12.2-2.3c1.8-1.8,2.1-1,2.1-1s1,4.4,0.3,5.5c-0.7,1.1-0.3,1.7-4.2,1.6
								c-2.9-0.1-2.9,0-10.3,1.4c-3.9,0.7-6.8-2.7-4.6-3.1C386.9,207.2,389.2,205.5,389.2,205.5z"/>
						</g>
						<path class="st15" d="M450.5,143.8c2.2,4.3,3.2,11.8-0.3,15.3c-1.8,1.8-37,6.7-38.3,7.7c0.9,3.8,0.4,7.4-1.8,14.8
							c-3.9,12.8-4.3,17-4.3,17s-8.5-2-9.8-2c1.1-7.3,2.2-26.4,2.4-29.9c0.2-4.6-0.3-8.1,1.9-9.9c2.2-1.9,26.9-8.1,35.9-12.8
							C437.9,143,450.5,143.8,450.5,143.8z"/>
					</g>
				</g>
				<polygon class="st31" points="423.6,125.6 428.9,117.1 431.4,126.4 425.1,130.6 423.3,129.2 				"/>
				<path class="st34" d="M431.9,105.3c-1.3,1-3.4,3.6-3.4,3.6l1.8,4.7l2.8-6.5L431.9,105.3z"/>
				<g>
					<path class="st31" d="M442.3,107.1c-1.2-2.3-6.1-5.8-7.6-17.1c-0.6-4.7-8.2,11.7-8.2,11.7c2.8,1.1,4.8,3.1,4.3,6.9
						c-1.7,7.1-3.3,11.8-3,11.5C426.9,124.2,443.2,107.6,442.3,107.1z"/>
					<path class="st31" d="M428.4,103.2l10.3,6.9l2.3-2.3c0,0-0.5-2.3-1.8-4.4c-1.9-3-3.7-8.6-3.7-8.6S432.1,100.9,428.4,103.2z"/>
				</g>
				<path d="M425.2,94.7L425.2,94.7L425.2,94.7L425.2,94.7L425.2,94.7L425.2,94.7z"/>
				<path class="st35" d="M436.1,106.2c-1.2,1-6.6,7.1-6.6,7.1c-0.9,2.8-2.7,6-3.8,9.3c-0.6,1.9,0,4.4,1,5.8
					c0.9,1.3,3.3,7.1,3.3,8.4c0,2.6-4.3,8.1-4.3,8.1s28.2,11.8,27.6,7c-1.1-9.1-4.8-16.8-6.3-31.8c-0.3-3.5-0.7-7.8-2.7-11.4
					c-0.6-1.1-2.3-3-4.2-4.9C438,104.9,437.8,104.8,436.1,106.2z"/>
				<path class="st34" d="M428.5,115.4c3-5.5,3.4-5.1,4.3-7.1c0.6-1.2,0.6,0.8,0.6,0.8L428.5,115.4z"/>
				<path class="st34" d="M429.8,110.2c0.2,0.8-3.4,10.8-3.4,10.8l3.1-4.6l0.8-5.7L429.8,110.2z"/>
				<g>
					<g>
						<g>
							<polygon class="st34" points="433.9,112.3 431.5,108.5 439.1,101.5 440.7,104.1 							"/>
						</g>
					</g>
				</g>
				<g>
					<polygon class="st22" points="376.1,219 373.7,219 382.9,138.6 390,138.6 					"/>
					<polygon class="st22" points="443.2,217.5 445.7,217.5 435,140.1 427.9,140.1 					"/>
					<polygon class="st22" points="446.9,137.6 377,137.6 356.1,130.8 403.5,129.7 					"/>
					<g>
						<polygon class="st30" points="446.5,143 378.2,143 356.1,136.4 356.1,130.8 379.1,137.5 446.5,137.5 						"/>
					</g>
				</g>
				<g>
					<path class="st19" d="M422.1,100.6c-0.1-0.5,0.4-2.2,0.1-4.5c-0.2-0.6-0.6-1.7-0.7-1.9c-1.4-6.3,0.7-9.9,5.7-11
						c5-1.1,7.7,1.1,9.1,7.3c1.4,6.3-1.2,10-3.8,12.2c-0.9,0.7-4.3,2.3-5.4,2.2c-1-0.1-2.4-1.5-3.2-3.6
						C423.4,101.4,422.3,101.4,422.1,100.6z"/>
					<g>
						<g>
							<path class="st15" d="M421,89c0.2,0,0.4,0.3,1.1,0.2c0.1,0-0.1-0.3,0-0.3c0.8,0,1.6,0.2,3,0.8c0.2,0.1,0.6-0.3,0.9-0.1
								c0.7,0.4,0.9,0.9,1.7,1.4c0.2,0.2,0.8,0.7,1.1,0.9c0.2,0.2,0.6,0.1,0.8,0.3c0.4,0.4,0.9,0.3,1.4,0.8c0.4,0.4,1,0.2,1.2-0.6
								c0,0,0.8-1.2,1.6-0.1c1.2,1.7-0.1,3.8-0.1,3.8l3.3,2.9c0,0,7.3-6.2,2.7-13.7c-4.4-7.1-11.7-4.5-17-1.4
								C420.4,85.5,421,89,421,89z"/>
							<path class="st16" d="M423.4,89.1c2.8-0.8,3.3-3.8,5.5-5.8c2.2-2.1,6.1-2.3,7.1-1.6c-1.5-0.2-4.9-0.9-6.7,3
								c-1.8,3.8-2.4,5-3.9,5.2C423.9,90,423.4,89.1,423.4,89.1z"/>
							<path class="st16" d="M423.7,89.3c1.7-1.9,0.9-3.2,3.6-5.4c2.7-2.3,6.3-2.3,6.3-2.3s-4.4-0.2-7.2,2.3
								c-2.8,2.4-4.6,5.7-3.8,5.8C423.4,89.7,423.7,89.3,423.7,89.3z"/>
							<path class="st16" d="M433.9,81.2c-0.4-0.1-6.5,0.1-10,4.1c-2.4,2.7-1.1,3.7-1.4,4c-0.3,0.3-0.6-0.1-0.6-0.4
								c0-0.2-0.9-2.4,2.9-5.1C429.1,80.5,434.2,81.3,433.9,81.2z"/>
							<path class="st16" d="M427.3,90.5c1.7-0.2,2-2,3.8-5c1.7-3,2.8-2.3,2.8-2.3s-1.8,0-1.9,1.8c-0.1,1.8-3.2,6-3.9,6.1
								C427.3,91.1,427.3,90.5,427.3,90.5z"/>
							<path class="st16" d="M428,91.1c0.5,0.4,0.8,1.6,2.1-0.5c1.3-2.1,2.4-5.1,2.8-5.5c0.4-0.4,0,0.1-0.6,1.7
								c-0.6,1.6-1.7,5.6-2.7,5.7C428.8,92.6,428,91.1,428,91.1z"/>
						</g>
						<path class="st15" d="M435.1,81c-0.4-2.2,0.9-4,3.3-4.1c0.4,0,1-0.8,1.5-0.7c0.5,0.1,1.9,0.7,2.4,0.9c3.5,1.3,5.5,8.5-3.8,9.8
							C435.2,87.3,435.1,81,435.1,81z"/>
						<path class="st16" d="M436.4,82.6c3.2-1,4.7-6.6,3.1-6.2c-0.9,0.2,1.5-1.1,1.8,0.9c0.3,2-3.9,6.2-3.9,6.2s5.3-4.2,4.6-6.4
							c1.5,0.1,0.2,5.5-2.2,6.8c-2.5,1.2-1.5,0.9-1.5,0.9L436.4,82.6z"/>
						<path class="st16" d="M438.4,76.9c-0.3,0.8-1.4,5.1-2.2,5.5c-0.9,0.4,0.5,0.4,0.5,0.4s2.6-2,2-5.6
							C438.6,76.7,438.4,76.9,438.4,76.9z"/>
					</g>
				</g>
				<g>
					<path class="st15" d="M393.4,132.3c0.1,0.2,0.2,0.3,0.4,0.3l8.4,3.6c0.2,0,0.3-0.2,0.2-0.5l-5.4-29.2c-0.2-0.7-0.6-0.8-1-0.9
						l-7.8-1.2c-0.4,0-0.6,0.4-0.6,0.6L393.4,132.3z"/>
					<path class="st15" d="M424.3,134.6c0.1,0.1,0.2,0.3,0,0.3l-22.5,0.5c-0.2,0-1.1-0.3-1-0.4l-4.6-3.9c0.1-0.1-1.1-1-1-1l12.3,0
						c0.2,0,0.7,0,0.7,0.1L424.3,134.6z"/>
					<path class="st16" d="M424.5,135.3c0,0.2-0.2,0.4-0.4,0.4l-21.9,0.4c-0.2,0-0.4-0.2-0.4-0.4l0-0.4c0-0.2,0.2-0.4,0.4-0.4
						l21.9-0.4c0.2,0,0.4,0.2,0.4,0.4L424.5,135.3z"/>
				</g>
				<path class="st31" d="M426.1,130.2c-2.9-2.9-1.1-6.7-1.1-6.7c-1.2,1.6-1.7,2.7-2.8,2.9c-1,0.2-7.6,1.4-11,1.9
					c-1.6-0.3-3.5-0.9-4.2-0.8c-1,0.2-2.3,0.1-2.9,0.6c-0.6,0.4-2.5,1.8-2,2.3c0.2,0.2,0.4,0,1.2-0.6c0.5-0.3,0.8-0.6,1.5-0.6
					c0.7,0,2.3,0.2,2.3,0.2s-2.6,0.6-2.3,1.2c0.1,0.2,0.3,0.3,1.5,0.1c1.1-0.2,2,0.8,3.2,0.6c0.8-0.1,1.1-0.2,2-0.4
					C414.2,131.2,428,132.1,426.1,130.2z"/>
				<g>
					<path class="st19" d="M437.9,115.1c-0.8,0.6-4.2,8.2-8.3,12.3c-0.5,0.5-12.6,3-12.8,2.9c-0.9-0.6-1.5-1-2.1-1.1
						c-0.8-0.2-3.1-0.5-3.3-0.3c-0.7,0.5,1.2,0.6,1.2,0.6s-2.7,0-3.4,0c-0.8,0-1.6,0.6-1.9,0.8c-0.5,0.3-0.6,0.8,0.2,0.6
						c0.7-0.2,1.2-0.7,1.8-0.6c0.5,0.1,1.4,0,1.4,0s-1.1-0.1-1.8,0.1c-0.7,0.2-1.9,0.9-1.9,0.9s-0.4,0.7,0.1,0.6
						c1.1-0.2,2.4-0.7,2.4-0.7l1.6-0.2c0,0-3.8,0.5-3.8,1.2c0,0.3,0,0.3,1.3-0.1c1.7-0.5,1.4,0,1.4,0s-1.2,0.2-1.8,0.3
						c-0.5,0.1-0.8,0.4,0.1,0.5c1,0.2,1.4-0.1,2.4,0.2c3.2,1,6.4,0.5,6.4,0.5c9.6,1.2,15.2-0.1,17.1-1.4c1.9-1.3,12.4-14,10-18.8
						C443.4,112.1,438.7,114.5,437.9,115.1z"/>
					<path class="st34" d="M443,110.1c2.8,2,1.7,11.2-0.5,17.5c-4.9-2.5-10.2-5.1-10.2-5.1s3.1-7.4,3.9-9.6
						C437.5,109.6,440.6,108.4,443,110.1z"/>
				</g>
			</g>
		</g>
		<circle class="st36" cx="394.4" cy="38.1" r="15.8"/>
		<g class="st37">
			<g>
				<g>
					<g>
						<g>
							<path class="st22" d="M399.8,36.6c0-2.5-2.3-4.5-5.2-4.5c-2.9,0-5.2,2-5.2,4.5c0,0.8,0.3,1.6,0.7,2.3c0.7,1.2,1.9,4,2.3,6
								h1.7c0.7,0,1.2,0,1.2,0h1.6c0.4-2.3,2.4-5.9,2.6-6.5l0,0C399.7,37.8,399.8,37.2,399.8,36.6z M398.2,37.9
								c-0.2,0.4-1.6,3-1.9,4.8h-1.2c0,0-0.4,0-0.9,0H393c-0.3-1.4-1.2-3.5-1.7-4.4c-0.3-0.5-0.5-1-0.5-1.6c0-1.8,1.7-3.3,3.8-3.3
								c2.1,0,3.8,1.5,3.8,3.3C398.4,37.1,398.3,37.5,398.2,37.9L398.2,37.9z"/>
						</g>
					</g>
					<g>
						<path class="st22" d="M395.4,30.5c0,0.3-0.3,0.6-0.6,0.6h-0.3c-0.1,0-0.1,0-0.2,0c-0.2-0.1-0.4-0.3-0.4-0.6v-2.7
							c0-0.3,0.3-0.6,0.6-0.6h0.3c0.3,0,0.6,0.3,0.6,0.6V30.5z"/>
						<path class="st22" d="M400.7,33.2c-0.2,0.2-0.6,0.2-0.8-0.1l-0.2-0.2c-0.2-0.3-0.2-0.6,0.1-0.8l2-1.7c0.3-0.2,0.6-0.2,0.8,0.1
							l0.2,0.2c0.2,0.3,0.2,0.6-0.1,0.8L400.7,33.2z"/>
						<path class="st22" d="M401.7,38.8c-0.3,0-0.6-0.3-0.6-0.6v-0.3c0-0.3,0.3-0.6,0.6-0.6h2.7c0.3,0,0.6,0.3,0.6,0.6v0.3
							c0,0.3-0.3,0.6-0.6,0.6H401.7z"/>
						<g>
							<path class="st22" d="M388.6,33.2c0.3,0.2,0.6,0.2,0.8-0.1l0.2-0.2c0.2-0.3,0.2-0.6-0.1-0.8l-2-1.7c-0.3-0.2-0.6-0.2-0.8,0.1
								l-0.2,0.2c-0.2,0.3-0.2,0.6,0.1,0.8L388.6,33.2z"/>
							<path class="st22" d="M387.6,38.8c0.3,0,0.6-0.3,0.6-0.6v-0.3c0-0.3-0.3-0.6-0.6-0.6h-2.7c-0.3,0-0.6,0.3-0.6,0.6v0.3
								c0,0.3,0.3,0.6,0.6,0.6H387.6z"/>
						</g>
					</g>
					<path class="st22" d="M392.4,45.2c0,0,0,2,0,2.2c0,0.2,1.3,1.4,1.6,1.7c0,0,0,0.1,0.1,0.1c0.1,0,0.3,0.1,0.6,0.1
						c0.3,0,0.5,0,0.6-0.1c0,0,0,0,0.1-0.1c0.3-0.2,1.6-1.5,1.6-1.7c0-0.2,0-2.2,0-2.2H392.4z M396.3,47.3
						C396.3,47.4,396.2,47.4,396.3,47.3l-3.2,0.1c0,0-0.1,0-0.1-0.1v-0.1c0-0.1,0-0.1,0.1-0.1h3.1C396.2,47.2,396.3,47.2,396.3,47.3
						L396.3,47.3z M396.3,46.6C396.3,46.7,396.2,46.7,396.3,46.6l-3.2,0.1c0,0-0.1,0-0.1-0.1v-0.1c0,0,0-0.1,0.1-0.1h3.1
						C396.2,46.5,396.3,46.5,396.3,46.6L396.3,46.6z M396.3,46C396.3,46,396.2,46.1,396.3,46l-3.2,0.1c0,0-0.1,0-0.1-0.1v-0.1
						c0-0.1,0-0.1,0.1-0.1h3.1C396.2,45.8,396.3,45.8,396.3,46L396.3,46z"/>
				</g>
			</g>
		</g>
		<path class="st38" d="M374.1,38c0-11.3,9.2-20.5,20.5-20.5l0,0c11.3,0,20.5,9.2,20.5,20.5l0,0c0,11.3-9.2,20.5-20.5,20.5l0,0
			C383.3,58.5,374.1,49.3,374.1,38L374.1,38z M375.3,38c0,10.6,8.6,19.2,19.3,19.3l0,0c10.6,0,19.2-8.6,19.3-19.3l0,0
			c0-10.6-8.6-19.2-19.3-19.3l0,0C383.9,18.8,375.3,27.4,375.3,38L375.3,38L375.3,38z"/>
		<g>
			<g class="st39">
				<g>
					<g>
						<g>
							<path class="st22" d="M470.4,43.9c0-1.6-1.5-3-3.4-3c-1.9,0-3.4,1.3-3.4,3c0,0.5,0.2,1,0.5,1.5c0.4,0.8,1.3,2.6,1.5,3.9h1.1
								c0.4,0,0.8,0,0.8,0h1c0.3-1.5,1.6-3.9,1.7-4.3l0,0C470.3,44.6,470.4,44.3,470.4,43.9z M469.3,44.8c-0.1,0.3-1.1,2-1.3,3.1
								h-0.8c0,0-0.3,0-0.6,0h-0.8c-0.2-0.9-0.8-2.3-1.1-2.9c-0.2-0.3-0.3-0.7-0.3-1.1c0-1.2,1.1-2.2,2.5-2.2c1.4,0,2.5,1,2.5,2.2
								C469.5,44.2,469.4,44.5,469.3,44.8L469.3,44.8z"/>
						</g>
					</g>
					<g>
						<path class="st22" d="M467.5,39.9c0,0.2-0.2,0.4-0.4,0.4h-0.2c0,0-0.1,0-0.1,0c-0.1-0.1-0.3-0.2-0.3-0.4v-1.8
							c0-0.2,0.2-0.4,0.4-0.4h0.2c0.2,0,0.4,0.2,0.4,0.4V39.9z"/>
						<path class="st22" d="M471,41.6c-0.2,0.1-0.4,0.1-0.6,0l-0.1-0.2c-0.1-0.2-0.1-0.4,0-0.5l1.3-1.1c0.2-0.1,0.4-0.1,0.5,0
							l0.1,0.1c0.1,0.2,0.1,0.4,0,0.6L471,41.6z"/>
						<path class="st22" d="M471.6,45.3c-0.2,0-0.4-0.2-0.4-0.4v-0.2c0-0.2,0.2-0.4,0.4-0.4h1.8c0.2,0,0.4,0.2,0.4,0.4l0,0.2
							c0,0.2-0.2,0.4-0.4,0.4H471.6z"/>
						<g>
							<path class="st22" d="M463,41.6c0.2,0.1,0.4,0.1,0.5,0l0.1-0.2c0.1-0.2,0.1-0.4,0-0.5l-1.3-1.1c-0.2-0.1-0.4-0.1-0.6,0
								l-0.1,0.1c-0.1,0.2-0.1,0.4,0,0.6L463,41.6z"/>
							<path class="st22" d="M462.4,45.3c0.2,0,0.4-0.2,0.4-0.4v-0.2c0-0.2-0.2-0.4-0.4-0.4h-1.8c-0.2,0-0.4,0.2-0.4,0.4v0.2
								c0,0.2,0.2,0.4,0.4,0.4H462.4z"/>
						</g>
					</g>
					<path class="st22" d="M465.6,49.6c0,0,0,1.3,0,1.5c0,0.1,0.9,0.9,1,1.1c0,0,0,0,0,0c0,0,0.2,0,0.4,0c0.2,0,0.3,0,0.4,0
						c0,0,0,0,0,0c0.2-0.1,1-1,1-1.1c0-0.1,0-1.5,0-1.5H465.6z M468.1,50.9C468.1,51,468.1,51,468.1,50.9L466,51c0,0-0.1,0-0.1-0.1
						v0c0,0,0-0.1,0.1-0.1h2C468.1,50.8,468.1,50.9,468.1,50.9L468.1,50.9z M468.1,50.5C468.1,50.5,468.1,50.6,468.1,50.5l-2.1,0.1
						c0,0-0.1,0-0.1-0.1v0c0,0,0-0.1,0.1-0.1h2C468.1,50.4,468.1,50.4,468.1,50.5L468.1,50.5z M468.1,50
						C468.1,50.1,468.1,50.1,468.1,50l-2.1,0.1c0,0-0.1,0-0.1-0.1v0c0,0,0-0.1,0.1-0.1h2C468.1,49.9,468.1,50,468.1,50L468.1,50z"/>
				</g>
			</g>
			<path class="st40" d="M455.3,45.1c0-6.2,5-11.3,11.3-11.3l0,0c6.2,0,11.3,5.1,11.3,11.3l0,0c0,6.2-5,11.3-11.3,11.3l0,0
				C460.4,56.3,455.3,51.3,455.3,45.1L455.3,45.1z M456.9,45.1c0,5.4,4.4,9.8,9.8,9.8l0,0c5.4,0,9.8-4.4,9.8-9.8l0,0
				c0-5.4-4.4-9.8-9.8-9.8l0,0C461.2,35.3,456.9,39.7,456.9,45.1L456.9,45.1L456.9,45.1z"/>
		</g>
		<polygon class="st41" points="374.2,35.4 374.2,37 363.2,37 363.2,36.8 363.2,36.8 357.1,28.2 358.4,27.5 364.2,35.4 		"/>
		<g>
			<g class="st42">
				<g>
					<g>
						<g>
							<path class="st22" d="M355.6,17.7c0-1.5-1.4-2.7-3.1-2.7c-1.7,0-3.1,1.2-3.1,2.7c0,0.5,0.1,0.9,0.4,1.3
								c0.4,0.7,1.1,2.4,1.3,3.5h1c0.4,0,0.7,0,0.7,0h0.9c0.2-1.4,1.4-3.5,1.5-3.8l0,0C355.5,18.4,355.6,18,355.6,17.7z M354.6,18.5
								c-0.1,0.3-1,1.8-1.1,2.8h-0.7c0,0-0.2,0-0.5,0h-0.7c-0.1-0.9-0.7-2.1-1-2.6c-0.2-0.3-0.3-0.6-0.3-1c0-1.1,1-2,2.3-2
								s2.3,0.9,2.3,2C354.8,18,354.7,18.3,354.6,18.5L354.6,18.5z"/>
						</g>
					</g>
					<g>
						<path class="st22" d="M353,14.1c0,0.2-0.2,0.4-0.4,0.4h-0.2c0,0-0.1,0-0.1,0c-0.1,0-0.2-0.2-0.2-0.3v-1.6
							c0-0.2,0.2-0.4,0.3-0.4h0.2c0.2,0,0.4,0.2,0.4,0.4V14.1z"/>
						<path class="st22" d="M356.1,15.7c-0.1,0.1-0.4,0.1-0.5,0l-0.1-0.1c-0.1-0.1-0.1-0.4,0-0.5l1.2-1c0.1-0.1,0.4-0.1,0.5,0
							l0.1,0.1c0.1,0.1,0.1,0.4,0,0.5L356.1,15.7z"/>
						<path class="st22" d="M356.7,19c-0.2,0-0.4-0.2-0.4-0.4v-0.2c0-0.2,0.2-0.3,0.4-0.3h1.6c0.2,0,0.4,0.2,0.3,0.3l0,0.2
							c0,0.2-0.2,0.4-0.4,0.4H356.7z"/>
						<g>
							<path class="st22" d="M349,15.7c0.1,0.1,0.4,0.1,0.5,0l0.1-0.1c0.1-0.1,0.1-0.4,0-0.5l-1.2-1c-0.2-0.1-0.4-0.1-0.5,0
								l-0.1,0.1c-0.1,0.1-0.1,0.4,0,0.5L349,15.7z"/>
							<path class="st22" d="M348.4,19c0.2,0,0.4-0.2,0.4-0.4v-0.2c0-0.2-0.2-0.3-0.4-0.3h-1.6c-0.2,0-0.3,0.2-0.3,0.3v0.2
								c0,0.2,0.2,0.4,0.3,0.4H348.4z"/>
						</g>
					</g>
					<path class="st22" d="M351.3,22.8c0,0,0,1.2,0,1.3c0,0.1,0.8,0.9,0.9,1c0,0,0,0,0,0c0,0,0.2,0,0.3,0c0.2,0,0.3,0,0.3,0
						c0,0,0,0,0,0c0.2-0.1,0.9-0.9,0.9-1c0-0.1,0-1.3,0-1.3H351.3z M353.5,24C353.5,24.1,353.5,24.1,353.5,24l-1.9,0.1
						c0,0-0.1,0-0.1-0.1v0c0,0,0-0.1,0.1-0.1L353.5,24C353.5,24,353.5,24,353.5,24L353.5,24z M353.5,23.6
						C353.5,23.7,353.5,23.7,353.5,23.6l-1.9,0.1c0,0-0.1,0-0.1-0.1v0c0,0,0-0.1,0.1-0.1L353.5,23.6
						C353.5,23.6,353.5,23.6,353.5,23.6L353.5,23.6z M353.5,23.2C353.5,23.3,353.5,23.3,353.5,23.2l-1.9,0.1c0,0-0.1,0-0.1-0.1v0
						c0,0,0-0.1,0.1-0.1L353.5,23.2C353.5,23.2,353.5,23.2,353.5,23.2L353.5,23.2z"/>
				</g>
			</g>
			<path class="st26" d="M342.5,18.9c0-5.6,4.5-10.1,10.2-10.1l0,0c5.6,0,10.1,4.5,10.1,10.1l0,0c0,5.6-4.5,10.2-10.1,10.2l0,0
				C347,29,342.5,24.5,342.5,18.9L342.5,18.9z M343.8,18.9L343.8,18.9c0,4.9,3.9,8.8,8.8,8.8l0,0c4.9,0,8.8-3.9,8.8-8.8l0,0
				c0-4.9-3.9-8.8-8.8-8.8l0,0C347.8,10.1,343.8,14,343.8,18.9L343.8,18.9z"/>
		</g>
		<polygon class="st41" points="467.8,25 450.4,25 450.6,26.2 466.1,26.2 466.1,34 467.7,34 467.7,26.2 467.8,26.2 		"/>
		<g>
			<g class="st43">
				<path class="st22" d="M464.3,74.3c0-2.8,2.3-5.1,5.1-5.2l0,0c2.8,0,5.2,2.3,5.2,5.2l0,0c0,2.8-2.3,5.1-5.2,5.1l0,0
					C466.6,79.5,464.3,77.2,464.3,74.3L464.3,74.3z M466,74.3L466,74.3c0,1.9,1.5,3.4,3.4,3.4l0,0c1.9,0,3.4-1.5,3.4-3.4l0,0
					c0-1.9-1.5-3.4-3.4-3.4l0,0C467.5,70.9,466,72.5,466,74.3L466,74.3z"/>
			</g>
			<polygon class="st44" points="467.7,69.5 466,70.3 466,56.5 467.7,56.5 			"/>
		</g>
		<g>
			<linearGradient id="SVGID_3_" gradientUnits="userSpaceOnUse" x1="234.5625" y1="39.1016" x2="225.2858" y2="175.2503">
				<stop  offset="0" style="stop-color:#FFFFFF"/>
				<stop  offset="0.4703" style="stop-color:#A5A6A6"/>
				<stop  offset="0.8301" style="stop-color:#676868"/>
				<stop  offset="1" style="stop-color:#4F5050"/>
			</linearGradient>
			<path class="st45" d="M235.9,91.5c0,0,0,0.1,0.1,0.1c0,0.1,0.1,0.1,0.2,0.2c-0.1,0-0.2,0-0.3,0C235.8,91.7,235.8,91.6,235.9,91.5
				z M231.3,165c-0.5,0-0.8,0.1-0.8,0.2h0l-0.5,14c-0.8,0-1.6,0-2.3,0.1c-2,0.2-4.7,0.6-7.6,1c0.8-6,2.1-18.5,1.3-25.9
				c-0.1-1.2,6.2-1.3,10.3-1.1L231.3,165z"/>
			<g>
				<g>
					<g>
						<ellipse class="st15" cx="231.1" cy="164.5" rx="2.5" ry="0.3"/>
						<path class="st46" d="M229.4,165.3c0,0.6,0.3,1.1,0.8,1.1h1.5c0.4,0,0.7-0.5,0.7-1.1v-23.4c0-0.6-0.3-1.1-0.7-1.1h-1.5
							c-0.4,0-0.8,0.5-0.8,1.1V165.3z"/>
						<path class="st15" d="M228.6,164.5L228.6,164.5l0,17.3h5.1v-17.3c-0.1,0.2-1.2,0.3-2.5,0.3
							C229.7,164.8,228.6,164.7,228.6,164.5z"/>
					</g>
					<g>
						<path class="st15" d="M234,183.2c1.3-0.1,18.3,0.3,19.9,0.6c0.8,0.2,1.1,0.3,1.1,0.9c0.1,1,0.4,1.4,0.5,2.2l2.2-0.3
							c0,0,0.3-3.5-0.8-4.6c-1.1-1.1-16-3.2-20.4-3c-1.9,0.1-5.1-0.1-5.1-0.1L234,183.2z"/>
						<g>
							<ellipse class="st47" cx="254.4" cy="186.5" rx="2.1" ry="2.1"/>
							<circle class="st16" cx="254" cy="186.6" r="1.5"/>
						</g>
						<path class="st15" d="M231,184.5c1.7-0.1,16.1,5.5,17.7,6.9c0.7,0.6,0.8,0.3,0.9,1.1c0.1,1.2,0.7,1.6,0.7,1.6l2.9-0.2
							c0,0,0.4-3.2-0.7-4.4c-1.3-1.4-14.5-8.8-16.8-9.7c-2.3-0.9-5,0.7-5,0.7L231,184.5z"/>
						<g>
							<circle class="st47" cx="248.8" cy="193.3" r="2.7"/>
							<circle class="st16" cx="248.2" cy="193.5" r="1.9"/>
						</g>
						<path class="st16" d="M234.4,179.8c1.1,0.5,14.6,6.1,18.2,9.7c0,0,0.6,0.7,0.6,4.4c-0.5,0.1-0.9,0.1-0.9,0.1s0-3.7-0.8-4.3
							c-7.2-5.2-19.9-9.7-20.8-9.5C232.5,179.6,234.4,179.8,234.4,179.8z"/>
					</g>
					<g>
						<path class="st15" d="M228.7,183.2c-1.3-0.1-18.2,0.7-19.6,1.5c-0.5,0.3-0.8,0.6-0.8,1.2c-0.1,1-0.2,2.1-0.2,2.1l-2.8-0.5
							c0,0-0.3-3.5,0.8-4.6c1.1-1.1,14.2-3.1,20.1-3.9c1.9-0.3,5.1-0.1,5.1-0.1L228.7,183.2z"/>
						<g>
							<ellipse class="st48" cx="208.6" cy="187.4" rx="2.1" ry="2.1"/>
							<circle class="st16" cx="209.1" cy="187.6" r="1.5"/>
						</g>
						<path class="st15" d="M231.7,184.5c-1.7-0.1-15.3,5.8-16.9,7.2c-0.7,0.6-1,1.3-1.1,2.1c-0.1,1.2-0.2,1.4-0.2,1.4l-3.6-0.6
							c0,0,0-3.5,1-4.7c1.3-1.4,13.7-9.1,16-10c2.3-0.9,5,0.7,5,0.7L231.7,184.5z"/>
						<g>
							<circle class="st48" cx="212.6" cy="193.4" r="2.7"/>
							<circle class="st16" cx="213.2" cy="193.6" r="1.9"/>
						</g>
						<path class="st16" d="M228.3,179.8c-1.1,0.5-13.9,6.2-17.5,10.5c0,0-0.6-0.5-0.5,3.9c0.5,0.1,0.9,0.2,0.9,0.2s-0.1-3,0.7-3.5
							c7.2-5.2,19-10.8,20-10.6C230.2,179.5,228.3,179.8,228.3,179.8z"/>
					</g>
				</g>
				<g>
					<path class="st49" d="M208.7,149.7c4.8,2.7,41.5,4.9,47.6-0.4c5-4.4,1.2-7.8-1.5-7.4c-20.1,3.2-46-5.4-48,0.4
						C204.7,148.2,208.7,149.7,208.7,149.7z"/>
					<path class="st50" d="M240.6,137.1c0,0,11.7,0.4,12.9,0.6c1.1,0.2,4.6,5.6,4.6,5.6s-11.6,5.3-40.9,1.5
						c-16.3-2.1-3.2-5.7-1.6-5.7C217,139.2,240.6,137.1,240.6,137.1z"/>
				</g>
				<path class="st49" d="M223.6,89.9c6.9-1.9,27.4-2,31,1.3c1.8,1.6,2.7,2.7,2.9,5.5c0.3,2.8,2,29,0.9,33.2c-0.9,3.6-3,3.6-5.3,3.9
					c-2.3,0.3-29-1.4-32.6-1.7c-3.8-0.3-6.3-1.3-6.1-7.2c0.2-6,5.1-26.8,5.2-29.5C219.6,91.9,223.6,89.9,223.6,89.9z"/>
				<path class="st46" d="M223.6,139.5c5.1,1.7,15.7,3.6,19.9,2.3c5.1-1.5,7.6-7.1,5.2-9.5c-2.4-2.4-17.6,0.2-20.6,1.6
					C225,135.2,223.6,139.5,223.6,139.5z"/>
				<g>
					<path class="st51" d="M206.2,179.5c0.1,3.6-0.3,10.8-4.5,14.3c-4.2,3.5,0.5,3.5,2,3.6c1.5,0.1,8.9-1.5,9-2.5
						c0.2-2.2,0.3-2.4-0.4-5.8c-0.8-3.8,0.7-5.9,0.9-7.6C213.3,179.8,206.2,179.5,206.2,179.5z"/>
					<path class="st15" d="M207.4,195.6c0.7-2.9-4.9-6.3-6.5-3c-1.2,2.3-2.5,2.5-2.5,2.5s-6.7,3.1-4.2,6.9c1.7,2.5,9.5,0.4,12.6-1.7
						C209.7,198.4,207.4,195.6,207.4,195.6z"/>
					<path class="st15" d="M212.6,191.1c1.6,3.1,1.1,6.2,0.2,6.6c-0.9,0.4-2.8-0.4-6.8,2.8c-1.3,1-2.9-2.8-2.9-2.8s5.1-3.5,7-3.8
						C211.8,193.7,212.6,191.1,212.6,191.1z"/>
				</g>
				<path class="st46" d="M240,123.1l-12.3-1.3c-1.3,0.2-6.3,5-7.3,5.2c-10.3,2-15.6,6.1-16.5,11.7c-0.2,1-0.6,7.5-0.1,10.2
					c2.3,12.4-0.7,31-1,35c-0.4,5.6-0.4,5.6-0.4,5.6s11.1,0.9,14.2,6.1c4.9-10.4,0-9.6,1.3-11.7c1.3-2.2,1.8-19.1,0.4-29.1
					c-1.3-10-0.9-10.7-0.9-10.7l13.6-5.9L240,123.1z"/>
				
					<linearGradient id="SVGID_4_" gradientUnits="userSpaceOnUse" x1="-32.6919" y1="113.1079" x2="-24.1071" y2="80.0408" gradientTransform="matrix(-0.9991 -4.210000e-02 -4.210000e-02 0.9991 209.7897 19.7854)">
					<stop  offset="0" style="stop-color:#FFFFFF"/>
					<stop  offset="9.301316e-02" style="stop-color:#F9F8F8"/>
					<stop  offset="0.2283" style="stop-color:#E7E5E5"/>
					<stop  offset="0.3894" style="stop-color:#C9C5C5"/>
					<stop  offset="0.5703" style="stop-color:#A1999A"/>
					<stop  offset="0.7654" style="stop-color:#6D6162"/>
					<stop  offset="0.8681" style="stop-color:#4F4042"/>
				</linearGradient>
				<path class="st52" d="M224,121.2l11.7,14l6,1.5c0,0,3-3.7,3.2-7.5c0.2-3.8,2-6.7,0.7-7.5c-1.3-0.8-14.8-5.2-16.8-5
					C226.8,117.1,224,121.2,224,121.2z"/>
				<path class="st35" d="M241.7,89.5c10.6,3.1,13.1,5.6,13.1,5.6s-3.4,13.5-3.5,15c-0.1,1.5-0.9,7.9-0.6,14.2
					c0.3,6.7,1.9,4.7,0.6,8.3c-0.4,1-1.2,1.7-1.2,3.2c-1.9-0.3-5.3-1.3-7.8-4.1c-3-3.3-13.9-3.3-16.1-3.6c-5.7-0.8-8.1,0.7-8.1,0.7
					c0.8-3.3,1.3-6.2,3.5-11.6c2.1-5.2-1-9.7-0.6-12.2c0.3-2.5-0.8-9.4,0.3-11c1.1-1.6,5.6-3.7,10.9-4.6
					C234.6,89,241.7,89.5,241.7,89.5z"/>
				<g>
					<path class="st19" d="M231.8,83.7c0.4,2,0.3,5.7-0.5,7.3c-0.8,1.6,1.7,4.7,4.1,5.6c4.8,1.8,8.6-5.5,8.6-5.5s-1.8-1.7-2.1-2.6
						c0-0.1,0-0.2-0.1-0.2c-0.3-1.2-0.6-3.6-0.6-8.5C241.2,78.3,231.8,83.7,231.8,83.7z"/>
					<g>
						
							<linearGradient id="SVGID_5_" gradientUnits="userSpaceOnUse" x1="-29.6437" y1="65.6652" x2="-26.6752" y2="52.0937" gradientTransform="matrix(-0.9987 -5.180000e-02 -5.180000e-02 0.9987 212.1704 24.6249)">
							<stop  offset="0" style="stop-color:#FFFFFF"/>
							<stop  offset="0.5165" style="stop-color:#C6C0B9"/>
						</linearGradient>
						<path class="st53" d="M231.9,87.6c0.8,1.3,4.6,7.5,6.3,7.5c1.4,0,5-2.7,5.9-3.6c-3.7-1.8-3-10.1-3-10.4
							C241.2,81.1,232.8,86,231.9,87.6z"/>
					</g>
				</g>
				
					<linearGradient id="SVGID_6_" gradientUnits="userSpaceOnUse" x1="9.0527" y1="148.1363" x2="13.6838" y2="123.8229" gradientTransform="matrix(-1 0 0 1 238.1621 0)">
					<stop  offset="0" style="stop-color:#FFFFFF"/>
					<stop  offset="9.301316e-02" style="stop-color:#F9F8F8"/>
					<stop  offset="0.2283" style="stop-color:#E7E5E5"/>
					<stop  offset="0.3894" style="stop-color:#C9C5C5"/>
					<stop  offset="0.5703" style="stop-color:#A1999A"/>
					<stop  offset="0.7654" style="stop-color:#6D6162"/>
					<stop  offset="0.8681" style="stop-color:#4F4042"/>
				</linearGradient>
				<path class="st54" d="M204.4,136.1l15.4,9c0,0,29,3.3,30.2-2.1c1.3-5.4-6.6-13.7-11.3-12c-4.7,1.7-20.7,3-23.1,3.1
					C213.2,134.2,204.4,136.1,204.4,136.1z"/>
				<g>
					<g>
						<g>
							<g>
								<path class="st46" d="M236.3,111.7l-8.2,0l1.4,11.9c0,0,0,0,0,0c0,0.2,1.2,0.4,2.8,0.4c1.5,0,2.7-0.1,2.7-0.3h0L236.3,111.7
									z"/>
								<path class="st22" d="M232.3,124c-1.5,0-2.8-0.2-2.8-0.4c0,0-1.4-11.9-1.4-11.9h4.1L232.3,124z"/>
								<path class="st55" d="M236.3,111.7c0,0.3-1.8,0.5-4.1,0.5c-2.3,0-4.1-0.2-4.1-0.5c0-0.3,1.8-0.5,4.1-0.5
									C234.5,111.2,236.3,111.4,236.3,111.7z"/>
							</g>
						</g>
						<g>
							<g>
								<path class="st46" d="M227.9,111l-0.4,1.8c0.1,0.3,2.1,0.5,4.7,0.5c2.6,0,4.6-0.2,4.7-0.5c0,0,0,0,0,0l-0.2-1.8L227.9,111z"
									/>
							</g>
							<path class="st22" d="M236.8,111c0,0.3-2,0.5-4.4,0.5c-2.4,0-4.4-0.2-4.4-0.5c0-0.3,2-0.5,4.4-0.5
								C234.8,110.5,236.8,110.7,236.8,111z"/>
						</g>
					</g>
					<g>
						<path class="st19" d="M235.3,115c-0.5-0.5-1.8-0.6-2-0.6c0,0,1.3,4.3,0.6,5.2c-0.3,0.4,3,1.1,3.7,0.8c2.5,0,1.2-1.1,1.3-2.6
							C239.1,116.3,238.3,117.3,235.3,115z"/>
						<path class="st19" d="M233,114.4c-0.5,0.1-1.2,0.5-1.7,0.9c-0.5,0.3-2.1,1.4-2,1.7c0.2,0.3,1.2-0.3,2.2-0.7
							c1.1-0.4,1.1-0.3,1.4-0.2c0,0-0.9,0.3-1.7,0.6c-0.6,0.2-2.3,0.8-2,1.4c0.2,0.4,1.3-0.4,2.1-0.5c0.9-0.2,1.9-0.4,1.9-0.4
							s-0.8,0.3-1.6,0.6c-0.9,0.4-1.9,0.7-1.8,1c0.1,0.3,1.2,0.1,2.2,0c0.8-0.1,1.7,0,1.7,0s-3.6,0.6-3,1.1c0.6,0.4,2.9,0.1,4.2-0.2
							c0.6-0.2,0.4-1.7,0-3.1C234.4,114.2,233,114.4,233,114.4z"/>
					</g>
				</g>
				<path class="st19" d="M237.9,116.9c2,0.1,6.1,0.9,7.2,0.8c1.2-0.1,2.5,4.9,1.3,5.3c-1.3,0.4-8.6-2-9.3-2.7
					C236.3,119.6,237.9,116.9,237.9,116.9z"/>
				<path class="st22" d="M244.8,117.4c-0.3-0.1-2.3-0.2-2.3-0.2s-0.3,5.6-0.9,5.8c2,0.8,4.3,0.1,4.3,0.1L244.8,117.4z"/>
				<path class="st34" d="M253.2,94.7c1.4-0.5,2.5,1.9,4,4.6c1.4,2.7,6.6,21.8,4.1,24.5c-1.8,2-16.9,0.9-18,0.9
					c0.2-1.6,1.5-7.6,0-7.7c5.2,0.1,9.5-0.6,9.5-0.6s-0.6-2.1-1.4-5C248.9,103,253.2,94.7,253.2,94.7z"/>
				<g>
					<path class="st51" d="M201.8,133.8c-4.3-0.1-5.7,0.6-6.4,1c-0.3,0.2-3.5,0.5-4.6,1.2c-1.5,1-2.7,5.6-3.3,7.6
						c-1,3.4-0.1,1.2,2.2,1.1c2.3-0.2,11.3-5.5,13.5-5.4C205.4,139.4,201.8,133.8,201.8,133.8z"/>
					<path class="st22" d="M249,126.7c-1.7-2.8-6.8-3.6-12.9-1.4c-3.2,1.2-37.2,4.5-42.7,9.4c0,0,1.9,8.9,3.7,10.6
						c0.4,0.4,2.4-1.2,4.6-2.8c1.3-1,4.5-3.3,6.7-3.3c6.8,0.1,26.8-0.5,33.4-0.3C255.8,139.4,249,126.7,249,126.7z"/>
					<path class="st15" d="M184.2,142.5c0.4-0.7,4-3.3,4.5-4.2c1.1-2.2,1.3-2.7,2-3c0.7-0.3,2.1-0.1,2.8,0l-2.5,1.2
						c-1.5,1.8-2.9,4.6-1.9,3.9c2-1.4,3.8-1.5,5.6,0.4c2,2.1,0.9,5.3-1.4,5.6c-1.3,0.2-1.9,1.4-4.2,3.1c-2.9,2.2-5.4,1.7-6.5,0.8
						C180.1,148,182.6,144.5,184.2,142.5z"/>
					<path class="st46" d="M250.7,133.2c-5.7,4.2-10.9-0.4-10.9-0.4s-18.9,4.9-25.7,5.2c-6.8,0.3-10.4,0.1-11.4-1.3
						c-1-1.4-0.1,2.3-0.1,2.3s-3.4-0.4-3.7-3.8c-1.7,0.3-0.9,5.9-0.9,5.9l1.3,3.4c0,0,1.7-1.1,3.1-2.1c1.1-0.8,2.8-2.6,4.6-2.6
						c6.2-0.2,29.9-0.9,35.1-0.4c5.2,0.5,7-1.4,7.8-2.9L250.7,133.2z"/>
				</g>
				<g>
					<path class="st19" d="M219.1,124.2c0.5,0.4,2.2,1.3,2.8,1.7c0.6,0.3,1.5,0.9,3,1.5c0.4,0.1,0.4,0.7-0.1,0.7
						c-0.5-0.1-1.4-0.3-2.1-0.4c-0.4,0,0.3,1.3,0.5,1.8c0.2,0.5,0.4,4.3,0,4.5c-0.7,0.2-0.6-3.8-0.8-3.6c-0.2,0.1,0.1,3.7-0.3,3.8
						c-1.2,0.5-0.4-3.2-1-3.4c0,0,0.1,0.8,0.1,1.6c0,0.8-0.1,1.8-0.2,2c-0.5,0.7-0.9-4.2-1.4-3.8c-0.4,0.3,0.3,3.3-0.3,3.3
						c-0.3,0-1-3.4-1-3.4s-2.5-3.6-2.9-5.2c-0.3-0.9-1-3.1-1-3.1l3.3-0.9C217.8,121.4,218.2,123.5,219.1,124.2z"/>
					<path class="st22" d="M218.6,122.7c0.4,0.3,2.4,2.4,2.4,2.4s-2.7-1-4.4,3.5c-0.4,0.9-1.5-1.5-1.5-1.5L218.6,122.7z"/>
					<path class="st34" d="M221.7,93.6c0.6,1,0.9,12.3-0.1,16.1c-1.1,4-3.6,10.6-3.6,10.6s2,1.5,3,3.9c-2.8,0.2-5.8,4.8-5.8,4.8
						s-4.4-1.2-4.4-4.2c-0.1-5.6,3.9-18,5.9-24C218.5,95.1,221.7,93.6,221.7,93.6z"/>
				</g>
				<path class="st22" d="M210.2,139.7c-2.1-1.2-6.6-0.5-7,2.4c-0.3,2.9,0.8,7.5,1.2,8.8c0.3,1.3-1.3,28.3-1.3,30c0,1.6-1,7.2-1,7.2
					s8.2-1.3,11.2,0.4c3,1.8-5.9-4.4-6.9-4c4.3,0.3,6,0,6,0l-3.7-3.4c0,0,0.3-27.4,0.3-30C209.1,148.4,214.2,142,210.2,139.7z"/>
				<g>
					<path class="st22" d="M234.4,94.7c-0.6-0.6-4.1-0.8-6.2,2.9c-0.4,0.8,1.6-7.2,2-7.9c0.4-0.7,1.6-1.7,1.6-1.7s-0.6,2.2,0.4,3.9
						C233,93.3,234.4,94.7,234.4,94.7z"/>
					<path class="st22" d="M233.1,93.8c0.8,0.4,2.3,1.9,2.3,2.8s-1.1-0.4-1.1-0.4s-1.9-1.7-3.1-2C230.1,93.8,233.1,93.8,233.1,93.8z
						"/>
				</g>
				<g>
					<path class="st22" d="M239.4,94.8c0.6-0.6,4.1-0.8,6.2,2.9c0.4,0.8-1.6-7.2-2-7.9c-0.4-0.7-1.6-1.7-1.6-1.7s0.6,2.2-0.4,3.9
						C240.8,93.4,239.4,94.8,239.4,94.8z"/>
					<path class="st22" d="M240.7,93.9c-0.8,0.4-2.3,1.9-2.3,2.8s1.1-0.4,1.1-0.4s1.9-1.7,3.1-2C243.7,93.9,240.7,93.9,240.7,93.9z"
						/>
				</g>
				<g>
					<path class="st19" d="M228.5,81.7c-0.3-1.6-0.6-2.8,0.4-3.1c-0.5-4-0.2-7.4,5.5-8.3c0.9-0.1,1.6-0.2,2.3-0.1c0,0,0,0,0,0
						c4.1,0.2,5.9,1.8,6.4,5.2c0.1,0-0.2,1.2-0.1,1.2c1.1-0.1,1,1.1,1,2.6c0,1.4-0.8,2.5-1.1,2.7c-0.2,1.1-0.9,2.7-1.3,3.7
						c0,0.1-0.1,0.2-0.1,0.2c-0.1,0.2-0.2,0.3-0.2,0.5c-0.1,0.2-0.2,0.4-0.3,0.5c-0.1,0.1-0.1,0.2-0.2,0.3c-0.2,0.3-0.4,0.6-0.6,0.8
						c0,0,0,0,0,0c-0.8,0.9-1.7,1.6-2.8,1.7c-2.8,0.5-5.4-2.7-6.9-6.1C229.6,83.3,228.7,82.9,228.5,81.7z"/>
					<path class="st16" d="M236.2,69.8l-0.2-0.3c0,0-1.6-0.8-1.3-0.8c0.2,0,0.6-0.6,1,0.2l0.5-1.5l2.6,1c0,0,0.5-0.1-0.1-0.8
						c-0.5-0.6,2.4,2.3,2.4,2.3s-0.2-0.5-0.8-1.2c1.4,1.1,2.6,2.8,2.8,4.2c0.1,0.4,0.2,0.9,0.3,1.4c0.4,2.1-0.2,3.1-0.2,3.1
						l-0.6,0.8c0,0-0.6-4.1-2.5-5.4c-1.9-1.3-5.1,0-5.1,0L236.2,69.8z"/>
					<path class="st15" d="M230.1,83.3c0,0,0.9,4.2,1.6,5.3c0.7,1,3.5,2.7,4.6,3c0.4,0.1,1.9-0.1,1.9-0.1s0.2-3.5-0.2-3.6
						c-1.4-0.1-2.6-0.4-3.1-0.7c-0.5-0.3-2-1.2-2.4-1.7c-0.9-1.2-1.7-2.6-1.7-2.6L230.1,83.3z"/>
					<path class="st16" d="M243.1,81.7c0.1,0.4-0.2,5.1-0.5,5.8c-0.3,0.7-4,4-4.3,3.9c-0.3,0-0.6-3.5-0.6-3.5s2.6-1.2,3.5-2.5
						c0.6-0.8,1.2-3.1,1.5-3.5C243,81.5,243.1,81.7,243.1,81.7z"/>
					<path class="st15" d="M228.1,79.7l0.7-0.9l0.2,0.1c0.5,0.9,1.1,2.6,1.1,2.6l0.8-0.4l-0.2-2.7c0,0-0.2-1.7,0.1-2.6
						c0.3-0.7,1.5-1.7,2.7-2.4c1.7-0.3,5.1-0.5,5.5-1c1-1.1,0.9-2.7-0.3-3.8c-1-1.3-2.7-1.3-2.6-2.5c-0.4,0.9,0.3,1.5,0.6,2.3
						c-0.6-0.6-2-0.1-1-2.2c0.2-0.4-2.8,1.7-2.7,2.9c0,0,0,0,0,0c0-0.8,1.5-2.5,1.5-2.5c-2.9,1.4-2.8,1.4-3.1,2.4
						c-0.2-1,0.6-1,0.5-1.1c-0.2-0.1-2,1.2-2.4,2.2c-0.8,0.5-1.7,1.7-2.1,3C226.4,76,228.1,79.7,228.1,79.7z M236.8,68.7
						C236.8,68.7,236.8,68.7,236.8,68.7C236.7,68.8,236.7,68.8,236.8,68.7z"/>
				</g>
			</g>
		</g>
		<g>
			<g>
				<g>
					<path class="st19" d="M296.6,76.5c-0.6,1.8-4.2,5.6-5,5.7c-0.7,0.1-3.2,0.4-6.4,0c-7.9-1-7.9-2.5-14.4-4.2
						c-0.4-0.1,0.1-3.7,0.1-3.7c7.3-0.7,16.5-0.2,16.9-0.3c1-0.3,8.4-17.8,10.4-18.6C300.2,54.6,296.6,76.5,296.6,76.5z"/>
					<g>
						<path class="st56" d="M288.9,72.5c0.8-1.3,6.1-13.3,6.5-14.7c0.8-3.4,2.5-5.4,3.2-5.6c0,0,3.8,16.9,3.5,19.3
							c-0.2,2.4-7.2,9.8-8.9,10.3C293.2,81.8,288.3,73.5,288.9,72.5z"/>
						<path class="st57" d="M294.9,79.9c0.9-1.8-0.5-8.4-0.1-10.2c0.4-1.8,1.2,6.4,1.2,6.4l0.5-6.3c0,0,1.2,1.3,1.3,2.3
							c0.1,1,2.4-3.4,2.4-3.4s0.9,4.8,0.6,5.8c-0.3,1-5.5,6.5-5.5,6.5L294.9,79.9z"/>
					</g>
					<g>
						<path class="st58" d="M266.4,73.4c-1.3-0.3-6.3-0.2-6.3,0.4c-0.1,0.6,3,0.5,4.6,0.9c0,0-4.4-0.5-4.3,0.1
							c0,0.9,4.5,0.7,4.5,0.7s-3.3,0-3.4,0.4c-0.1,0.7,3.1-0.1,7.4,1.8C270,78.1,266.4,73.4,266.4,73.4z"/>
						<path class="st19" d="M271,73.9c-1.4-0.7-4.5-1.4-4.5-1.4l-3.2-0.3l-2.7,0.1c0,0-0.5,0.7,1,0.9c0.5,0.1,1.8,0.1,2.4,0.3
							c1.3,0.4,2.4,0.9,3.1,2c1,1.5-2,2.1-3.1,3c-0.5,0.4-0.2,0.7,1.3,0.4c2.1-0.5,4.8,0.7,7.7-0.8c2.9-1.5,3.1-2.3,1.9-2.6
							C273.6,75.1,271,73.9,271,73.9z"/>
					</g>
					<path class="st57" d="M287.8,73.6c1.9,0.2,5,7.4,4.9,9.4c1.9,0,4.3-3.4,4.3-3.4s-7-9.5-8.2-9.2
						C287.5,70.7,287.8,73.6,287.8,73.6z"/>
				</g>
				<g>
					<path class="st59" d="M313.3,197.2c0.1-1.9-1-3.1-0.1-12.9c0.1-1.2-8.7-1.6-8.7-1.6c0.4,4.8,1.7,7.8-3,13.6
						c-1,1.3-3.9,3.6-5,4.6c-0.7,0.7-1.6,4.1,2.8,4.1c5.5,0,9.7-1.7,11.1-4.3c0.1-0.2,0.5-0.1,0.5-0.1S313,202.2,313.3,197.2z"/>
					<path class="st59" d="M328.7,188.7l8.3-1.1c0,0-1,1.1-0.3,4c1.2,5.3,3.1,6.3,6.4,9.5c1.9,1.8,1.1,4.6,1.1,4.6s-0.8,0.9-2.5,1.3
						c-2.2,0.4-7.1-0.4-8-1.6c-0.1-0.2-1.2-1.7-1.7-2.1c-0.8-0.6-1.9-0.5-2.1-1.1c0,0-1.1-2.4-0.1-5.1
						C330.8,194.4,328.7,188.7,328.7,188.7z"/>
					<path class="st17" d="M300.5,92c-1,3.2-2.7,12.3-2.7,13.1c-0.1,5.1-0.1,9.6-0.1,12c0,2.6,0.7,31.4,2.6,37.8
						c1.9,6.5,2.4,32.3,1.1,34.2c-1.3,2-0.9,7.5-0.9,7.5s13.3-1.3,13.6,1.2c0,0,0.5-2.7,0.8-8.4c0.6-11.2,0.7-19.1-0.5-34.5
						c-0.9-11.1-0.2-26.2-0.2-30c0-2.9,6.4,28.7,9,37.7c0,0,4.3,19.1,3.2,27.5c-1,7.5,1.3,9.5,1.3,9.5s8.1-4.2,12.6-1.6
						c0.2-2.6,0.5-2.9-0.1-7.6c-0.7-5.8-2.1-19.9-4.6-30.8c-2.2-9.5-2.2-31.2-2.9-42.8c-0.6-11.6-3.3-22.4-4.6-24.8
						C326.7,89.8,300.5,92,300.5,92z"/>
					<path class="st18" d="M298.6,118.5c0.5,13.3,2.3,26.8,3.8,32.6c1.5,5.8,2.4,9.6,3.1,13c0.7,3.4,0.5,20.6,0.5,21.8
						c0,1.2,7.9,8.1,6.3,7.4c-4.3-2-7.5-2.7-7.5-2c0,0.7,5.5,2.6,5.5,2.6s-9.4,0.2-9.9,0c-0.5-0.2,0.1-4.3,0.4-6.9
						c0.3-2.6,2.3-20,0.3-26.3c-1.9-6.3-4-43.7-3.3-47.8C298.6,108.8,298.6,118.5,298.6,118.5z"/>
					<path class="st18" d="M314.4,121.5c2.7,5.3,8.3,33.4,9.5,37.3c1.2,3.9,3.2,7.4,4.2,8.6c1,1.2,6.4,20.6,5.7,24
						c-2.4,0.2-4.8-0.2-5.1,1c-0.2,1.2,6.3,0.7,6.3,0.7l-8.2,4.4c0,0-0.5-4.1-0.5-7.3c0-3.2-0.5-18-3-25.8c-2.4-7.8-4-14.1-5-20.9
						C317.4,136.7,314.4,121.5,314.4,121.5z"/>
				</g>
				<path class="st60" d="M320,45.1c-0.4-0.9-0.8-1.6-1.8-1.5c-1,0.1-10.8,1.8-11.1,3.5c-0.3,1.8,2.2,3.5,3.8,3.8
					C312.6,51.1,320,45.1,320,45.1z"/>
				<g>
					<path class="st61" d="M308,42.6c0.6,2.2,0.6,4.6-0.1,6.6c-0.7,2,2.5,5,3.6,4.9c1.2-0.1,8-6.3,8-6.3s-1.2-7.5-1.5-9.2
						C317.7,36.8,308,42.6,308,42.6z"/>
					<g>
						<path class="st19" d="M307.5,43.5c0,0.3,0.4,1.8,0.3,3.2c1.1,1.4,8.8,6.7,10.7,6.6c1.6-0.1,0.2-2.9,1.2-4.1
							c-0.3-1.6-1.7-10.7-1.7-11.1L307.5,43.5z"/>
					</g>
				</g>
				<path class="st56" d="M301.2,67.7L298,52.2l9-4.4c0.5,0.7,2.6,4.3,4.3,4.2c1.6-0.2,0.9,2.8,0.9,2.8l-0.9,37.3L300.5,92
					c0,0,1.1-1.5,1.1-8.5C301.6,81.4,300.4,73.5,301.2,67.7z"/>
				<path class="st57" d="M310,82.2c0.2-11.2,1.1-29.3,2.8-30.1c1.5-0.7,6.4-4,6.9-5.2l0.4-0.8c6.5,2.7,12.4,2.7,12,3.7
					c0,0-1.2,9.8-1.6,14c-0.5,5.1-4.8,15.3-4.5,20.1c0.2,2.7,1.9,8.1,1.9,8.1s-13.3,0.6-17.5,0C309.4,92,309.9,88.5,310,82.2z"/>
				<g>
					<g>
						<g>
							<polygon class="st62" points="309,91.8 310.9,50.9 314,50.8 315.1,51.4 312.7,53.9 313.7,88.3 							"/>
							<polygon class="st22" points="305.6,88.6 309.4,53.8 308,51.3 308.8,50.6 311.4,50.9 311.1,53.8 311.1,53.8 309,91.8 							
								"/>
						</g>
					</g>
				</g>
				<path class="st63" d="M319.4,44c0.1,1.1-3.5,5.6-6.9,6.9c2.6-0.6,5.7,5.4,6.6,6.5c0-5.5,3.6-10.4,3.1-10.7
					C321.3,46,319.4,44,319.4,44z"/>
				<path class="st57" d="M307.7,46.2c-0.1,1.5,1.9,4.4,2.4,4.6c-2.2-0.5-5.4,5.4-5.4,5.4l-0.2-7.4
					C304.5,48.8,307.8,45.6,307.7,46.2z"/>
				<g>
					<g>
						<path class="st19" d="M304.4,38.4c-0.8-2.8-1.5-7-0.4-10.1c0.7-2,5.1-3.7,6.2-3.8c6.5-0.1,6.9,4,7,8.2c1.5-0.9,2.1,0.5,2,2.2
							c-0.1,1.3-0.7,2.8-1.5,3.2c-0.4,3.6-2.8,6.4-7.4,7c-0.8,0.1-1.5,0-2.2-0.4c-1-0.4-1.7-1.3-2.3-2.4
							C305.4,41.4,304.5,38.6,304.4,38.4z"/>
						<path class="st16" d="M304,36.9c0,1.5,0,7.6,0.8,9c0.8,1.4,3.3,4.4,4.8,4.4c0.8-1.2-0.2-8-0.2-8s-1.7,0.6-3.3-0.9
							C304.5,40,304,36.9,304,36.9z"/>
						<g>
							<path class="st16" d="M308.4,40.9c0-1.7,0-1.7,0-1.7l-1.4,0.2c-0.7,0.1-1.5,2.2-1.5,3"/>
							<path class="st15" d="M308.5,39.2c0,0,1.5-0.2,2.1,0.4c0.6,0.5,2.2,2.1,2.2,2.1s-0.7,0.7-2.3-0.3c-0.8-0.6-1.9-0.5-1.9-0.5
								L308.5,39.2z"/>
						</g>
						<path class="st15" d="M317.1,30.7c-0.1,1.5-1.2,7-2.2,8.9c-0.9,1.9-5.5,2.6-6.3,2.8c-0.1,0.9,0.7,8.1,0.7,8.1s3.8-0.3,5.9-3.9
							c1.2-2,2.5-6.8,2.5-7.8C317.6,37.1,317.1,30.7,317.1,30.7z"/>
					</g>
				</g>
				<g>
					<path class="st19" d="M333.6,74.8c0.7,2.9,5.4,11.5,6.3,11.9c0.9,0.4,7.3,0.7,8.9-5.3c1.7-6-3.5-2.9-3.5-2.9s-4.5-8.9-6.1-10.6
						C337.5,66.2,333.6,74.8,333.6,74.8z"/>
					<path class="st57" d="M344.9,75.2c-2.9-12.9-9.2-21.3-9.2-21.3c-1-4.1-3.3-4.9-4.6-3.6c-1.9,2-3.9,14-2.5,17.6
						c1.3,3.2,4.5,10.1,8.4,13.6c0,0,2.1-5.5,4.5-6.4L344.9,75.2z"/>
					<path class="st57" d="M344.3,72c-2.5-1-6.6,4.5-8.6,6.2c-2,1.7-1.1,2.9-1.1,2.9l2.9,3.8c0,0,0.9-8.5,7.1-9.6
						C346.8,74.8,345.9,76.5,344.3,72z"/>
					<path class="st58" d="M344.5,79.6c-0.8-0.8-0.6-2.1-1-3.2c-0.8-1.7-1.4-2.4-2.1-3c-0.3-0.3,0.4-1,1.2-0.6
						c1.1,0.5,2.1,2.3,3.1,2.3c0,0,2.2-1,3.5-1.7c0.8-0.4,1-0.7,2.3-1.2c1.9-0.7,3-0.8,3.1-0.6c0.4,0.7-1.5,1-2.6,1.7
						c-0.6,0.4-0.9,0.7-1.5,1.1c0,0,2.1-1,3.4-1.3c1-0.3,2.8-0.2,2.9,0c0.4,0.7-0.9,0.8-2.7,1.3c-0.9,0.2-2.3,1.1-2.3,1.1
						s1.1-0.5,2.4-1c1.1-0.3,3-0.3,3.2,0c0.3,0.6-1,0.8-2.3,1.1c-1.3,0.3-2.5,1-2.5,1s1.5-0.6,2.9-0.6c1.1,0,1.7,0.1,1.7,0.2
						c0.3,0.7-1.9,0.8-3.6,1.5c-1.4,0.5-1.5,2.7-4.9,3C345.2,81.3,344.5,79.6,344.5,79.6z"/>
					<path class="st56" d="M329.4,56.6c0.7,0.7,3.8,8.1,4.7,11.3c0.9,3.2-1.1,4.1-1.1,4.1l4.1-1.8c0,0-3.3,2.3-2.8,3.2
						c0.6,0.9,3.5,0.5,3.5,0.5l-2.9,4.4c0,0-5.7-7.2-6.6-12.5C327.8,62.8,329.4,56.6,329.4,56.6z"/>
				</g>
			</g>
		</g>
		<g>
			<linearGradient id="SVGID_7_" gradientUnits="userSpaceOnUse" x1="161.9121" y1="100.4495" x2="160.1728" y2="199.2065">
				<stop  offset="0" style="stop-color:#FFFFFF"/>
				<stop  offset="0.4703" style="stop-color:#A5A6A6"/>
				<stop  offset="0.8301" style="stop-color:#676868"/>
				<stop  offset="1" style="stop-color:#4F5050"/>
			</linearGradient>
			<path class="st64" d="M167.5,136.1l-0.4,0.8c-0.6-0.2-1.1-0.4-1.1-0.4S166.9,136.3,167.5,136.1z M155.3,201.4l-14.2-3.5l0.5-11.9
				l-0.6,0l0.5-11.4c2.9,0.2,4.9,0.3,5.3,0.2c0.4-0.1,2.2-0.5,4.8-1L155.3,201.4z M179,157.1c-5.6-1.9-13.8-4.3-19.8-6.2
				c-0.3-0.1-0.6-0.2-0.9-0.4l22.1-2.6L179,157.1z"/>
			<g>
				<g>
					<path class="st16" d="M112.4,150.6c2.7,1.9,6.8,4.8,4.1,12.8c-1.1,3.2,12.5-1.1,12.5-1.1l-3.6-14.1L112.4,150.6z"/>
					<path class="st65" d="M114.7,167.6c-2.2-1-2.4-3.4-0.9-3.6c1.4-0.2,39.2-6.1,39.2-6.1l19.6,3.4l-16.6,7.6L114.7,167.6z"/>
					<g>
						<path class="st66" d="M107.5,153.4c0.3,4,1.1,7.9,7.9,6.5l25.9-5c3.4-0.2,4.3-3.4,4.1-7.4l-7.4-30.7c-0.3-4-4.6-8.4-8-8.2
							l-25,2.6c-3.4,0.2-5.9,3.7-5.7,7.7L107.5,153.4z"/>
						<g>
							<path class="st46" d="M136.5,186.5c0,0.4,0.3,0.7,0.7,0.7h1.4c0.4,0,0.7-0.3,0.7-0.7v-15.4c0-0.4-0.3-0.7-0.7-0.7h-1.4
								c-0.4,0-0.7,0.3-0.7,0.7V186.5z"/>
							<rect x="135.7" y="185.6" class="st16" width="4.2" height="15.3"/>
							<path class="st16" d="M140,197.8c1.4,1.2,15.2,10.8,15.2,11.4c0,0.7,0,4.2,0,4.2h-2.4v-3.3l-15.7-7.9l0.9-3.9L140,197.8z"/>
							<path class="st16" d="M136.7,198.1c-1.4,1.2-15.2,10.8-15.2,11.4c0,0.7,0,4.2,0,4.2h2.4v-3.3l14.7-7.9v-3.9L136.7,198.1z"/>
							<polygon class="st16" points="137,198 117.3,203.1 117.3,208.2 118.9,208.2 118.9,205.3 135.6,201.9 							"/>
							<polygon class="st16" points="139.4,197.5 160.5,202.6 160.5,207.7 158.9,207.7 158.9,204.8 140.8,201.4 							"/>
						</g>
					</g>
				</g>
				<path class="st66" d="M112.7,165.1c-0.9,2-0.3,6.3,0.6,6.6c0.9,0.4,29.7,2.8,31.3,2.5c1.6-0.4,33-7.3,33.2-8.5
					c0.2-1.2-0.3-5.4-2.3-5.1c-2,0.4-27.5,6.1-31.4,6.6C140.2,167.8,112.7,165.1,112.7,165.1z"/>
			</g>
			<polygon class="st30" points="172.8,205.7 170.7,205.7 178.8,135.6 185,135.6 			"/>
			<g>
				<path class="st15" d="M167.9,194.7c0,0,7.6-2,8.2,1.2c0.8,4.6,2.4,6.8,7.5,8.8c1.8,0.7,2.1,1.3,2.3,2c0.2,0.6,0.3,1.4-0.4,2.2
					c-1.2,1.3-6.8,1.5-11.5,0.2c-1.3-0.4-1.7-1.9-5.1-1c-0.6,0.2-2.8-0.5-2.8-0.5s-0.7-2-0.6-4C165,200.8,167.6,196.7,167.9,194.7z"
					/>
				<path class="st16" d="M147.1,145.3c1.5,0.1,5.9,3.6,9.1,4.6c9.4,2.9,24.5,7,26.3,8.7c3.1,2.8,3.4,6.7,1.9,10.1
					c-0.6,1.4-6.4,31.6-6.7,32.3c-2.3,4.4-13.1-1.4-13.1-1.4s6.1-35.2,6.4-31c0.1,1.5-27.2-18.7-29.3-19.7
					C139.5,147.8,147.1,145.3,147.1,145.3z"/>
				<path class="st15" d="M186.8,199.4c0,0,5.6-5.4,8.4-3.3c5.6,4.2,9.3,3.2,13.8,2.7c2-0.2,3.1,0.1,3.8,0.6c0.5,0.4,1.2,1,1,2.1
					c-0.3,1.9-4.6,6.6-11.4,7c-1.4,0.1-2.1-0.2-2.7,0.8c-0.3,0.5-2.8,1.3-2.8,1.3s-2.5-0.9-3.7-2.7
					C190.9,205.9,187.8,201.3,186.8,199.4z"/>
				<path class="st15" d="M122.4,150.1c1.9,11.4,5,15.5,16.9,15.3c5.3-0.1,25.8,10.5,27.3,13.4c5.9,10.7,16.1,25.7,23.6,29.4
					c3.1,1.5,12-10.4,12-10.4s-18.8-19.7-21.3-25.8c-2.5-6.1-4-6.8-7-8.6c-5.9-3.6-19.2-10.9-21.7-12.2c-2.2-1.1-2.1-2.7-5.2-6
					L122.4,150.1z"/>
			</g>
			<g>
				<g>
					<path class="st19" d="M143.2,137.6c-1.6-4,3.5-4.8,3.8-4.7c0.9,0.6,7.2,0.8,11,1.3c1.7-0.3,3.3-1.6,4.1-1.5
						c1.1,0.2,2.8,0.4,3.5,0.9c0.7,0.5,1.8,2,1.2,2.5c-0.2,0.2-0.2-0.2-1.1-0.9c-0.3-0.2-1.3-0.4-1.5-0.4c-0.6,0.1-1.8,0.6-1.8,0.6
						s3,0.8,2.7,1.4c-0.1,0.3-0.4,0.3-1.6,0.1c-1.3-0.2-2.2,0.9-3.5,0.7c-0.9-0.1-1.2-0.2-2.2-0.4
						C154.6,137.4,144.3,140.3,143.2,137.6z"/>
					<path class="st34" d="M135.2,112.5c1.1,0.4,2.9,3.2,4.7,7c1.8,3.8,6,12.8,6.7,12.8c1.9-0.1,10.4,1.8,10.4,1.8l-1.8,3
						c0,0-14.3,1.8-15.3,1.4c-1.1-0.4-5-11.4-5.4-16.5C134.2,117,135.2,112.5,135.2,112.5z"/>
					<path class="st62" d="M154.7,133.5c-0.4,0.6-1.6,2.3-1.6,2.7c0,0.4,1.6,0.5,1.6,0.5l1.6-2.9L154.7,133.5z"/>
				</g>
				<path class="st35" d="M119.1,108.5c-3.9,2.7-6.2,3.7-9.4,8.7c-0.7,1-0.3,7.3,2,13.9c1.8,5.2,5.1,11.7,6.7,16
					c1.6,4.3,4.6,12.7,5.2,10.9c2.1-7.2,9.6-10.6,13-9.8c3.4,0.7,10.8-5.4,10.8-5.4s-8.6-8.7-8.6-12.8c0-4.1,0.5-4.1-0.2-7.3
					c-0.7-3.2-1.9-9.7-3.7-11.1C128.5,106.8,119.1,108.5,119.1,108.5z"/>
				<g>
					<polygon class="st22" points="158.4,224.6 160.8,224.6 151.7,145.3 144.7,145.3 					"/>
					<polygon class="st22" points="88.2,217.4 86,217.4 95.7,147.1 102.1,147.1 					"/>
					<polygon class="st22" points="87.5,145 150,146.4 231.8,134.6 176.3,135 					"/>
					<g>
						<polygon class="st30" points="87.8,150.3 148.8,150.3 231.8,140.2 231.8,134.6 147.9,144.9 87.8,144.9 						"/>
					</g>
				</g>
				<g>
					<path class="st15" d="M163.5,135.8c-0.1,0.2,0,0.3,0.1,0.4l3.9,3.4c0.1,0.1,0.3,0,0.4-0.2l10.6-23.8c0.2-0.5-0.2-0.8-0.3-0.8
						l-5.1,0.1c-0.1,0-0.3,0.1-0.4,0.3L163.5,135.8z"/>
					<path class="st16" d="M163.4,136.9c-0.1,0.2,0,0.3,0.1,0.4l3.8,1.7c0.1,0,0.3,0,0.3-0.2l10.2-23.2c0.1-0.2,0.1-0.5-0.2-0.5
						l-4.3,0.1c-0.1,0-0.3,0.1-0.3,0.3L163.4,136.9z"/>
					<path class="st16" d="M138.1,138.8c-0.1,0.1-0.1,0.2,0.1,0.2l28.9,0c0.2,0,0.3-0.1,0.2-0.2l-3.5-2.9c-0.1-0.1-0.3-0.1-0.5-0.1
						l-21.9,0.3c-0.2,0-0.3,0.1-0.4,0.1L138.1,138.8z"/>
					<polygon class="st67" points="174.8,118.9 168,133.9 166.2,132.8 172.6,118.6 					"/>
					<path class="st15" d="M138,139.6c0,0.2,0.2,0.3,0.4,0.3l28.9-0.2c0.2,0,0.4-0.2,0.4-0.3l0-0.3c0-0.2-0.2-0.3-0.4-0.3l-28.9,0.2
						c-0.2,0-0.4,0.2-0.4,0.3L138,139.6z"/>
					<polygon class="st67" points="161.7,136.1 163.7,138.2 149.4,138.2 148.8,136.3 					"/>
				</g>
				<g>
					<path class="st19" d="M119.9,95.2c0.5,2,2.6,9.4-0.7,13.3c-1,1.2,1.5,3,3.6,3.8c5.7,2.2,8.9,3,8.9,3s-0.3-2.7-0.7-3.8
						c-0.2-0.5-0.6-1.2-0.6-1.5c-0.1-2.6,0.1-5.9,3.3-7.4C135.9,101.6,119.9,95.2,119.9,95.2z"/>
					<g>
						<path class="st19" d="M125.3,84.9c4.3-1,6.7,0.1,9.2,6.3c0.2,0.4-0.1,1.4,0,1.8c0,0.1,0,0.2,0.1,0.3c0.9,1.5,2.5,3.6,2.6,4.1
							c0,0.3-0.7,0.9-1.4,1.2c0.1,1,0.1,1.9,0.1,2.6c0.1,2,0,2.5-0.5,2.7c-2,0.9-4.5,0.8-6.9,0.9c-3.3,0.1-5.5-3.8-6.8-7
							C119.6,92.5,119.8,86.2,125.3,84.9z"/>
						<path class="st15" d="M132.6,87.5c2.1-2.4,0-0.7,0.7-2.3c0.3-0.6-0.3-3.8-0.3-3.8l-1.7,2.2c0,0,1.6-3.6,1.1-2.9
							c-1.5,2.2-4.1,2.2-4.1,2.2s-5.2-0.5-9.4,1.7c-2.7,1.5-2.8,3-2.8,3s-5.2,6.4,1.2,14.1c0,0,1.7,3,0.8,4.6
							c1.7,0.5,3.4-0.8,3.4-0.8s2.2-5.8,1.5-6.8c-1.6-2-0.1-4.9,1.2-4c0.3,0.2,0.8,2.2,1.3,2.3c0.4,0.1,2.4,1.8,2.3,1.5
							c-2-3.7-0.9-7.8,0-8.9c0.8-1.1-3.8-2.1-5.1-2c-1.3,0.1,2.4-0.2,5.8,1.1C129.1,89.1,132.6,87.5,132.6,87.5z"/>
					</g>
				</g>
				<path class="st22" d="M117.9,108.8c-0.5,1.4-0.5,3.2,1.7,4.1c2.1,1,13,4.3,14.4,6.4c-0.1-6.8-1.5-8.9-1.8-9
					c-0.4-0.1-1.3-0.5-1.3-0.5s1,4.9,1,5.5c-1.7-0.2-8.1-2.6-9.9-3.6c-1.8-1-2.5-3-2.4-3.3C119.7,108,117.9,108.8,117.9,108.8z"/>
			</g>
			<g>
				<g>
					<path class="st19" d="M129,135.9c0.4,0.6,17.8,1.1,18,0.9c0.9-0.6,1.5-0.9,2.1-1.1c0.8-0.3,3-0.7,3.1-0.6
						c0.7,0.4-1.1,0.7-1.1,0.7s2.7-0.2,3.3-0.3c0.8,0,1.6,0.5,1.9,0.7c0.5,0.3,0.6,0.8-0.1,0.6c-0.7-0.1-1.2-0.6-1.8-0.5
						c-0.5,0.1-1.3,0.1-1.3,0.1s1.1-0.2,1.8,0c0.7,0.1,1.9,0.8,1.9,0.8s0.4,0.7,0,0.6c-1.1-0.1-2.3-0.5-2.3-0.5l-1.6-0.1
						c0,0,3.7,0.3,3.7,0.9c0,0.3-0.4,0.2-1.1,0.2c-1.7-0.1-2,0.3-2,0.3s1.6-0.3,2.2-0.2c0.5,0.1,1,0.4,0.1,0.6
						c-0.9,0.2-1.5,0.3-2.5,0.7c-3.7,1.8-6,1.1-6,1.1c-9.2,1.8-19.3,2.6-21.1,1.5C124.3,141.1,127.1,132.8,129,135.9z"/>
				</g>
				<g>
					<g>
						<path class="st34" d="M120.7,118.6c-3.5-6.1-9.2-4.7-10.3-2.5c-2.1,4-0.5,9.1,1.8,12.4c4.1,5.7,6.9,10.1,11.3,13.7
							c1.4,1.1,17.7,1.1,19.4,0.3c1-0.5,1.2-4.2,1.5-5.8c-9-3.1-14.1-2.4-15.1-3.4C124.6,128.1,120.7,118.6,120.7,118.6z"/>
					</g>
					<path class="st22" d="M142.6,136.1c-0.1,1.2-0.7,5.3-2.2,6.7l2.2-0.2c0,0,1.5-3.2,1.1-6.1C143,136.3,142.6,136.1,142.6,136.1z"
						/>
				</g>
				<path class="st35" d="M126.1,133.5c-1.7,0.4-1.8,4.3-1.2,4.2c0.6-0.1,2.1-3.1,2.7-3c0.6,0.1-2.3,4.7-1.3,3.8
					c1.8-1.6,2-3.2,2.8-3.2c0.8,0,0.7,1.6,0.7,1.6s11-0.2,12.1,0.7c0.4-1.4,0.4-1.4,0.4-1.4s-13.1-2.1-13.8-2.6
					c-2.1-1.5-7.6-13.5-8-13.8C120.3,119.4,126.1,133.5,126.1,133.5z"/>
			</g>
			<g class="st0">
				<linearGradient id="SVGID_8_" gradientUnits="userSpaceOnUse" x1="136.8819" y1="-17.7837" x2="141.4169" y2="198.6631">
					<stop  offset="0" style="stop-color:#FFFFFF"/>
					<stop  offset="0.4703" style="stop-color:#A5A6A6"/>
					<stop  offset="0.8301" style="stop-color:#676868"/>
					<stop  offset="1" style="stop-color:#4F5050"/>
				</linearGradient>
				<path class="st68" d="M171.1,137.5c-0.3-0.5-5.8-5.2-7.2-6c-6.3-3.5-13.3-8.4-14.6-9.5c-0.4-0.2-0.9-1.3-1.2-1.9
					c0.2,0-0.9-5.6-2.3-9.9c0.5,0.6,1,1.1,1.4,1.4c2.2,1.7,13.6,1.1,13.6,1.1s8.5,0.8,8.7,0.5c0.4-0.5-0.8-0.6-0.8-1.1
					c0-0.6,4.5,0.4,4.3-0.4c0-0.2-0.6-0.5-1.3-0.8c-0.7-0.3-1.6-0.4-1.6-0.4c0.5-0.3,3.5,1.1,3.9,0c0.1-0.4-3.5-1.1-3.5-1.3
					c0.1-0.3,3.3,1.2,3.6,0.6c0.2-0.3-2.8-1.5-3.3-1.7c-0.6-0.2-2.8-0.6-2.1-1c0.6-0.3,1.6-0.7,2-1c0.4-0.3-0.1-0.7-0.4-0.5
					c-1.3,0.7-2.7,0.6-3.3,0.8c-0.6,0.2-2,0.4-2.6,0.6c-0.1,0-0.2,0-0.4,0c0.1-0.2,0.1-0.4,0.1-0.4l-12.3-3.9c0,0-3.5-8.8-3.7-11.6
					c-0.2-2.8-1-5.1-1.8-6.1c0-0.3-0.1-0.6-0.2-0.8c-1-1.6-4.5-3.3-9.4-4.6c0,0,0,0,0-0.1c0,0,0,0,0,0.1c0,0,0,0,0,0
					c-0.1-0.3-0.4-0.6-0.9-0.8c0-0.4,0-0.8,0-1.2c0.3-0.1,0.6-0.1,0.9-0.2c1.9-1.1,2.5-4.7,2.3-7.5c0-0.1,0-0.3,0-0.5
					c0.1,0,0.2-0.1,0.3-0.1c1.7-0.6,0.9-4.1,0.9-4.1s-0.2-0.3-0.5-0.2c-0.2,0-0.7,0.1-1.2,0.2c0.1-2,0.2-4.6-0.9-6.1
					c-0.5-0.6-1.3-1.2-2.3-1.6c-0.2-0.1-0.3-0.2-0.5-0.3c-1.5-1.4-5.7-1-8.3-0.4c-1.4-1.4-3.2-2.6-5.1-1.9c-2.4,0.9-3.8,4.2-1.4,5.7
					c0.4,0.3,0.8,0.5,1.2,0.7c-0.3,0.9-0.1,1.9-0.3,2.7c-0.5,1.9,0.2,3.6,0.7,4.5c0.5,1.6,2.2,4.6,3,5.2c0.2,0.1,0.8,1.1,1.3,1.3
					c-0.2,1.1-0.4,1.9-0.6,2.5c0,0,0,0.1-0.1,0.1c-0.6,0.1-1.1,0.3-1.4,0.5c0,0,0,0,0,0l-0.1,0.1c-0.1,0.1-0.1,0.1-0.2,0.2l-1.5,1.5
					c-6.2,2.4-8.7,3.9-8.7,3.9c-1.6-0.3-2.4,2.4-3.5,5.5c-1.1,3.1-7.8,21.5-3.3,26.7c1,1.2,5.3,0.9,9.5,0.4c0.1,0.4,0.1,0.9,0.2,1.4
					c0,1.4,0.1,2.5,0.3,3.5c0,0.3,0,0.6,0,0.8c-0.1,3,1.4,6.1,2.2,7.5c0,0.5,0,1.1,0,1.7c0.6-0.1,1.3-0.3,2-0.7c0,0.2,0,0.4,0,0.6
					c0.1,4.9,4.1,7.6,4.8,9c6.1,13.1,12.6,32.1,12.7,33.9c0.2,2.9,1,7.1,2.1,11.5l3.8,27.2l2.1,0l-1.1-12.1c0.6,1.3,1.1,2.5,1.7,3.6
					c0,0,1.9-1.2,4-2.7c0.3,0.8,0.5,1.6,0.5,2.7c0,0.9,0.1,1.6,0.2,2.1c0-0.1-0.1-0.1-0.1-0.1c-0.7,3.4,0.5,6.2,1.4,6.3
					c0.8,0.1,2-0.8,5,0.1c0.3,0.3,0.7,0.5,1.1,0.6c3.3,1.1,10.8,0.8,11.7-1.9c1.4-4.2-5.4-5.3-5.4-5.3s-1.3,0.2-2.9-1.7
					c-0.8-1-1.9-0.9-2.9-0.4c-1.7-1.7-2.9-4-3.8-6.2c0.5-0.5,0.8-0.9,0.8-1c-0.1-0.2-0.5-1.8-1.1-4.1c-0.6-3.1-1.5-7.3-2.4-11.1
					c0.8,0.7,1.7,1.4,2.3,1.6c2.2,0.9,2.4,2,2.8,0.1c0.4-1.9-3-3.5-3.2-9.3c0-1-0.8-1.1-1.7-0.8c0-0.7,0.7-1.8,0.8-2.3
					c0.1-0.5,1.5-0.9,1.7-1.5c1.6,1.3,0.8,2.5,0.8,2.5l14.3-26.5C170.7,145.4,172.5,141,171.1,137.5z M122.4,59.9L122.4,59.9
					C122.4,59.9,122.4,59.9,122.4,59.9c-0.4,0.2-0.6,0.3-0.8,0.5c-0.3-0.4-0.4-0.9-0.1-1.4c0.4-0.7,0.9-0.3,1.2,0.2
					C122.6,59.6,122.5,59.8,122.4,59.9C122.4,59.9,122.4,59.9,122.4,59.9z M117,101.7c0,1.5,0,3.1,0,4.9c-1.6-0.1-2.6-0.2-2.6-0.2
					S116,104.2,117,101.7z M159.4,143.8c-2.7,4.6-5,10-9,19.2c-0.2,0.4,0.1,0.9,0.5,1.6c-0.3,0.5-0.6,0.9-0.9,1.1
					c-0.4,0.4-0.8,0.6-1.2,0.8c0,0,0-0.1,0-0.1c0.1-0.2,0.1-0.4,0-0.5c0-0.1,0-0.3,0-0.4c-0.4-4.2-2.9-21.3-5.1-28.8
					C151,139.6,160.1,142.5,159.4,143.8z"/>
				<g class="st2">
					<path class="st27" d="M160.8,106c0.7-0.1,2.1-0.4,2.7-0.6c0.6-0.2,2.1-0.1,3.5-0.9c0.4-0.2,0.8,0.1,0.4,0.5
						c-0.4,0.4-1.5,0.8-2.1,1.1c-0.7,0.4,1.7,0.9,2.3,1c0.5,0.1,3.7,1.3,3.5,1.7c-0.3,0.7-3.7-0.8-3.8-0.5c0,0.2,3.8,0.9,3.7,1.3
						c-0.4,1.2-3.6-0.2-4.1,0.1c0,0,0.9,0.1,1.7,0.4c0.7,0.3,1.7,0.3,1.7,0.6c0.2,0.9-4.4-0.6-4.4,0.1c0,0.5,2.4,1.3,2,1.8
						c-0.2,0.2-3.5-0.8-3.5-0.8s-4.4-0.8-5.9-1.5c-0.9-0.4-3.3-0.9-3.3-0.9l2-3.7C157.4,105.8,159.6,106.2,160.8,106z"/>
					<path class="st62" d="M158.1,105.2c0.5,0,2.4,0.5,2.4,0.5s-1.7,5-1.5,5.9c0.2,1-2.3-0.7-2.3-0.7L158.1,105.2z"/>
					<path class="st60" d="M140.2,82.5c1.1,0.2,2.6,3.1,3,7c0.3,2.9,4.3,12.2,4.3,12.2s6.8,2.6,11.9,3.5c-1.6,2.3-2.1,6.9-2.1,6.9
						s-11.9,0.8-14.2-1c-2.3-1.8-7.5-9.3-8.2-15.6C134.1,89.4,140.2,82.5,140.2,82.5z"/>
					<polygon class="st30" points="143.4,213.1 145.6,213.1 136.1,139.3 130,139.3 					"/>
					<g>
						<g>
							<g>
								<path class="st51" d="M159.2,160.9c-4.1,6-5.8,9.3-6,11.2c-0.2,2,0.2,5.3,0.5,6.1c0.4,0.8-1.5,2.1-2.7,1.2
									c-1.3-0.9-6.1-7.3-6.7-7.8c-0.6-0.5-0.6-2.8,0.1-3.3c0.7-0.5,1.8-0.3,3.4-1.7c1.7-1.5,5.6-11.4,5.6-11.4L159.2,160.9z"/>
								<path class="st15" d="M154.9,174.8c0.4,5.7,3.9,7.3,3.5,9.2c-0.4,1.9-2.6,1-4.8,0.2c-2.2-0.8-6.5-5.3-6.9-7
									c-1.3-5.1-4-4.5-4.4-6.6c-0.1-0.6,3.1-4,4-3.9c0.9,0.1-0.6,1.5,0.4,3.4c1,1.9,3.3,5.9,4,5.2
									C151.4,174.8,154.8,172.7,154.9,174.8z"/>
							</g>
							<path class="st66" d="M138,113.9c1.5,0.8,6.1,7.2,7.5,7.9c16.1,8.1,24,12,25.6,14.3c2.6,3.9-0.9,10.3-0.9,10.3l-13.6,26.3
								c0,0-9.4-6.9-8.6-8.8c3.8-9.3,6-14.7,8.6-19.5c1.2-2.2-24.5-8.4-26.3-12.7c-1.8-4.3-2.9-16.3-2.9-16.3L138,113.9z"/>
						</g>
						<path class="st65" d="M142.1,116c1.8,1.8,2.1,5.1,3.3,5.6c1.3,0.5,20.3,10.3,23.3,12.4c1.5,1.1,4.2,4.1,3.5,7
							c-0.7,2.9-2.8,6.3-2.8,6.3s2.1-7-0.7-10c-2.9-3-22.5-12.7-24.7-14c-2.1-1.3-4.8-7.8-4.7-8.4C139.5,114.3,142.1,116,142.1,116z
							"/>
					</g>
					<g>
						<path class="st51" d="M153.1,194.6c0.9,3.3,3.3,9.8,8,11.8c4.7,2,0.5,3.3-0.8,3.8c-1.3,0.5-8.3,1-8.7,0.2
							c-0.7-1.9-1-2.1-1.3-5.4c-0.3-3.7-2.2-5.2-2.9-6.6C146.9,196.8,153.1,194.6,153.1,194.6z"/>
						<path class="st66" d="M155.3,197.7c-0.3-0.7-7.8-26-7.8-26c-1.5-6.7-8.9-38.5-9.6-39.9c-3.6-6.7-3.1-15.4-5-17.4L116,118
							c0,0,0.1,9,0.4,14c0.4,5,4.6,7.7,5.3,9.1c6.8,13.2,14.1,32.2,14.3,34c0.8,7.1,5.4,22.3,9.8,29.7
							C145.9,204.8,155.7,198.6,155.3,197.7z"/>
						<path class="st15" d="M156.5,209.5c-1.4-2.5,2.6-7,5-4.5c1.7,1.8,2.9,1.6,2.9,1.6s6.9,1,5.6,5.1c-0.8,2.7-8.3,2.9-11.7,1.9
							C155.2,212.7,156.5,209.5,156.5,209.5z"/>
						<path class="st15" d="M150.6,206.8c-0.6,3.3,0.7,6,1.6,6.1c0.9,0.1,2.4-1.1,6.8,0.7c1.4,0.6,1.8-3.3,1.8-3.3s-5.5-1.8-7.3-1.6
							C152,209,150.6,206.8,150.6,206.8z"/>
						<path class="st65" d="M135.5,131.5c1.1,0,3,2.2,3.3,2.7c2.7,4.3,6.9,27.3,7.6,32.2c0.3,2.2,0.4,4.6,1.6,6.3
							c1.2,1.8,7.4,24.6,6.7,25.5c-0.7,0.9-2.1,1.6-2.1,1.6s1.5-3-7.1-22.3c-1.6-3.5-0.5-7.7-1.1-13
							C143.2,155.4,135.5,131.5,135.5,131.5z"/>
					</g>
					<path class="st69" d="M118.5,76.7c-8.8,3.4-12,5.7-12,5.7s4.4,12.3,4.4,13.9c0,1.7,1.1,10.8,0.4,17.9
						c-0.8,7.5,1.3,9.6,2.6,13.7c0.3,1.1,0.6,2.4,0.5,4.2c2.2-0.2,5-2.8,8-5.7c3.6-3.6,10.7-6,13.2-6.2c6.4-0.5,8.9,0,8.9,0
						c-0.7-3.7-1.8-6.9-3.9-13.1c-2.1-5.9-0.9-9.4-1.2-12.3c-0.2-2.9,2.5-10.6,1.3-12.5c-1.2-1.9-5.6-3.8-11.5-5.1
						C126.6,76.6,118.5,76.7,118.5,76.7z"/>
					<path class="st47" d="M116.6,77.2c-0.2-1,1.1-1.7,3.2-1.9c2.1-0.2,11,0.5,11,2.4c0,2,1.1,6.1-5,4.6
						C119.7,80.9,116.7,77.7,116.6,77.2z"/>
					<g>
						<path class="st51" d="M130.1,70.8c-0.5,2.2-0.7,6.3,0.1,8.2c0.8,1.9-0.2,3.8-2.9,4.7c-5.5,1.8-11.3-5.2-11.3-5.2
							s2.1-1.8,2.5-2.9c0-0.1,0.1-0.2,0.1-0.3c0.4-1.3,0.9-4,1.2-9.5C119.8,64.1,130.1,70.8,130.1,70.8z"/>
						<g>
							<linearGradient id="SVGID_9_" gradientUnits="userSpaceOnUse" x1="122.1788" y1="79.4128" x2="125.5189" y2="64.1424">
								<stop  offset="0" style="stop-color:#FFFFFF"/>
								<stop  offset="0.5165" style="stop-color:#C6C0B9"/>
							</linearGradient>
							<path class="st70" d="M129.7,75.2c-1,1.4-5.7,8.1-7.5,8.1c-1.6-0.1-5.5-3.3-6.4-4.4c4.2-1.8,3.9-11.1,3.9-11.5
								C119.7,67.3,128.7,73.3,129.7,75.2z"/>
						</g>
					</g>
					<g>
						<g>
							<path class="st71" d="M120.1,54.2c-1.5-1.9-4.2-4.4-6.7-3.3c-2.5,1-3.7,4.7-1.2,6.3c1.9,1.2,3.5,1.4,3.5,1.4s-2.7-1.5-1.8-3
								c0.6-1.1,1.4,0.2,1.6,0.9C115.6,57.3,120.1,54.2,120.1,54.2z"/>
							<path class="st72" d="M118.9,53.6c-1.7-2-3.5-3.1-4.8-2.7c1.4,0.2,2.3,1,2.5,1.4c-1-0.6-2.4-1.6-3.3-1
								c1.1,0.3,3.1,1.4,3.4,2.4c0.3,1.1,0.6,0.6,0.6,0.6L118.9,53.6z"/>
						</g>
						<path class="st15" d="M133.3,62c0,0-5.8,0.4-5.8,1.1c0,0.6,0.8,0.2,0.8,0.2l5.3-0.1L133.3,62z"/>
						<path class="st72" d="M131.9,62c0-2.1,0.1-5.1-1.3-6.8c-1.3-1.7-5.1-3.2-9.2-2.3c-1.9,0.4-3,0.8-3,0.8s11.3,4.2,11.1,5.1
							C129.4,59.6,131.9,62,131.9,62z"/>
						<path class="st71" d="M114.2,65.3c0.4,1.5,2.6,5.3,3.5,6c0.2,0.2,1.4,1.9,1.7,1.3c0.3-0.6-0.4-8.7-0.7-9
							C118.4,63.3,114.2,65.3,114.2,65.3z"/>
						<path class="st27" d="M132.6,66.9c-0.4-3.2-1-7.8-3.1-10.3c-1.4-1.6-2.5-2.3-4-2.1c-0.3,0.2-4.5-1.7-4.8-1.5
							c-1,0-2,1.6-3.4,2.1c-6.3,2.1-0.6,6,0.7,10.2c-1.7-0.4-1.8,1.2-1.2,2.8c0.5,1.2,1.3,2,2.2,2.1c2.3,4.7,7.7,6.4,11.6,5
							C132.6,73.8,133,70,132.6,66.9z"/>
						<path class="st71" d="M127.6,53.1c-2.4-2.1-10.7-0.1-11,0.7c0,0-1.6,1.6-1.8,2.8c0.2,0,0.9,0.3,1.8,0.7c2,0.7,4,1.9,4.8,2.5
							c1.3-0.4,3.6-0.1,5.7-0.8c0.4-0.1,1.2-0.4,1.6-0.8c0.3-0.3,1.2-0.4,1.5-0.3C131.2,58.2,131.3,55,127.6,53.1z M114.8,56.5
							C114.8,56.5,114.8,56.5,114.8,56.5C114.8,56.5,114.8,56.5,114.8,56.5z M114.8,56.5c-2.1,1-1.2,2.9-1.5,4.4
							c-0.6,3,1.4,5.6,1.4,5.6l2.9-1.7l1.4,3.8l1.5,1.1c0,0-1.1-6.4-0.9-7.4c0.1-0.6,0.5-1.4,1.5-2.1c-1-1-2.8-2-4.3-2.7
							C115.8,57,114.9,56.6,114.8,56.5z"/>
						<path class="st72" d="M128.9,58.3c0.1-0.7,0.7-2.9-0.9-4.1c-1.7-1.3-3.4-1.3-5-1c3.6-0.4,5.1,1.4,5.4,2.9
							c0.3,1.4,0.3,1.6,0.4,2.1C128.8,58.4,128.9,58.3,128.9,58.3z"/>
						<path class="st72" d="M127.8,58.7c-0.8,0-0.6-2.6-2.9-4.5c-2.2-1.9-5.2-1.9-7-1.1c1.5-0.1,4.8-1,6.8,2.1c0,0-2.1-1.9-7.5-2.1
							c1.4,0.1,6.1,0.6,6.8,2.9c0.7,2.2,1.8,3.1,2.7,3.1C127.9,59.1,127.8,58.7,127.8,58.7z"/>
						<path class="st72" d="M125.6,59.2c-0.9,0.2-1.9,0.5-2.3-1.5c-0.4-2-1.8-3.4-2.7-3.5c0.7,0.4,1.9,1.6,2.2,2.7
							c0.2,1.1,0.3,2.6,1.3,2.7C125.1,59.7,125.6,59.2,125.6,59.2z"/>
						<path class="st72" d="M124,59.6c-0.4,0.2-0.8,0.4-1.2-0.1c-0.4-0.6,0.2-3.2-1.5-3.9c1,0.4,1.4,2.1,1.4,2.7
							c0,0.6,0.4,1,0.7,1.1C123.8,59.4,124,59.6,124,59.6z"/>
						<g>
							<path class="st15" d="M121.7,64.4c0,0-5.4,0.3-5.4,1c0,0.6,0.8,0.2,0.8,0.2l5.3,0.3L121.7,64.4z"/>
							<g>
								<path class="st73" d="M127.7,63.9c-0.1,0.7,0.2,2.4-0.4,2.9c-0.6,0.5-3.5,1-3.8,1c-0.4-0.1-1.4-2.6-1.2-3.2
									c0.3-0.6,1.2-0.7,2.6-1.1C127.2,62.8,127.7,63.9,127.7,63.9z"/>
								<path class="st74" d="M129.5,63.1c0.1,0.7,0,2.5,1.1,2.9c1.1,0.4,2.3,0.2,2.6-0.3c0.3-0.5,0.7-3.8,0.2-3.9
									c-0.5-0.1-3.5,0.6-3.7,0.8C129.6,62.8,129.5,63.1,129.5,63.1z"/>
								<path class="st15" d="M133.7,61.8c0,0-0.2-0.3-0.6-0.2c-0.6,0.1-2.5,0.5-3.1,0.7c-0.8,0.2-0.9,0.5-1,0.9
									c0,0.2-0.4-0.3-1.1,0.3c0,0-0.1-0.1-0.3-0.3c-0.6-0.5-2.6-0.1-3.9,0.2c-1.7,0.4-1.7,0.9-2,1.1c-0.2,0.2,0.4,2.7,1.3,3.5
									c0.9,0.8,4-0.2,4.3-0.4c0.5-0.5,0.8-3,0.8-3c0.2-0.2,1.1-0.3,1.1-0.3s0.6,1.8,1.1,2.3c0.4,0.3,1.9,0.1,2.6-0.2
									C134.7,65.6,133.7,61.8,133.7,61.8z M126.9,66.9c-0.5,0.2-3.1,0.9-3.5,0.5c-0.4-0.4-1.3-2.8-0.6-3c0.5-0.2,3.5-0.9,4-0.8
									c0.2,0.1,0.7,0.4,0.7,1.2C127.4,65.6,127.4,66.6,126.9,66.9z M130.4,65.6c-0.7-1.2-0.9-2.3-0.9-2.3c0.1-0.3,0.4-0.6,1.1-0.7
									c0.7-0.2,2.5-0.6,2.5-0.4c0.4,1.5,0.3,3.1-0.1,3.4C132.7,65.9,131,66.6,130.4,65.6z"/>
							</g>
						</g>
					</g>
					<path class="st22" d="M117,76.1c0.4,1.4,3.9,6.3,10,5.2c3.8-0.6,3.7-2.8,3.7-3.9c0.9,1.6,1.3,2.9,1.3,2.9s-1.1,1.8-2.9,2.8
						c-1.6,0.9-3.7,1.1-6,0.6c-4.4-1.1-8-5.5-8-5.5L117,76.1z"/>
					<linearGradient id="SVGID_10_" gradientUnits="userSpaceOnUse" x1="119.6482" y1="128.5052" x2="129.3078" y2="91.2983">
						<stop  offset="0" style="stop-color:#FFFFFF"/>
						<stop  offset="9.301316e-02" style="stop-color:#F9F8F8"/>
						<stop  offset="0.2283" style="stop-color:#E7E5E5"/>
						<stop  offset="0.3894" style="stop-color:#C9C5C5"/>
						<stop  offset="0.5703" style="stop-color:#A1999A"/>
						<stop  offset="0.7654" style="stop-color:#6D6162"/>
						<stop  offset="0.8681" style="stop-color:#4F4042"/>
					</linearGradient>
					<path class="st75" d="M135.6,114.6l-13.9,15.2l-6.8,1.4c0,0-3.2-4.3-3.2-8.6c0-4.3-1.9-7.6-0.4-8.5c1.5-0.8,16.9-5.2,19.1-4.8
						C132.7,109.8,135.6,114.6,135.6,114.6z"/>
					<g>
						<g>
							<g>
								<g>
									<g>
										<path class="st62" d="M127.1,101.7l9.2-0.6l-0.7,13.5c0,0,0,0,0,0c0,0.2-1.4,0.5-3.1,0.6c-1.6,0.1-3,0-3.1-0.2h0
											L127.1,101.7z"/>
										<path class="st22" d="M132.6,115.2c1.7-0.1,3.1-0.4,3.1-0.6c0,0,0.7-13.5,0.7-13.5l-4.6,0.3L132.6,115.2z"/>
										<path class="st55" d="M127.1,101.8c0,0.3,2.1,0.5,4.6,0.3c2.5-0.2,4.6-0.6,4.6-0.9c0-0.3-2.1-0.5-4.6-0.3
											C129.1,101.1,127.1,101.5,127.1,101.8z"/>
									</g>
								</g>
								<g>
									<g>
										<path class="st62" d="M136.5,100.3l0.6,2c-0.1,0.3-2.4,0.7-5.3,0.9c-2.9,0.2-5.2,0.1-5.4-0.2c0,0,0,0,0-0.1l0.1-2
											L136.5,100.3z"/>
									</g>
									<path class="st22" d="M126.5,101c0,0.3,2.3,0.4,5,0.2c2.7-0.2,5-0.6,4.9-0.9c0-0.3-2.3-0.4-5-0.2
										C128.7,100.3,126.5,100.7,126.5,101z"/>
								</g>
							</g>
							<g>
								<path class="st27" d="M128.5,105.4c0.6-0.6,1.9-0.9,2.2-0.8c0,0-1.1,4.9-0.3,5.9c0.3,0.4-3.2,1.4-4.1,1.2
									c-2.8,0.2-1.4-1.2-1.7-2.8C124.4,107.2,125.3,108.2,128.5,105.4z"/>
								<path class="st27" d="M131,104.5c0.6,0.1,1.4,0.5,2,0.8c0.6,0.3,2.5,1.4,2.4,1.8c-0.2,0.4-1.4-0.3-2.6-0.7
									c-1.3-0.4-1.3-0.3-1.6-0.2c0,0,1,0.3,1.9,0.6c0.7,0.2,2.6,0.8,2.3,1.5c-0.2,0.5-1.5-0.3-2.4-0.4c-1-0.1-2.1-0.4-2.1-0.4
									s0.9,0.3,1.9,0.6c1,0.4,2.2,0.6,2.1,1c-0.1,0.4-1.4,0.2-2.5,0.1c-0.9,0-1.9,0.1-1.9,0.1s4,0.4,3.4,1
									c-0.6,0.5-3.3,0.4-4.8,0.1c-0.7-0.1-0.6-1.9-0.3-3.5C129.4,104.4,131,104.5,131,104.5z"/>
							</g>
						</g>
						<path class="st27" d="M125.8,107.7c-2.3,0.2-7-0.1-8.3-0.1c-1.3,0-3.1,6-1.7,6.3c1.4,0.4,10.5-1.6,11.2-2.4
							C127.7,110.6,125.8,107.7,125.8,107.7z"/>
						<path class="st22" d="M119.4,107.4c0.4,0,2.6,0.4,2.6,0.4s-1.3,6.2-0.6,6.6c-2.4,0.4-3.4,0.4-3.4,0.4L119.4,107.4z"/>
						<path class="st60" d="M106.5,82.4c-1.7-0.2-2.4,2.6-3.3,6c-1,3.3-6.8,22.7-2,28.1c2.2,2.4,16.9-1.1,18.1-1.4
							c-0.6-1.7-0.8-7.3,0.8-7.8c-6.5-0.8-11.3-0.9-11.3-0.9s2.6-3.9,2.9-7.3C112.6,89.2,106.5,82.4,106.5,82.4z"/>
					</g>
				</g>
			</g>
		</g>
	</g>
</g>
</svg>
