<?xml version="1.0" encoding="utf-8"?>
<!-- Generator: Adobe Illustrator 21.1.0, SVG Export Plug-In . SVG Version: 6.00 Build 0)  -->
<svg version="1.1" xmlns="http://www.w3.org/2000/svg" xmlns:xlink="http://www.w3.org/1999/xlink" x="0px" y="0px"
	 viewBox="0 0 2568 2641" style="enable-background:new 0 0 2568 2641;" xml:space="preserve">
<style type="text/css">
	.st0{fill:#5B6375;}
	.st1{fill:#35B1E0;}
	.st2{fill:#FFFFFF;}
	.st3{opacity:0.11;}
	.st4{fill:#2F363E;}
</style>
<g id="Layer_2">
</g>
<g id="Layer_1">
	<g>
		<path class="st0" d="M1275.3,2558.5c-10.9,0-21.9-0.1-32.8-0.4l0.4-16.6c22,0.6,44.3,0.6,66.2,0l0.5,16.6
			C1298.2,2558.4,1286.7,2558.5,1275.3,2558.5z M1175.6,2554.5c-22.2-1.8-44.6-4.2-66.6-7.3l2.3-16.5c21.7,3,43.8,5.4,65.7,7.2
			L1175.6,2554.5z M1376.5,2554.4l-1.4-16.6c21.9-1.8,44-4.2,65.7-7.2l2.3,16.5C1421.1,2550.1,1398.7,2552.5,1376.5,2554.4z
			 M1042.8,2536.3c-21.9-4.2-43.9-9.1-65.4-14.6l4.1-16.1c21.3,5.4,43,10.2,64.6,14.4L1042.8,2536.3z M1509.3,2536l-3.2-16.3
			c21.5-4.2,43.3-9,64.5-14.4l4.1,16.1C1553.1,2526.9,1531.1,2531.8,1509.3,2536z M912.8,2503.6c-21.3-6.6-42.7-14-63.6-21.8
			l5.8-15.6c20.6,7.7,41.7,14.9,62.7,21.5L912.8,2503.6z M1639.2,2503.2l-5-15.9c20.9-6.6,42-13.8,62.5-21.5l5.8,15.6
			C1681.8,2489.2,1660.5,2496.5,1639.2,2503.2z M786.9,2456.6c-20.4-8.9-40.8-18.6-60.7-28.7l7.5-14.8c19.6,9.9,39.8,19.5,59.9,28.3
			L786.9,2456.6z M1764.6,2456.1l-6.7-15.2c20.1-8.8,40.1-18.3,59.7-28.2l7.5,14.8C1805.3,2437.6,1785,2447.2,1764.6,2456.1z
			 M667.2,2395.9c-19.3-11.1-38.5-23-57.2-35.2l9.1-13.9c18.4,12,37.4,23.7,56.4,34.7L667.2,2395.9z M1884,2395.6l-8.3-14.4
			c19-11,37.9-22.6,56.3-34.7l9.1,13.9C1922.4,2372.6,1903.2,2384.5,1884,2395.6z M554.9,2322.5c-17.9-13.2-35.8-27.1-52.9-41.2
			l10.6-12.8c16.9,14,34.5,27.6,52.2,40.7L554.9,2322.5z M1996.1,2322.2l-9.8-13.4c17.7-13,35.2-26.7,52.1-40.6l10.6,12.8
			C2031.7,2295.2,2014,2309,1996.1,2322.2z M451.4,2237.2c-16.4-15.1-32.5-30.8-48.1-46.7l11.9-11.6c15.3,15.7,31.3,31.3,47.4,46.1
			L451.4,2237.2z M2099.5,2237l-11.3-12.2c16.2-14.9,32.1-30.4,47.4-46.1l11.9,11.6C2132,2206.2,2115.8,2221.9,2099.5,2237z
			 M357.9,2141.2c-14.6-16.8-29-34.2-42.7-51.7l13.1-10.2c13.5,17.3,27.6,34.4,42.1,51L357.9,2141.2z M2192.9,2140.9l-12.5-10.9
			c14.4-16.6,28.6-33.7,42.1-51l13.1,10.2C2221.9,2106.7,2207.6,2124.1,2192.9,2140.9z M275.5,2035.6c-12.7-18.2-25.1-37.1-36.7-56
			l14.1-8.7c11.5,18.7,23.7,37.3,36.2,55.3L275.5,2035.6z M2275.4,2035.1l-13.6-9.5c12.5-18.1,24.7-36.7,36.3-55.4l14.1,8.7
			C2300.5,1997.9,2288.1,2016.8,2275.4,2035.1z M205.2,1921.6c-10.6-19.5-20.8-39.6-30.3-59.7l15-7.1c9.4,19.8,19.4,39.6,29.9,58.9
			L205.2,1921.6z M2345.8,1920.9l-14.6-7.9c10.5-19.3,20.6-39.2,29.9-59.1l15,7.1C2366.6,1881.2,2356.4,1901.3,2345.8,1920.9z
			 M147.9,1800.6c-8.4-20.6-16.3-41.7-23.6-62.8l15.7-5.4c7.1,20.8,15,41.6,23.3,61.9L147.9,1800.6z M2403.2,1799.5l-15.4-6.3
			c8.3-20.4,16.1-41.3,23.2-62.1l15.7,5.4C2419.5,1757.7,2411.6,1778.8,2403.2,1799.5z M104.2,1673.9c-6.1-21.4-11.6-43.3-16.5-65
			l16.2-3.6c4.8,21.4,10.3,43,16.2,64.1L104.2,1673.9z M2446.7,1672.6l-16-4.5c6-21.1,11.4-42.7,16.2-64.1l16.2,3.6
			C2458.3,1629.3,2452.8,1651.2,2446.7,1672.6z M74.9,1543.1c-3.7-21.9-6.7-44.3-9.2-66.4l16.5-1.8c2.4,21.8,5.5,43.9,9.1,65.5
			L74.9,1543.1z M2475.9,1541.8l-16.4-2.7c3.6-21.6,6.6-43.7,9-65.5l16.5,1.8C2482.6,1497.5,2479.5,1519.8,2475.9,1541.8z
			 M60.2,1409.8c-1.2-22.2-1.9-44.7-1.9-67l16.6,0c0,22,0.6,44.2,1.9,66.1L60.2,1409.8z M2490.5,1408.5l-16.6-0.9
			c1.2-21.9,1.8-44.1,1.8-66.1l0-2.6l16.6,0l0,2.6C2492.3,1363.8,2491.7,1386.4,2490.5,1408.5z M76.6,1276.7l-16.6-0.9
			c1.2-22.2,3-44.7,5.4-66.8l16.5,1.8C79.6,1232.6,77.8,1254.7,76.6,1276.7z M2473.7,1272.8c-1.2-21.9-3.1-44.1-5.5-65.9l16.5-1.8
			c2.5,22.1,4.4,44.6,5.6,66.8L2473.7,1272.8z M90.9,1145.3l-16.4-2.7c3.6-22,7.9-44.1,12.7-65.8l16.2,3.6
			C98.6,1101.7,94.4,1123.6,90.9,1145.3z M2459.1,1141.4c-3.6-21.7-7.9-43.5-12.7-64.9l16.2-3.7c4.9,21.7,9.2,43.8,12.9,65.8
			L2459.1,1141.4z M119.5,1016.2l-16-4.5c6-21.4,12.7-43,19.9-64l15.7,5.4C132.1,973.8,125.4,995.1,119.5,1016.2z M2430,1012.5
			c-6-21.1-12.7-42.3-19.8-63.1l15.7-5.4c7.3,21,14,42.6,20.1,64L2430,1012.5z M162.3,891l-15.4-6.2c8.4-20.6,17.4-41.3,26.9-61.5
			l15,7.1C179.5,850.2,170.6,870.6,162.3,891z M2386.9,887.5c-8.3-20.3-17.3-40.6-26.7-60.4l15-7.1c9.5,20.1,18.6,40.7,27,61.2
			L2386.9,887.5z M218.8,771.2l-14.6-7.9c10.6-19.6,21.9-39.1,33.6-58.1l14.2,8.7C240.4,732.6,229.2,751.9,218.8,771.2z
			 M2330.2,768.3c-10.5-19.2-21.6-38.5-33.2-57.1l14.1-8.7c11.7,18.9,23,38.4,33.6,57.9L2330.2,768.3z M288.1,658.4l-13.7-9.5
			c12.7-18.3,26-36.5,39.7-54.1l13.1,10.2C313.8,622.4,300.6,640.4,288.1,658.4z M2260.8,655.9c-12.5-18-25.7-35.9-39.3-53.2
			l13.1-10.2c13.7,17.5,27.1,35.7,39.8,53.9L2260.8,655.9z M369.3,554l-12.5-10.9c14.6-16.8,29.9-33.4,45.4-49.4l11.9,11.6
			C398.8,521.1,383.7,537.4,369.3,554z M2179.3,551.8c-14.4-16.5-29.5-32.9-44.9-48.6l11.9-11.6c15.5,15.9,30.8,32.5,45.5,49.2
			L2179.3,551.8z M461.4,459.1l-11.3-12.2c16.4-15.1,33.3-29.9,50.5-44.1l10.6,12.8C494.3,429.6,477.6,444.3,461.4,459.1z
			 M2087,457.2c-16.2-14.8-33-29.4-49.9-43.4l10.5-12.8c17.2,14.1,34.2,28.9,50.6,44L2087,457.2z M563.3,375l-9.9-13.4
			c17.9-13.2,36.4-26.1,55-38.3l9.1,13.9C599.3,349.2,581,361.9,563.3,375z M1984.8,373.2c-17.7-13-36-25.7-54.4-37.7l9.1-13.9
			c18.7,12.2,37.2,25,55.2,38.2L1984.8,373.2z M673.8,302.5l-8.3-14.4c19.2-11.2,39-21.9,58.8-32l7.5,14.8
			C712.3,280.9,692.8,291.5,673.8,302.5z M1874,300.9c-19.1-11-38.7-21.6-58.3-31.5l7.5-14.8c19.9,10,39.7,20.8,59.1,31.9
			L1874,300.9z M791.5,242.6l-6.7-15.2c20.3-9,41.2-17.5,62-25.3l5.9,15.6C832.1,225.4,811.5,233.8,791.5,242.6z M1755.8,241.2
			c-20.1-8.8-40.8-17.2-61.4-24.8l5.8-15.6c20.9,7.8,41.8,16.3,62.3,25.2L1755.8,241.2z M915.1,196.1l-5-15.9
			c21.2-6.7,42.9-12.8,64.5-18.3l4.1,16.1C957.5,183.5,936,189.5,915.1,196.1z M1631.7,194.9c-21-6.5-42.4-12.5-63.7-17.8l4-16.1
			c21.6,5.4,43.3,11.5,64.6,18.1L1631.7,194.9z M1043.2,163.5l-3.2-16.3c21.8-4.3,44.1-8,66.1-11.1l2.3,16.5
			C1086.7,155.7,1064.8,159.3,1043.2,163.5z M1503.4,162.8c-21.6-4.1-43.5-7.7-65.3-10.7l2.2-16.5c22,3,44.3,6.6,66.2,10.8
			L1503.4,162.8z M1174.2,145.3l-1.4-16.6c22.2-1.8,44.7-3.1,66.9-3.7l0.5,16.6C1218.3,142.3,1196,143.5,1174.2,145.3z M1372.4,145
			c-21.8-1.7-44-2.9-66-3.5l0.4-16.6c22.3,0.6,44.8,1.8,66.9,3.5L1372.4,145z"/>
	</g>
	<path class="st1" d="M2288.4,1345.5c0,4.3,0,8.7-0.1,13c-0.2,13-0.6,26-1.2,38.8c-20.7,407.8-283.9,751.7-648.2,890.2
		c-3.8,1.5-7.7,2.9-11.5,4.3c-11.6,4.2-23.2,8.3-35,12.1c-3.9,1.3-7.9,2.5-11.8,3.8c-23.7,7.4-47.7,13.9-72.1,19.5
		c-8.1,1.9-16.3,3.7-24.5,5.3c-20.5,4.2-41.2,7.8-62.1,10.7c-4.2,0.6-8.4,1.1-12.6,1.7c-8.4,1.1-16.8,2-25.3,2.9
		c-4.2,0.4-8.5,0.8-12.7,1.2c-8.5,0.8-17,1.4-25.6,1.9c-21.4,1.3-43,2-64.7,2c-21.7,0-43.3-0.7-64.7-2c-8.6-0.5-17.1-1.2-25.6-1.9
		c-4.2-0.4-8.5-0.8-12.7-1.2c-8.5-0.9-16.9-1.8-25.3-2.9c-4.2-0.5-8.4-1.1-12.6-1.7c-20.9-2.9-41.6-6.5-62.1-10.7
		c-8.2-1.7-16.4-3.4-24.5-5.3c-24.4-5.6-48.4-12.1-72.1-19.5c-3.9-1.2-7.9-2.5-11.8-3.8c-11.8-3.8-23.4-7.8-35-12.1
		c-3.9-1.4-7.7-2.8-11.5-4.3c-364.4-138.5-627.6-482.4-648.2-890.2c-0.5-10.7-0.9-21.5-1.1-32.3c0-2.2-0.1-4.4-0.1-6.6
		c0-1.6,0-3.2-0.1-4.8c0-2.7,0-5.5,0-8.3c0-12,0.2-23.9,0.6-35.8c0.1-3.7,0.3-7.5,0.5-11.2c0.1-1.6,0.1-3.3,0.2-4.9
		c0.4-8.6,1-17.1,1.6-25.7c0.3-4.3,0.7-8.5,1.1-12.8c0.8-8.5,1.6-17,2.6-25.4c1-8.4,2-16.8,3.2-25.2c1.8-12.6,3.7-25,6-37.4
		c19.6-109.8,57-213.4,109.1-307.8c1.7-3.1,3.5-6.3,5.2-9.4c20.6-36.4,43.4-71.4,68.2-104.8c1.4-1.9,2.8-3.8,4.2-5.6
		c23.5-31.1,48.6-60.8,75.5-89c0.2-0.2,0.4-0.4,0.5-0.6c36.1-37.8,75-72.8,116.5-104.6c19.2-14.7,39-28.8,59.3-42.1
		c20.3-13.3,41-26,62.3-37.8c7.1-4,14.2-7.8,21.4-11.6c7.2-3.8,14.4-7.5,21.7-11.1c4.8-2.4,9.7-4.7,14.5-7.1
		c8.7-4.2,17.5-8.2,26.4-12.1c2.3-1,4.6-2,6.8-3c6.4-2.8,12.8-5.5,19.2-8.1c7.6-3.1,15.2-6.1,22.9-9c3.8-1.5,7.7-2.9,11.5-4.3
		c4.9-1.8,9.7-3.5,14.6-5.2c6.8-2.4,13.6-4.7,20.4-6.9c3.9-1.3,7.9-2.5,11.8-3.8c7.9-2.5,15.8-4.8,23.8-7.1
		c19.9-5.7,40.1-10.7,60.5-15.2c8.2-1.8,16.4-3.5,24.6-5c8.2-1.6,16.5-3.1,24.8-4.4c12.4-2.1,25-3.9,37.6-5.5
		c8.4-1.1,16.8-2,25.3-2.9c4.2-0.4,8.5-0.8,12.7-1.2c8.5-0.8,17-1.4,25.6-2c21.4-1.4,43-2,64.7-2c21.7,0,43.3,0.7,64.7,2
		c8.6,0.5,17.1,1.2,25.6,2c4.3,0.4,8.5,0.8,12.7,1.2c8.5,0.9,16.9,1.8,25.3,2.9c12.6,1.6,25.1,3.4,37.6,5.5
		c8.3,1.4,16.6,2.8,24.8,4.4c8.2,1.6,16.4,3.3,24.6,5c20.4,4.4,40.6,9.5,60.5,15.2c8,2.3,15.9,4.6,23.8,7.1
		c3.9,1.2,7.9,2.5,11.8,3.8c6.8,2.2,13.6,4.5,20.4,6.9c4.9,1.7,9.7,3.4,14.6,5.2c3.9,1.4,7.7,2.8,11.5,4.3c7.7,2.9,15.3,5.9,22.9,9
		c6.4,2.6,12.8,5.3,19.2,8.1c2.3,1,4.6,2,6.8,3c8.9,3.9,17.6,7.9,26.4,12.1c4.9,2.3,9.7,4.7,14.5,7.1c7.3,3.6,14.5,7.3,21.7,11.1
		c7.2,3.8,14.3,7.7,21.4,11.6c21.3,11.9,42,24.5,62.3,37.8c20.3,13.3,40,27.4,59.2,42.1c41.5,31.8,80.5,66.8,116.5,104.6
		c0.2,0.2,0.4,0.4,0.5,0.6c26.8,28.2,52,57.9,75.5,89c1.4,1.9,2.8,3.8,4.2,5.6c24.8,33.4,47.6,68.4,68.2,104.8
		c1.8,3.1,3.5,6.2,5.2,9.4c52.1,94.4,89.5,198,109.1,307.8c2.2,12.4,4.2,24.9,6,37.4c1.2,8.4,2.2,16.8,3.2,25.2
		c1,8.4,1.8,16.9,2.6,25.4c0.4,4.3,0.7,8.5,1.1,12.8c0.6,8.5,1.2,17.1,1.6,25.7C2288,1310.9,2288.4,1328.2,2288.4,1345.5z"/>
	<circle class="st2" cx="1281" cy="1345.5" r="838.2"/>
	<circle class="st1" cx="1281" cy="1345.5" r="663.8"/>
	<circle class="st2" cx="1281" cy="1345.5" r="503.3"/>
	<circle class="st1" cx="1281" cy="1348.4" r="351.2"/>
	<circle class="st2" cx="1281" cy="1337.3" r="168.6"/>
	<path class="st3" d="M1629.2,1394.7c-15.6,121-92.9,222.7-199.2,272.6L1178.2,1472l0-0.1c28.4,21.9,64,34.9,102.7,34.9
		c93.1,0,168.6-75.5,168.6-168.6c0-53.9-25.3-101.8-64.6-132.7l0.1-0.2L1629.2,1394.7z"/>
	<path class="st3" d="M1945.6,1346.5c0,355.4-279.3,645.6-630.4,662.9l-337.5-261.8c84.5,64.1,189.8,102.2,304.1,102.2
		c278,0,503.3-225.3,503.3-503.3c0-153.5-68.7-290.9-177-383.2l324.5,251.8C1941.2,1257.5,1945.6,1301.4,1945.6,1346.5z"/>
	<path class="st3" d="M2288.4,1345.5c0,4.3,0,8.7-0.1,13c-0.2,13-0.6,26-1.2,38.8c-20.7,407.8-283.9,751.7-648.2,890.2
		c-3.8,1.5-7.7,2.9-11.5,4.3c-11.6,4.2-23.2,8.3-35,12.1c-3.9,1.3-7.9,2.5-11.8,3.8c-23.7,7.4-47.7,13.9-72.1,19.5
		c-8.1,1.9-16.3,3.7-24.5,5.3c-20.5,4.2-41.2,7.8-62.1,10.7c-4.2,0.6-8.4,1.1-12.6,1.7c-8.4,1.1-16.8,2-25.3,2.9
		c-4.2,0.4-8.5,0.8-12.7,1.2c-8.5,0.8-17,1.4-25.6,1.9c-21.4,1.3-43,2-64.7,2c-21.7,0-43.3-0.7-64.7-2c-3.2-0.2-6.5-0.4-9.7-0.7
		l-458.1-355.4l1-1.3c144.6,118.8,329.8,190.1,531.5,190.1c462.9,0,838.2-375.3,838.2-838.2c0-277.4-134.8-523.4-342.4-675.9
		l0.5-0.6l459.3,356.4c15.4,45.9,27.5,93.3,36.2,141.8c2.2,12.4,4.2,24.9,6,37.4c1.2,8.4,2.2,16.8,3.2,25.2c1,8.4,1.8,16.9,2.6,25.4
		c0.4,4.3,0.7,8.5,1.1,12.8c0.6,8.5,1.2,17.1,1.6,25.7C2288,1310.9,2288.4,1328.2,2288.4,1345.5z"/>
	<path class="st0" d="M2375.7,57.2l0.3,194.5l192.4-1.2l-295.8,295.8l-149.9-3.7l-809.4,809.4c-10.2,10.2-27,10.2-37.3,0l-2.1-2.1
		c-10.2-10.2-10.2-27,0-37.3l809.8-809.8l-4.8-148.8L2375.7,57.2z"/>
	<g>
		<path class="st4" d="M2376,251.7l192.4-1.2l-295.8,295.8l-149.9-3.7l-809.4,809.4c-10.2,10.2-27,10.2-37.3,0l-1.1-1.1L2376,249.9
			L2376,251.7z"/>
	</g>
</g>
</svg>
