<?xml version="1.0" encoding="utf-8"?>
<!-- Generator: Adobe Illustrator 21.1.0, SVG Export Plug-In . SVG Version: 6.00 Build 0)  -->
<svg version="1.1" xmlns="http://www.w3.org/2000/svg" xmlns:xlink="http://www.w3.org/1999/xlink" x="0px" y="0px"
	 viewBox="0 0 4466 3690" style="enable-background:new 0 0 4466 3690;" xml:space="preserve">
<style type="text/css">
	.st0{display:none;}
	.st1{display:inline;fill:#DDDDDD;}
	.st2{fill:#C8C8C8;}
	.st3{fill:#EDEDED;}
	.st4{fill:#FFFFFF;}
	.st5{fill:#287AA8;}
	.st6{fill:#2E79BD;}
	.st7{fill:#EBEBEB;}
	.st8{fill:#BABABA;}
	.st9{fill:#E7E6E6;}
	.st10{fill:#FF0000;}
	.st11{font-family:'D-DINCondensed-Bold';}
	.st12{font-size:1206.671px;}
	.st13{font-size:556.4745px;}
	.st14{fill:#99796B;}
	.st15{fill:#BC9682;}
	.st16{fill:#36B1E0;}
	.st17{fill:#E7B26A;}
	.st18{fill:#252A26;}
	.st19{fill:#282928;}
</style>
<g id="Layer_2" class="st0">
	<rect x="-473" y="-1474" class="st1" width="5008" height="5000"/>
</g>
<g id="Layer_1">
	<path class="st2" d="M3100.7,1429.2l-1259.5,215.3c-69.3,11.9-135.8-35.2-147.6-104.5c0,0-123.3-1275.3-10.9-1294.5
		c0,0,1322.9-131.5,1342.1-19l180.4,1055.1C3217.1,1350.9,3170.1,1417.4,3100.7,1429.2z"/>
	<path class="st3" d="M3029.4,1474.5l-1271.9,121.8c-70,6.7-132.8-45.1-139.5-115.1c0,0-28.9-1280.9,84.7-1291.8
		c0,0,1329-33.5,1339.9,80.1l102,1065.6C3151.2,1405,3099.4,1467.7,3029.4,1474.5z"/>
	<path class="st3" d="M1717.8,1428.8l1150.3,167.5c70,6.7,132.8-45.1,139.5-115.1c0,0,28.9-1280.9-84.7-1291.8
		c0,0-1137.7-29.1-1148.6,84.5l-119.5,972.6C1648.2,1316.4,1647.8,1422.1,1717.8,1428.8z"/>
	<path class="st4" d="M2853.8,1508.7H1851.3c-146,0-265.5-119.5-265.5-265.5v-688c0-236.8,193.7-430.5,430.5-430.5h672.5
		c236.8,0,430.5,193.7,430.5,430.5v688C3119.3,1389.2,2999.9,1508.7,2853.8,1508.7z"/>
	<path class="st5" d="M3119.3,484.4H1585.8v0c0-197.9,161.9-359.7,359.7-359.7h814.1C2957.5,124.6,3119.3,286.5,3119.3,484.4
		L3119.3,484.4z"/>
	<path class="st6" d="M1835.3,229.3L1835.3,229.3c-17.2,0-31.2-14-31.2-31.2v-73.5h62.4v73.5
		C1866.5,215.3,1852.5,229.3,1835.3,229.3z"/>
	<path class="st6" d="M2204.5,229.3L2204.5,229.3c-17.2,0-31.2-14-31.2-31.2v-73.5h62.4v73.5
		C2235.7,215.3,2221.7,229.3,2204.5,229.3z"/>
	<path class="st6" d="M2549.8,229.3L2549.8,229.3c-17.2,0-31.2-14-31.2-31.2v-73.5h62.4v73.5C2581,215.3,2566.9,229.3,2549.8,229.3z
		"/>
	<path class="st6" d="M2897.5,229.3L2897.5,229.3c-17.2,0-31.2-14-31.2-31.2c0,0,0-68.1,0-73.5c0-4.9,62.4,0.7,62.4,0.7v72.8
		C2928.7,215.3,2914.6,229.3,2897.5,229.3z"/>
	<path class="st7" d="M2192.2,218.8L2192.2,218.8c-17.2,0-31.2-14-31.2-31.2v-80.4c0-17.2,14-31.2,31.2-31.2l0,0
		c17.2,0,31.2,14,31.2,31.2v80.4C2223.4,204.8,2209.3,218.8,2192.2,218.8z"/>
	<path class="st7" d="M2539.2,218.8L2539.2,218.8c-17.2,0-31.2-14-31.2-31.2v-80.4c0-17.2,14-31.2,31.2-31.2l0,0
		c17.2,0,31.2,14,31.2,31.2v80.4C2570.4,204.8,2556.4,218.8,2539.2,218.8z"/>
	<path class="st7" d="M2886.2,218.8L2886.2,218.8c-17.2,0-31.2-14-31.2-31.2v-80.4c0-17.2,14-31.2,31.2-31.2l0,0
		c17.2,0,31.2,14,31.2,31.2v80.4C2917.4,204.8,2903.4,218.8,2886.2,218.8z"/>
	<path class="st8" d="M2990,1123.4l-362.7,381.4c0,0,13.7-67.2,13.8-109.4c0.1-26.8-5.4-50.2-7.3-88.7
		c-5.2-108,57.4-135.5,86.9-151.5c45.3-24.5,119.5-6.4,164.3-9.3C2903.9,1144.8,2975.9,1141.6,2990,1123.4z"/>
	<path class="st9" d="M3110.1,1099.4l-482.9,405.4c0,0,24-77.1,28.7-126.5c3-31.4-1.1-59.4,0.8-104.7
		c5.5-127.1,84.6-152.2,122.2-167.5c57.8-23.6,146.1,6.2,200.9,7.9C3003.1,1114.6,3091,1119.1,3110.1,1099.4z"/>
	<rect x="1744" y="685.7" class="st7" width="204.6" height="132.6"/>
	<rect x="1744" y="921.7" class="st7" width="204.6" height="132.6"/>
	<rect x="2069.6" y="921.7" class="st7" width="204.6" height="132.6"/>
	<rect x="2395.1" y="921.7" class="st7" width="204.6" height="132.6"/>
	<rect x="2714.4" y="921.7" class="st7" width="204.6" height="132.6"/>
	<rect x="1744" y="1157.8" class="st7" width="204.6" height="132.6"/>
	<rect x="2069.6" y="1157.8" class="st7" width="204.6" height="132.6"/>
	<rect x="2395.1" y="1157.8" class="st7" width="204.6" height="132.6"/>
	<rect x="2069.6" y="685.7" class="st7" width="204.6" height="132.6"/>
	<rect x="2395.1" y="685.7" class="st7" width="204.6" height="132.6"/>
	<rect x="2720.6" y="685.7" class="st7" width="204.6" height="132.6"/>
	<path class="st7" d="M1822.9,218.8L1822.9,218.8c-17.2,0-31.2-14-31.2-31.2v-80.4c0-17.2,14-31.2,31.2-31.2h0
		c17.2,0,31.2,14,31.2,31.2v80.4C1854.1,204.8,1840.1,218.8,1822.9,218.8z"/>
	<text transform="matrix(1 0 0 1 59.5996 3330.084)" class="st10 st11 st12">12 MONTHS</text>
	<g>
		<text transform="matrix(1 0 0 1 1698.5815 2206.7168)" class="st5 st11 st13">TYPICAL TERM</text>
	</g>
</g>
<g id="Layer_5">
	<g>
		<g>
			<path class="st10" d="M2167.6,775.4c-0.8,1-0.5,3.3,1.6,3l1.7-3.8L2167.6,775.4z"/>
			<path class="st10" d="M2180.9,783.6c1.3-0.8,2.7-2,3.7-3.4c1-1.4,1.5-3.1,0.9-5c-1.4,1.7-2.2,2.2-3.1,2.7
				c-0.8,0.5-1.7,1.2-3.2,3.3c-2.1,0.3-3.5-1.6-3-3c-0.4,0.5-1.2,0.2-2,0.1c-0.8-0.1-1.8,0-2.4,1.2c2.5,3.1,5.7,3.6,9.5,1.4
				C2182,782,2181.2,782.9,2180.9,783.6z"/>
			<path class="st10" d="M2339.5,886.3l-0.3-1.3C2339.1,885.5,2339.3,885.9,2339.5,886.3z"/>
			<path class="st10" d="M2371.9,998.7c-0.1-0.9-0.5-1.3-0.9-1.3C2371.3,998.2,2371.6,998.9,2371.9,998.7z"/>
			<path class="st10" d="M2367.2,1018.5c0.1-0.4,0.2-0.8,0.3-1.1C2367.2,1017.8,2366.9,1018.2,2367.2,1018.5z"/>
			<path class="st10" d="M2339.5,886.3c0,0,0.2,0.8,0.4,1.7c0.2,0.8,0.3,1.7,0.3,1.7C2341.4,889.1,2340.1,887.7,2339.5,886.3z"/>
			<path class="st10" d="M2209.9,778.9c-0.7,0-1.4,0.3-2,0.6c0.6,0,1.2-0.1,1.8,0C2209.8,779.3,2209.8,779.1,2209.9,778.9z"/>
			<path class="st10" d="M2303.3,848.9l-0.7-0.6c-0.5,0.1-1.1,0.4-1.7,0.7c0,0,0.6,0,1.2,0C2302.7,848.9,2303.3,848.9,2303.3,848.9z
				"/>
			<path class="st10" d="M2271.3,825.4c0.7,0.6,2.7-2.1,3.8-3.1c-1.2,0.9-2.1,1.1-2.9,0.9C2271.9,823.7,2271.6,824.4,2271.3,825.4z"
				/>
			<path class="st10" d="M2215.7,794.4c0,0-0.3,0-0.6,0.1c-0.3,0-0.6,0.1-0.6,0.1C2214.8,794.4,2215.3,794.4,2215.7,794.4z"/>
			<path class="st10" d="M2322.3,869.9c-0.3,0.4-0.6,0.8-0.7,1C2322,870.7,2322.2,870.3,2322.3,869.9z"/>
			<path class="st10" d="M2147.2,798.3c0,0.2,0,0.4,0,0.6C2147.5,798.6,2147.5,798.3,2147.2,798.3z"/>
			<path class="st10" d="M2196.3,812.2l-0.7,0.2c0,0.6-0.1,1.3-0.1,1.9L2196.3,812.2z"/>
			<path class="st10" d="M2357.7,1053.3c0.1-0.1,0.1-0.1,0.1-0.1C2357.7,1052.1,2357.6,1052.7,2357.7,1053.3z"/>
			<path class="st10" d="M2096.6,1165.9c1.5,1.9-0.3,2.5-1.8,3.1c-1.5,0.6-2.9,1.3-0.5,3.7c-0.1-0.7,1.5-1.6,2.6-2.8
				C2098.1,1168.8,2098.7,1167.5,2096.6,1165.9z"/>
			<path class="st10" d="M2210.9,779.6c0.6,0.1,1.2,0.2,1.7,0.4C2211.9,779.7,2211.4,779.6,2210.9,779.6z"/>
			<path class="st10" d="M2094.4,1172.7L2094.4,1172.7l0.5,0.5C2094.7,1173,2094.5,1172.9,2094.4,1172.7z"/>
			<path class="st10" d="M2325.4,1127.4c0.6,0.2,1.1,0.2,1.7,0.2C2326.8,1127.5,2326.3,1127.4,2325.4,1127.4z"/>
			<path class="st10" d="M2358.3,1075.4l-0.9,1.3C2357.9,1076.2,2358.2,1075.8,2358.3,1075.4z"/>
			<path class="st10" d="M2307.2,1153.4c-0.8,0.3-1.3,0.1-1.9,1.2c0.2,0.1,0.3,0.1,0.5,0.1
				C2305.9,1154.1,2306.2,1153.6,2307.2,1153.4z"/>
			<path class="st10" d="M2279.6,1170.6c0.3,0.2,0.5,0.3,0.8,0.4c0.3-0.2,0.6-0.4,0.9-0.6L2279.6,1170.6z"/>
			<path class="st10" d="M2038.3,820.2c1.1,0.6,1.9,1.5,2.6,2.3C2039.6,820.5,2044.5,817.9,2038.3,820.2z"/>
			<path class="st10" d="M2209.5,780.8c0.4-0.8,0.8-1.1,1.4-1.2c-0.4-0.1-0.8-0.1-1.2-0.1C2209.5,780,2209.3,780.4,2209.5,780.8z"/>
			<path class="st10" d="M2322.9,1174.6c0,0-1.3,0.9-2.6,1.8c-0.7,0.4-1.3,0.9-1.8,1.2c-0.5,0.3-0.8,0.5-0.8,0.5
				C2319.2,1177.4,2321.1,1176,2322.9,1174.6z"/>
			<path class="st10" d="M1910.5,1032l-0.8-1.2C1909.8,1031.3,1910,1031.7,1910.5,1032z"/>
			<path class="st10" d="M2302,1188.9c-1.6-0.5-3-0.5-4.2-0.3c-0.1,0.4-0.3,0.7-0.3,1.1L2302,1188.9z"/>
			<path class="st10" d="M2040.9,822.6C2040.9,822.6,2040.9,822.5,2040.9,822.6C2040.9,822.5,2040.9,822.6,2040.9,822.6z"/>
			<path class="st10" d="M2076.2,804.6c-5.5,1.1-1.7,4.8-2.3,7.5c-6.2,2.7-3.7-2.5-6.5-4.1c-0.5,0.3-0.9,0.6-1.4,0.9
				c-0.4,0.3-0.8,0.7-1.2,1.1c-0.8,0.8-1.5,1.6-2.2,2.3c-1.4,1.5-2.6,2.9-4.2,3.2c-0.4-0.6-1.1-0.7-0.6-1.8c-0.8,1.1-2,1.9-3.4,2.6
				c-1.4,0.7-3,1.2-4.5,1.7c-0.8,0.3-1.6,0.6-2.4,0.9c-0.8,0.3-1.5,0.7-2.2,1.1c-1.4,0.8-2.6,1.9-3.5,3.3c-0.5-0.2-0.8-0.5-1-0.8
				c1.5,1.8,2.3,3.9,2.7,5.5c-1.1,0.4-2,1.4-2.8,2c-0.8,0.6-1.5,0.8-2.4-0.3c1.4-0.4,1.2-1.6,1.5-2.6c0,0-0.5,0.5-1,1
				c-0.5,0.5-1,1-1,1c-3.6-3.1,2.8-2.6,1.8-5.4c-1.1,0.7-2.2,1.6-3.3,2.5c-1.1,0.9-2.2,1.8-3.2,2.7c-1.1,0.9-2.1,1.7-3.1,2.3
				c-1,0.6-2,1-3,1.1c-1.2-1.7,0.8-2.9,2.3-3.8c1.5-0.9,2.5-1.5-0.6-2.3c0,0,1.6-0.2,3.1-0.4c1.6-0.2,3.1-0.4,3.1-0.4
				c-6.6-4.4,3.7-0.9-2.8-5.8c-4,0.9-6,2.2-7.9,3.6c-1.9,1.3-3.8,2.7-7.8,3.8c-0.7,2.8,1.9,2.8,1.2,5.6c-2.2,2.1-4,2.8-5.6,2.9
				c-0.8,0-1.6-0.1-2.3-0.4c-0.7-0.2-1.4-0.5-2.1-0.9c-2.7-1.3-5.2-2.5-7.6,1.9c-0.3,1.7,0,3.8-0.5,5.5c-0.4,1.7-1.6,3-4.8,3.4
				c0,0-0.1-1.2-0.3-2.5c-0.1-1.2-0.3-2.5-0.3-2.5c-3.5,1.8-3.6,3.8-3.9,5.6c-0.1,0.9-0.3,1.7-1,2.4c-0.3,0.3-0.8,0.7-1.5,1
				c-0.6,0.3-1.5,0.6-2.5,0.8c0.1-1.1,1.2-2.3,2.1-3.2c0.9-0.8,1.6-1.4,1-1.3c-3.2-0.1-3.7,1-3.7,2.3c-0.1,1.4,0.3,3-1.4,4.1l-3-2.8
				c-1.6,1.3-3.2,2.8-4.8,4.4c-0.8,0.8-1.6,1.6-2.3,2.5c-0.7,0.9-1.5,1.7-2.3,2.6c-0.8,0.9-1.5,1.8-2.2,2.6
				c-0.8,0.9-1.5,1.8-2.3,2.7c-1.5,1.8-3.1,3.5-4.6,5.2c-0.4-1.2-0.1-3.3-2.5-2.7c-3.7,4.7-8.3,9-13.1,13.2
				c-4.7,4.2-9.7,8.3-14.1,12.3c0,0,0,1.4,0.1,2.8c0,0.7,0.1,1.4,0.1,1.9c0,0.5,0.1,0.9,0.1,0.9c-0.6,0.8-2.4,0.7-2.3-0.6
				c-3.7,3,1.7,1.4,1.6,4c-1.2,2.3-3.5,1.7-3.5-0.2c-1,4.2-2.5,9.8-4.5,15.2c-2,5.4-4.3,10.5-7.6,13.7c0,0-0.1-0.5-0.2-1
				c-0.1-0.5-0.2-1-0.2-1c-1,1.4-1.1,2.7-1,3.9c0.1,1.2,0.6,2.4,1,3.5c0.2,0.5,0.4,1.1,0.6,1.6c0.2,0.5,0.3,1.1,0.3,1.6
				c0,1.1-0.4,2.1-1.6,3.3l-0.2-1.3c-1.5,3.2-2.4,6.7-3.3,10.2c-0.7,3.5-1.5,7-2,10.5c-0.1,0.9-0.3,1.7-0.5,2.5
				c-0.1,0.4-0.2,0.8-0.2,1.3c-0.1,0.4-0.1,0.8-0.2,1.2c-0.3,1.6-0.6,3.3-1,4.8c-0.2,0.8-0.4,1.5-0.6,2.3c-0.2,0.8-0.4,1.5-0.7,2.2
				c-0.5,1.5-1.2,2.8-1.8,4.2c1.2,0.6,1.7,1.7,1.8,3.1c0.1,0.7,0,1.5-0.1,2.3c0,0.4-0.1,0.8-0.1,1.2c0,0.4-0.1,0.8-0.1,1.3
				c-0.2,3.3-0.2,6.6,3.3,6.8c-0.7,2-1.4,3.4-1.9,4.5c-0.6,1.1-1.1,2-1.5,3c-0.4,1-0.8,2-1.1,3.6c-0.2,0.8-0.3,1.7-0.5,2.8
				c-0.1,1.1-0.2,2.3-0.3,3.8c0.1,1.5,1.3,2.5,2.7,3.5c1.4,1,3,2,3.7,3.7l-3.6,0.8c0,0,1.2,1,2.4,2.1c0.6,0.5,1.2,1,1.7,1.4
				c0.5,0.4,0.8,0.6,0.8,0.6s-0.9,0.9-1.8,1.8c-0.9,0.9-1.8,1.8-1.8,1.8s0.4,0.8,0.9,1.6c0.4,0.8,0.9,1.6,0.9,1.6
				c-0.2-1.4,0.9-3.3,2-3.3c0.4,0.6,0.6,1.3,0.8,2c0.2,0.7,0.4,1.4,0.5,2.2c0.2,1.5,0.2,3,0,4.4c-0.3,2.8-1.1,5.2-2,5.5
				c0,0,0.4,0.7,1.1,1.8c0.6,1.1,1.6,2.5,2.5,3.9c0.9,1.4,1.8,2.8,2.5,3.8c0.7,1,1.2,1.7,1.2,1.7c-1.5,0.3-2.8-1.5-4.2-2.8
				c0.7,0.7,1.2,1.2,1.6,1.6c0.3,0.4,0.5,0.8,0.5,1c0.1,0.5-0.3,0.9-0.8,1.2c-0.8,0.6-1.7,1.1,1,3.5c0.5-1.1,2.2-0.4,2.9-0.6
				c-0.2,0.9-0.2,2.1,0,3.3c0.2,1.2,0.6,2.5,1.1,3.9c0.5,1.3,1.2,2.7,1.9,3.9c0.7,1.3,1.5,2.5,2.3,3.6l-2.7,0.2
				c0.4,1.1,1,2.2,1.6,3.3c0.6,1.1,1.2,2.2,1.8,3.3c0.6,1.1,1.3,2.2,2,3.3c0.7,1.1,1.4,2.1,2.2,3.2c0.7,1.1,1.5,2.1,2.3,3.2
				c0.8,1.1,1.6,2.1,2.3,3.2c1.6,2.2,3.2,4.3,4.7,6.5c-1.2-3.9,3-5.6,5-3.3l-2.5,3.2c3.1,0.2-0.7-3.4,4.1-1.8c1.9,3.4-2,4.7-4.4,3.6
				l3.9,3.1c-0.8,0.9-1.9,0.4-3.3,1c1.5,0.1,2.1,2.3,2.8,4.6c0.4,1.1,0.8,2.2,1.5,3c0.7,0.8,1.6,1.3,2.9,1.2l-0.7,0.9
				c3.4,4.2,6.4,6.9,9.1,9.4c1.4,1.2,2.8,2.4,4.2,3.6c0.3,0.3,0.7,0.6,1.1,0.9c0.4,0.3,0.7,0.6,1.1,1c0.8,0.7,1.5,1.3,2.3,2.1
				c1.2-1.1,2.3-1,3.6-0.6c1.2,0.4,2.7,1,4.6,0.9c1,1.2,1.9,2.6,3,4c1,1.4,2.1,2.8,3.2,4.2c0.3,0.4,0.6,0.7,0.9,1.1
				c0.3,0.3,0.6,0.7,0.9,1c0.6,0.7,1.2,1.3,1.9,2c0.7,0.7,1.3,1.3,2,1.9c0.7,0.6,1.5,1.2,2.3,1.7c5.3,1.8,2.9-1.4,6-1.6
				c-1.5,2.7,4.9,6.8,0.4,6.4c3.9,2.4,6.5,3.8,9.4,5.3c1.5,0.7,3,1.3,4.9,2.1c0.9,0.4,2,0.8,3.1,1.1c1.1,0.4,2.4,0.8,3.8,1.2
				c-0.5-1.7-1.4-2.9-0.2-3.4c2,0.6,3.4,3.4,2.5,4.6l-0.6,0c1.7,0.3,3.3,0.8,4.8,1.5c0.8,0.4,1.5,0.8,2.3,1.2
				c0.7,0.4,1.5,0.9,2.2,1.4c1.5,1,2.9,2.2,4.3,3.4c1.4,1.2,2.8,2.4,4.2,3.6c5.6,4.8,11.3,9.1,17.2,7.9l-0.6,0.1c0,0,0.7,0,1.7,0.1
				c1,0.1,2.4,0.2,3.8,0.2c2.8,0.1,5.5,0.2,5.5,0.2c2.2,1,1.3,1.3,0.2,1.8c-1.1,0.4-2.4,0.9-1,2.4c3.1-0.3,5.7,0,8,0.5
				c2.3,0.5,4.4,1.3,6.3,2.1c2,0.8,3.9,1.6,5.9,2.2c2,0.6,4.2,0.8,6.7,0.6c1.2,2.7,3.4,4.3,6.1,5.4c1.4,0.6,2.9,1,4.4,1.3
				c1.6,0.3,3.2,0.6,4.9,0.8c1.7,0.2,3.4,0.4,5.1,0.6c1.7,0.2,3.3,0.4,4.9,0.8c3.2,0.7,6,1.6,8.2,3.4l-0.2-2.2
				c2.8-1.6,2.8,1.7,4.6,2.5c0-1.7-2.4-2.3-0.7-3.2c10.7,0.4,21.4,2.5,32.3,4.8c10.9,2.3,21.9,4.8,32.7,6c4,0.4,5.2-2.3,6.6-4.5
				c1.4-2.2,3-3.7,8-1.2l-2.9,3.9c8.1-2.3,16.3-2.5,24.7-2.9c2.1-0.1,4.2-0.3,6.3-0.4c2.1-0.2,4.2-0.4,6.2-0.7
				c2.1-0.4,4.1-0.8,6.1-1.3c2-0.6,4-1.3,5.9-2.1c-0.8,1-0.6,2.2-2.2,2.5c1,0.6,2.3,0.7,3.6,0.6c1.4-0.2,2.9-0.6,4.2-1.2
				c0.7-0.3,1.3-0.6,1.8-0.9c0.6-0.4,1.1-0.7,1.5-1.1c0.8-0.7,1.3-1.5,1.1-2c2.6-0.3,1.1,1.9,2.9,2.7c1,0.2,1.9-0.1,2.9-0.6
				c1-0.5,1.9-1.2,2.7-1.8c1.8-1.2,3.3-2.5,4.6-1.4c0.5,0.3-0.7,1.2-1.3,1.6c0.5-0.5,1.3-1,2.4-1.4c1-0.4,2.2-0.8,3.2-1.2
				c2-0.9,3.3-1.8,1.7-3c3.3-0.3,5.9-1.9,8.5-3.3c0.6-0.3,1.2-0.7,1.9-1.1c0.6-0.4,1.2-0.7,1.8-1c1.2-0.6,2.5-1,3.9-1.2
				c0.3-1.2,1.1-2,2.1-2.7c1-0.6,2.2-1.1,3.3-1.6c2.2-1.1,4.1-2.1,3.1-4.6c1.3,2.4,4.2,1.8,7-0.1c1.4-1,2.7-2.2,3.8-3.5
				c1.1-1.3,1.9-2.6,2.3-3.7c0,2.1,3.8-0.9,4,1.8c1.8-1.5,3.2-3.2,4-4.6c0.8-1.5,0.7-2.7-0.5-3.5c1.3-0.1,2.4-0.5,3.4-0.9
				c1-0.5,1.8-1.1,2.5-1.9c0.7-0.7,1.3-1.6,1.8-2.4c0.5-0.9,1-1.7,1.4-2.6c0.9-1.7,1.7-3.3,2.9-4.4c1.1-1.1,2.7-1.6,5-1.1
				c3.2-6.1,6.1-11.9,8.7-17.5c2.6-5.6,5-11.1,7.4-16.4c2.2,1.5,0.7,4.4-0.8,7.1c-1.5,2.7-2.9,5.4-0.5,6.7c2.1-5.4,2.9-10,3.9-14.4
				c0.5-2.2,1.1-4.3,1.9-6.5c0.8-2.2,1.9-4.4,3.3-6.7c1.8-2.3,1.5,2.5,1.8,3.7c0.4-1.4,0.8-2.7,1.2-4c0.4-1.3,0.9-2.6,1.4-3.8
				c1-2.5,2-4.9,3.1-7.3c1-2.4,1.9-4.8,2.6-7.2c0.7-2.4,1.1-4.9,1.2-7.5c0.5,0.2,0.6,1.4,0.7,2.4c0.5-1.9,2.2-4-0.2-4.6l0.1,2
				c-1.1,0.5-1.9,0.1-2.6-0.7c-0.7-0.8-1.2-2.1-1.6-3.4c-0.9-2.7-1.4-5.6-2.3-6.1c2.9,2.5,4,0.4,5.2-1.5c1.2-1.9,2.6-3.5,6.2,0.1
				c-0.1-1.4-0.8-3.2-2.5-3.3c0.9-1.7,2-2.1,3.3,0.3c0.2-3.5-0.5-4.8-1.1-6c-0.5-1.2-1-2.2-0.3-5.3c1.2,0.3,1.3,1.6,2.6,2.5
				c-0.8-1.8-1.6-3.6-2-5.5c-0.4-1.9-0.4-4,0.6-6.5c0.6,0.4,1.7,0,1.4,1.5c0.3-2.2,0.2-4.4-0.1-6.4c-0.1-1-0.3-2.1-0.5-3.1
				c-0.2-1-0.4-2-0.6-3c-0.2-1-0.4-2-0.5-3s-0.2-2-0.2-3.1c-0.1-2.1,0.2-4.3,0.9-6.7c5,3.2,1.9-3.2,6.3-3.5c0,0-0.3-1.4-0.5-2.7
				c-0.3-1.3-0.6-2.7-0.6-2.7l-2.2,2.1c0.1-2.3-0.7-4.5-1.2-6.6c-0.6-2.1-1.1-4.1-0.4-6.1l1.9,3.4c0,0-0.2-2.2-0.5-4.3
				c-0.1-1.1-0.3-2.2-0.4-3c-0.1-0.8-0.2-1.3-0.2-1.3s-0.4,1.2-0.7,2.5c-0.2,0.6-0.4,1.2-0.5,1.7c-0.2,0.5-0.3,0.8-0.3,0.8
				c-0.6-1.1-1.2-1.7-1.9-1.9c-0.6-0.2-1.2-0.2-1.7-0.2c-1,0-1.5-0.2-1-3.3c0.3,0.6,0.2-0.5,0.4-2.1c0.2-1.6,0.6-3.6,1.8-4.9
				c0,0,0,0,0,0c-0.8-1.1-1.6-2.1-2.1-3.4c-0.5-1.2-0.8-2.6-0.4-4.3c1.3-1,4.9,0.2,5.8-0.5c-1-0.5-1.6-1.4-2.1-2.5
				c-0.5-1.1-0.8-2.4-1.1-3.8c-0.3-1.3-0.6-2.7-1.2-3.9c-0.6-1.2-1.3-2.1-2.4-2.6c1.1,0.8,3.4,0.5,3.8,0.1l-3.3-1.4
				c0.6-2.2,1-2.6,2.9-2.6c-0.3-3.2-1.6-2.4-2.7-1.9c-1.1,0.6-2,1-1.5-3c0.4,0.5,0.7,0.2,1.4,1.3c-0.1-3.9-1.4-7.4-2.7-10.7
				c-1.4-3.4-2.6-6.6-3-10.2c1.8-1.6,2.5-0.2,3.2,1.2c0.6,1.4,1.1,2.8,2.6,1.1c-0.9-2.4-2.1-4.8-3.3-7.1c-1.3-2.3-2.7-4.6-4.1-6.9
				c-1.4-2.3-2.8-4.5-4-6.8c-0.6-1.1-1.2-2.3-1.7-3.4c-0.5-1.1-0.9-2.3-1.3-3.5c0,0,0.1,0.5,0.1,0.9c0.1,0.5,0.1,0.9,0.1,0.9
				c-3.1,0.6-3.2-1.3-3-3.9c0.1-1.3,0.2-2.7,0-4c-0.2-1.3-0.8-2.5-2-3.3c0.9,0.9,3.8-0.1,3.1-0.1c-2.1-6.6-7.7-11.7-14.7-19.2l2,0.2
				c-0.2-1-0.6-2.1-1.2-3.3c-0.5-1.1-1.2-2.2-1.9-3.4c-0.7-1.1-1.4-2.3-2.1-3.4c-0.7-1.1-1.3-2.1-1.8-3.1c-2.1-0.1-3.3-2.2-4.3,0.4
				c0-0.5,0-1-0.1-1.5c-0.1-0.5-0.1-0.9-0.2-1.4c-0.2-0.9-0.4-1.7-0.7-2.5c-0.3-0.8-0.6-1.5-1-2.3c-0.2-0.4-0.4-0.7-0.6-1
				c-0.2-0.3-0.5-0.6-0.7-1c-2-2.5-4.4-4.5-7-6.3c-1.3-0.9-2.5-1.8-3.8-2.7c-1.2-0.9-2.4-1.8-3.5-2.9c-0.5-0.5-1-1.1-1.5-1.6
				c-0.5-0.6-0.9-1.2-1.3-1.8c-0.8-1.3-1.4-2.8-1.7-4.5c1,1,3.4,1.3,2.6,0.6c0,0-0.5-0.4-1.3-0.9c-0.4-0.3-0.8-0.6-1.3-1
				c-0.5-0.3-1-0.7-1.5-1.1c-2.1-1.4-4.2-2.9-4.2-2.9c-1.3,2.6-0.2,2.1-0.1,5.1c-2,0.3-4.8-0.6-6.7-2.2c4.5,1.5,2.9-3.3,2.5-5.7
				c-0.3,0.8-1.4,1.1-1.9,1.9c-0.2-1.8-0.5-2.4-1-2.5c-0.5-0.1-1.1,0.4-1.8,0.8c-1.4,0.9-3,1.9-4.6-1.6l1.2-0.9
				c-0.6-0.3-1.3-0.5-1.9-0.7c-0.7-0.2-1.4-0.3-2-0.5c-1.3-0.4-2.6-0.9-3.6-1.9c1-3.2,3.1,0.5,4.8-1.4c-0.8-0.6-1.8-0.9-2.9-1
				c-0.5-0.1-1.1-0.2-1.7-0.2c-0.6,0-1.1-0.1-1.7-0.1c-2.2-0.2-4-0.8-4.6-3.1c1.9,0.3,3.8,1.7,5.7,1.9c-0.5-2.6-1-3.9-1.6-4.7
				c-0.6-0.8-1.3-1.3-2.4-2.3l0.2,0.2c0,0-1.2-1.3-2.3-2.6c-0.6-0.7-1.2-1.3-1.6-1.8c-0.4-0.5-0.7-0.8-0.7-0.8s0.2,0.4,0.5,0.9
				c0.2,0.5,0.4,0.9,0.4,0.9c-2.2,1-3.9,1.3-5.3,1.1c-1.4-0.2-2.6-0.8-3.7-1.5c-1.2-0.7-2.4-1.5-3.8-2c-0.7-0.3-1.5-0.5-2.3-0.6
				c-0.8-0.1-1.8-0.1-2.8,0.1c2-0.4,3.2-0.6,3.8-0.9c0.6-0.3,0.8-0.6,0.7-1c-0.1-0.7-1-1.7,0.1-3.1c-1-1.7-2.8-4-1.6-4.5
				c-2.1,0.5-3-0.7-4.2-1.7c-1.2-1.1-2.6-2-5.6-1.2c0.2-0.6-0.6-1-1.1-1.5c-0.6-0.5-0.9-1.2,0-2.4c-4.2-1,0,2.2-0.9,3.4
				c-3.8,0.4-6.6-2.3-10-4.9c-0.9-0.6-1.7-1.3-2.7-1.9c-0.9-0.6-1.9-1.1-3-1.5c-1-0.4-2.1-0.7-3.3-0.9c-1.2-0.2-2.4-0.1-3.7,0.1
				c-2.1-0.2-3.8-0.1-5.3,0.1c-1.5,0.2-2.9,0.6-4.2,1c-1.3,0.4-2.6,0.7-4,1c-1.4,0.3-3,0.5-4.8,0.4c-0.9-1.2-0.1-2.1,0.9-2.7
				c1-0.6,2.2-0.8,2.2-0.8c-3.3-2.8-6.4-3.2-10.3-2.9c1-0.8,0.4-1.8-0.4-3.4c-3-0.4-2.9,3.7-6.4,1.1c0.9-1.1,2.2-2.9,4-3.9
				c-3.8,0.2-7.7,1.7-11.5,2c-0.6-2.2,2.7-2.6,4.3-3.6c-1.1,0-2.3,0-3.6,0c-1.3,0.1-2.6,0.2-3.8,0.3c-2.4,0.4-4.5,1.1-5.4,2.6
				c0,0,0.6,0.4,1.2,0.7c0.6,0.4,1.2,0.8,1.2,0.8c-1.5-0.1-0.4-2.8,0.8-3.2c3.9-1.9,4.9,1.9,4.9,3.1l-2.7,0.3
				c0.4,1.8,1.2,2.7,2.3,3.1c1.1,0.4,2.5,0.4,4,0.1c3.1-0.6,6.6-1.6,9.2-0.8c0,0-0.8,1.1-1.6,2.2c-0.8,1.1-1.6,2.2-1.6,2.2
				s1.5-0.7,3-1.4c0.8-0.4,1.5-0.7,2.1-0.9c0.6-0.2,1-0.4,1-0.4c0.8,1.5,0.8,4.4-1.8,4.5c1.5,1.6,2.4,1.4,3.2,1.2
				c0.8-0.2,1.6-0.4,2.7,1.3c0.2,0.5,0,0.7-0.4,0.8l3.8-0.4c-1,0.8-0.4,3.5-2.3,2.2c1.3,1.1,2.7,1.7,3.9,1.9
				c1.3,0.2,2.5,0.2,3.6,0.1c2.2-0.1,4-0.3,4.5,1.9l-0.6,0.1c4.4,0.7,5,0,5.3-1.2c0.2-0.6,0.3-1.3,0.9-1.9c0.6-0.6,1.6-1.3,3.6-1.6
				c0,0,0.3,2.5,0.5,5c0.2,2.5,0.4,5,0.4,5l2.2-3c0.8,0.5,2.4,1.5,1.5,2.7c4.1-0.9,0.1-1.7,2.8-3c0.7,1.2,1.8,2,3,2.7
				c1.2,0.7,2.5,1.2,3.7,1.7c2.4,1,4.3,2.3,3.4,5.1c2.7-1.7-2.8-3.8,2.3-3.4c-0.8,3.1,0.5,3.5,2.3,3.6c1.8,0.2,4.1,0.2,5.2,2.5
				c-2.7,2.2-5.1-1.1-3,3.3c1.2-0.9,2.2-1,3-0.7c0.9,0.3,1.6,1.1,2.2,2c1.3,1.8,2.5,4.1,4.2,4.5c1.2-1.8,3-1.2,5.2,0.1
				c1.1,0.6,2.2,1.5,3.5,2.3c1.2,0.8,2.6,1.5,3.9,2.1c-0.6,0.5,1.3,2.5,3.6,5c2.3,2.5,5.1,5.5,6.6,7.8l-0.6,0.5
				c1.8-1.4,3.6-1,5.4-0.1c1.8,1,3.6,2.5,5.4,3.5c-1.9,1.8-3.1,2.1-5.4,1.6l2.8,2.4c1.6-0.4,2.9-0.2,5,1.1l-2.9,1.7
				c0.9,0.8,2,1.4,3.1,2.1c1.1,0.6,2.3,1.2,3.5,1.9c2.4,1.4,4.5,3.2,5.9,6.2c1.2-0.9,1.9-3.3,3.1-5c1.1-1.7,2.7-2.8,5.8-0.9
				c-1.1,1.3-3,3.4-4.7,2.5c0.6,0.3,2.4,0.6,2.7,2l-3.9-0.2c1,3,2.7-0.4,4.1,1.5c-1.8,1.5-0.1,2.4-1.7,3.4c-0.6-0.3-0.6-2.1-1.9-2.2
				c0.7,1.1,1.3,2.5,1.7,3.8c0.3,1.3,0.4,2.7,0,3.6c0.9-1,2.4-2,3.9-0.8c1.6,1.8,1.4,2.6,0.8,3.3c-0.6,0.7-1.5,1.3-1.1,2.7
				c2-0.1,2.6,3.4,5.4,1.3c0.9,1.1-0.3,2.4-0.8,3.4c0.7,0.3,1.5,1,2.3,1.8c0.8,0.9,1.7,1.8,2.5,2.7c1.6,1.7,3,2.6,3.8,0.4l-0.2-0.7
				c0.1,0.1,0.2,0.2,0.4,0.3c0,0,0,0,0,0l0,0c0.9,0.6,1.8,1.3,2.5,2.1c0.7,0.8,1.4,1.7,1.9,2.6c0.6,0.9,1.1,1.9,1.6,2.9
				c0.5,1,0.9,2,1.2,3.1c0.8,2.1,1.5,4.1,2.3,6.2c0.4,1,0.8,2,1.3,2.9c0.2,0.5,0.5,0.9,0.8,1.4c0.3,0.5,0.6,0.9,0.9,1.3l-1.1,0.5
				c1.7,1.9,3.1,4.3,4.5,6.5c0.7,1.1,1.4,2.2,2.2,3.1c0.8,0.9,1.5,1.7,2.5,2.3c0.6,1.4-0.7,4-2.2,4c1.1,1.6,2,2.4,2.6,3.5
				c0.3,0.6,0.6,1.2,0.7,2.1c0.2,0.9,0.3,1.9,0.3,3.4c-0.8-0.7-1.3-1-1.6-1c-0.3,0-0.4,0.1-0.4,0.2c-0.1,0.2,0,0.1-0.7-2.3
				c0.2,1.2,0.2,2.2,0.3,3.2c0,0.9,0,1.7,0.2,2.5c0.2,0.8,0.4,1.5,1,2.3c0.5,0.8,1.3,1.6,2.5,2.6c-1.7-0.4-2.3,0.8-2.4,2.2
				c0,1.5,0.6,3.3,1.3,4.3c0,0,0.3-1,0.6-1.9c0.3-1,0.5-1.9,0.5-1.9c1.2,2.4,1.5,4.6,1.8,6.9l-4.1-0.2c-0.3,1.3-0.3,2.6-0.1,3.7
				c0.1,1.2,0.5,2.2,0.9,3.3c0.5,1,1,2,1.6,3c0.6,1,1.2,1.9,1.8,2.8c0.6,0.9,1.2,1.9,1.7,2.8c0.5,0.9,0.8,1.9,1,2.9
				c0.2,1,0.2,2-0.1,3c-0.1,0.5-0.3,1-0.6,1.5c-0.3,0.5-0.6,1-1.1,1.6c1.5,1.1,1.8-0.3,2.2-1.7c0.3-1.4,0.7-2.9,2.5-2
				c0,0.6,0,1.2-0.1,1.8c-0.1,0.6-0.3,1.2-0.5,1.8c-0.5,1.2-1.1,2.3-1.7,3.4c-1.2,2.1-2.5,3.8-2.4,4.5c-0.8,3.2,0.8,4.4,2.4,5.8
				c0.8,0.7,1.7,1.4,2.2,2.3c0.3,0.5,0.5,1,0.6,1.6c0.1,0.6,0.1,1.3,0,2.2c1.4-0.9,5.1-2,6.6,3c-0.1,1.2-0.5,2.1-1.1,2.9
				c-0.6,0.7-1.3,1.2-2.1,1.5c-1.5,0.5-3.2,0.1-3.8-1.4c-0.1-1.1,0.3-1.6,0.7-1.6c-0.6-1.5-1.3-3.4-2.7-1.5l1.4,0.5
				c-0.3,0.6-0.6,1.4-0.7,2.3c-0.2,0.9-0.4,1.8-0.6,2.7c-0.4,1.7-0.9,2.8-2.1,2.1c1.4,3.4,2.3,1.5,3-1.1c-1,2.9-1,5.2-1,7.5
				c0.1,2.3,0.1,4.6-0.8,7.5c0.8-0.9,2.5-1.7,2.5-0.7c-0.3,1.1-0.4,2-0.5,2.7c-0.1,0.7-0.1,1.3-0.1,1.7c0.1,0.9,0.5,1.3,0.9,1.7
				c0.9,0.7,2.2,1.1,2.2,4.1c-2.5,3.2-5-1.7-3.9,4.4c-1.9,3.5-3.8,0.3-4.8-1.3c0.3,0.7,0.4,1.4,0.5,2.1c0,0.7,0,1.3-0.1,1.9
				c-0.2,1.2-0.7,2.4-1.3,3.4c-0.6,1-1.3,2-1.9,2.8c-0.6,0.9-1.1,1.6-1.4,2.4l-0.6-2.9c0.4,1.8,0.1,3.1-0.1,4.5l3-1.1
				c-0.4,0.8-0.6,1.5-0.9,2c-0.3,0.5-0.7,0.8-1.3,0.7c0.7,1,1.9,0.9,3.2,1.1c1.3,0.1,2.6,0.5,3.4,2.4c-0.9,1-0.9,2.7-1.1,4.3
				c-0.3,1.5-0.8,2.8-2.7,2.7c1.4-3.3,0.5-3.3-0.7-3.3c-0.6,0-1.3,0.1-1.8-0.3c-0.5-0.3-0.7-1-0.6-2.5c0.2,1.2-0.1,2.5-1,4
				c-0.5,0.1-0.7-0.4-0.8-0.9c-4.8,5.6,3.4,4,1.5,10.7c-1.8-1.4-4.3,0.4-4.2,1.6c0.9-2.6,3.8-0.3,4.5,2.7c-1.5,1.9-1.5,3.2-1.4,4.2
				c0.2,1.1,0.6,1.9,0.1,3l1.6-2.3c1.7,1.5,0.7,3.6,0.3,6.8c-1.6-0.3-0.1-3.1-1.2-2.3c0.3,0.6,0.4,1.1,0.4,1.6
				c0,0.5-0.2,0.9-0.4,1.4c-0.5,0.9-1.3,1.7-2.3,2.5c-1.8,1.6-3.9,3.2-3.6,6c-2.2,1.5-3.7-1.4-5.4,0c0.1,3-1.1,4-2.5,5
				c-0.3,0.2-0.7,0.5-1,0.8c-0.3,0.3-0.6,0.6-0.9,0.9c-0.6,0.7-1,1.7-1.1,3.2c3.2-0.1,2.8-0.8,3.4,4.1c0,0,0-0.1,0.1-0.4
				c0.1-0.3,0.2-0.6,0.3-1.1c0.2-0.9,0.5-2,0.8-3.2c0.3-1.2,0.6-2.3,0.8-3.2c0.2-0.9,0.3-1.5,0.3-1.5s0.1,0.4,0.2,1.1
				c0.1,0.7,0.3,1.6,0.4,2.5c0.2,1.8,0.5,3.6,0.5,3.6c0.7-1.3,1-2.8,1.2-4.2c0.2-1.4,0.4-2.6,1-3.3c0.9,3.6,0.4,3,3.1,2.8
				c-1.4,0.5-2.1,1.2-2.6,2.1c-0.5,0.9-0.6,1.9-0.7,3c-0.1,1.1-0.2,2.2-0.5,3.3c-0.3,1-1,1.9-2.2,2.6l-6.1-3.5
				c-1.5,1.1-2.4,2.4-3,3.8c-0.6,1.4-1,3-1.3,4.6c-0.4,1.6-0.8,3.4-1.5,5.1c-0.7,1.7-1.7,3.4-3.3,4.9c0,0,0.7-0.4,1.3-0.8
				c0.6-0.4,1.3-0.8,1.3-0.8c0.8,1.3,0.2,2.5-0.8,3.7c-1,1.2-2.3,2.5-2.6,4c-1.7-1.6-3.5-0.7-5.3-0.6c0.7,0.5-0.2,1.7-1,3.2
				c-0.8,1.5-1.4,3.4,0.2,5.2c0,0-1.2,0.2-2.4,0.5c-1.2,0.2-2.4,0.4-2.4,0.4c-0.3,0.3-0.6,0.6-0.9,0.8c-0.3,0.3-0.5,0.6-0.7,0.8
				c-0.4,0.6-0.7,1.2-0.9,1.8c-0.4,1.2-0.4,2.6-0.5,3.8c-0.1,2.6-0.2,5.3-3,7.4c-0.1-1.6-1-2.2-1.7-3c-0.6-0.7-0.9-1.6,0-3.8
				c-1.6,1.5-3.3,2.5-2.3,3.7c-0.5-0.1-0.9,0.3-1.2,0.9c-0.4,0.6-0.7,1.4-1.1,2.2c-0.4,0.8-0.8,1.6-1.3,2.2
				c-0.5,0.6-1.2,0.9-1.9,0.8c-0.1,1.4,1.2,3.5-0.9,4.9c-0.5-0.2-0.7-0.9-0.7-0.9c0.7,0.9-2.3,3.6,1.1,4.4c-1.3-0.2-2.4-0.2-3.6,0
				c-1.1,0.2-2.2,0.5-3.3,1c-2.1,1-4.1,2.2-6,3.6c-1,0.7-2,1.3-3,1.8c-1,0.6-2,1.1-3,1.4c-1,0.3-2,0.6-3,0.6c-0.5,0-1,0-1.5-0.1
				c-0.5-0.1-1-0.3-1.5-0.5c-1,0.6-2.1,1.3-3.3,2c-0.6,0.4-1.1,0.7-1.7,1c-0.6,0.3-1.2,0.6-1.8,0.9c-2.3,1.3-4.8,2.2-6.9,3
				c0.1-0.8-0.3-1.1,0.5-1.1c-1.6,0-2.5,0.3-3.1,1c-0.6,0.7-0.9,1.6-1.2,2.5c-0.3,0.9-0.6,1.9-1.4,2.6c-0.7,0.7-1.9,1-3.8,0.8
				c-4.4-2.9,3.2-2.9,0.7-3.7c-0.7-1.8-1.5-2.5-2.5-2.7c-0.5-0.1-1,0-1.5,0.2c-0.5,0.2-1.1,0.4-1.7,0.7c-1.2,0.6-2.5,1.3-3.8,1.6
				c-1.4,0.3-2.8,0.2-4.1-0.7l1.1-0.6c-1-0.5-2-0.5-3-0.2c-1.1,0.3-2.1,0.9-3.3,1.5c-0.6,0.3-1.2,0.7-1.8,1
				c-0.6,0.3-1.3,0.6-1.9,0.9c-1.3,0.5-2.8,0.9-4.3,0.9c0,0,0.2-0.7-0.1-1.2c-1.9,2.1-4.7,3.7-7.9,4.8c-3.2,1.2-6.6,1.8-9.6,2.5
				c1.8-3.1,2.6-1.7,1.4-4.7c-2.6,0.5,0.9,4.9-4.4,5.9c-1.8-1.6-5.6-3-6.1-6.3c0,0,1.2,0,2.5-0.1c0.6,0,1.2,0,1.7-0.1
				c0.5,0,0.8,0,0.8,0c-1.3-2.1-2.9-2.1-4.5-1.6c-1.6,0.5-3.2,1.4-4.5,1l0.3-1.8c-1.9,0.1-3.3,0.5-4.5,1c-1.2,0.5-2.2,1.1-3.2,1.7
				c-2,1.2-4.1,2.2-8.2,1.9l0.8,1.4c-4.7,4.5-3.7-2.7-8.3,0.5l-1.1-4.8c-1.5,0.5-4.1,1.4-7.1,2.4c-3,0.9-6.2,1.7-8.9,1.9
				c3.3-3.2,9.6-4.5,13.6-6.3c-1.5-0.1-3.9-0.2-6.2,0c-2.3,0.2-4.5,0.7-5.4,1.8c1.2-0.4,2.8-1.4,3.9-0.6c-1.9,1.7-4.1,2.9-6.6,3.6
				c-2.4,0.7-5.1,0.9-8.1,0.5c1-4.5-2.7-5.4-7.1-6.3c-2.2-0.4-4.5-0.8-6.5-1.6c-2-0.8-3.6-1.9-4.4-3.8c-1.3,0.2-2.6,0.3-3.9,0.3
				c-1.3,0-2.6-0.1-3.8-0.3c-1.3-0.2-2.5-0.5-3.8-0.8c-1.2-0.3-2.5-0.7-3.8-1.2c-2.5-0.8-5-1.8-7.7-2.7c-1.3-0.4-2.6-0.9-4-1.3
				c-1.4-0.4-2.8-0.7-4.2-1c0.6,2,0.7,2.9,0.5,3.3c-0.2,0.4-0.8,0.3-1.4,0.2c-1.3-0.2-3-0.6-3.5,3c-2.8-0.2-3.8-0.6-4-1.1
				c0,0-1.8-1.6-3.5-3.2c-0.9-0.8-1.7-1.6-2.4-2.2c-0.6-0.6-1.1-1-1.1-1c-1.3-2.6,2.9-0.8,3.1-2.5c-5.6-2.2-1.6-3.7-4.7-6.6
				c0,2.7-3,2.9-6,1l3.6,4.6c-4.6,0.6-5.9-1.4-7.1-3.4c-1.2-2-2.4-4-7-3.6l3.2-1.3c-2.2-0.1-5.9-1.4-9.7-2.3c-1-0.2-1.9-0.4-2.9-0.6
				c-1-0.2-1.9-0.2-2.9-0.2c-1.9,0-3.7,0.4-5.2,1.3c-0.4-1.1-0.5-3.3,1.4-3c-2.2-1.2-4.8-2-7.5-2.8c-1.3-0.4-2.7-0.7-4.1-1
				c-1.4-0.3-2.7-0.7-4.1-1c-2.7-0.6-5.2-1.5-7.5-2.5c-2.2-1.1-4.1-2.4-5.4-4.2l1.6-1.1c-1.9-0.5-4.5,1.2-5.7-1.6
				c0.5-0.6,1.6-1.1,0.9-1.7c-0.6,0-2.1,0-3.6-0.3c-1.5-0.3-3.1-0.9-3.9-2l2.9-0.5c-0.9-0.9-1.8-1.7-2.7-2.3
				c-0.9-0.6-1.8-1.2-2.7-1.6c-0.9-0.4-1.9-0.7-2.8-1c-0.9-0.3-1.9-0.5-2.9-0.7c-3.9-0.8-7.9-1.2-11.6-3.4c1.7-2,1.3-4.6,0.2-7
				c-0.5-1.2-1.2-2.4-1.9-3.5c-0.7-1.1-1.4-2.1-1.9-2.9l0.6-0.5c-1-1-1.9-1.9-2.9-2.8c-0.5-0.4-1-0.8-1.5-1.2
				c-0.3-0.2-0.5-0.4-0.8-0.6c-0.2-0.2-0.5-0.4-0.7-0.6c-1-0.7-2-1.4-3.1-2.1c-0.5-0.3-1-0.6-1.6-1c-0.5-0.3-1-0.6-1.6-1
				c-2.1-1.3-4.3-2.5-6.4-3.9c-1.1-0.7-2.1-1.4-3.2-2.2c-1.1-0.8-2.1-1.6-3.1-2.5c0-1.1-0.1-2.2-0.4-3.3c-0.3-1.1-0.7-2.3-1.2-3.5
				c-0.3-0.6-0.6-1.2-0.9-1.8c-0.3-0.6-0.7-1.2-1-1.8c-0.7-1.3-1.4-2.5-2.2-3.8c-3-5.2-6.4-10.8-7.4-16.2c-0.1,1.9-3.7,1.7-5.1,0.2
				c-0.1-1.3-1.6-2.5-2.7-3.5c-1-1-1.4-2,0.8-2.8l0.3,0.8c0.9-0.9,1.3-1.9,1.5-2.8c0.2-1,0.1-1.9-0.2-2.9c-0.3-1-0.7-1.9-1.1-2.9
				c-0.4-1-0.9-1.9-1.2-2.8l-6.1,1.7c1.1-3.3,1-6.4,0.2-9.4c-0.4-1.5-0.9-3-1.5-4.5c-0.3-0.7-0.6-1.5-1-2.2c-0.3-0.7-0.6-1.4-1-2.2
				c-0.6-1.4-1.3-2.8-1.8-4.2c-0.5-1.4-0.9-2.7-1.1-3.9c-0.1-0.6-0.2-1.2-0.2-1.8c0-0.6,0.1-1.2,0.2-1.7c0.3-1.1,0.8-2.1,1.6-2.9
				c-0.5-0.5-0.9-1.1-1.3-1.7c-0.3-0.6-0.6-1.3-0.9-1.9c-0.6-1.3-1.2-2.6-2.2-3.7l3.4-0.3c0-1.7,0-3.2,0-4.6c0-0.7,0-1.4,0-2
				c0-0.7,0-1.3,0-2c0-1.4-0.2-2.7-0.3-4.3c-0.1-1.6-0.3-3.3-0.5-5.4l2.4,1.6c0-0.6-0.1-1.1-0.4-1.6c-0.3-0.5-0.6-0.9-1.1-1.3
				c-0.9-0.8-2.1-1.6-3.3-2.3c-1.2-0.8-2.5-1.5-3.4-2.4c-0.9-0.9-1.5-1.8-1.5-2.9c0,0,1.3-0.3,2.5-0.5c1.3-0.2,2.5-0.5,2.5-0.5
				c0.1-1,0.2-2.1,0.4-3.1c0.2-1,0.5-2,0.8-3l0.4-1.5c0.1-0.5,0.3-1,0.5-1.5c0.3-1,0.7-2,1-2.9c0.1-0.5,0.3-1,0.4-1.5l0.2-0.7
				l0.2-0.7c0.2-1,0.4-2,0.5-3c0-0.5,0.1-1,0.1-1.5c0-0.3,0-0.5,0-0.8c0-0.3,0-0.5,0-0.8c0-1-0.2-2.1-0.5-3.3c0.7,0.3,2,0.9,1.9,2.2
				c0.3-0.9,0.8-2.2,1.4-3.6c0.7-1.4,1.4-2.9,1.8-4.3c0.4-1.4,0.7-2.7,0.4-3.8c-0.3-1.1-1.2-1.8-2.9-2.1c1.1,0.4,1.8,0.1,2.3-0.6
				c0.3-0.4,0.4-0.8,0.6-1.4c0.2-0.5,0.3-1.2,0.4-1.8c0.1-0.7,0.2-1.4,0.2-2.2c0-0.8,0.1-1.5,0.1-2.3c0.1-1.5,0.1-3.1,0.2-4.3
				l2.6,2.1c-1-2.6-1.8-4.1-2.1-5.6c-0.3-1.5-0.1-3,0.7-5.7c1-0.9,2.9,0.4,1.3,1.4c1.8-1.4,1.6-2.5,1.4-3.7
				c-0.2-1.2-0.2-2.5,1.9-4.3l0.7,2.8c0.6-0.9,1.1-1.6,1.3-2.1c0.3-0.6,0.4-1,0.3-1.5c0-0.9-0.5-1.9-0.8-3.6
				c0.3-1.5,1.7-3.1,3.4-4.2c1.7-1,3.7-1.4,5.1-0.8c-0.5-0.8-0.9-2.1-0.8-3.3c0.1-1.2,0.6-2.5,1.8-3.2c1.1,0.5,1,1.6,0.9,2.2
				c1.6-1,2.7-2.2,3.6-3.4c0.8-1.2,1.4-2.5,2-3.7c0.5-1.2,1.1-2.3,1.9-3.2c0.4-0.4,0.8-0.8,1.4-1.2c0.5-0.3,1.2-0.6,1.9-0.7
				c0.8,0.7,1.5,0.9,2,0.8c-2.2,2-4,3.8-5.4,5.1c-1.3,1.3-2.1,2-2.1,1.8c1.1,1,2.6,0.8,3.8,1c1.2,0.2,2.2,0.9,2.5,3.6
				c0.2-1.1,0.4-2.4,0.7-3.7c0.3-1.4,0.6-2.9,1.1-4.3c0.5-1.4,1.1-2.7,1.8-3.9c0.8-1.1,1.7-2,2.8-2.5c0.4,0.1,0.7,0.1,1.1,0.4
				l-0.1,0.6c1-0.5,1.5-1.3,1.9-2.3c1.4-0.6,2.4-0.9,3.5-1.7c1,0.8,2.3,0.2,3.5-0.7c1.3-0.9,2.5-2.2,3.5-2.9c-2.2-2.5,0.7-4-3.3-4.4
				c0.4,0-0.1,0.6-1.3,1.7c-0.2,0.3-0.5,0.6-0.6,0.9c0-0.1,0-0.2-0.1-0.3c-1.2,1-2.7,2.3-4.5,3.9c0.4-2.5,1-4.9,4.3-5
				c-0.3-2.5-0.6-5.1-0.6-6.3c5.5,1.7,12.1,0.2,14.4,2.2c2.4-2.8,5.9-5.3,8.9-8c1.5-1.3,2.8-2.8,3.9-4.3c1.1-1.5,1.9-3.3,2.2-5.2
				c1.5-1.7,3,0.5,4.1,1c-0.8,1.1-2.1,1.7-2.3,2.8c0.7-0.8,1.8-1.6,2.9-2.4c1.1-0.8,2.4-1.6,3.5-2.4c2.2-1.6,4-3.3,3.5-5.6
				c2.8-0.2,2.6,1.1,2.4,1.9c-0.2,0.8-0.3,1.2,2.9-0.6l-0.4,1.6c2,0.1,3.7-0.1,5.3-0.5c1.6-0.5,3-1.1,4.3-1.9
				c1.3-0.8,2.6-1.8,3.8-2.8c1.2-1.1,2.4-2.1,3.6-3.2c1.2-1.1,2.5-2.2,3.8-3.1c0.7-0.5,1.3-1,2.1-1.4c0.7-0.4,1.5-0.8,2.2-1.1
				c3.1-1.3,6.7-1.8,11.2-0.6c-1.2-0.3-1.8-0.4-2.2-1c2.3-0.1,4.7-0.4,6.9-0.8c2.3-0.4,4.6-0.8,6.9-1.4c1.1-0.3,2.3-0.6,3.4-0.9
				c1.1-0.3,2.3-0.6,3.4-0.9l3.4-0.9l1.7-0.5l1.7-0.4c2.3-0.6,4.6-1.1,6.9-1.6c2.3-0.5,4.6-0.8,7-1.1c1.2-0.1,2.3-0.2,3.5-0.3
				c1.2,0,2.3,0,3.5,0c2.3,0.1,4.7,0.3,7,0.9c5.3,0.7,5.5-2.2,8.4-4.6l1.5,3.5l5-4.6c3.7-1.9,7.2,0.1,11,1.6
				c3.7,1.6,7.6,2.8,12.3-0.4l-1.4-2.3c3.5,0.2,11-2.1,10.6,0.7c0.3-0.5,1-2.6,2.5-1.4l0.2,1.9l8.5-3.7c6.8,1-0.7,7.5,9.1,7.4
				c3.6-0.9,10.1-5.9,8.7-7.1c-1.5,0-3.8-1-4-2.9l3.3-1.1c0.4-5.6,2.7-11.3-5.7-14.8l-5.6,3.6l-2-2.6l4.8-0.4
				c-2.8-2.4-4.5-0.1-6.4,1.5c-0.5-1.4-1.4-2.4-2.5-2.8l-5.4,5.6c-0.8-2.1,2.3-4.4-1.5-5.4c-2.5,2.6,2.8,4.7-1.5,6.6
				c-2.9-2.4-2.2-4.5-5.3-2.1c-0.5-1.4,0.1-2.3,1.3-3c-2.8,1.9-7.6,1.2-8.9,4.2c-3.1-2.9-9.7,1.5-9.8-3.8c-0.8,1.3-4.8,4.5-7.4,4.9
				c2.2-3.3-0.3-3.2-3.3-3.1c-3,0.1-6.4,0.3-6-3.1c-1.5,3-4.7,3.9-8.3,4.6c-1.8,0.4-3.7,0.7-5.5,1.1c-1.8,0.5-3.5,1.1-5,2.1
				c0.3-0.5,0.9-1.5,1.5-1.3c-3.7,0-4.9-1.5-7.4-2.3c0.2,4.7-5.2,6.6-7.8,9.9c-2.5-1.9-2.1-3.3-1.3-4.8c0.8-1.5,2.1-3,1-5
				c0.4,1.9-1.4,3.1-3,4.2c-1.6,1.2-3.1,2.2-2,3.6c-3.8-2.1-3.1-0.8-5.6-4.3c0.5,5.8-3,1.6-5.1,5.7c-2.7-0.9-3.3-2.2-3.8-2.9
				c-0.3-0.3-0.5-0.5-1-0.5c-0.5,0.1-1.2,0.4-2.5,1.1c-1.5-0.6-1.1-1.6-0.4-2.6c0.4-0.5,0.8-0.9,1.2-1.2
				C2075.9,804.8,2076.2,804.6,2076.2,804.6z M1962.6,869.9C1962.6,869.9,1962.6,869.8,1962.6,869.9c0.7-0.9,1.4-1.6,1.9-2
				C1964,868.3,1963.5,868.9,1962.6,869.9z M1954.6,877.5c1-0.9,2.2-2,3.5-3.3c1.1,0.6,1.6,1.7,0.8,2.4c-0.1-0.5-0.7-0.4-1.5-0.1
				C1956.6,876.8,1955.6,877.3,1954.6,877.5z M1986.4,880.1c-0.9,1.3-1.7,1.2-2.3,0.8c0.5-0.5,1.1-1.1,1.9-2c0-0.1-0.1-0.3-0.1-0.4
				C1986.1,879,1986.3,879.6,1986.4,880.1z"/>
			<path class="st10" d="M1985.9,875c0.1-0.2,0.2-0.4,0.4-0.6c-0.4,0-0.8,0-1.2,0c0.1,0.4,0.1,0.8,0.2,1.2
				C1985.5,875.3,1985.7,875.1,1985.9,875z"/>
			<path class="st10" d="M2339.1,884.8l0.1,0.2c0-0.2,0-0.4,0.1-0.6C2339.3,884.6,2339.2,884.7,2339.1,884.8z"/>
			<polygon class="st10" points="1906,1020 1906.8,1019.8 1905.9,1019 			"/>
			<path class="st10" d="M2309.2,833.9c0.1-0.3,0.1-0.7,0-1.2C2309.1,832.9,2309.1,833.4,2309.2,833.9z"/>
			<path class="st10" d="M2289.3,817.5l-2.4-3C2287.9,815.9,2288.7,816.8,2289.3,817.5z"/>
			<path class="st10" d="M2273.4,805.4c-0.5,0.4-0.8,0.7-1.1,1c0,0,0,0,0,0L2273.4,805.4z"/>
			<path class="st10" d="M2379.9,1081.4c-0.1,0.3-0.1,0.5-0.1,0.8C2379.8,1084.1,2380,1082.9,2379.9,1081.4z"/>
			<path class="st10" d="M2384,987.2c0.7,0.9,1.3,1.9,1.8,2.9C2386,988.4,2385.9,987.1,2384,987.2z"/>
			<path class="st10" d="M2323.4,1174.2C2323.4,1174.2,2323.4,1174.2,2323.4,1174.2c-0.2,0.1-0.4,0.2-0.6,0.4L2323.4,1174.2z"/>
			<path class="st10" d="M2386,994.4c0.6-1.7,0.4-3.1-0.2-4.4C2385.7,991.4,2385.4,993.1,2386,994.4z"/>
			<path class="st10" d="M2192.4,775.2l-0.9-0.3c0,0.2-0.1,0.4-0.2,0.5L2192.4,775.2z"/>
			<path class="st10" d="M2191.2,775.5l-1.1,0.2C2190.6,775.8,2191,775.8,2191.2,775.5z"/>
			<path class="st10" d="M2187.7,776.2c0,0,0.6-0.1,1.2-0.3c0.3-0.1,0.6-0.1,0.8-0.2c0.2,0,0.4-0.1,0.4-0.1
				C2189.3,775.6,2188.4,775.3,2187.7,776.2z"/>
			<path class="st10" d="M2218,782.3l0.6-1.1C2218.4,781.4,2218.2,781.7,2218,782.3z"/>
			<path class="st10" d="M2225.9,784.2c-1.7-0.8-3.9-3.8-6.7-3.9l-0.5,0.9c0.9-0.7,2.1,0.4,3.4,1.5
				C2223.3,783.8,2224.7,784.9,2225.9,784.2z"/>
			<path class="st10" d="M2250.7,810c0,0-1.3-0.9-2.7-1.8c-0.7-0.5-1.3-0.9-1.8-1.2c-0.5-0.3-0.8-0.5-0.8-0.5
				c0.5,1.6,1.1,3.8-1.6,2.9c1.4,1.7,2.1,2.3,2.4,2.4c0.3,0.1,0.4-0.4,0.4-1C2246.7,809.6,2247,808,2250.7,810z"/>
			<path class="st10" d="M2267,820.8c-3.2-1.2-0.9,1.6-1.4,2.2C2268,823.1,2268.6,823.1,2267,820.8z"/>
			<path class="st10" d="M2357.2,924.9l-3,0.8C2355.6,928,2355.3,925.3,2357.2,924.9z"/>
			<polygon class="st10" points="2380.6,946.6 2381.7,943.5 2378.7,943 			"/>
			<polygon class="st10" points="2362.8,967 2362.2,966 2364,969.9 			"/>
			<path class="st10" d="M2283.5,1165.5l2.3,3c0.6-0.7,0.5-2,0-2.8c-0.3-0.4-0.6-0.7-1-0.8C2284.5,1164.8,2284,1165,2283.5,1165.5z"
				/>
			<path class="st10" d="M2186.3,1183.5c-1.1-1.9-3.9-3.2-5.8-1.5C2182.8,1182.4,2185.1,1183.9,2186.3,1183.5z"/>
			<polygon class="st10" points="1942.4,1038.8 1944.2,1040.2 1942,1037.1 			"/>
		</g>
	</g>
</g>
<g id="Layer_4">
	<path class="st14" d="M1773.2,1093.3c-10.2,1.9-238.8,193.8-556.6,251.1l241.1-419.3L1773.2,1093.3z"/>
	<path class="st15" d="M1188.1,1094.6l173.1-193.8c0,0,14.2-14.3,34.4-26.6c21.1-12.9,46.1-17.7,70.5-13.8l321.9,51.8l-143.6,104.1
		l-159.2-33.6c0,0-21.5-4.3-42.4,38.7l-63.8,109.1c-22.4,38.3-18.2,86.9,11.3,120.1c5.3,6,11.3,11.3,18,15.5l-205.9,94.1
		l-36.3-143.9C1166.1,1216.2,1144.1,1144.8,1188.1,1094.6z"/>
	<polygon class="st5" points="1415.3,1831.7 1292.2,2054.4 996.8,2054.4 996.8,1753 1061.1,1636.4 1225.6,1727.1 1414.7,1831.3 	"/>
	<polygon class="st16" points="1398.2,1850.3 1275.1,2073.4 1028.4,2073.4 1209.1,1746 	"/>
	<path class="st17" d="M1805,903.4c0,0,136.1-16.2,139.2-10.7c3,5.5-95.8,111.9-95.8,111.9l-32.7-41.7L1805,903.4z"/>
	<path class="st6" d="M1805.7,903.1l-592.4,256l42.8,98.5l592.7-253.1c0,0,5.5-16.2-9.3-19.2c0,0,9-14.2-9.3-19.6
		c0,0,8.4-13.6-9.1-22.8c0,0,8.4-13.5-7-19C1814.2,923.9,1821.7,914.3,1805.7,903.1z"/>
	<path class="st15" d="M1522.6,1232.4c13.4-10.8,63.3-57.2,89.8-111.4l56.5-109.9c0,0,20.6-36.1,63-33.4c2,0.1,3.9,0.5,5.8,1
		c10.9,3,48.2,15.8,61.1,54.1c1.4,4.3,1.9,8.8,1.3,13.3c-1.3,10.1-6.6,30.4-25.5,64.8l-151.1,300.4c0,0-41.5,74-84.1,116
		c-0.7,0.6-1.3,1.3-1.9,2c-5.8,6.9-38.9,45.9-59.3,61.2c-3.3,2.5-6.1,5.7-8.1,9.3l-24.7,44.3c-0.4,0.7-1.4,1-2.1,0.6L1207,1514
		l14.4-26c3.5-6.3,4.6-13.5,3.1-20.5l-22.6-107.2l191.5-87.5c4.4-2,9.9-4.7,14.3-6.7C1411.7,1264.3,1431.5,1305.5,1522.6,1232.4z"/>
	<path class="st18" d="M1148.5,1186.5l83.1-35.5l42.3,99l-83.1,35.5c-29.9,12.8-63.9,1-75.6-26.3l0,0
		C1103.6,1232,1118.6,1199.3,1148.5,1186.5z"/>
	<path class="st9" d="M1055.9,1654.1l347.2,191.5c22.4,12.4,50.9,4.1,63.2-18.3l59.9-108.6c12.4-22.4,4.1-50.9-18.3-63.2
		l-347.2-191.5c-22.4-12.4-50.9-4.1-63.2,18.3l-59.9,108.6C1025.3,1613.3,1033.5,1641.8,1055.9,1654.1z"/>
	<path class="st19" d="M1890.9,895.7c0,0,51.8-6.3,53-3.2c1.4,3.8-33.1,41.3-33.1,41.3L1890.9,895.7z"/>
</g>
</svg>
