<?xml version="1.0" encoding="utf-8"?>
<!-- Generator: Adobe Illustrator 21.1.0, SVG Export Plug-In . SVG Version: 6.00 Build 0)  -->
<svg version="1.1" id="Layer_1" xmlns="http://www.w3.org/2000/svg" xmlns:xlink="http://www.w3.org/1999/xlink" x="0px" y="0px"
	 viewBox="0 0 537 499.2" style="enable-background:new 0 0 537 499.2;" xml:space="preserve">
<style type="text/css">
	.st0{display:none;fill:#59B2B2;}
	.st1{fill:none;}
	.st2{fill:none;stroke:#231F20;stroke-miterlimit:10;}
	.st3{fill:#FE962C;}
	.st4{fill:#FF0000;}
	.st5{font-family:'D-DINCondensed-Bold';}
	.st6{font-size:220.4369px;}
	.st7{font-size:35.8233px;}
	.st8{font-size:80.3928px;}
	.st9{font-size:143.1136px;}
	.st10{fill:#232323;}
	.st11{fill:#FFFFFF;}
	.st12{fill:#B16720;}
</style>
<rect x="-34" y="-100.8" class="st0" width="600" height="600"/>
<line class="st1" x1="267.9" y1="497.2" x2="354.8" y2="490.2"/>
<line class="st1" x1="354.8" y1="510.2" x2="380.9" y2="525.2"/>
<path class="st2" d="M221-40.2"/>
<g>
	<g>
		<path class="st3" d="M529.1,168.3c-1.3-2.5-3.2-4.1-5.7-5c-2.6-0.8-5.1-0.6-7.6,0.6l-25.4,12.8c-7.3-13.4-16.9-25-28.7-34.9
			c-11.8-9.9-24.9-17.2-39.3-21.9c-27.1-8.8-53.4-8.3-79,1.5c-25.6,9.8-45.8,26.9-60.8,51.2l-0.3,1c-0.4,1.3-0.3,2.5,0.3,3.8
			c0.6,1.2,1.6,2.1,2.9,2.5l29.4,9.6c2.2,0.7,4,0.1,5.5-2c7.3-8.5,11.8-13.4,13.5-14.7c10.6-9,22.6-14.8,36.1-17.5
			c13.5-2.7,26.9-1.9,40.1,2.4c19.8,6.5,34.8,18.8,45,37.1L428,208.6c-2.5,1.3-4.1,3.2-5,5.7c-0.8,2.6-0.6,5.1,0.6,7.6
			c1.3,2.5,3.2,4.1,5.7,5l66.2,21.6c2.6,0.8,5.1,0.6,7.6-0.6c2.5-1.3,4.1-3.2,5-5.7l21.6-66.2C530.6,173.3,530.4,170.8,529.1,168.3z
			"/>
		<path class="st3" d="M484.3,286.6l-28.4-9.3c-2.2-0.7-4-0.1-5.5,2c-7.3,8.5-11.8,13.4-13.5,14.7c-10.6,9-22.6,14.8-36.1,17.5
			c-13.5,2.7-26.9,1.9-40.1-2.4c-9.6-3.1-18.2-7.9-25.9-14.3c-7.7-6.4-14-14.1-18.9-22.8l26.9-13.6c2.5-1.3,4.1-3.2,5-5.7
			c0.8-2.6,0.6-5.1-0.6-7.6c-1.3-2.5-3.2-4.1-5.7-5l-66.2-21.6c-2.6-0.8-5.1-0.6-7.6,0.6c-2.5,1.3-4.1,3.2-5,5.7L241,291
			c-0.8,2.6-0.6,5.1,0.6,7.6c1.3,2.5,3.2,4.1,5.7,5c2.6,0.8,5.1,0.6,7.6-0.6l25.3-12.9c7.3,13.5,16.7,25.1,28.4,34.9
			c11.7,9.8,24.7,17.1,39.1,21.7c27,8.8,53.2,8.3,78.7-1.6c25.4-9.8,45.6-27,60.6-51.3c0.2-0.2,0.3-0.5,0.5-1
			c0.4-1.3,0.3-2.5-0.3-3.8C486.5,287.9,485.6,287.1,484.3,286.6z"/>
	</g>
</g>
<g>
	<rect x="130.6" y="293.9" class="st1" width="192.4" height="175.7"/>
	<text transform="matrix(1 0 0 1 130.6191 445.9968)" class="st4 st5 st6">30</text>
	<g>
		<text transform="matrix(1 0 0 1 323.0049 442.8151)" class="st4 st5 st7">RETURNS</text>
	</g>
	<g>
		<text transform="matrix(0 -1 1 0 118.9003 450.114)" class="st4 st5 st8">UP TO</text>
	</g>
	<text transform="matrix(0.9815 0 0 1 315.2754 406.5143)" class="st4 st5 st9">% </text>
</g>
<g>
	<path d="M340,206.4c1.1,5.6-2.5,11.1-8.1,12.2L61.5,273.1c-5.6,1.1-11.1-2.5-12.2-8.1L10.5,72.7c-1.1-5.6,2.5-11.1,8.1-12.2L289,6
		c5.6-1.1,11.1,2.5,12.2,8.1L340,206.4z"/>
	<path class="st10" d="M338.2,200.6c1.1,5.6-2.5,11.1-8.1,12.2L59.7,267.3c-5.6,1.1-11.1-2.5-12.2-8.1L8.8,66.9
		c-1.1-5.6,2.5-11.1,8.1-12.2L287.3,0.2c5.6-1.1,11.1,2.5,12.2,8.1L338.2,200.6z"/>
	<path class="st11" d="M317.6,191.2c1,4.9-2.2,9.7-7.1,10.7L73.2,249.7c-4.9,1-9.7-2.2-10.7-7.1l-34-168.7c-1-4.9,2.2-9.7,7.1-10.7
		l237.3-47.8c4.9-1,9.7,2.2,10.7,7.1L317.6,191.2z"/>
	
		<rect x="94.7" y="198.7" transform="matrix(0.9807 -0.1956 0.1956 0.9807 -35.5047 40.7041)" class="st3" width="187.2" height="2.9"/>
	<polygon class="st3" points="73.8,84.9 69.7,85.8 96.5,219.9 100.5,219 	"/>
	
		<rect x="120.5" y="187.1" transform="matrix(0.9806 -0.1958 0.1958 0.9806 -36.4641 28.886)" class="st3" width="14.7" height="23.5"/>
	
		<rect x="142" y="173.4" transform="matrix(0.9806 -0.1958 0.1958 0.9806 -34.2651 32.9227)" class="st3" width="14.7" height="32.7"/>
	
		<rect x="164.3" y="152.4" transform="matrix(0.9806 -0.196 0.196 0.9806 -31.3394 37.0637)" class="st3" width="14.7" height="49.1"/>
	
		<rect x="184.3" y="123.3" transform="matrix(0.9806 -0.1961 0.1961 0.9806 -27.7146 40.7024)" class="st3" width="14.7" height="74"/>
	
		<rect x="204.9" y="90.5" transform="matrix(0.9805 -0.1963 0.1963 0.9805 -23.6902 44.4136)" class="st12" width="14.7" height="102.4"/>
	
		<rect x="227" y="53.3" transform="matrix(0.9805 -0.1966 0.1966 0.9805 -19.1523 48.4267)" class="st3" width="14.7" height="134.9"/>
	<polygon class="st3" points="273.5,190.7 270.7,173.4 284.7,181.1 	"/>
</g>
</svg>
