<?xml version="1.0" encoding="utf-8"?>
<!-- Generator: Adobe Illustrator 21.1.0, SVG Export Plug-In . SVG Version: 6.00 Build 0)  -->
<svg version="1.1" id="Layer_1" xmlns="http://www.w3.org/2000/svg" xmlns:xlink="http://www.w3.org/1999/xlink" x="0px" y="0px"
	 viewBox="0 0 433 429" style="enable-background:new 0 0 433 429;" xml:space="preserve">
<style type="text/css">
	.st0{fill:#4AAFFF;}
	.st1{fill:#FFFFFF;}
	.st2{fill:#E0E0E0;}
	.st3{fill:#78C3FF;}
	.st4{fill:#1173C2;}
	.st5{fill:#1487E3;}
	.st6{fill:#FF6559;}
	.st7{fill:url(#SVGID_1_);}
	.st8{fill:url(#SVGID_2_);}
	.st9{fill:url(#SVGID_3_);}
	.st10{fill:url(#SVGID_4_);}
	.st11{fill:url(#SVGID_5_);}
	.st12{fill:url(#SVGID_6_);}
	.st13{fill:url(#SVGID_7_);}
	.st14{fill:url(#SVGID_8_);}
	.st15{fill:#EFF4FF;}
	.st16{fill:url(#SVGID_9_);}
	.st17{fill:url(#SVGID_10_);}
	.st18{fill:url(#SVGID_11_);}
	.st19{fill:url(#SVGID_12_);}
	.st20{fill:url(#SVGID_13_);}
	.st21{fill:url(#SVGID_14_);}
	.st22{fill:url(#SVGID_15_);}
	.st23{fill:url(#SVGID_16_);}
	.st24{fill:#61B9FF;}
	.st25{fill:#F3F3F3;}
	.st26{fill:url(#SVGID_17_);}
	.st27{fill:url(#SVGID_18_);}
	.st28{fill:url(#SVGID_19_);}
	.st29{fill:url(#SVGID_20_);}
	.st30{fill:url(#SVGID_21_);}
</style>
<g>
	<g>
		<g>
			<g>
				<g>
					<g>
						<g>
							<polygon class="st0" points="147.1,287.5 144.9,285.2 202.6,230.7 261,243.4 316.7,179.8 365.4,182.5 403.3,130.3 
								405.9,132.2 367,185.9 318.1,183.1 262.2,247 203.6,234.3 							"/>
						</g>
					</g>
				</g>
			</g>
			<g>
				<g>
					<g>
						
							<ellipse transform="matrix(0.9774 -0.2116 0.2116 0.9774 -45.959 60.9018)" class="st1" cx="261.6" cy="245.2" rx="8.7" ry="8.7"/>
					</g>
				</g>
			</g>
			<g>
				<g>
					<g>
						<path class="st0" d="M263.7,255.2c-5.5,1.2-11-2.3-12.2-7.9c-1.2-5.5,2.3-11,7.9-12.2c5.5-1.2,11,2.3,12.2,7.9
							C272.8,248.5,269.3,254,263.7,255.2z M260.1,238.3c-3.8,0.8-6.2,4.6-5.4,8.4c0.8,3.8,4.6,6.2,8.4,5.4c3.8-0.8,6.2-4.6,5.4-8.4
							C267.6,239.9,263.9,237.5,260.1,238.3z"/>
					</g>
				</g>
			</g>
			<g>
				<g>
					<g>
						
							<ellipse transform="matrix(0.9774 -0.2116 0.2116 0.9774 -31.3248 71.2986)" class="st1" cx="317.4" cy="182" rx="8.7" ry="8.7"/>
					</g>
				</g>
			</g>
			<g>
				<g>
					<g>
						<path class="st0" d="M319.6,192.1c-5.5,1.2-11-2.3-12.2-7.9c-1.2-5.5,2.3-11,7.9-12.2c5.5-1.2,11,2.3,12.2,7.9
							C328.7,185.4,325.2,190.9,319.6,192.1z M315.9,175.1c-3.8,0.8-6.2,4.6-5.4,8.4c0.8,3.8,4.6,6.2,8.4,5.4
							c3.8-0.8,6.2-4.6,5.4-8.4C323.5,176.7,319.7,174.3,315.9,175.1z"/>
					</g>
				</g>
			</g>
			<g>
				<g>
					<g>
						
							<ellipse transform="matrix(0.9774 -0.2116 0.2116 0.9774 -30.6401 81.5614)" class="st1" cx="365.7" cy="183.9" rx="8.7" ry="8.7"/>
					</g>
				</g>
			</g>
			<g>
				<g>
					<g>
						<path class="st0" d="M367.9,194c-5.5,1.2-11-2.3-12.2-7.9c-1.2-5.5,2.3-11,7.9-12.2c5.5-1.2,11,2.3,12.2,7.9
							C377,187.3,373.4,192.8,367.9,194z M364.2,177c-3.8,0.8-6.2,4.6-5.4,8.4c0.8,3.8,4.6,6.2,8.4,5.4c3.8-0.8,6.2-4.6,5.4-8.4
							C371.8,178.6,368,176.2,364.2,177z"/>
					</g>
				</g>
			</g>
			<g>
				<g>
					<g>
						
							<ellipse transform="matrix(0.9774 -0.2116 0.2116 0.9774 -44.7722 48.245)" class="st1" cx="203" cy="233.3" rx="8.7" ry="8.7"/>
					</g>
				</g>
			</g>
			<g>
				<g>
					<g>
						<path class="st0" d="M205.2,243.4c-5.5,1.2-11-2.3-12.2-7.9c-1.2-5.5,2.3-11,7.9-12.2c5.5-1.2,11,2.3,12.2,7.9
							C214.3,236.7,210.7,242.2,205.2,243.4z M201.5,226.4c-3.8,0.8-6.2,4.6-5.4,8.4c0.8,3.8,4.6,6.2,8.4,5.4
							c3.8-0.8,6.2-4.6,5.4-8.4C209.1,228,205.3,225.6,201.5,226.4z"/>
					</g>
				</g>
			</g>
		</g>
		<g>
			<rect x="194.3" y="265.5" class="st2" width="35.5" height="6.8"/>
		</g>
		<g>
			<rect x="219" y="195.4" class="st2" width="35.5" height="6.8"/>
		</g>
	</g>
	<g>
		<g>
			<g>
				<path class="st3" d="M207.5,42.4c3.2-8.9,0.3-18.4-6.5-24.2c-1.6-1.4-3.5-2.5-5.5-3.4c-0.4-0.2-0.9-0.4-1.4-0.5
					c-4.7-1.7-9.6-1.7-14-0.3c-6.4,2-11.8,6.8-14.2,13.6c-0.8,2.2-1.2,4.5-1.3,6.8c-0.3,9.3,5.4,18.1,14.6,21.4
					C190.8,59.9,203.4,53.9,207.5,42.4z M181.2,50.6c-6.9-2.5-11.2-9.1-10.9-16c0.1-1.7,0.4-3.4,1-5.1c1.8-5.1,5.9-8.7,10.6-10.2
					c3.3-1,7-1,10.5,0.2c0.3,0.1,0.7,0.3,1,0.4c1.5,0.7,2.9,1.5,4.1,2.6c5.1,4.3,7.2,11.5,4.8,18.1
					C199.2,49.2,189.8,53.6,181.2,50.6z"/>
			</g>
			<g>
				<path class="st4" d="M181.9,19.3l-1.6-5.3c-6.4,2-11.8,6.8-14.2,13.6c-0.8,2.2-1.2,4.5-1.3,6.8l5.5,0.2c0.1-1.7,0.4-3.4,1-5.1
					C173,24.4,177.1,20.8,181.9,19.3z"/>
			</g>
			<g>
				<path class="st5" d="M193.4,19.9l2.2-5.1c-0.4-0.2-0.9-0.4-1.4-0.5c-4.7-1.7-9.6-1.7-14-0.3l1.6,5.3c3.3-1,7-1,10.5,0.2
					C192.7,19.6,193,19.7,193.4,19.9z"/>
			</g>
			<g>
				<path class="st0" d="M201,18.2c-1.6-1.4-3.5-2.5-5.5-3.4l-2.2,5.1c1.5,0.7,2.9,1.5,4.1,2.6L201,18.2z"/>
			</g>
		</g>
		<g>
			<rect x="270" y="87.2" class="st0" width="7.6" height="26.2"/>
		</g>
		<g>
			<rect x="258.6" y="94.5" class="st0" width="7.6" height="18.8"/>
		</g>
		<g>
			<rect x="281" y="75" class="st0" width="7.6" height="38.3"/>
		</g>
		<g>
			<polygon class="st0" points="287.4,55.9 287.3,55.1 267.1,58.4 260.5,72.3 238.8,73.8 231.8,84.2 215.1,83.7 215.1,84.6 
				232.2,85 239.3,74.6 261.1,73.1 267.7,59.1 			"/>
		</g>
		<path class="st6" d="M262.7,21h21.7c1.4,0,2.5-1.1,2.5-2.5l0,0c0-1.4-1.1-2.5-2.5-2.5h-21.7c-1.4,0-2.5,1.1-2.5,2.5l0,0
			C260.3,19.9,261.4,21,262.7,21z"/>
		<path class="st0" d="M262.7,29.7h21.7c1.4,0,2.5-1.1,2.5-2.5l0,0c0-1.4-1.1-2.5-2.5-2.5h-21.7c-1.4,0-2.5,1.1-2.5,2.5l0,0
			C260.3,28.6,261.4,29.7,262.7,29.7z"/>
		<path class="st0" d="M262.7,38.3h21.7c1.4,0,2.5-1.1,2.5-2.5l0,0c0-1.4-1.1-2.5-2.5-2.5h-21.7c-1.4,0-2.5,1.1-2.5,2.5l0,0
			C260.3,37.2,261.4,38.3,262.7,38.3z"/>
		<g>
			<polygon class="st0" points="223.4,25.3 211,25.3 211,24.8 223.2,24.8 229.8,18.3 237.8,18.3 237.8,18.7 229.9,18.7 			"/>
		</g>
		<g>
			<polygon class="st0" points="235.2,47 219.2,47 214,41.8 214.3,41.5 219.4,46.5 235.2,46.5 			"/>
		</g>
		<rect x="230.9" y="21.4" class="st5" width="16.6" height="2"/>
		<rect x="225.9" y="42.2" class="st5" width="13.3" height="2"/>
	</g>
	<linearGradient id="SVGID_1_" gradientUnits="userSpaceOnUse" x1="101.3849" y1="434.1971" x2="185.25" y2="181.6273">
		<stop  offset="0" style="stop-color:#F3AB89"/>
		<stop  offset="0.7927" style="stop-color:#DC9A7C"/>
	</linearGradient>
	<path class="st7" d="M245.8,351.5c-0.6,2.3-6,7.4-12.4,13.2c-9.2,8.2-20.5,17.7-23.3,22.8c-1.9,3.4-11.9,12-24.1,21.5
		c-8.9,7-19.1,14.5-27.9,20.9H35.5c7.2-13.9,12.9-26.5,15.1-34.3c4.8-16.6,0.6-45-1.8-55.7c-2.4-10.7,4.3-38,4.6-45.9
		c0.3-7.9-6.8-34.3-3.9-41.6c2.8-7.3,9.3-23.1,9.8-36.9c0.6-13.8,3.9-17.2,3.9-17.2c0.5-0.9,2.6-2.1,5.3-2.1
		c4.2,0,9.9,2.6,14.1,12.5c7,16.3,0.6,46.1,2.8,55.3c2.2,9.2,5.2,37.9,5.2,37.9l120.9-48.8c0,0,1-0.9,3.3-1.7c0,0,0,0,0,0
		c2-0.7,4.9-1.4,8.8-1.4c8.4,0,14.9,13.5,16,18c1.1,4.5-12.7,18.3-12.7,18.3s5.1,0,9.8,0.3c4.8,0.3,8.2,7.6,9.3,14.1
		c1.1,6.4-26.3,32.6-27,33.2c0.4-0.1,12.2-2.3,17.7-2.3c0.3,0,0.6,0,0.8,0C242.7,332.1,247.2,345.9,245.8,351.5z"/>
	<linearGradient id="SVGID_2_" gradientUnits="userSpaceOnUse" x1="122.7853" y1="466.2877" x2="233.5408" y2="151.7419">
		<stop  offset="0" style="stop-color:#F3AB89"/>
		<stop  offset="0.7927" style="stop-color:#DC9A7C"/>
	</linearGradient>
	<path class="st8" d="M212.2,170.9c0,0,14.8-17.1,23-17.1c8.2,0,10.3,7,7.2,13.9c-3.2,7-30.2,45.6-30.2,45.6V170.9z"/>
	<linearGradient id="SVGID_3_" gradientUnits="userSpaceOnUse" x1="175.1341" y1="421.6092" x2="106.4172" y2="284.1757">
		<stop  offset="0" style="stop-color:#EEA886"/>
		<stop  offset="0.3081" style="stop-color:#E7A282"/>
		<stop  offset="0.7927" style="stop-color:#DC9A7C"/>
		<stop  offset="0.9208" style="stop-color:#C78264"/>
		<stop  offset="1" style="stop-color:#BF795B"/>
	</linearGradient>
	<path class="st9" d="M90.7,302.1c0,0,40.1,66.6,39.3,99.8c-0.8,33.2,7.6-20.8,6.8-38.3c-0.8-17.4-4-46.5,12.3-51.1
		c16.4-4.7,4.3-16.1-9.2-16.1S90.7,302.1,90.7,302.1z"/>
	<linearGradient id="SVGID_4_" gradientUnits="userSpaceOnUse" x1="158.3365" y1="425.3675" x2="206.0843" y2="405.0675">
		<stop  offset="0" style="stop-color:#EEA886"/>
		<stop  offset="0.3081" style="stop-color:#E7A282"/>
		<stop  offset="0.7927" style="stop-color:#DC9A7C"/>
		<stop  offset="0.9208" style="stop-color:#C78264"/>
		<stop  offset="1" style="stop-color:#BF795B"/>
	</linearGradient>
	<path class="st10" d="M186,409.1c-8.9,7-19,14.5-27.9,20.9h-14c3.1-1.1,6-2.1,8.6-2.9C164.4,423.3,185.3,409.5,186,409.1z"/>
	<linearGradient id="SVGID_5_" gradientUnits="userSpaceOnUse" x1="62.5108" y1="430.0442" x2="39.6974" y2="343.0678">
		<stop  offset="0" style="stop-color:#EEA886"/>
		<stop  offset="0.7927" style="stop-color:#DC9A7C"/>
		<stop  offset="0.9208" style="stop-color:#C78264"/>
		<stop  offset="1" style="stop-color:#BF795B"/>
	</linearGradient>
	<path class="st11" d="M61.2,415.7c-2.3,3.8-5.6,8.8-9.4,14.3H35.5c7.2-13.9,12.9-26.5,15.1-34.3c4.8-16.6,0.6-45-1.8-55.7
		c-2.4-10.7,4.3-38,4.6-45.9c0,0,5.6,12.7,2.7,22.8c-3,10.1-7.9,21.4-2.7,38.1C58.6,371.8,70.4,400,61.2,415.7z"/>
	<linearGradient id="SVGID_6_" gradientUnits="userSpaceOnUse" x1="141.7326" y1="328.2518" x2="170.8469" y2="298.2935">
		<stop  offset="0" style="stop-color:#DC9A7C"/>
		<stop  offset="1" style="stop-color:#AB735A"/>
	</linearGradient>
	<path class="st12" d="M143.7,305.7c0,0-8.5,13.1,6.1,17.2c14.7,4.1,33.2-16.4,33.2-16.4S147.9,300.1,143.7,305.7z"/>
	<linearGradient id="SVGID_7_" gradientUnits="userSpaceOnUse" x1="156.5481" y1="382.2805" x2="184.1856" y2="343.8835">
		<stop  offset="0" style="stop-color:#DC9A7C"/>
		<stop  offset="1" style="stop-color:#AB735A"/>
	</linearGradient>
	<path class="st13" d="M148,335.2c0,0-11.3,11.4-6.1,17c6.5,7.1,11.1,7.3,8.8,11.9c-2.3,4.6-4.9,17.9,12.4,18.6
		c17.3,0.6,49.9-19.2,49.9-19.2L148,335.2z"/>
	<linearGradient id="SVGID_8_" gradientUnits="userSpaceOnUse" x1="150.7813" y1="176.3742" x2="150.7813" y2="255.5471">
		<stop  offset="8.290160e-02" style="stop-color:#C3DFE8"/>
		<stop  offset="1" style="stop-color:#B3C4E8"/>
	</linearGradient>
	<path class="st14" d="M216.6,80.6V290c0,8.6-7,15.6-15.6,15.6H100.6c-4.6,0-8.7-2-11.5-5.1c-2.5-2.8-4.1-6.5-4.1-10.6V80.6
		c0-8.6,7-15.6,15.6-15.6H201C209.6,65,216.6,72,216.6,80.6z"/>
	<rect x="94.9" y="75.5" class="st15" width="111.7" height="191.8"/>
	<linearGradient id="SVGID_9_" gradientUnits="userSpaceOnUse" x1="145.411" y1="280.9597" x2="154.3469" y2="289.8956">
		<stop  offset="0" style="stop-color:#93A6CC"/>
		<stop  offset="0.956" style="stop-color:#6985BD"/>
	</linearGradient>
	<ellipse class="st16" cx="150.8" cy="286.3" rx="13.8" ry="10.1"/>
	<path class="st1" d="M159.8,65L89,300.6c-2.5-2.8-4.1-6.5-4.1-10.6V80.6c0-8.6,7-15.6,15.6-15.6H159.8z"/>
	<path class="st1" d="M97.5,305.4c1,0.2,2,0.3,3.1,0.3h7.8L180.8,65h-10.9L97.5,305.4z"/>
	<linearGradient id="SVGID_10_" gradientUnits="userSpaceOnUse" x1="53.3603" y1="353.8498" x2="90.2102" y2="191.8231">
		<stop  offset="0" style="stop-color:#EEA886"/>
		<stop  offset="0.7927" style="stop-color:#DC9A7C"/>
		<stop  offset="0.9208" style="stop-color:#C78264"/>
		<stop  offset="1" style="stop-color:#BF795B"/>
	</linearGradient>
	<path class="st17" d="M84.9,305.7c0,0-2.9-44.2-4.1-48.2c-1.3-4-0.2-16.9,0-36.7c0.2-19.8-12.2-24.3-12.2-24.3
		c4.2,0,9.9,2.6,14.1,12.5c7,16.3,0.6,46.1,2.8,55.3C87.7,273.4,84.9,305.7,84.9,305.7z"/>
	<linearGradient id="SVGID_11_" gradientUnits="userSpaceOnUse" x1="204.4298" y1="371.7561" x2="188.9583" y2="280.0527">
		<stop  offset="0" style="stop-color:#F3AB89"/>
		<stop  offset="1" style="stop-color:#D78966"/>
	</linearGradient>
	<path class="st18" d="M219.1,334.1C219.1,334.1,219.1,334.1,219.1,334.1c0,0-51.8,20-58.2,20.8c-6.5,0.8-9.3-2.5-14-9.6
		c-4.7-7,7.8-19.1,12.6-22.2c4.8-3.1,21.4-15.8,21.4-15.8s34.1-15.1,46.1-20.8c0,0,5.1,0,9.8,0.3c4.8,0.3,8.2,7.6,9.3,14.1
		C247.2,307.3,219.8,333.5,219.1,334.1z"/>
	<linearGradient id="SVGID_12_" gradientUnits="userSpaceOnUse" x1="196.1406" y1="369.2937" x2="211.8932" y2="330.1934">
		<stop  offset="0" style="stop-color:#F3AB89"/>
		<stop  offset="1" style="stop-color:#D78966"/>
	</linearGradient>
	<path class="st19" d="M245.8,351.5c-0.6,2.3-6,7.4-12.4,13.2c-6.8-10.5-35.4,5.7-48.9,8.8c-13.5,3.1-21.7-1.4-25.3-9
		c-3.7-7.6,1.7-9.6,1.7-9.6c9.3-2.2,58.2-20.8,58.2-20.8c0.4-0.1,13.6-2.5,18.6-2.2C242.7,332.1,247.2,345.9,245.8,351.5z"/>
	<linearGradient id="SVGID_13_" gradientUnits="userSpaceOnUse" x1="171.6317" y1="331.8635" x2="134.0786" y2="358.1647">
		<stop  offset="0" style="stop-color:#E7A282"/>
		<stop  offset="1" style="stop-color:#FFE0D1"/>
	</linearGradient>
	<path class="st20" d="M164.4,326.9c0,0-19.7,9.7-19.7,14.6c0,4.9,4.9,13.4,9.9,12.4c4.9-1,18.7-11.4,20-14.9
		C175.8,335.5,169.7,324.2,164.4,326.9z"/>
	<linearGradient id="SVGID_14_" gradientUnits="userSpaceOnUse" x1="189.6788" y1="352.2224" x2="149.8753" y2="368.2563">
		<stop  offset="0" style="stop-color:#E7A282"/>
		<stop  offset="1" style="stop-color:#FFE0D1"/>
	</linearGradient>
	<path class="st21" d="M179.6,348.7c0,0,7.3,5.8,6.3,10.1c-1,4.3-15.2,10.8-20.8,11.4c-5.7,0.6-12.8-11.3-4.2-15.3L179.6,348.7z"/>
	<linearGradient id="SVGID_15_" gradientUnits="userSpaceOnUse" x1="202.5153" y1="333.0172" x2="187.3253" y2="256.6451">
		<stop  offset="0" style="stop-color:#F3AB89"/>
		<stop  offset="1" style="stop-color:#D78966"/>
	</linearGradient>
	<path class="st22" d="M227,286.5c-3.5,1.7-8.9,4.2-14.8,6.9c-10.1,4.6-21.6,9.6-27.5,12.2c-2.4,1.1-3.9,1.7-3.9,1.7
		s-9.8,5.6-18.8,7.3c-9,1.7-12.4-1.7-14.9-9c-2.5-7.3,18.8-21.1,23.3-23.6c3.8-2.1,32.9-22.4,41.8-28.6c1.6-1.1,2.6-1.8,2.6-1.8
		s0,0,0,0c0,0,0,0,0,0c2-0.7,4.9-1.4,8.8-1.4c8.4,0,14.9,13.5,16,18C240.8,272.8,227,286.5,227,286.5z"/>
	<linearGradient id="SVGID_16_" gradientUnits="userSpaceOnUse" x1="169.8335" y1="295.9927" x2="131.9989" y2="319.1997">
		<stop  offset="0" style="stop-color:#E7A282"/>
		<stop  offset="1" style="stop-color:#FFE0D1"/>
	</linearGradient>
	<path class="st23" d="M173.5,301c0,0,0.1-7.5-8.6-10.5c0,0-18.2,9.1-19,13.7c-0.8,4.6,4,10,5.9,10.1S174.1,304.1,173.5,301z"/>
	<g>
		<g>
			<g>
				<g>
					<g>
						<g>
							<path class="st0" d="M347.9,84l-5.9-9.7c-0.5-0.8-0.2-1.8,0.6-2.3c0.8-0.5,1.8-0.2,2.3,0.6l4.2,6.9l11.1-6.6
								c0.8-0.5,1.8-0.2,2.3,0.6c0.5,0.8,0.2,1.8-0.6,2.3L347.9,84z"/>
						</g>
					</g>
				</g>
			</g>
		</g>
		<g>
			<path class="st0" d="M351.9,98.9c-11.8,0-21.3-9.6-21.3-21.3c0-11.8,9.6-21.3,21.3-21.3c11.8,0,21.3,9.6,21.3,21.3
				C373.2,89.4,363.6,98.9,351.9,98.9z M351.9,59.3c-10.1,0-18.3,8.2-18.3,18.3c0,10.1,8.2,18.3,18.3,18.3s18.3-8.2,18.3-18.3
				C370.2,67.5,362,59.3,351.9,59.3z"/>
		</g>
	</g>
	<g>
		<polygon class="st6" points="106.1,50.5 85.7,40.6 76.7,59.2 71.9,56.9 83.3,33.5 103.7,43.4 113.2,23.8 118,26.1 		"/>
	</g>
	<g>
		
			<rect x="267.3" y="283.7" transform="matrix(0.9484 -0.3171 0.3171 0.9484 -81.0448 109.8136)" class="st3" width="59.1" height="40.5"/>
		<polygon class="st24" points="275.3,332.5 296.1,301.6 331.3,313.7 		"/>
		<polygon class="st0" points="318.5,275.3 298.5,308.6 262.4,294.1 		"/>
	</g>
	<g>
		
			<ellipse transform="matrix(0.7963 -0.6049 0.6049 0.7963 -89.8801 51.8701)" class="st1" cx="32.1" cy="159.4" rx="3.5" ry="3.5"/>
	</g>
	<g>
		<g>
			<g>
				<path class="st3" d="M57.1,94l-12.3,7.5c-2.5,1.5-5.6,0.7-7.1-1.8l-7.5-12.3c-1.5-2.5-0.7-5.6,1.8-7.1l12.3-7.5
					c2.5-1.5,5.6-0.7,7.1,1.8l7.5,12.3C60.4,89.4,59.6,92.5,57.1,94z"/>
			</g>
		</g>
		<g>
			<g>
				<g>
					<g>
						<path class="st25" d="M46.7,92.2l-8.2-1.4c-0.7-0.1-1.1-0.8-1-1.4c0.1-0.7,0.8-1.1,1.4-1l5.8,1l1.8-9.3c0.1-0.7,0.8-1.1,1.4-1
							c0.7,0.1,1.1,0.8,1,1.4L46.7,92.2z"/>
					</g>
				</g>
			</g>
		</g>
	</g>
	<g>
		<g>
			<g>
				<rect x="103.7" y="190.5" class="st0" width="0.5" height="61.8"/>
			</g>
			<g>
				<rect x="127.1" y="190.5" class="st0" width="0.5" height="61.8"/>
			</g>
			<g>
				<rect x="150.5" y="190.5" class="st0" width="0.5" height="61.8"/>
			</g>
			<g>
				<rect x="174" y="190.5" class="st0" width="0.5" height="61.8"/>
			</g>
			<g>
				<rect x="197.4" y="190.5" class="st0" width="0.5" height="61.8"/>
			</g>
		</g>
		<linearGradient id="SVGID_17_" gradientUnits="userSpaceOnUse" x1="274.9202" y1="250.8229" x2="4.9806" y2="191.5805">
			<stop  offset="0" style="stop-color:#40D5E6"/>
			<stop  offset="1" style="stop-color:#5577FF"/>
		</linearGradient>
		<path class="st26" d="M103.9,227.2c0,0,9.5,8,18.8-1.5c9.2-9.5,19.9-12.7,29.3-4.7c9.4,8,13.1-3,22.5-12c9.4-9,9.3-14.1,23.2-14.1
			v57.4h-93.7V227.2z"/>
		<rect x="127.4" y="185.3" class="st0" width="5.8" height="2.2"/>
		<rect x="103.7" y="185.3" class="st0" width="7.9" height="2.2"/>
		<rect x="150.8" y="185.3" class="st0" width="7.2" height="2.2"/>
		<rect x="174" y="185.3" class="st0" width="7.2" height="2.2"/>
		<rect x="190.4" y="185.3" class="st0" width="7.2" height="2.2"/>
		<linearGradient id="SVGID_18_" gradientUnits="userSpaceOnUse" x1="162.2097" y1="146.7032" x2="193.5245" y2="146.7032">
			<stop  offset="0" style="stop-color:#40D5E6"/>
			<stop  offset="1" style="stop-color:#5577FF"/>
		</linearGradient>
		<rect x="162.2" y="144.7" class="st27" width="31.3" height="4"/>
		<linearGradient id="SVGID_19_" gradientUnits="userSpaceOnUse" x1="162.2097" y1="163.3061" x2="190.9552" y2="163.3061">
			<stop  offset="0" style="stop-color:#40D5E6"/>
			<stop  offset="1" style="stop-color:#5577FF"/>
		</linearGradient>
		<rect x="162.2" y="161.3" class="st28" width="28.7" height="4"/>
		<linearGradient id="SVGID_20_" gradientUnits="userSpaceOnUse" x1="162.2097" y1="155.0046" x2="187.0809" y2="155.0046">
			<stop  offset="0" style="stop-color:#40D5E6"/>
			<stop  offset="1" style="stop-color:#5577FF"/>
		</linearGradient>
		<rect x="162.2" y="153" class="st29" width="24.9" height="4"/>
		<circle class="st0" cx="128.7" cy="139.1" r="5.5"/>
		<path class="st0" d="M138.5,156.9v10.4c-3,1.4-6.4,2.1-9.9,2.1c-3.5,0-6.9-0.8-9.9-2.1v-10.4c0-5.5,4.4-9.9,9.9-9.9
			C134.1,147,138.5,151.4,138.5,156.9z"/>
		<g>
			<linearGradient id="SVGID_21_" gradientUnits="userSpaceOnUse" x1="103.9451" y1="145.4571" x2="153.2768" y2="145.4571">
				<stop  offset="0" style="stop-color:#D3DAE0"/>
				<stop  offset="1" style="stop-color:#FFFFFF"/>
			</linearGradient>
			<path class="st30" d="M128.6,170.1c-3.6,0-7-0.7-10.2-2.2c-8.8-4-14.5-12.8-14.5-22.5c0-13.6,11.1-24.7,24.7-24.7
				c13.6,0,24.7,11.1,24.7,24.7c0,9.7-5.7,18.5-14.5,22.5C135.6,169.4,132.2,170.1,128.6,170.1z M128.6,122.1
				c-12.9,0-23.4,10.5-23.4,23.4c0,9.1,5.4,17.5,13.7,21.3c3,1.4,6.3,2.1,9.7,2.1c3.4,0,6.6-0.7,9.7-2.1
				c8.3-3.8,13.7-12.1,13.7-21.3C152,132.6,141.5,122.1,128.6,122.1z"/>
		</g>
		<g>
			<path class="st6" d="M177.5,135c-8.2,0-14.9-6.7-14.9-14.9c0-8.2,6.7-14.9,14.9-14.9c8.2,0,14.9,6.7,14.9,14.9
				C192.4,128.4,185.8,135,177.5,135z M177.5,108.2c-6.6,0-11.9,5.3-11.9,11.9c0,6.6,5.3,11.9,11.9,11.9c6.6,0,11.9-5.3,11.9-11.9
				C189.5,113.6,184.1,108.2,177.5,108.2z"/>
		</g>
		<g>
			<path class="st6" d="M191,102.7c-3.4,0-6.1-2.7-6.1-6.1c0-3.4,2.7-6.1,6.1-6.1c3.4,0,6.1,2.7,6.1,6.1
				C197.1,99.9,194.3,102.7,191,102.7z M191,91.7c-2.7,0-4.9,2.2-4.9,4.9c0,2.7,2.2,4.9,4.9,4.9s4.9-2.2,4.9-4.9
				C195.8,93.9,193.7,91.7,191,91.7z"/>
		</g>
		<rect x="127.5" y="90.4" class="st0" width="22.5" height="3.6"/>
		<rect x="130.8" y="99.7" class="st0" width="19.1" height="3.6"/>
		<rect x="119.2" y="108.9" class="st0" width="30.8" height="3.6"/>
	</g>
</g>
</svg>
