<?xml version="1.0" encoding="utf-8"?>
<!-- Generator: Adobe Illustrator 21.1.0, SVG Export Plug-In . SVG Version: 6.00 Build 0)  -->
<svg version="1.1" id="Layer_1" xmlns="http://www.w3.org/2000/svg" xmlns:xlink="http://www.w3.org/1999/xlink" x="0px" y="0px"
	 viewBox="0 0 255.2 442" style="enable-background:new 0 0 255.2 442;" xml:space="preserve">
<style type="text/css">
	.st0{display:none;fill:#59B2B2;}
	.st1{fill:#287AA8;}
	.st2{fill:#F8B0A5;}
	.st3{fill:#EF8D86;}
	.st4{fill:#603813;}
	.st5{fill:#D47C32;}
	.st6{fill:#BA692B;}
	.st7{fill:#754C28;}
	.st8{fill:#DF8480;}
	.st9{fill:#D84867;}
	.st10{fill:#26224B;}
	.st11{fill:#F6921E;}
	.st12{fill:#FCF3E8;}
	.st13{fill:#D7C9C9;}
	.st14{fill:#FFA750;}
	.st15{fill:#36B1E0;}
</style>
<rect x="-143" y="-158" class="st0" width="600" height="600"/>
<g>
	<g>
		<ellipse id="XMLID_3208_" class="st1" cx="126.1" cy="420.5" rx="61.7" ry="12.5"/>
	</g>
	<g>
		<g>
			<path id="XMLID_1087_" class="st2" d="M168.5,305.8c0,0-0.1,7.1-0.4,17.7c-0.6,22.2-1.6,59.9-3,82c-0.7,10.5-1.4,17.5-2.1,17.7
				c-3.2,0.8-5.2-7.9-5.2-7.9l-11.5,8.2c0,0-25.4,0.8-27.8-0.4c-2.4-1.2,14.3-6.7,14.3-6.7l13.5-9.4l-7.5-80.1l-2-21.6L168.5,305.8z
				"/>
			<path id="XMLID_1086_" class="st3" d="M168.5,305.8c0,0-0.1,7.1-0.4,17.7l-29.3,3.5l-2-21.6L168.5,305.8z"/>
			<path id="XMLID_1085_" class="st4" d="M165.1,405.5c-0.7,10.5-1.4,17.5-2.1,17.7c-3.2,0.8-5.2-7.9-5.2-7.9l-11.5,8.2
				c0,0-25.4,0.8-27.8-0.4c-2.4-1.2,14.3-6.7,14.3-6.7s11.1,1,14.9,0C150.9,415.7,161.7,407.9,165.1,405.5z"/>
			<path id="XMLID_1003_" class="st3" d="M153.3,346.2c-1.6-0.8-3.6-1.1-5.3-0.5c-0.9,0.3-1.6,0.7-2.5,1.2c-1.1,0.6-1.4,2.6-0.3,3.4
				c0.3,0.3,0.8,0.5,1.1,0.7c0.8,0.5,1.4,0.8,2.3,1.1c1.4,0.5,3,0.4,4.3-0.1C155.5,351,155.8,347.5,153.3,346.2z"/>
		</g>
		<g>
			<path id="XMLID_1103_" class="st2" d="M126.5,306.9c0,0-0.2,9.2-0.5,22.6c-0.6,22.5-1.6,56.6-2.9,77.2
				c-0.7,10.5-1.4,17.4-2.1,17.6c-3.2,0.8-5.2-7.9-5.2-7.9l-11.5,8.2c0,0-25.4,0.8-27.8-0.4c-2.4-1.2,14.3-6.7,14.3-6.7l13.5-9.4
				l-8.1-86.9l-1.4-14.8L126.5,306.9z"/>
			<path id="XMLID_1102_" class="st3" d="M126.5,306.9c0,0-0.2,9.2-0.5,22.6l-29.8-8.1l-1.4-14.8L126.5,306.9z"/>
			<path id="XMLID_1101_" class="st4" d="M123.1,406.7c-0.7,10.5-1.4,17.4-2.1,17.6c-3.2,0.8-5.2-7.9-5.2-7.9l-11.5,8.2
				c0,0-25.4,0.8-27.8-0.4c-2.4-1.2,14.3-6.7,14.3-6.7s11,1.6,12.9,1.2C105.4,418.5,118.7,409.7,123.1,406.7z"/>
			<path id="XMLID_1004_" class="st3" d="M108.2,346.8c-1.1-0.4-2.3-0.4-3.5-0.3c-1.2,0-2.5,0-3.5,0.8c-1.1,0.9-1.7,2.4-0.8,3.7
				c0.9,1.3,2.3,1.7,3.8,2.2c1.2,0.4,2.2,0.6,3.5,0.6c1.8-0.1,3.2-1.6,3.3-3.3C111.1,348.6,109.9,347.4,108.2,346.8z"/>
		</g>
		<g id="XMLID_1001_">
			<g id="XMLID_1002_">
				<path id="XMLID_1084_" class="st5" d="M174.1,312H89.2c0,0-2.1-32.2-4.2-53.7c-0.9-9.5-0.9-16.2-0.3-21.3
					c0.7-6.5,2.3-10.4,3.8-14l43.4-24.1c0,0,34.6,13.9,41.5,24.1c2.1,3.1,3,12.3,3.2,23.7C177.1,273.4,174.1,312,174.1,312z"/>
				<path id="XMLID_1082_" class="st6" d="M176.5,246.7c-4.6,2.5-11.1,4.8-18.3,4c-14.5-1.6-25.4-8.6-31.2-23.3
					c-20.5,11.2-34.9,10.9-42.4,9.6c0.7-6.5,2.3-10.4,3.8-14l43.4-24.1c0,0,34.6,13.9,41.5,24.1
					C175.4,226.1,176.3,235.3,176.5,246.7z"/>
				<path id="XMLID_1057_" class="st6" d="M137.9,254.9c-4.1-1-8.2-1.6-12.3-2c-0.1,0-0.2-0.1-0.3-0.1c-3-1-7.7-2.9-9.8,0.8
					c-2.5,4.4,2.7,7.1,6.1,8.3c1.9,0.7,3.9,1.1,5.9,1.4c-3.4,1.9-6.7,3.9-10.3,5.7c-2.2,1.1-0.8,4.3,1.4,4.3
					c6.1,0,12.1-1.4,17.9-3.3c3.6-1.2,11.2-3.6,11.8-8C148.8,256.9,141.3,255.7,137.9,254.9z"/>
			</g>
		</g>
		<g>
			<path id="XMLID_1879_" class="st7" d="M159.6,49.5c-11.4-6.7-26.1-4.6-37.3,5.5c-11.3,10.2-10.5,22.2-19.4,26.9
				C94,86.6,89.2,89.6,90,96.4c0.8,6.9,5.6,9.2,0,13.4c-5.6,4.1-12.1,5.5-11.1,14.5c1,9,3,18.1,26.6,28.5
				c23.6,10.4,69.4,4.1,79.1-3.5c9.7-7.7,11.5-14.3,7.1-24.3c-4.4-10-5.9-9-3.4-13.9c2.6-4.9,7.7-8.6,4.2-14.5
				c-3.6-5.9-16.3-9.8-15.9-17.1C177.1,72.1,173.3,57.5,159.6,49.5z"/>
			<path id="XMLID_1872_" class="st4" d="M123.7,68.9c0,0-6.5,15.9-13.5,18.9c-6.9,2.9-10.9,7.7-8.9,13.9c2,6.3,4.6,9.8,1.2,12.4
				c-3.4,2.6-15.9,5.5-9.3,18.5c6.5,13,43.4,12.6,43.4,12.6s32.1,2.2,38.1-4.5c5.9-6.7,6.3-12.8,3-19c-3.4-6.3-7.9-8.2-3.8-15.3
				c4.2-7.1-1.6-16.9-5.4-20.4c-3.8-3.5-8.7-10.6-13.1-12C151.1,72.5,123.7,68.9,123.7,68.9z"/>
			<path id="XMLID_1776_" class="st2" d="M170.6,94c0.4,3.6-4.8,12.3-12.4,10.3c-3-1-3-1-3-1s-7.7,9.2-10.9,10.2
				c0.4,5.5,0.6,9.2,0.6,9.2l-11.8,1.6l-6.6,0.9l-2-13c0,0-8.7-1.6-10.3-10.2s1.6-23.6,10.7-33.6c7.7-1.4,14.9-2.6,17.2-7.3
				c3,6.1,5.9,8.8,12.5,12.2c6.7,3.3,5.4,19.3,6,18.7C161.3,91.6,169.7,86.8,170.6,94z"/>
			<path id="XMLID_1765_" class="st3" d="M135.8,77.4l-9.9,15.1l5.7-1l-1.6,13.9c0,0-4,2.2-2.6,5.3c2.6,2.2,4.4,2,4.4,2l1.2,11.7
				l-6.6,0.9l-2-13c0,0-8.7-1.6-10.3-10.2s1.6-23.6,10.7-33.6c7.7-1.4,14.9-2.6,17.2-7.3L135.8,77.4z"/>
			<path id="XMLID_1757_" class="st8" d="M127.3,124.5c-1.6-3.7-0.1-8.2-2.3-11.6c-0.9-1.4-2.3-2.2-3.7-3c-2.9-1.6-5-3.4-6-6.6
				c-1.9-6,1-13.5,3.2-19.1c2-5,4.5-9.8,6.8-14.7c0.2-0.5-0.4-1.1-0.8-0.6c-4.1,4.5-6.8,9.7-8.9,15.3c-2,5.4-4.2,11.5-3.4,17.4
				c0.6,4.4,3,8.2,7.1,10c1.8,0.8,3.5,1,4.5,3.1c0.7,1.5,0.5,3.4,0.6,5c0.1,2,0.4,3.9,1.3,5.7C126.1,126.3,127.8,125.6,127.3,124.5z
				"/>
			<path id="XMLID_1707_" class="st9" d="M136.5,75.2c-4.3,5.1-7.5,10.8-10.8,16.5c-0.3,0.6,0.1,1.4,0.8,1.3c2-0.3,4-0.5,5.9-0.9
				c0.7-0.2,0.5-1.2-0.2-1.2c-1.3,0-2.7,0.1-4,0.2c3.3-5,6.4-9.9,8.8-15.4C137.3,75.3,136.8,74.8,136.5,75.2z"/>
			<path id="XMLID_1363_" class="st10" d="M126.8,77.8c-1.3,0-2.4,1.3-2.3,2.5c0.1,1.4,1.2,2.3,2.6,2.3c1.3,0,2.4-1.3,2.3-2.5
				C129.2,78.7,128.1,77.8,126.8,77.8z"/>
			<path id="XMLID_1362_" class="st10" d="M143.3,77.8c-1.3,0-2.4,1.3-2.3,2.5c0.1,1.4,1.2,2.3,2.6,2.3c1.3,0,2.4-1.3,2.3-2.5
				C145.7,78.7,144.7,77.8,143.3,77.8z"/>
			<path id="XMLID_990_" class="st4" d="M149.9,74.5c-2.2-0.9-5.4-0.5-6.9-2.6c-1-1.4-3.1,0.3-1.9,1.5c2.2,2.2,5.5,5.2,8.8,3.3
				C150.8,76.2,150.8,74.8,149.9,74.5z"/>
			<path id="XMLID_991_" class="st4" d="M132.2,71.7c-1.2,0.4-2.3,1.2-3.5,1.6c-1.3,0.5-2.6,0.8-3.9,0.8c-1.6,0.1-1.5,2.4,0.1,2.4
				c2.7,0,6.8-0.5,8.6-2.9C134.2,72.8,133.5,71.3,132.2,71.7z"/>
			<path id="XMLID_978_" class="st9" d="M140.5,95.7c-4.1-0.6-11.3-1.4-15.1,1c-1.1,0.7-0.9,2.9,0.7,2.3c4-1.5,9.6-0.9,13.7-0.3
				C141.7,99,142.5,96,140.5,95.7z"/>
		</g>
		<path id="XMLID_973_" class="st5" d="M108.1,130.2c0,0-31.6,24.1-31,41c1.2,12.8,11.6,10.8,17.7,8.2c6.1-2.7,23.9-36.5,23.9-36.5
			L108.1,130.2z"/>
		<g>
			<path id="XMLID_1081_" class="st11" d="M159.6,197.1c1.1,1,12.4,12.8,17.2,29.3c-16.7,1.3-32-6.4-40.8-12.2
				c-5-3.3-7.9-5.9-7.9-5.9c-16.4,15.7-33,19.1-44.7,17c0.8-10.5,17.2-30.9,17.2-30.9s-9.2-25.1-9.2-36.7c0-8.9,6.3-18.4,13.8-24.9
				c2.2-1.9,4.5-3.6,6.8-4.9c10-5.8,22.5-4.5,22.5-4.5s12-2.1,23.5,2c5.4,1.9,10.8,5.3,14.7,10.9c1,1.5,2,3.1,2.8,4.9
				C184.8,161.9,168.3,181.4,159.6,197.1z"/>
			<path id="XMLID_1012_" class="st6" d="M104,133.5c0,0-1.6,13.4,1.3,23.8c9,0.5,13.2-1.6,13.2-1.6s-3.2,11.3-0.5,12.6
				c2.6,1.3,14.4,7.3,14.4,7.3s19-5.5,20.4-8.9c1.3-3.4,0.7-10.3,0.7-10.3s12.4,2.5,16.9-1.2c4.5-3.7,4.1-21.7,4.1-21.7L104,133.5z"
				/>
			<path id="XMLID_1011_" class="st12" d="M174.5,133.5c-4.4,15.4-25.4,23-42.3,33.8c-0.7,0.4-1.5,0.4-2.3,0.5
				c-0.1-0.1-0.2-0.2-0.3-0.3c-17.4-13.9-24.3-33.9-24.3-33.9l-0.2-0.8c1.1-1,2.3-1.9,3.5-2.7c0.5-0.3,0.9-0.6,1.4-0.9
				c0.7-0.4,1.3-0.8,1.9-1.2c1.5-0.9,3.1-1.7,4.9-2.5c10.6-4.4,26.8-5.9,40.8-1.6c3.2,1,6.4,2.3,9.3,4l1.7,1
				C170.7,130.2,172.7,131.8,174.5,133.5z"/>
			<path id="XMLID_1010_" class="st13" d="M134.8,139.3c-0.5,9.2-0.7,18.9-2.6,28c-0.8,0.2-1.5,0.4-2.3,0.5
				c-0.1-0.1-0.2-0.2-0.3-0.3c0.2-9.5,2.2-19.2,3.9-28.5C133.6,138.4,134.8,138.6,134.8,139.3z"/>
			<path id="XMLID_1118_" class="st2" d="M157.7,123.9c-4.1,2.6-13.7,8.5-23.4,12.1c-4.7-1.5-13.1-7.3-17.4-10.5
				c4.4-1.8,9.8-3.2,15.6-3.8C140.6,120.8,149.5,121.4,157.7,123.9z"/>
			<path id="XMLID_1116_" class="st3" d="M134.3,136c-4.7-1.5-13.1-7.3-17.4-10.5c4.4-1.8,9.8-3.2,15.6-3.8l-0.3,7.6L134.3,136z"/>
			<path id="XMLID_1060_" class="st13" d="M168.6,128.9l-18.1,26.3l-16-12.7l-16.4,10.9l-9.5-23.2c0.5-0.3,0.9-0.6,1.4-0.9
				l10.4,15.6l13.9-8.9l14.5,11.9l18.1-20L168.6,128.9z"/>
			<path id="XMLID_1008_" class="st6" d="M101.9,203.9c0.8-0.2,16.1-1.8,16.7-0.5c0.5,1.3-9.8,9.7-13.7,7.9
				C100.9,209.4,97.7,204.7,101.9,203.9z"/>
			<path id="XMLID_1009_" class="st6" d="M159.8,203.9c-0.8-0.2-16.1-1.8-16.7-0.5c-0.5,1.3,9.8,9.7,13.7,7.9
				C160.9,209.4,164,204.7,159.8,203.9z"/>
			<path id="XMLID_1005_" class="st6" d="M132,170.9c-0.1-0.9-1.5-1.2-1.7-0.2c-2.8,12-3,24.2-3.3,36.5c0,1.7,2.9,2,3.1,0.3
				C131.6,195.3,133.1,183.1,132,170.9z"/>
		</g>
		<g>
			<path id="XMLID_1115_" class="st2" d="M170.9,197.5c-10.7,3.2-24.5,0.5-36.3-3.2c-13.2-4.2-23.6-9.7-23.6-9.7s-2.9,4.3-5.3,5.3
				c-2.4,1-2.9-3.7-2.9-3.7s-0.4,1.6-3.7,1.4c-3.3-0.2-2.9-4.1-2.9-4.1s-2.4,0-4.3-1.4c-1.8-1.4,4.6-10.2,10.7-11.3
				c4.1-0.7,9.2,2.7,9.2,2.7c5.9-0.2,14.9,0.3,23.4,1c11.6,0.9,22.1,2,22.1,2s5.8-36.3,9.7-40c3.9-3.7,10.4-7.1,15.3,2.4
				C187.4,148.7,181,185.9,170.9,197.5z"/>
			<path id="XMLID_1100_" class="st9" d="M111.7,173.5c-3.8-6.5-11.9-3.5-16,0.6c-1.9,1.9-4.7,4.6-4.2,7.5c0.2,1,0.8,1.9,1.7,2.3
				c0.5,0.3,2.1,0.6,2.6,0c0.6-0.8-0.9-1.2-1.4-1.6c-0.9-0.7-1.2-1.6-0.9-2.7c0.2-0.8,0.6-1.5,1.1-2.1c1.6-2.1,4.5-4.4,6.9-5.4
				c3.6-1.5,6.6-0.2,9.6,2C111.5,174.4,111.9,173.8,111.7,173.5z"/>
			<path id="XMLID_1104_" class="st9" d="M98.6,185.8c-0.8,0-1.4-0.3-1.8-1c-0.3-0.7-0.2-1.3-0.2-2c0-0.2-0.3-0.4-0.5-0.3
				c-0.9,0.7-1,2.1-0.6,3.1c0.5,1.1,1.8,1.9,3,1.8C99.6,187.2,99.6,185.8,98.6,185.8z"/>
			<path id="XMLID_1105_" class="st9" d="M103,185.2c-0.8,0.3-1.7,1.2-2.6,0.9c-1-0.3-0.3-1.8-0.2-2.6c0.1-0.6-0.8-0.9-1-0.2
				c-0.3,0.9-0.9,1.6-0.9,2.6c0,0.8,0.4,1.5,1.1,2c1.6,0.9,3.7-0.1,4.6-1.5C104.3,185.8,103.7,185,103,185.2z"/>
			<path id="XMLID_1106_" class="st9" d="M110.7,183.6c-1,1.4-2,2.7-3.4,3.8c-0.5,0.5-1.8,1.8-2.6,1.2c-0.7-0.4-0.8-2.1-1-2.8
				c-0.1-0.5-1-0.5-1.1,0c-0.3,2,0.7,5.9,3.5,4.7c2.5-1.1,4.7-3.9,5.8-6.3C112.2,183.4,111.2,182.9,110.7,183.6z"/>
			<path id="XMLID_580_" class="st14" d="M170.9,197.5c-7.9,2.4-17.7,1.5-27-0.7c-3.2-0.7-6.3-1.6-9.3-2.6l0.8-19.7
				c2.7,0.2,5.3,0.4,7.7,0.6c8.2,0.7,14.4,1.4,14.4,1.4s5.8-36.3,9.7-40c3.9-3.7,10.4-7.1,15.3,2.4
				C187.4,148.7,181,185.9,170.9,197.5z"/>
			<path id="XMLID_577_" class="st5" d="M143.9,196.9c-3.2-0.7-6.3-1.6-9.3-2.6l0.8-19.7c2.7,0.2,5.3,0.4,7.7,0.6
				C143.4,179.8,144.2,191.8,143.9,196.9z"/>
			<path id="XMLID_1096_" class="st6" d="M174.1,131.8c-1.1-0.2-1.4,1.3-0.4,1.6c12.3,4.6,9.1,20.8,7.2,30.6
				c-1.9,9.7-4.2,19.2-7,28.6c-0.7,2.5-3,4.3-5.7,4.5c-9.8,0.6-19.6-1.4-29.5-3.2c-1.8-0.3-1.3,1.6,0.3,2c10.5,3,20.4,5.1,31,4
				c2.4-0.3,4.9-2.3,5.6-4.6c4.1-13.2,8.1-26,9.9-39.7C187,146.1,185.3,134.1,174.1,131.8z"/>
			<path id="XMLID_974_" class="st5" d="M158.3,179.6c0,0,2.4,13.3,6.3,10.9c3.8-2.4-1.4-8.7-1.4-8.7s6.3,3,6.5-1.4
				C170,176.1,159.2,176.3,158.3,179.6z"/>
		</g>
		<g>
			<path id="XMLID_1113_" class="st2" d="M131.7,117.8c-1.4,1.8-2.9,0.3-2.9,0.3s0.9,2.3,1.5,6c0.6,3.7-2,3.5-2,3.5
				s-2.8,16.2-10.7,30.1c-3.3,5.7-7.3,11.3-12.2,15.6c-11.2,9.8-17.1,8.8-20.4,6.9c-2.6-1.5-3.6-2-3.9-7.1
				c-0.2-2.7,10.3-16.4,20.2-28.6c8.7-10.7,16.9-20.4,16.9-20.4s-6-9-6.4-12.7c-0.3-3.1,0.1-5.6,3.8-8c1.1-0.7,2.6-1.6,4-1.5
				c0.9,0.1,2,1,1.8,2c-0.1,0.4-0.3,0.8-0.6,1.2c-1,1.5-2.2,2.8-3.4,4.1c-0.3,0.4-1,0.8-0.6,1.4c0.7-1.4,2.5-0.9,3.5-0.1
				c1.4-1,3-0.8,3.1,1C126.7,107.8,132.6,116.6,131.7,117.8z"/>
			<path id="XMLID_582_" class="st14" d="M118.5,158.3c-2,4-4.2,7.3-6.7,10.1c-4.9,5.6-10.9,9.7-17.9,12.5c-2,0.8-4,1.3-6.1,1.3
				c-2.2-0.1-4.5-1.4-5.9-3.1c-3.6-4.3,1.5-10.8,4-14.4c3.4-4.9,7.1-9.7,10.9-14.3c1.6-2,3.1-3.9,4.7-5.9L118.5,158.3z"/>
			<path id="XMLID_1099_" class="st9" d="M131.8,118.1c0.9-1.8-0.5-3.8-1.7-5.1c-1.3-1.4-3.2-3.3-5.3-3c-2.2,0.4-2.6,2.6-3.4,4.3
				c-0.6,1.2,1.5,1.7,1.5,0.4c0-1.7,1-3.5,3-2.8c0.6,0.2,1.2,0.8,1.6,1.2c0.4,0.4,0.8,0.8,1.2,1.3c0.3,0.4,2.7,3.4,0.4,3
				c-0.5-0.1-1.2,0.5-0.8,1.1c0,1.2,0.6,2.4,0.9,3.6c0.4,1.9,0.4,3.9-0.6,5.6c-0.1,0.3,0.1,0.7,0.4,0.5c1.9-0.8,2.6-2.6,2.5-4.6
				c0-1.3-0.3-3.1-1-4.4C131.1,119.1,131.6,118.7,131.8,118.1z"/>
			<path id="XMLID_1098_" class="st9" d="M124.5,109.6c-1.5-0.2-3.1-0.5-4.3,0.7c-1,0.9-2,2.6-1.2,3.9c0.3,0.5,1,0.4,1.2,0
				c0.4-0.7,0.4-1.7,1.1-2.3c0.6-0.6,1.8-1.2,2.6-0.7C125,111.7,125.6,109.7,124.5,109.6z"/>
			<path id="XMLID_1095_" class="st9" d="M121.3,109.5c-0.7-0.2-1.2-0.5-2-0.4c-0.5,0-0.9,0.2-1.3,0.4c0.9-2.4,6-3.8,3.8-7.1
				c-1.5-2.2-4.8-1.3-6.6,0c-6.3,4.5-4.3,14.5,1.1,18.9c0.6,0.4,1.4-0.1,1-0.8c-2.7-4.7-7.1-12.9-0.4-16.6c0.6-0.4,1.5-0.6,2.1-0.2
				c0.6,0.4,0.8,1.2,0.5,1.9c-0.5,1.6-2.2,2.3-2.9,3.8c-0.7,1.5-0.9,3.3-0.5,4.9c0,0.2,0.1,0.3,0.3,0.3c0.2,0,0.3-0.2,0.4-0.4
				c0.5-1.4,0.8-2.8,2.3-3.4c0.3-0.1,1.2-0.5,1.4-0.1C121.2,111.9,122.8,110,121.3,109.5z"/>
			<path id="XMLID_579_" class="st5" d="M118.5,158.3c-2,4-4.2,7.3-6.7,10.1l-15.1-18c1.6-2,3.1-3.9,4.7-5.9L118.5,158.3z"/>
		</g>
	</g>
	<g>
		<g>
			<path class="st15" d="M53.7,103.1l-14.4,11.6c-3.6-4.5-6.8-5.5-9.9-3c-2.5,2-2.8,4.1-0.9,6.5c5.2,6.5,15.5,0.4,25.6,12.9
				l-14,11.3c-7.1-8.8-21.6-1.1-31.4-13.3c-7.8-9.6-5.2-21,7-30.8C28.8,87.8,42.8,89.6,53.7,103.1z M51,140.9
				c5-4.1,11.4-3.4,15.4,1.7c4.1,5.1,3.4,11.5-1.6,15.5c-5.1,4.1-11.5,3.4-15.6-1.7C45.2,151.4,45.9,145.1,51,140.9z"/>
		</g>
		<g>
			<path class="st15" d="M240,163.5c13.8,7.3,18.6,17.9,12.8,28.9c-7.3,13.8-23,9.1-28.3,19.1l-15.9-8.4
				c7.5-14.2,18.8-10.2,22.6-17.5c1.5-2.8,0.8-4.7-2.1-6.2c-3.5-1.9-6.4-0.3-9.1,4.8l-16.4-8.6C211.7,160.1,225.2,155.6,240,163.5z
				 M218.3,227c-3.1,5.8-9.2,7.7-15,4.6c-5.7-3-7.6-9.1-4.6-14.9c3-5.7,9.1-7.6,14.8-4.6C219.4,215.2,221.3,221.3,218.3,227z"/>
		</g>
		<g>
			<path class="st15" d="M76.3,262.8l-10.8,4.5c-1.6-3.8-3.4-5.1-5.7-4.1c-1.9,0.8-2.4,2.1-1.5,4.1c2.2,5.4,9.6,3.7,13.9,14.1
				l-10.5,4.3c-3-7.4-13.3-5.5-17.5-15.7c-3.3-8.1,0-15,9.1-18.7C63.2,247.2,71.6,251.5,76.3,262.8z M68.7,287.1
				c3.8-1.6,7.6,0.3,9.4,4.5c1.8,4.3,0.4,8.3-3.4,9.9c-3.8,1.6-7.7-0.3-9.5-4.5C63.5,292.7,64.9,288.7,68.7,287.1z"/>
		</g>
		<g>
			<path class="st15" d="M209.7,20.3c9.1,3.8,12.5,10.7,9.1,18.7c-4.2,10.2-14.5,8.3-17.5,15.7l-10.5-4.3
				c4.3-10.4,11.7-8.7,13.9-14.1c0.8-2,0.3-3.3-1.5-4.1c-2.3-1-4.1,0.4-5.7,4.1l-10.8-4.5C191.4,20.6,199.9,16.3,209.7,20.3z
				 M197.8,66c-1.8,4.3-5.6,6.1-9.5,4.5c-3.8-1.6-5.2-5.6-3.4-9.9c1.7-4.2,5.6-6.1,9.4-4.5C198.2,57.8,199.6,61.8,197.8,66z"/>
		</g>
	</g>
</g>
</svg>
