<?xml version="1.0" encoding="utf-8"?>
<!-- Generator: Adobe Illustrator 21.1.0, SVG Export Plug-In . SVG Version: 6.00 Build 0)  -->
<svg version="1.1" id="Layer_1" xmlns="http://www.w3.org/2000/svg" xmlns:xlink="http://www.w3.org/1999/xlink" x="0px" y="0px"
	 viewBox="0 0 25 26.7" style="enable-background:new 0 0 25 26.7;" xml:space="preserve">
<style type="text/css">
	.st0{fill:#D70613;}
</style>
<path class="st0" d="M19.5,23c-0.2-0.2,0.4,0,0.3-0.3c-0.2-0.2-0.5-0.5-0.7-0.7c0-0.3,0.5-0.2,0.5-0.5c0-0.3-0.8-0.9-0.8-1.2
	c-0.4-0.6,0.5,0.2,1,0.7c-0.1-0.3,0.3,0.4,0.5,0.2c0.2-0.2,0.5-0.4,0-1.3c-0.1-0.2,0.2-0.2,0.3-0.3c-2-2.1-4.2-4.4-6.5-6.3
	c0,0,0,0-0.1-0.1c1.4-1.7,3.4-3.3,4.6-4.9c0.4-0.5,1.4-1.1,1.5-1.7C20,6.7,19.9,6.8,19.7,7c0.3-0.7,1-1,1.4-1.5
	C21,5.3,20.9,5.3,21,5.1c-0.3,0.3-0.7,0.9-1.1,1.1l-0.2-0.2c0.3-0.4,0.9-0.8,1.1-1.1c-0.1-0.1-0.2-0.2-0.2-0.2
	c-0.1-0.1,0.1-0.2,0.3-0.4c-0.2,0.2-0.5,0.5-0.6,0.7c-0.1-0.1-0.2-0.2-0.2-0.2c-0.1-0.1,0.1-0.2,0.3-0.4C20.1,4.2,20.2,4,20,4.1
	c-0.2,0.2-0.3,0.3-0.5,0.5c0.6-0.7,0.6-1.3,0.4-1.5c-0.1,0.2-0.3,0.1-0.4,0.3c0.3-0.7,0.6-1.4-0.1-0.8c-2.7,2.6-5.3,5.3-7.9,8.1
	c-1-1.1-2-2.1-3-3C8,7.2,7.4,6.1,6.7,6c0.2,0.2,0.3,0.4,0.5,0.5C6.6,6.2,6.2,5.5,5.7,5C5.6,5.1,5.5,5.2,5.3,5
	c0.3,0.4,0.9,0.8,1.2,1.2L6.3,6.4C5.9,6.1,5.5,5.5,5.1,5.2C5,5.3,4.9,5.4,4.9,5.4C4.8,5.5,4.6,5.3,4.5,5.1C4.6,5.3,5,5.7,5.2,5.8
	C5.1,5.9,5,6,4.9,6C4.9,6.1,4.7,5.9,4.5,5.7C4.4,5.9,4.1,5.8,4.2,6c0.2,0.2,0.3,0.4,0.5,0.5C4,5.9,3.4,5.8,3.2,6
	c0.2,0.1,0.1,0.3,0.3,0.4C2.8,6,2.1,5.7,2.7,6.5c2.1,2.3,4.2,4.5,6.4,6.8c-2.1,2.3-4.2,4.6-6.4,6.8c-0.3,0.4,0,0.3,0.1,0.4
	c0.6-0.7,1.2-1.4,1.8-1.7c0.2-0.2,0.1,0.4,0.3,0.3c0.2-0.2,0.5-0.5,0.6-0.7C6,18.5,5.8,19,6.2,19c0.3,0,0.9-0.8,1.1-0.8
	c0.6-0.4-0.1,0.5-0.6,1c0.3-0.1-0.3,0.3-0.2,0.4c0.2,0.2,0.5,0.4,1.3,0c0.2-0.1,0.2,0.2,0.3,0.3c1.2-1.2,2.5-2.6,3.7-3.9
	c3,3.1,6.1,6.1,9.1,9.2c0.4,0.3,0.3,0,0.5-0.1C20.7,24.3,19.9,23.7,19.5,23z"/>
</svg>
