<?xml version="1.0" encoding="utf-8"?>
<!-- Generator: Adobe Illustrator 21.1.0, SVG Export Plug-In . SVG Version: 6.00 Build 0)  -->
<svg version="1.1" id="Layer_1" xmlns="http://www.w3.org/2000/svg" xmlns:xlink="http://www.w3.org/1999/xlink" x="0px" y="0px"
	 viewBox="0 0 426 177" style="enable-background:new 0 0 426 177;" xml:space="preserve">
<style type="text/css">
	.st0{fill-rule:evenodd;clip-rule:evenodd;fill:#297EAC;}
	.st1{fill-rule:evenodd;clip-rule:evenodd;fill:#D6A987;}
	.st2{fill-rule:evenodd;clip-rule:evenodd;fill:#DADADA;}
	.st3{fill-rule:evenodd;clip-rule:evenodd;fill:#926B50;}
	.st4{fill-rule:evenodd;clip-rule:evenodd;fill:#664A34;}
	.st5{fill-rule:evenodd;clip-rule:evenodd;fill:#B99279;}
	.st6{fill-rule:evenodd;clip-rule:evenodd;fill:#49321F;}
	.st7{fill-rule:evenodd;clip-rule:evenodd;fill:#85888C;}
	.st8{fill-rule:evenodd;clip-rule:evenodd;fill:#EABA8C;}
	.st9{fill-rule:evenodd;clip-rule:evenodd;fill:#B68B6C;}
	.st10{fill-rule:evenodd;clip-rule:evenodd;fill:#926F4E;}
	.st11{fill-rule:evenodd;clip-rule:evenodd;fill:#E4B286;}
	.st12{fill-rule:evenodd;clip-rule:evenodd;fill:#DCAB81;}
	.st13{fill-rule:evenodd;clip-rule:evenodd;fill:#A57A59;}
	.st14{fill-rule:evenodd;clip-rule:evenodd;fill:#26AFDE;}
	.st15{fill-rule:evenodd;clip-rule:evenodd;fill:#678CAF;}
</style>
<g>
	<g>
		<path class="st0" d="M255.2,30c6.5,0,13.1,0,19.6,0c0.4,0.3,0.8,0.5,1.1,0.8c0,2.9-0.1,5.7-0.1,8.6c0,3.8,0.2,39.8,0.2,44
			c-0.1,1.5-0.1,2.9-0.3,4.4c-0.1,0.7-0.7,1.2-1.1,1.9c-4.6,0.1-9.2,0.1-13.8,0.2c-1.9-0.2-33.5-0.1-38.6-0.1
			c-1.6-0.1-3.2-0.2-5.3-0.3c0-3.7,0-7.3,0-10.9c0-3.2,0-6.4,0-9.9c-5.1,1-10.1,1.5-15-0.3c-6.9-4.2-5.7-15.4-0.6-18.3
			c3.9-2.2,8-1.9,12.2-1.4c1,0.1,2.1,0.3,3.4,0.5c0-3.4,0-6.4,0-9.5c0-3,0-6,0-9.2c6.6,0,13.1,0,19.8,0"/>
		<path class="st1" d="M273,110.6c-4.4-1.4-8.9-2.8-13.4-4.2c-1-0.3-2.1-0.4-3.1-0.6c-4.8-2.1-5.9-3.6-5.1-7.5
			c0.1-0.4,0.5-0.6,0.8-1c-0.3,2.2,0.9,2.7,2.8,2.7c3,0,6,0.2,9,0.5c4.2,0.5,7.7,3.8,8.5,8C272.8,109.1,272.9,109.8,273,110.6z"/>
		<path class="st1" d="M294.5,15.8c-1.9,0.6-3.9,1-5.7,1.7c-5.4,2.2-10.8,3.5-16.5,1.5c1.6-2.9,4.1-4.4,7.4-4.2
			C284.7,15,289.6,15.4,294.5,15.8z"/>
		<path class="st2" d="M387.3,168.6c-0.4-0.2-0.7-0.3-1.1-0.5c-0.6-0.4-1.2-0.8-1.8-1.2c2.2-4.3,4.3-8.7,6.6-13
			c6.4-11.7,12.8-23.4,19.2-35.1c1.3-2.4,3-4.5,4.5-6.7c-3,6.3-5.9,12.6-8.9,18.9c-5.7,11.9-11.4,23.8-17.2,35.6
			C388.4,167.4,387.8,168,387.3,168.6z"/>
		<path class="st3" d="M302,89c0.8,0.4,1.8,0.5,2.7,0.7c-0.8,0.7-1.5,1.5-2.3,2.1c-0.6,0.5-1.3,0.8-2,1.1c-0.3,0-0.7,0-1,0
			c-0.9,0.3-1.8,0.6-2.7,1c-0.2,0-0.4,0.1-0.5,0.1c-1.4-0.1-2.8,0-4.1-0.3c-2.4-0.5-4.8-1.1-7.1-2c-1-0.4-1.8-1.4-2.7-2.1
			c0.7-0.7,1.4-1.4,2-2.1c2.7-3.3,4.4-6.9,4.4-11.2c2.8-1.6,5.6-3.2,8.3-4.9c1.4-0.9,2.7-2.1,4-3.1c1-0.4,2.2-0.6,3.1-1.2
			c7.9-5.8,16.9-8.4,26.4-9.5c1.4-0.3,2.9-0.7,4.3-1c2.9-0.3,5.7-0.7,8.6-1c1.1,0.3,0.9-0.1,2.1,0l2.5-0.4c1.2,0.7,1.3,1.3,2.5,2
			c0.2-0.2-1,0-0.8-0.1c1.3,4.1,2.6,8.3,3.8,12.4c-8,3-16.1,5.9-24.1,9c-4.1,1.6-8.1,3.6-12.1,5.4c-1,0.5-1.9,1.1-2.8,1.6
			c-1.5-0.1-2.7,0-3.3,1.9c-0.2,0.6-1.4,0.9-2.1,1.3"/>
		<path class="st3" d="M322.4,102c-2.8,1.4-5.1,1.4-7.6-1c-1.3-1.2-3.6-1-5.4-1.8c-0.9-0.4-1.7-1.4-2.5-2.1c2.1-2.1,4.3-4.3,6.4-6.4
			c0.3-0.4,0.7-0.7,1-1.1l0,0c0.4-0.7,0.7-1.4,1.1-2.1c7.5-3.7,15-7.6,22.7-10.9c4.9-2.1,10.2-3.5,15.3-5.1c0.2,1.1,0.4,2.2,0.5,3.2
			c-3.3,2.8-6.5,5.7-9.8,8.5c-5.6,4.6-11.3,9.1-16.8,13.8C325.6,98.5,322.6,98.9,322.4,102z"/>
		<path class="st4" d="M409.5,102.5c-6.1,12.8-12.3,25.6-18.4,38.4c-3,6.2-6,12.4-9,18.7c-1.3-0.5-2.6-0.9-3.9-1.4
			c-0.8-0.3-1.6-0.6-2.4-0.9c3.5-5.7,7-11.4,10.5-17.2c6.2-10.3,12.4-20.6,18.7-30.9C406.4,106.9,408,104.8,409.5,102.5z"/>
		<path class="st5" d="M288.6,76.2c0,4.3-1.7,8-4.4,11.2c-0.6,0.8-1.3,1.4-2,2.1c-2.5,1.8-5,0.7-7.5,0c0.4-0.6,1-1.2,1.1-1.9
			c0.2-1.4,0.2-2.9,0.3-4.4C280.3,81,284.4,78.6,288.6,76.2z"/>
		<path class="st6" d="M353.4,71.5c-5.1,1.7-10.4,3-15.3,5.1c-7.7,3.3-15.1,7.3-22.7,10.9c-0.4-0.7-0.7-1.4-1.1-2.1
			c0.9-0.5,1.9-1.2,2.8-1.6c4-1.9,8-3.8,12.1-5.4c8-3.1,16.1-6,24.1-9C353.4,70,353.4,70.7,353.4,71.5z"/>
		<path class="st5" d="M313.3,90.7c-2.1,2.1-4.3,4.3-6.4,6.4c-3.4-0.4-9.8-2.5-9.7-2.2c0,0.1-0.1,0.1-0.1,0.2c0-0.1,0.1-0.1,0.1-0.2
			c0.7-0.7,2.8-2.1,3.2-2.1c-0.2,0.6-0.4,1.2-0.7,2.1c4.5-2.2,8.6-4.2,12.7-6.3c1.1-0.5,1.9-0.8,1.8,0.9l0,0
			C314,90,313.7,90.4,313.3,90.7z"/>
		<path class="st7" d="M340,43.6c-0.3-0.4-0.7-0.8-1-1.2C339.3,42.9,339.7,43.2,340,43.6z"/>
		<path class="st6" d="M314.3,89.6c0.1-1.7-0.8-1.4-1.8-0.9c-4.1,2.1-8.3,4.1-12.7,6.3c0.3-0.9,0.5-1.5,0.7-2.1
			c0.7-0.4,1.4-0.7,2-1.1c0.8-0.6,1.6-1.4,2.3-2.1c1.4-0.4,2.9-0.7,4.3-1.1c0.7-0.4,1.9-0.7,2.1-1.3c0.5-1.8,1.8-2,3.3-1.9
			c0.4,0.7,0.7,1.4,1.1,2.1C315.1,88.2,314.7,88.9,314.3,89.6z"/>
		<path class="st6" d="M309,88.6c-1.4,0.4-2.9,0.7-4.3,1.1c-0.9-0.2-1.9-0.3-2.7-0.7c-0.5-0.2-0.6-1.1-0.9-1.7
			c0.6-0.3,2.3,0.9,2.8,1.1C306,88.9,307,87.9,309,88.6z"/>
		<path class="st8" d="M313.3,90.7c0.3-0.4,0.7-0.7,1-1.1C314,90,313.7,90.4,313.3,90.7z"/>
		<path class="st9" d="M345.4,52.7L345.4,52.7c-1.8-3-3.6-6.1-5.4-9.1c-0.3-0.4-0.7-0.8-1-1.2c-0.3,0-0.7-0.1-1-0.1
			c-3.9-0.2-7.9-0.5-11.8-0.7c-8.9-1.1-17.9-2-26.8-3.3c-7.6-1-15-3.2-22-6.5c-0.5-0.3-1-0.7-1.4-1c-0.4-0.3-0.8-0.5-1.1-0.8
			c-2.6-3.3-5.1-6.5-2.5-11c5.7,2,11.2,0.7,16.5-1.5c1.8-0.7,3.8-1.2,5.7-1.7c10.7,0.7,21.4,1.4,32.1,2.1c4.8,0.3,9.7,0.7,14.5,1.2
			c2.9,0.3,5.8,0.7,8.7,1.2c0.9,0.2,1.9,1,2.6,1.8c2.9,3.1,5.6,6.4,8.5,9.4c4.7,5,9.7,9.8,14.4,14.7c3.2,3.3,6.1,6.8,9.3,10.1
			c1.3,1.4,2.9,2.5,4.4,3.7c4.5,3.6,6.8,8.8,9.6,13.7c3.8,6.7,8,13.2,12,19.7c0.5,0.9,1,1.8,1.6,2.7c-0.9,2.1-1.8,4.2-2.7,6.3
			c-1.5,2.2-3.1,4.4-4.5,6.7c-6.3,10.3-12.5,20.6-18.7,30.9c-3.5,5.7-7,11.5-10.5,17.2c-2.9-0.6-5.7-1.1-8.5-1.9
			c-7.8-2.2-15.6-4.4-23.3-6.9c-8.8-2.9-17.3-6.5-24.6-12.5c-5.5-4.5-11.5-8.6-17.8-12c-9.3-4.9-18.9-9-28.4-13.5
			c-0.1-0.7-0.3-1.4-0.4-2.2c-0.9-4.2-4.3-7.5-8.5-8c-3-0.3-6-0.5-9-0.5c-2,0-3.1-0.5-2.8-2.7c1-3.5,3.5-5.5,6.8-6.6
			c0.7-0.2,1.2-0.6,1.9-0.9c4.6-0.1,9.2-0.1,13.8-0.2c1.7-0.3,0.2-0.3,7.5,0c0.9,0.7,5.3,2,6.3,2.3c2.3,0.8,2.2,1,4.6,1.6
			c1.3,0.3,2.4,0.9,3.8,1c1.6,0.3,3.2,0.9,3.5,0.9c3.4,0.5,3.3,0.7,6.4,1.7c0.8,0.7,2.5,1.2,3.5,1.6c1.7,0.7,3.1,1.1,4.3,2.2
			c2.5,2.3,4.9,2.4,7.6,1c0.6,0.1,1.3,0.4,1.6,0.1c2.7-1.7,5.5-3.3,8-5.3c5.9-4.8,11.8-9.7,17.4-14.8c2.1-1.9,5.1-3.6,4.5-7.3
			c-0.2-1.1-0.4-2.2-0.5-3.2c0-0.7,0-1.4,0-2.1c-1.3-4.1-2.6-8.3-3.8-12.4"/>
		<path class="st6" d="M320.4,102.9c0.2-3.1,5.2-4.5,7-6c5.5-4.7,11.2-9.2,16.8-13.8c3.3-2.8,6.6-5.6,9.8-8.5
			c0.5,3.7-2.4,5.4-4.5,7.3c-5.7,5.1-11.5,10-17.4,14.8c-2.5,2-5.3,3.6-8,5.3C323.6,102.3,321,103,320.4,102.9z"/>
	</g>
	<g>
		<path class="st4" d="M165.8,92.5c-1.4,1-2.7,2.1-4,3.4c-1.9,1.9-3,4.4-4.4,6.8c-0.9,1.5-1.6,3.1-2.4,4.7
			c-3.5,6.6-10.9,7.6-16.3,2.3c-0.2-0.2-0.4-0.3-0.7-0.4c-1-1.8-2.6-1.9-4.4-1.3L165.8,92.5z"/>
		<path class="st10" d="M170.2,68c-2.5-0.8-5.1-1.5-7.6-2.3c-3.4,0.4-6.2,2.1-9.1,3.9c-4.4,2.7-9.3,4.9-14.1,6.7
			c-9.3,3.6-18.8,7-28.3,10.2c-6.4,2.2-12.8,3.9-19.3,5.9c-0.1-0.2-0.2-0.5-0.3-0.7c3.4-1.7,6.6-3.7,10.1-5
			c3.6-1.4,7.4-2.2,11.6-3.4c-3.5-5.8-7.5-10.7-12.3-14.9c0.2-0.2,0.3-0.4,0.5-0.6c1.9,1.3,3.8,2.5,5.8,3.8c9.3-6.7,20-8.8,31-9.6
			v-3.5c0.3,0,0.6,0,0.9-0.1c0.3,4.9,0.7,9.9,1.1,15.4c3.2-1.6,6.3-3.1,9.3-4.7c3.7-1.9,7.4-3.8,11.2-5.6c-1.1-2.2-2-4.5-3.3-6.5
			c-2.7-4.1-5.7-8-8.4-12.1c-2.5-3.7-6-6.2-10.2-7.5c-6.7-2-13.3,0.5-19.9,1.5c-5.1,0.8-10.1,2.5-15.2,3.8
			c-4.6,1.2-9.1,2.3-13.7,3.6c-5.6,1.6-11.1,3.3-16.6,5c-2.7,0.8-5.6,1.3-7.8,2.9c-7.7,5.4-15.1,11.2-22.5,17
			c-8.5,6.5-16.9,13.2-25.4,19.7c-2.1,1.6-4.4,2.9-6.6,4.3c8.1,16.5,16.2,33.1,24.3,49.6c1.5,3.1,3,6.2,4.5,9.3
			c5.3-0.7,10.5-1.3,15.8-2.2c8.8-1.4,17.3-3.9,25.5-7.7c0.2-0.1,0.4-0.2,0.5-0.3l0,0c1.6-0.7,3.2-1.5,4.8-2.2
			c3.8-3.9,7.6-7.9,11.5-11.7c4.2-4.1,8.2-8.5,12.9-11.8c4.7-3.2,10.2-5.2,15.4-7.6c2.5-1.1,5.1-1.9,7.7-2.8l32-15.3l0,0
			c1.5-1.1,3-2.2,4.5-3.3c1.5-2.8,3.4-5.4,4.3-8.3C176.2,75.7,173.8,71.6,170.2,68z M164.1,89.3c-1.9,1.1-4.2,1.2-5.6-0.8
			c-2.2-3.1-4.3-6.4-6.1-9.9c-1-1.9-0.6-4,1.7-5.2c2-1.1,3.9-2.5,6-3.4c6.1-2.6,11.2,0.9,11.2,9.5C171.1,83,168.5,86.8,164.1,89.3z"
			/>
		<path class="st6" d="M138.1,62c0-1.2,0-2.3,0-3.5c0.3,0,0.6,0,0.9-0.1c0.3,4.9,0.7,9.9,1.1,15.4c3.2-1.6,6.2-3.1,9.3-4.7
			c3.7-1.9,7.4-3.8,11.2-5.6c0.7,0.7,1.4,1.4,2,2.1c-3.4,0.4-6.2,2.1-9.1,3.9c-4.4,2.7-9.3,4.9-14.1,6.7c-9.3,3.6-18.8,7-28.3,10.2
			c-6.4,2.2-12.9,3.9-19.3,5.9c-0.1-0.2-0.2-0.5-0.3-0.7c3.4-1.7,6.6-3.7,10.1-5c3.6-1.4,7.4-2.2,11.6-3.4
			c-3.5-5.8-7.5-10.7-12.3-14.9c0.2-0.2,0.3-0.4,0.5-0.6c1.9,1.3,3.8,2.5,5.8,3.8c3.3,3.1,6.6,6.1,10,9.1c0.5,0.5,1.6,0.8,2.3,0.6
			c4.1-1.3,8.2-2.8,12.4-4c2.9-0.9,5.1-2.2,5.3-5.7C137.1,68.4,137.7,65.2,138.1,62z"/>
		<path class="st2" d="M34,160.6c0.4-0.2,0.7-0.3,1.1-0.5c0.6-0.4,1.2-0.8,1.8-1.2c-2.2-4.3-4.3-8.7-6.6-13
			c-6.4-11.7-12.8-23.4-19.2-35.1c-1.3-2.4-3-4.5-4.5-6.7c3,6.3,5.9,12.6,8.9,18.9c5.7,11.9,11.4,23.8,17.2,35.6
			C32.8,159.4,33.5,160,34,160.6z"/>
		<path class="st4" d="M86.2,141.8c3.8-3.9,7.6-7.9,11.5-11.7c4.2-4.1,8.2-8.5,12.9-11.8c4.7-3.2,10.2-5.2,15.4-7.6
			c2.5-1.1,5.1-1.9,7.7-2.8c1.8-0.6,3.3-0.5,4.4,1.3c-1.1,2.2-2,4.6-3.5,6.6c-4.6,6.6-7.5,8.1-14.6,7.1c-0.7-0.1-1.6,0.8-2.4,1.3
			c-2.7-0.2-2,1.7-2.1,3.2c-1.7,4.1-5,6.7-9.3,6.3c-4.6-0.4-6.5,1.9-8.4,5.3c-1.2,2.2-2.5,4.4-5.2,5.1c-1.1-0.2-2.2-0.3-3.2-0.7
			C88.3,142.9,87.3,142.3,86.2,141.8z"/>
		<path class="st6" d="M86.2,141.8c1.1,0.5,2.2,1.2,3.3,1.6c1,0.4,2.1,0.5,3.2,0.7c-2.6,2.1-5.4,1.9-8.3,0.8
			c-0.9-0.4-1.9-0.5-2.9-0.8C83,143.2,84.6,142.5,86.2,141.8z"/>
		<path class="st11" d="M115.6,127.3c0.1-1.5-0.6-3.4,2.1-3.2C117,125.2,116.3,126.2,115.6,127.3z"/>
		<path class="st12" d="M80.9,144.3c0.2-0.1,0.4-0.2,0.5-0.4C81.2,144.1,81,144.2,80.9,144.3z"/>
		<path class="st4" d="M138.1,62c-0.4,3.2-0.9,6.4-1.1,9.6c-0.2,3.5-2.3,4.8-5.3,5.7c-4.1,1.3-8.2,2.8-12.4,4
			c-0.7,0.2-1.8-0.1-2.3-0.6c-3.4-3-6.7-6.1-10-9.1C116.3,65,127,62.9,138.1,62z"/>
		<path class="st13" d="M171.3,79.6c-0.1,3.4-2.7,7.2-7.2,9.8c-1.9,1.1-4.2,1.2-5.6-0.8c-2.2-3.1-4.3-6.4-6.1-9.9
			c-1-2-0.6-4,1.7-5.2c2-1.1,3.9-2.5,6-3.4C166.1,67.4,171.3,71,171.3,79.6z"/>
		<path class="st14" d="M217.4,68.4v20.8c-7.3,0-44.9-0.1-47.1-0.1c1.5-2.8,3.4-5.4,4.3-8.3c0.7-2.1-1.7-7.4-4.8-12.9h0
			c-4.6-0.6-7.6-2.5-7.6-2.5l-2-2.5l-2.2-4.6v-6l0-3.5v-1c0-5,0.1-10,0-15c0-1.7,0.5-2.3,2.3-2.3c5.2,0.1,10.3,0,15.5,0
			c1,0,35.3-0.1,41.5-0.1c0,3,0.1,6.1,0.2,9.1v9.2c-2.7-0.4-5.7-0.8-6.9-0.8c-1.3,0-2.4,0.1-5,0.6c-4.2,0.1-6.4,4.3-7,8
			c-0.9,5.8,1,10.3,5.4,11.7C207.8,69.1,210.7,69.9,217.4,68.4z"/>
	</g>
	<path class="st15" d="M417.6,168.5c-0.4,0.8-0.8,1.6-1.2,2.4c0-0.9,0-1.8,0-2.7c0,0,0.2-0.2,0.2-0.2
		C416.9,168.2,417.2,168.3,417.6,168.5z"/>
	<path class="st15" d="M238.7,38.4c-0.1-0.2-0.1-0.4-0.2-0.6C238.6,38,238.6,38.2,238.7,38.4z"/>
</g>
</svg>
